<svg xmlns="http://www.w3.org/2000/svg" width="34.5" height="34.5" viewBox="0 0 34.5 34.5">
  <g id="Group_95" data-name="Group 95" transform="translate(-1956.575 -7841)">
    <path id="Path_257" data-name="Path 257" d="M2167.117,7931.292l-1.187.637-1.216.2h-.9l-.84-.2-1.1-.637-1.476-2.026-.232-2.4,1.307-2.117,1.272-.88,2.495-.2,1.223.2,1.272,1.223.881,1.468.293,1.663-.293,1.517-.881,1.027Z" transform="translate(-190.648 -77.413)" fill="#f16136" stroke="#707070" stroke-width="1"/>
    <path id="Path_258" data-name="Path 258" d="M1980.962,8204.307h-5.343l-1.844-3.26-.263-.864v-1.167l-.9-.64-5.193-2.371v-3.273h9.483l1.091.564,1.129,1.354,1.994,2.559Z" transform="translate(-10.151 -329.363)" fill="#f16136"/>
    <path id="Path_252" data-name="Path 252" d="M108.239,239.894h-2.394l-5.008-3.339h-.388v1.669H98.933l-2.782,1.669H87.327l-2.46-4.3v-1.459l-6.121-2.782v-8.874l2.485-3.727,2.111.019,6.226,1.66L89.28,221.5l-6.155-1.642h-1.3l-1.967,2.951v7.82l6.121,2.782v1.88l1.992,3.487h7.87l2.782-1.669h.71v-1.669h1.838l5.008,3.339h.944v-1.538l-1.157-2.315.756-2.269h2.4l1.343-1.343V225.8l1.669-2.226v-2.6H111.3l-1.669,2.226h-1.692l-3.339,3.9h-3.038v-2.467l-1.062-.637.573-.954,1.6.962v1.984h1.414l3.339-3.9h1.647l1.669-2.226h2.5v4.08l-1.669,2.226v5.61l-2,2h-2.055l-.357,1.07,1.068,2.137Z" transform="translate(1877.829 7635.605)" fill="#fff"/>
    <path id="Path_253" data-name="Path 253" d="M210.71,32.68a2.7,2.7,0,0,1-2.207-1.149l-5.546-7.923a9.46,9.46,0,1,1,15.506,0l-5.546,7.923A2.7,2.7,0,0,1,210.71,32.68Zm.018-22.815a8.328,8.328,0,0,0-6.86,13.1l5.546,7.923a1.581,1.581,0,0,0,2.59,0l5.546-7.923a8.329,8.329,0,0,0-6.823-13.1Z" transform="translate(1763.116 7832.247)" fill="#fff"/>
    <path id="Path_254" data-name="Path 254" d="M240.95,53.149a4.7,4.7,0,1,1,4.7-4.7A4.705,4.705,0,0,1,240.95,53.149Zm0-8.676a3.977,3.977,0,1,0,3.977,3.977A3.981,3.981,0,0,0,240.95,44.473Z" transform="translate(1732.876 7802.01)" fill="#fff"/>
    <path id="Path_255" data-name="Path 255" d="M101.965,362.243h-1.113v-7.025l-3.591-4.1H87.5V350H97.766l4.2,4.8Z" transform="translate(1869.635 7512.7)" fill="#fff"/>
    <path id="Path_256" data-name="Path 256" d="M315.71,347.371h-9.46v-1.113H314.6V341.25h1.113Z" transform="translate(1664.793 7520.895)" fill="#fff"/>
  </g>
</svg>
