<svg xmlns="http://www.w3.org/2000/svg" width="158.447" height="150" viewBox="0 0 158.447 150">
  <g id="Group_15" data-name="Group 15" transform="translate(-457.683 -3023)">
    <path id="Path_73" data-name="Path 73" d="M628.77,3117.2H621.9l-5.433-26.54V3070.6l6.687-25.077,9.613-12.12,5.224-3.344,5.642,3.344,7.732,6.687,5.642,12.956,2.09,5.643,2.09,7.732.836,8.359v8.359l-.836,7.523-2.09,9.822-2.09,15.046-8.986,1.672-2.3-1.672-2.09-15.046-3.552-3.552-4.806,1.044s-2.717,1.672-2.508,2.508a23.618,23.618,0,0,1,0,5.433c-.209.836-.418,4.179-.836,5.642s0,5.643,0,5.643Z" transform="translate(-103.559 -4.601)" fill="#f16136"/>
    <path id="Path_74" data-name="Path 74" d="M660.587,3139.923h-8.779l-3.957-3.092-4.7-4.081v-14.467l8.656-5.687,8.037-1.36,3.339,1.36,2.226,4.2s2.473,2.6,2.6,3.215,1.484,3.586,1.484,3.586v7.419l-1.484,3.215-2.6,3.215Z" transform="translate(-120.964 -57.548)" fill="#fff"/>
    <path id="Path_63" data-name="Path 63" d="M292.795,87.492A1.948,1.948,0,0,1,291,84.765c5.493-12.68,12.855-17.879,15.757-19.477a5.529,5.529,0,0,1,5.57,0c6.057,3.388,11.978,10.654,15.834,19.477a1.925,1.925,0,0,1-1.773,2.727Zm16.671-19.106a1.636,1.636,0,0,0-.837.234c-1.948,1.052-7.79,5.044-12.855,14.958h27.462c-5.005-9.914-11.044-13.867-12.874-14.9a1.93,1.93,0,0,0-.9-.292Z" transform="translate(225.49 2958.464)"/>
    <path id="Path_64" data-name="Path 64" d="M409.517,281.3a1.814,1.814,0,0,1-.72-.136l-18.308-7.206,1.5-3.623,17.918,7.051a2.925,2.925,0,0,0,2.24-1.792,3.564,3.564,0,0,0-.586-3.895l-.175-.194-16.575-23.372,3.175-2.24L414.5,269.267a7.4,7.4,0,0,1,1.189,7.965,6.682,6.682,0,0,1-6.175,4.07Z" transform="translate(160.499 2840.181)"/>
    <path id="Path_65" data-name="Path 65" d="M231.623,281.835a6.662,6.662,0,0,1-6.077-4.13,7.4,7.4,0,0,1,1.149-7.926l16.673-23.372,3.155,2.278-16.712,23.449-.156.175h0a3.523,3.523,0,0,0-.584,3.895A2.955,2.955,0,0,0,231.311,278l18.191-7.245,1.364,3.623-18.5,7.323a3.346,3.346,0,0,1-.739.137Z" transform="translate(268.51 2839.847)"/>
    <path id="Path_66" data-name="Path 66" d="M315.354,181.12a15.137,15.137,0,0,1-11.14-4.947,17.376,17.376,0,0,1-4.615-11.8c0-9.271,7.012-16.848,15.582-16.867h0a15.154,15.154,0,0,1,11.142,4.967,17.358,17.358,0,0,1,4.577,11.822c0,9.29-7.012,16.848-15.582,16.867Zm0-29.76a12.445,12.445,0,0,0-11.86,13.01,13.518,13.518,0,0,0,3.544,9.194,11.22,11.22,0,0,0,8.278,3.7,12.424,12.424,0,0,0,11.86-12.893,13.475,13.475,0,0,0-3.544-9.194,11.234,11.234,0,0,0-8.278-3.816Z" transform="translate(219.777 2904.353)"/>
    <path id="Path_67" data-name="Path 67" d="M318.332,296.529a1.948,1.948,0,0,1-1.948-2.122l2.96-31.416a1.949,1.949,0,0,1,1.948-1.754h10.3a1.947,1.947,0,0,1,1.947,1.754l3.117,31.376a1.939,1.939,0,0,1-1.928,2.143h-16.38Zm4.752-31.4-2.708,27.5h12.1l-2.727-27.481Z" transform="translate(208.835 2830.175)"/>
    <path id="Path_68" data-name="Path 68" d="M282.461,191.783a1.949,1.949,0,0,1-1.948-1.4c-6.213-21.25-7.79-40.122-4.6-56.072h0a68.379,68.379,0,0,1,4.206-13.633,1.948,1.948,0,0,1,1.792-1.168h33.6a1.946,1.946,0,0,1,1.772,1.149,63.68,63.68,0,0,1,4.364,13.769c3.213,15.932,1.753,34.766-4.343,55.957h0a1.949,1.949,0,0,1-1.948,1.4h-9.388a1.948,1.948,0,0,1-1.948-1.753l-1.694-17.276h-6.8l-1.617,17.295a1.948,1.948,0,0,1-1.948,1.753h-9.524Zm.818-68.422a65.334,65.334,0,0,0-3.467,11.685c-2.979,14.958-1.6,32.72,4.11,52.782h6.271l1.636-17.295h0a1.948,1.948,0,0,1,1.948-1.753H304.1a1.947,1.947,0,0,1,1.947,1.773l1.694,17.276h6.233c5.589-20,6.895-37.725,3.895-52.705h0a59.994,59.994,0,0,0-3.6-11.841Z" transform="translate(236.272 2922.612)"/>
    <path id="Path_69" data-name="Path 69" d="M435.429,435.749H376.046v-3.895h57.181c-1.617-12.212-5.493-19.633-11.511-22.126-9.738-3.895-22.262,6.037-22.379,6.135h0a1.942,1.942,0,0,1-2.922-.546c-2.629-4.558-5.843-7.109-9.388-7.577-6.584-.857-12.776,5.259-12.834,5.317a1.947,1.947,0,0,1-2.941-.194c-3.7-4.928-6.6-3.895-7.557-3.682l-1.208-3.622c2.687-.876,6.563-.876,10.556,3.428,2.649-2.142,8.257-5.843,14.491-5.044a15.911,15.911,0,0,1,11.1,7.673c4.208-2.921,15.075-9.329,24.579-5.414,7.79,3.213,12.542,12.465,14.14,27.462a1.948,1.948,0,0,1-1.948,2.162Z" transform="translate(178.761 2737.174)"/>
    <path id="Path_70" data-name="Path 70" d="M180.11,435.608H124.153a1.941,1.941,0,0,1-1.929-2.142c1.558-15.231,6.233-24.521,13.887-27.6,9-3.622,19.145,2.551,23.2,5.472,2.96-4.519,6.563-7.089,10.712-7.615,5.94-.778,11.238,2.844,13.809,4.986,3.7-4.11,7.323-4.208,9.738-3.467l-1.129,3.74c-.857-.253-3.467-1.033-6.876,3.7h0a1.948,1.948,0,0,1-2.979.215s-5.96-6.116-12.154-5.317c-3.409.448-6.427,3-8.939,7.577a1.948,1.948,0,0,1-2.96.545c-.117,0-11.9-9.914-21.054-6.213-5.843,2.357-9.641,9.738-11.219,22.222h53.853Z" transform="translate(335.469 2737.314)"/>
    <path id="Path_71" data-name="Path 71" d="M324.245,401.659H285.017a1.948,1.948,0,1,1,0-3.9c4.168,0,8.3-9.329,11.063-24.93,1.481-8.395,2.182-16.3,2.416-19.32a2.1,2.1,0,0,1,1.947-1.948h8.395a1.95,1.95,0,0,1,1.948,1.812c.175,2.376.857,10.615,2.435,19.574,2.766,15.582,6.895,24.872,11.044,24.872h0a1.948,1.948,0,0,1,0,3.9Zm-32.467-3.895h25.729c-3.35-4.343-6.037-12.367-8.141-24.19-1.325-7.557-1.948-14.607-2.337-18.152h-4.793c-.332,3.895-1.052,10.79-2.337,18.054-2.084,11.881-4.773,19.925-8.122,24.287Z" transform="translate(230.559 2771.263)"/>
    <path id="Path_72" data-name="Path 72" d="M328.27,357.036V357h3.895Z" transform="translate(201.078 2767.72)"/>
  </g>
</svg>
