<?xml version="1.0" encoding="utf-8"?>
<!-- Generator: Adobe Illustrator 26.3.1, SVG Export Plug-In . SVG Version: 6.00 Build 0)  -->
<svg version="1.1" id="Layer_1" xmlns="http://www.w3.org/2000/svg" xmlns:xlink="http://www.w3.org/1999/xlink" x="0px" y="0px"
	 viewBox="0 0 372.4 375.6" style="enable-background:new 0 0 372.4 375.6;" xml:space="preserve">
<style type="text/css">
	.st0{fill:#FFFFFF;}
</style>
<path class="st0" d="M50.5,14.7C29.8,35.4,8.8,63.6,4.2,90.3C4.9,146.2,53.5,207,109.8,263.2c27.8,27.8,58,55.8,87.7,76.1
	c29.7,20.3,59.3,34,87.6,29.7c24.9-2.7,55.6-28.9,74.3-46.4c12.3-12.3,11.4-35.2,0-47L312,228.3c-14.6-12.1-33.6-11.5-48.9-3.8
	l-31.9,23.3c-8,2.9-17.1-4.3-22.5-8.2c-12.9-9.2-27.6-23.6-39.5-35.4c-12.1-12.1-26.7-25.9-35.8-38.2c-6-7.7-9.8-16-7.7-23.9
	c8-11,16.4-22.2,24.1-33.2c7-15.6,6.7-35.6-4.2-47l-47.2-47C82.2,2,66.2,3.6,50.5,14.7L50.5,14.7z M82.7,30.6l47,47.1
	c4.2,6.7,2.6,13.3,0.3,20.4l-22.3,30.7c-10.4,18.3-2.9,36.2,7.7,50.6c11.1,14.9,26.5,28.9,38.1,40.5c11.9,11.9,26.9,27.2,42.1,38.1
	c14.1,10,34.1,17.7,48.9,7.9c10.1-7.5,20.3-14.9,30.4-22.4c7.9-3.1,14.2-3,21.3,0.7l47.2,47.1c3.4,5.4,2.8,9.5,0.4,15
	c-19.7,14.6-39.8,36.3-62.2,40.7c-18.3,2.7-43.9-7.3-71.5-26.2c-27.7-18.9-57-46-84.4-73.3C71.3,193.1,28,133.1,26.8,91
	c3.3-17,18-37.6,39.1-60.1C72.1,26.3,76.5,27.6,82.7,30.6L82.7,30.6z"/>
</svg>
