<?xml version="1.0" encoding="UTF-8"?><svg id="Layer_2" xmlns="http://www.w3.org/2000/svg" viewBox="0 0 119.92 50.17"><defs><style>.cls-1{fill:#fff;}</style></defs><g id="Layer_2-2"><path class="cls-1" d="M49.49,.71c-11.4,1.68-23.2,3.59-33.25,9.59C9.47,14.35,1.63,21.17,.2,29.38c-1.74,9.97,8.1,15.88,16.37,17.91,11.58,2.84,23.93,3.34,35.78,2.56,12.09-.79,24.07-3.1,35.67-6.6,8.87-2.67,18.36-5.82,25.19-12.37,5.32-5.11,9.04-13.79,5.01-20.8C113.89,2.52,101.79,1.63,94.15,.72,69.72-2.2,44.69,3.86,24.19,17.42c-1.14,.75-.07,2.59,1.07,1.83C40.43,9.22,58,3.31,76.17,2.28c8.9-.51,17.87,.12,26.58,1.99,4.57,.98,9.77,2,12.83,5.82,3.73,4.65,2.19,11.48-.97,16-4.81,6.88-13.32,10.53-20.99,13.16-9.04,3.1-18.35,5.49-27.79,6.99-10.23,1.62-20.64,2.23-30.98,1.56-9.49-.61-23.55-1.19-30.06-9.22C-3.76,28.02,9.77,15.91,18.44,10.94,27.98,5.48,38.97,3.35,49.59,1.09c.25-.05,.14-.41-.1-.38h0Z"/></g></svg>