<svg xmlns="http://www.w3.org/2000/svg" width="213.904" height="152" viewBox="0 0 213.904 152">
  <g id="Group_37" data-name="Group 37" transform="translate(-1369.737 -1443)">
    <path id="Path_173" data-name="Path 173" d="M1457.036,1546.461l16.917-10.068,6.758-6.292,10.486-17.943,3.961-16.079v-20.04l-1.4-7.457h-5.825l-7.224-1.631-5.593-1.4-5.126-2.1-7.923-3.729-6.059-4.427-2.8,3.029-15.146,7.224-7.224,3.029h-12.583l-1.631,14.68v12.816l1.631,6.292,1.165,2.8v3.729l1.165,3.262,1.165,1.631,1.4,2.33,1.4,2.33v1.864s-.233-.7,1.631,2.1a16.888,16.888,0,0,0,2.563,3.5c1.631,1.864-.233.932,2.1,3.029s3.262,3.728,4.66,4.894.466,1.4,2.563,2.563,3.262,1.864,4.427,2.563-1.631-.7,3.262,1.631,6.059,2.8,7.457,3.728S1457.036,1546.461,1457.036,1546.461Z" transform="translate(20.638 5.414)" fill="#f16136"/>
    <path id="Path_174" data-name="Path 174" d="M1459.183,1515.325s-13.152.212-13.47,0-8.8,0-8.8,0a1.921,1.921,0,0,1-1.379-1.273,15.142,15.142,0,0,1-.848-4.455c-.212-2.758-.742-5.939-.742-7.531s-.955-1.061,0-3.076.848-6.576,1.591-7.424,1.909-1.8,1.909-2.333-.212.743,0-1.7-1.167-1.167,0-4.031,2.651-8.7,3.076-9.546-1.273-.636,2.545-1.591,3.182-.955,5.515-.955,2.97-.318,3.924,0,1.167.742,2.228,1.485.212-.212,2.121,2.121,2.333,2.121,2.333,3.394-.53,1.379,0,2.758a6.134,6.134,0,0,1,.742,2.97,34.6,34.6,0,0,1-.742,5.939,8.048,8.048,0,0,1,1.379.849c.318.318,1.379,1.061,1.485,1.7a12.3,12.3,0,0,1,0,2.015c0,1.167.212-3.606,0,2.121s.212,4.667,0,8.167.212,4.879,0,5.727.53,2.439,0,3.394S1459.183,1515.325,1459.183,1515.325Z" transform="translate(28.07 12.443)" fill="#fff"/>
    <g id="Group_36" data-name="Group 36" transform="translate(1369.737 1443)">
      <path id="Path_166" data-name="Path 166" d="M334.053,260.347H312.626a5.83,5.83,0,0,1-5.764-5.764v-19.3a5.723,5.723,0,0,1,5.764-5.639h21.428a5.615,5.615,0,0,1,5.639,5.639v19.3A5.723,5.723,0,0,1,334.053,260.347Zm-21.428-25.689a.7.7,0,0,0-.752.627v19.3a.809.809,0,0,0,.752.752h21.428a.7.7,0,0,0,.627-.752v-19.3a.592.592,0,0,0-.627-.627Z" transform="translate(-216.389 -172.881)" fill-rule="evenodd"/>
      <path id="Path_167" data-name="Path 167" d="M339.559,203.436a2.514,2.514,0,0,1-2.507-2.507V191.28a7.222,7.222,0,0,0-7.142-7.142h-1.379a7.222,7.222,0,0,0-7.142,7.142v9.649a2.507,2.507,0,1,1-5.013,0V191.28a12.165,12.165,0,0,1,12.154-12.154h1.379a12.165,12.165,0,0,1,12.154,12.154v9.649a2.514,2.514,0,0,1-2.507,2.507Z" transform="translate(-222.268 -141.656)" fill-rule="evenodd"/>
      <path id="Path_168" data-name="Path 168" d="M281.823,218a2.759,2.759,0,0,1-1-.125c-53.758-24.686-39.346-81.2-39.1-81.7a2.393,2.393,0,0,1,2.757-1.88,29.327,29.327,0,0,0,4.761.376c15.287,0,30.951-11.778,31.076-11.9a2.287,2.287,0,0,1,3.008,0c.251.125,15.914,11.9,31.2,11.9a27.767,27.767,0,0,0,4.636-.376,2.523,2.523,0,0,1,2.883,1.88c.125.5,14.536,57.016-39.1,81.7a3.47,3.47,0,0,1-1.128.125Zm-35.838-78.444c-2.005,10.15-7.644,52.631,35.838,73.181,43.605-20.55,37.968-63.032,35.838-73.181a26.2,26.2,0,0,1-3.133.125c-14.285,0-28.068-8.647-32.706-11.9-4.511,3.259-18.3,11.9-32.581,11.9a28.33,28.33,0,0,1-3.259-.125Z" transform="translate(-174.934 -106.477)" fill-rule="evenodd"/>
      <path id="Path_169" data-name="Path 169" d="M291.021,208.343a2.514,2.514,0,0,1-2.507-2.507V108.847a22.809,22.809,0,0,0-22.806-22.806H139.148a22.89,22.89,0,0,0-22.806,22.806v96.989a2.507,2.507,0,1,1-5.013,0V108.847a27.916,27.916,0,0,1,27.818-27.818H265.707a27.835,27.835,0,0,1,27.818,27.818v96.989a2.514,2.514,0,0,1-2.507,2.507Z" transform="translate(-95.543 -81.03)" fill-rule="evenodd"/>
      <path id="Path_170" data-name="Path 170" d="M256.71,430.918H97.067A27.139,27.139,0,0,1,70,403.726a2.514,2.514,0,0,1,2.507-2.507H156.59a2.514,2.514,0,0,1,2.507,2.507v5.262a.7.7,0,0,0,.627.752h34.459a.7.7,0,0,0,.627-.752v-5.262a2.514,2.514,0,0,1,2.507-2.507H281.4a2.514,2.514,0,0,1,2.507,2.507,27.247,27.247,0,0,1-27.191,27.191ZM75.138,406.231A22.207,22.207,0,0,0,97.067,425.9H256.71a22.114,22.114,0,0,0,21.929-19.673H199.82v2.757a5.723,5.723,0,0,1-5.639,5.764H159.722a5.723,5.723,0,0,1-5.639-5.764v-2.757Z" transform="translate(-70.001 -278.918)" fill-rule="evenodd"/>
    </g>
  </g>
</svg>
