<svg xmlns="http://www.w3.org/2000/svg" width="142.848" height="149.823" viewBox="0 0 142.848 149.823">
  <g id="Group_20" data-name="Group 20" transform="translate(-1237.405 -1636)">
    <g id="Group_17" data-name="Group 17" transform="translate(1237.405 1636)">
      <path id="Path_86" data-name="Path 86" d="M1362.509,1715.2l-6.693,2.317-4.119-1.8a13.777,13.777,0,0,0-3.089-.515c-.644.129-5.277,0-5.277,0s-2.317-.258-2.574-.772-3.475-5.02-3.475-5.02v-3.089a11,11,0,0,1,0-2.059c.129-.386-.772-1.287-1.673-1.416a15.728,15.728,0,0,1-2.7-.9s-2.7-5.277-3.218-6.049-.9-4.5-.9-4.5l.9-1.8c.258-.515-.386-.386.9-1.8s1.416-1.673,2.317-2.188,1.8-.772,1.287-1.8a16.517,16.517,0,0,0-1.287-1.931c-.386-.644-.515-1.158-1.03-1.93s-1.545-.772-1.287-1.673-.257-1.673,0-2.7-.129-1.8,1.287-2.832,1.931-1.287,2.317-1.931,1.416-.515,1.416-2.059-.129-1.673,0-2.06-.257-.515,0-2.188a7.264,7.264,0,0,1,.644-2.317c.386-1.158.9-1.158,1.03-1.8s-1.158-.129,1.287-2.317,1.287-2.059,3.861-2.832,3.218-1.287,4.376-1.287a8.206,8.206,0,0,0,1.8,0c.772-.129.386.258,1.287-.515s2.059-.257,1.8-1.673.386-1.158,0-1.931.515-2.832,1.158-3.089a8.64,8.64,0,0,1,1.931-.772c.772-.129,1.931-.386,2.7-.515s.644-.515,1.416-.515a14.026,14.026,0,0,1,2.832.515,8.248,8.248,0,0,1,1.673,2.446c.129.386,1.8,4.376,1.8,4.376s.257-.386,0,2.188.386,2.059,0,3.6-.386-.257,0,2.317-.515,2.7,0,3.6a5.128,5.128,0,0,1,.772,2.7c-.129.515.257,3.346,0,4.119s.257,1.287,0,2.446.257,1.931,0,2.832.9,0,0,3.218a12.816,12.816,0,0,0-.772,3.861c-.129,1.03.129.129,0,3.089s.129,3.6,0,4.119.129.515,0,2.188.386,2.574,0,3.346.386,1.673,0,3.346.386.9,0,3.6.386,1.8,0,4.376-.515,2.574-.644,3.861S1362.509,1715.2,1362.509,1715.2Z" transform="translate(-1303.34 -1642.438)" fill="#f16136" stroke="#707070" stroke-width="1"/>
      <path id="Path_87" data-name="Path 87" d="M1667.912,1962.844a24.8,24.8,0,0,1-5.406,0c-2.188-.386-1.931.644-3.861,0s-1.931-.386-3.218-.772-1.673-.129-2.96-1.03-.772.386-1.8-2.188-1.416-1.673-1.416-3.089v-3.346a23.4,23.4,0,0,1,0-4.248,5.251,5.251,0,0,1,2.445-3.6c1.673-.9.515-1.03,3.089-1.545s1.931-.772,4.376-.772h4.634c1.544,0,2.574-3.089,3.475,0s.386,3.6.644,5.92a32.662,32.662,0,0,0,.772,4.762,8.247,8.247,0,0,1,.9,3.475c0,1.931.515,4.891,0,5.663A2.2,2.2,0,0,1,1667.912,1962.844Z" transform="translate(-1534.479 -1855.977)" fill="#f16136" stroke="#707070" stroke-width="1"/>
      <g id="Group_11" data-name="Group 11" transform="translate(0 0)">
        <path id="Path_48" data-name="Path 48" d="M511.66,140.735a1.833,1.833,0,0,0,1.828,1.827h11.635a1.827,1.827,0,0,0,0-3.655h-11.6a1.84,1.84,0,0,0-1.858,1.827Z" transform="translate(-395.217 -103.272)"/>
        <path id="Path_49" data-name="Path 49" d="M497.829,70a1.761,1.761,0,0,0,1.1-.365l11.6-8.711a1.8,1.8,0,0,0,.3-2.558,1.854,1.854,0,0,0-2.5-.365l-11.6,8.711a1.81,1.81,0,0,0-.365,2.558A1.776,1.776,0,0,0,497.829,70Z" transform="translate(-383.915 -44.657)"/>
        <path id="Path_50" data-name="Path 50" d="M496.633,192.064l.061.061,11.6,8.711a1.848,1.848,0,0,0,2.558-.426,1.824,1.824,0,0,0-.366-2.5l-11.6-8.711a1.822,1.822,0,0,0-2.254,2.863Z" transform="translate(-383.877 -139.282)"/>
        <path id="Path_51" data-name="Path 51" d="M108.8,140.735a1.833,1.833,0,0,0-1.827-1.827H95.341a1.827,1.827,0,0,0,0,3.655h11.6a1.84,1.84,0,0,0,1.858-1.827Z" transform="translate(-93.514 -103.272)"/>
        <path id="Path_52" data-name="Path 52" d="M121.583,189.237l-11.6,8.711a1.827,1.827,0,0,0,2.193,2.924l11.6-8.711a1.827,1.827,0,1,0-2.193-2.924Z" transform="translate(-104.862 -139.318)"/>
        <path id="Path_53" data-name="Path 53" d="M123.782,66.791h0L112.147,58.08a1.848,1.848,0,0,0-2.558.426,1.824,1.824,0,0,0,.366,2.5l11.635,8.681a1.815,1.815,0,1,0,2.193-2.894Z" transform="translate(-104.867 -44.71)"/>
        <path id="Path_54" data-name="Path 54" d="M384.788,174.617a7.272,7.272,0,0,0-3.929-7.4c-.03,0-.03-.03-.061-.03a3.553,3.553,0,0,1,.579-3.381,1.817,1.817,0,1,0-2.8-2.315l-.03.03a7.306,7.306,0,0,0-1.584,4.965,7.188,7.188,0,0,0-3.564,1.34,1.834,1.834,0,0,0,2.132,2.985,3.568,3.568,0,0,1,5,.822,3.655,3.655,0,0,1,.487.975,3.525,3.525,0,0,1,.152,1.584,1.822,1.822,0,0,0,1.584,2.041,1.845,1.845,0,0,0,2.041-1.614Z" transform="translate(-294.906 -119.091)"/>
        <path id="Path_55" data-name="Path 55" d="M380.868,107.93a6.79,6.79,0,0,0,1.31.3,6.009,6.009,0,0,0,.731,2.711,1.84,1.84,0,0,0,3.229-1.767,2.368,2.368,0,0,1,.944-3.229,2.3,2.3,0,0,1,1.736-.213,1.825,1.825,0,0,0,.914-3.533,6.017,6.017,0,0,0-6.457,2.406,2.31,2.31,0,0,1-2.041-.7,1.831,1.831,0,1,0-2.619,2.558,5.363,5.363,0,0,0,2.254,1.462Z" transform="translate(-298.845 -76.649)"/>
        <path id="Path_56" data-name="Path 56" d="M296.252,110.324h-4.9v-6.457h4.9a1.827,1.827,0,1,0,0-3.655h-4.9V96.983a1.833,1.833,0,0,0-1.827-1.827H278.435a10.953,10.953,0,0,0-10.935,10.2A17.355,17.355,0,0,0,251.966,122.6V142.67a14.483,14.483,0,0,1-28.965,0V131.979H233.57a8.306,8.306,0,0,0,8.315-8.315V102.618a28.431,28.431,0,0,1,5.543-16.691,10.211,10.211,0,0,0,7.127-9.747V73.408a13,13,0,0,0,3.9-21.625,9.8,9.8,0,0,0-.122-13.828,10.137,10.137,0,0,0-2.467-1.767,13.018,13.018,0,0,0-15.32-15.777,4.932,4.932,0,0,0,.03-.67,8.8,8.8,0,0,0-17.6,0V77.308a10.2,10.2,0,0,0,16.63,7.919,10.7,10.7,0,0,0,3.2,1.066,31.974,31.974,0,0,0-4.508,14.529H203.905A32.22,32.22,0,0,0,199.4,86.2a9.117,9.117,0,0,0,2.68-.975,10.2,10.2,0,0,0,16.63-7.919V19.742a8.8,8.8,0,0,0-17.6,0,4.932,4.932,0,0,0,.03.67,12.951,12.951,0,0,0-15.381,10.021,13.254,13.254,0,0,0,.091,5.787,9.792,9.792,0,0,0-4.295,13.188,10.242,10.242,0,0,0,1.706,2.376,12.983,12.983,0,0,0,3.9,21.595V76.15a10.224,10.224,0,0,0,7.828,9.929,28.043,28.043,0,0,1,5.33,16.539v21.016a8.306,8.306,0,0,0,8.315,8.315h10.721V142.64a18.123,18.123,0,0,0,36.245,0V122.568a13.692,13.692,0,0,1,11.879-13.554A10.966,10.966,0,0,0,278.406,119h11.087a1.833,1.833,0,0,0,1.828-1.827v-3.229h4.9a1.833,1.833,0,0,0,1.827-1.827,1.781,1.781,0,0,0-1.8-1.8ZM237.8,76.211h0a1.827,1.827,0,1,0-3.655,0,10.124,10.124,0,0,0,2.5,6.67,6.551,6.551,0,0,1-9.016-2.071,6.672,6.672,0,0,1-1.005-3.472V19.772a5.147,5.147,0,1,1,10.295,0,5.361,5.361,0,0,1-.579,2.376c-.274.183-.579.365-.853.579a1.81,1.81,0,0,0-.365,2.558,1.871,1.871,0,0,0,2.558.4,9.346,9.346,0,0,1,13.645,12.183,1.829,1.829,0,0,0,3.168,1.828v-.03c.091.061.213.122.3.183a6.106,6.106,0,0,1,1.736,8.5,5.123,5.123,0,0,1-1.218,1.34,13.119,13.119,0,0,0-5.7-1.31,1.827,1.827,0,1,0,0,3.655,9.351,9.351,0,0,1,0,18.7,1.827,1.827,0,1,0,0,3.655c.426,0,.822-.03,1.249-.061V76.18a6.533,6.533,0,1,1-13.067.031Zm-47,0h0V74.353c.4.03.822.061,1.249.061a1.827,1.827,0,1,0,0-3.655,9.351,9.351,0,1,1,0-18.7,1.827,1.827,0,1,0,0-3.655,13.119,13.119,0,0,0-5.7,1.31,6.088,6.088,0,0,1-1.188-1.31,6.183,6.183,0,0,1,1.736-8.559c.091-.061.213-.122.3-.183v.03a1.829,1.829,0,0,0,3.168-1.828,9.345,9.345,0,0,1,13.645-12.183,1.815,1.815,0,0,0,2.558-.4,1.842,1.842,0,0,0-.4-2.558,8.378,8.378,0,0,0-.853-.579,5.15,5.15,0,1,1,9.138-4.752,5.361,5.361,0,0,1,.579,2.376V77.338a6.538,6.538,0,0,1-6.549,6.549,6.4,6.4,0,0,1-3.472-1.005,10.183,10.183,0,0,0,2.5-6.67,1.827,1.827,0,1,0-3.655,0,6.533,6.533,0,1,1-13.067,0Zm17.818,52.114a4.66,4.66,0,0,1-4.66-4.66v-.944h22.478a1.827,1.827,0,0,0,0-3.655H203.963v-5.6H209.6a1.827,1.827,0,1,0,0-3.655h-5.635v-5.33h34.266v5.33H216.3a1.827,1.827,0,1,0,0,3.655h21.93v5.6h-5.087a1.827,1.827,0,1,0,0,3.655h5.087v.975a4.66,4.66,0,0,1-4.66,4.66H208.624Zm79.07-12.945h-9.259a7.331,7.331,0,0,1-7.31-7.31v-1.949a7.331,7.331,0,0,1,7.31-7.31h9.259Z" transform="translate(-155.232 -10.939)"/>
        <path id="Path_57" data-name="Path 57" d="M248.592,170.1a3.524,3.524,0,0,1,1.584.152,4.17,4.17,0,0,1,.975.487,1.825,1.825,0,1,0,2.223-2.894c-.03-.03-.061-.03-.091-.061a7.3,7.3,0,0,0-3.564-1.34,7.155,7.155,0,0,0-1.584-4.965,1.822,1.822,0,0,0-2.863,2.254l.03.03a3.553,3.553,0,0,1,.579,3.381c-.03,0-.03.03-.061.03a7.248,7.248,0,0,0-3.929,7.4,1.827,1.827,0,0,0,3.625-.457,3.6,3.6,0,0,1,3.076-4.021Z" transform="translate(-200.529 -119.049)" fill="#fff"/>
        <path id="Path_58" data-name="Path 58" d="M242.05,90.2h.03a2.385,2.385,0,0,1,2.894,1.706,2.374,2.374,0,0,1-.213,1.736,1.834,1.834,0,1,0,3.2,1.8v-.03a6.009,6.009,0,0,0,.731-2.711,6.028,6.028,0,0,0,3.594-1.767,1.831,1.831,0,1,0-2.619-2.558,2.4,2.4,0,0,1-2.041.7,6.017,6.017,0,0,0-6.457-2.406,1.833,1.833,0,0,0-1.34,2.223,1.805,1.805,0,0,0,2.223,1.31Z" transform="translate(-199.043 -65.439)" fill="#fff"/>
      </g>
    </g>
  </g>
</svg>
