<?xml version="1.0" encoding="utf-8"?>
<!-- Generator: Adobe Illustrator 27.1.1, SVG Export Plug-In . SVG Version: 6.00 Build 0)  -->
<svg version="1.1" id="Layer_1" xmlns="http://www.w3.org/2000/svg" xmlns:xlink="http://www.w3.org/1999/xlink" x="0px" y="0px"
	 viewBox="0 0 700 700" style="enable-background:new 0 0 700 700;" xml:space="preserve">
<style type="text/css">
	.st0{fill:#FFFFFF;}
	.st1{fill:#F16136;}
</style>
<path class="st0" d="M579.3,606.3L579.3,606.3l-67.8-199.9c37.6-41.9,57.5-96.7,55.5-152.9c-2-56.2-25.7-109.5-66.2-148.6
	C460.3,65.8,406.3,44,350,44c-56.3,0-110.3,21.8-150.8,60.9c-40.5,39.1-64.2,92.3-66.2,148.6c-2,56.2,17.9,111,55.5,152.9
	l-67.8,199.9c-1.4,4.3,0.8,8.9,5.1,10.3l0.5,0.2c2.5,0.8,5.2,0.4,7.3-1.1l74.3-52.5l27,86.9c0.8,2.5,2.7,4.5,5.2,5.3l0.5,0.2
	c4.3,1.4,8.9-0.9,10.3-5.1l59.5-175.5c26.2,4.8,53,4.8,79.2,0l59.5,175.5c1.5,4.2,6.1,6.5,10.3,5.1l0.5-0.2c2.5-0.8,4.4-2.8,5.2-5.3
	l27-86.9l74.3,52.5c2.1,1.5,4.8,1.9,7.3,1.1l0.5-0.2C578.5,615.2,580.8,610.6,579.3,606.3z M243.3,622.2l-23.2-74.6l0,0
	c-0.8-2.5-2.7-4.5-5.2-5.3c-2.5-0.8-5.2-0.4-7.3,1.1l-63.7,45.1l57.3-169.1c26.3,24.8,58.3,42.6,93.2,51.9L243.3,622.2z M350,462.3
	c-53.3-0.1-104.3-21.2-142-58.9c-37.7-37.7-58.9-88.7-58.9-142l0,0c0-39.7,11.8-78.6,33.8-111.6c22.1-33,53.4-58.8,90.2-74
	c36.7-15.2,77.1-19.2,116.1-11.4c39,7.7,74.8,26.9,102.9,55c28.1,28.1,47.2,63.9,55,102.9c7.8,39,3.8,79.4-11.4,116.1
	c-15.2,36.7-41,68.1-74,90.2C428.6,450.5,389.7,462.3,350,462.3z M492.4,543.5c-2.1-1.5-4.8-1.9-7.3-1.1c-2.5,0.8-4.4,2.8-5.2,5.3
	l-23.2,74.6l-51.2-150.9h0c34.9-9.3,67-27.1,93.2-51.9l57.3,169.1L492.4,543.5z"/>
<path class="st1" d="M290.8,338.4c-0.8,3.2,0.5,6.5,3.1,8.5l0,0c2.7,1.9,6.3,2.1,9.1,0.3l47-29.1l47,29.1c2.8,1.7,6.4,1.6,9-0.4
	c2.7-1.9,3.9-5.3,3.2-8.5l-13.2-53.7l42.2-35.7l0,0c2.5-2.1,3.5-5.6,2.5-8.7c-1-3.1-3.8-5.4-7.1-5.6l-55.2-4.1l-20.9-51.2v0
	c-1.3-3-4.2-5-7.5-5s-6.3,2-7.5,5l-20.9,51.2l-55.2,4.1v0c-3.3,0.3-6.1,2.5-7.1,5.6c-1,3.1,0,6.6,2.5,8.7l42.2,35.7L290.8,338.4
	L290.8,338.4z M287.5,249.4l40.3-3c3.1-0.2,5.8-2.2,6.9-5l15.3-37.4l15.3,37.4v0c1.2,2.9,3.9,4.8,6.9,5l40.3,3l-30.9,26.1h0
	c-2.4,2-3.4,5.2-2.7,8.2l9.6,39.3l-34.4-21.3h0c-2.6-1.6-6-1.6-8.6,0l-34.4,21.3l9.6-39.3v0c0.7-3-0.3-6.2-2.7-8.2L287.5,249.4z"/>
<path class="st0" d="M488,374.7c26.2-31.9,40.6-72,40.6-113.3l0,0c0-45.3-17.2-89-48.2-122.1c-31-33.1-73.4-53.2-118.6-56.2
	s-89.9,11.3-125,40.1c-35.1,28.7-57.9,69.7-63.8,114.7c-6,44.9,5.4,90.5,31.8,127.3c26.4,36.9,65.8,62.3,110.2,71.2
	c4.3,0.6,8.3-2.3,9.1-6.5c0.8-4.2-1.7-8.4-5.9-9.5c-53.1-10.7-97.5-47.1-118.1-97.2c-20.7-50.1-15-107.2,15.2-152.3
	c30.2-45,80.8-72,135-72c54.2,0.1,104.8,27.2,134.9,72.3c30.1,45.1,35.6,102.2,14.8,152.3c-20.8,50.1-65.2,86.4-118.4,97
	c-4.1,0.9-6.8,4.6-6.4,8.8c0.4,4.1,3.8,7.3,8,7.4c0.5,0,1.1-0.1,1.6-0.2C425.2,428.5,461.7,406.6,488,374.7z"/>
<polygon points="362.4,431.6 362.4,431.6 362.4,431.6 "/>
<path class="st0" d="M354.1,423.6L354.1,423.6c-1.4,0-2.7,0.1-4.1,0.1c-2.3-0.1-4.5,0.6-6.1,2.2c-1.6,1.5-2.6,3.7-2.6,6
	c0,2.3,0.9,4.4,2.6,6c1.6,1.5,3.9,2.3,6.1,2.2c1.5,0,3,0,4.5-0.1c4.5-0.1,8-3.8,7.9-8.3C362.3,427.1,358.6,423.5,354.1,423.6z"/>
</svg>
