<svg xmlns="http://www.w3.org/2000/svg" width="122.615" height="126.043" viewBox="0 0 122.615 126.043">
  <g id="Group_93" data-name="Group 93" transform="translate(0 122.292) rotate(-88)">
    <path id="Path_250" data-name="Path 250" d="M171.009,141.33c-8.018,20.349-6.061,47.519,15.933,58.361,10.217,5.057,23.621,3.879,32.125-4.018,6.6-6.131,6.927-16.711-2.6-19.725h0a21.746,21.746,0,0,0-19.516,4.1c-20.625,16.573-2.494,43.78,15.43,52.94,20.781,10.651,45.84,9.663,66.362-.866,2.979-1.524,5.611,2.961,2.632,4.485-22.254,11.412-49.164,12.417-71.628.866-18.3-9.386-33.442-30.462-24-51.366a27.4,27.4,0,0,1,22.721-16.019c7.9-.658,17.976,2.424,20.781,10.7,3.274,9.455-5.092,18.755-12.781,23a34.627,34.627,0,0,1-28.194,2.113c-26.964-9.8-31.658-42.185-22.271-65.963,1.213-3.065,6.234-1.732,5,1.386Z" transform="translate(-161.576 -138.209)" fill="#fff"/>
    <path id="Path_251" data-name="Path 251" d="M470.464,140.372a232.472,232.472,0,0,0,19.345-19.188l.536,4.07a182.687,182.687,0,0,1-27.12-17.162c-2.615-2.009,0-6.529,2.632-4.485a181.689,181.689,0,0,0,27.1,17.162,2.631,2.631,0,0,1,.536,4.087,232.786,232.786,0,0,1-19.275,19.188c-2.493,2.2-6.2-1.473-3.671-3.671Z" transform="translate(-369.193 -26.398)" fill="#fff"/>
  </g>
</svg>
