<?xml version="1.0" encoding="utf-8"?>
<!-- Generator: Adobe Illustrator 27.1.1, SVG Export Plug-In . SVG Version: 6.00 Build 0)  -->
<svg version="1.1" id="Layer_1" xmlns="http://www.w3.org/2000/svg" xmlns:xlink="http://www.w3.org/1999/xlink" x="0px" y="0px"
	 viewBox="0 0 700 700" style="enable-background:new 0 0 700 700;" xml:space="preserve">
<style type="text/css">
	.st0{fill:#FFFFFF;}
</style>
<path class="st0" d="M550,324.6v-79.1h-27.4v-29h-54.8v-27.4h-61.1v27.4h-20.4v-27.4h-53.2V56.1h-27.4l0-28.2h-61.1v27.4h-24.3
	v268.5h-21.1v-27.4h-61.1v29.8h-29v61.1h27.4v53.2l27.4,0v53.2h27.4V547h27.4v54.8h24.3V655H521l0-80.6h27.4l0-105.7h27.4V324.6
	L550,324.6z M542.2,460.8h-27.4v105.7h-27.4V619l-207.5,0v-25.1h-24.3v-53.2h-27.4v-53.2h-27.4v-53.2l-29,0V381h-27.4v-47.8h47v29
	h29v53.2h35.2l0-351.5h42.3V305h35.2v-80.6h46.2V305h35.2v-80.6H460V305h35.2v-51.7h18V334h27.4v126.8L542.2,460.8z"/>
</svg>
