<svg id="Page-1" xmlns="http://www.w3.org/2000/svg" width="40" height="19" viewBox="0 0 40 19">
  <g id="ic-technology-zend">
    <path id="Shape-Copy-5" d="M16.659,14.867c-2.651.009-5.3.045-7.953.045H8.325C11.988,9.815,15.6,4.99,19.238.049,19.114.041,19.055.014,19,.014Q10.388.013,1.781,0c-.2,0-.271.047-.269.257.01,1.175.005,2.348.005,3.523,0,.335,0,.334.343.334h8.712c.114,0,.229.015.4.028L0,18.984l.188.01Q8.455,19,16.722,19c.225,0,.255-.09.254-.276-.006-1.192-.01-2.365,0-3.558C16.981,14.918,16.912,14.866,16.659,14.867ZM39.686.252c-5.2,0-10.4-.007-15.6.01A7.151,7.151,0,0,0,22.364.48a4.959,4.959,0,0,0-3.533,4.732c.008.227.142.143.279.143h7.981c1.343,0,2.686.058,4.03.05,1.464-.009,2.931.05,4.391-.036a4.361,4.361,0,0,0,3.553-2.063A6.479,6.479,0,0,0,40,.485C40.029.21,39.852.252,39.686.252ZM31.755,6.985q-3.949,0-7.9,0a4.988,4.988,0,0,0-2.412.57,5.19,5.19,0,0,0-2.61,4.372c-.027.244.122.237.291.237q2.079,0,4.158,0c.471,0,.941.007,1.412,0,1.036-.017,2.078.022,3.105-.079A4.277,4.277,0,0,0,31,10.2a6.021,6.021,0,0,0,1.017-2.9C32.044,6.991,32.056,6.985,31.755,6.985Zm-5.275,6.7c-.8.005-1.6-.008-2.4.007a8.209,8.209,0,0,0-1.115.1c-2.879.445-3.954,2.833-4.126,4.87-.016.182.051.243.234.239.479-.01.958,0,1.438,0v.026c.651-.028,1.309-.011,1.954-.094a4.954,4.954,0,0,0,4.25-4.926C26.711,13.719,26.639,13.687,26.48,13.688Z" fill="#252b33"/>
  </g>
</svg>
