<svg id="Page-1" xmlns="http://www.w3.org/2000/svg" width="26.728" height="35.95" viewBox="0 0 26.728 35.95">
  <g id="ic-technology-java">
    <path id="Combined-Shape" d="M26.728,32.543c-.237,3.063-10.26,3.707-16.786,3.294-4.289-.274-5.123-.959-5.123-.959a54.049,54.049,0,0,0,16.516-.252C26.271,33.7,26.728,32.543,26.728,32.543ZM5.807,30.613a4.991,4.991,0,0,0-1.249.14c-.763.163-3.187.937-1.895,1.5,3.6,1.552,16.546,1.181,20.64-.049,2.153-.648,1.129-1.486,1.129-1.486,3.751,1.679-8.151,5.053-22.615,2.727C-3.487,32.586,4.369,29.609,5.807,30.613Zm2.8-2.812s-1.384.8.986,1.069a20.906,20.906,0,0,0,7.5-.315,13.2,13.2,0,0,0,2,.965C12,32.536,3.035,29.346,8.607,27.8ZM7.74,23.866s-1.553,1.14.82,1.384a29.507,29.507,0,0,0,9.683-.461,4.285,4.285,0,0,0,1.49.9C11.156,28.179,1.6,25.887,7.74,23.866Zm13.213,2.65a.61.61,0,0,0,.136-.178c6.8-3.5,3.656-6.872,1.461-6.418a5.139,5.139,0,0,0-.777.207,1.234,1.234,0,0,1,.581-.444C26.694,18.17,30.033,24.149,20.953,26.516ZM9.274,19.788l-.076.018c-.722.176-6.238,1.57-2.256,2.1a49.867,49.867,0,0,0,8.713-.094c2.726-.227,5.462-.713,5.462-.713a11.663,11.663,0,0,0-1.656.879c-6.69,1.746-19.61.933-15.89-.852A12.538,12.538,0,0,1,9.274,19.788ZM21.529,7.343c-7.9,4.547-6.443,5.865-4.539,8.519,2.038,2.847-2.4,5.12-2.4,5.12s2.208-1.8.459-3.793C9.124,10.416,21.529,7.343,21.529,7.343ZM16.99,0s3.765,3.737-3.572,9.482c-5.884,4.61-1.342,7.237,0,10.241-3.435-3.074-5.954-5.78-4.264-8.3C11.634,7.728,18.509,5.935,16.99,0Z" fill="#252b33"/>
  </g>
</svg>
