<svg id="Page-1" xmlns="http://www.w3.org/2000/svg" width="31.139" height="31" viewBox="0 0 31.139 31">
  <g id="Brand-Logo" transform="translate(-1117 -4580)">
    <g id="ic-technology-joomla" transform="translate(1117 4580)">
      <path id="Combined-Shape" d="M19.064,9.587l2.993,2.99,3.074,3.065.6.6a6.86,6.86,0,0,1,1.828,6.5,4.153,4.153,0,1,1-4.669,4.942,6.923,6.923,0,0,1-6.9-1.7h0l3.071-3.065A2.547,2.547,0,1,0,22.659,19.3h0l-.6-.6-3.07-3.065-3-2.991,3.075-3.06ZM5,16.249l3.075,3.065A2.553,2.553,0,0,0,11.7,22.907h0l.6-.6,3.07-3.06,3-2.994,3.07,3.065-3,2.986-3.07,3.068-.605.6a6.91,6.91,0,0,1-6.547,1.81A4.164,4.164,0,1,1,3.206,22.8,6.856,6.856,0,0,1,5,16.249ZM4.206,0A4.166,4.166,0,0,1,8.317,3.478,6.906,6.906,0,0,1,14.767,5.3h0L11.692,8.366a2.554,2.554,0,0,0-3.608,3.616h0l.605.6,3.07,3.061,3.007,2.994h0l-3.07,3.06-3-2.99L5.615,15.641l-.6-.6A6.855,6.855,0,0,1,3.286,8.2,4.153,4.153,0,0,1,4.206,0Zm22.73,0a4.153,4.153,0,0,1,.551,8.271,6.872,6.872,0,0,1-1.744,6.761h0l-3.074-3.061a2.549,2.549,0,0,0-3.62-3.589h0l-.6.6-3.075,3.06-3,2.994L9.3,11.971l3-2.993,3.676-3.66A6.926,6.926,0,0,1,22.81,3.579,4.163,4.163,0,0,1,26.935,0Z" fill="#252b33" fill-rule="evenodd"/>
    </g>
  </g>
</svg>
