<svg id="Page-1" xmlns="http://www.w3.org/2000/svg" width="40" height="24" viewBox="0 0 40 24">
  <g id="ic-technology-node-js">
    <path id="Combined-Shape-Copy-8" d="M20.163,14.45,23.77,16.5a.745.745,0,0,1,.38.647v4.084a.745.745,0,0,1-.38.647L20.163,23.92a.941.941,0,0,1-.38.08h0a.806.806,0,0,1-.38-.1l-1.2-.7c-.181-.1-.09-.133-.036-.151a2.212,2.212,0,0,0,.542-.239.085.085,0,0,1,.09.009l.922.541a.117.117,0,0,0,.108,0l3.608-2.047a.1.1,0,0,0,.054-.1V17.134a.1.1,0,0,0-.054-.1L19.828,15a.117.117,0,0,0-.108,0l-3.608,2.038a.111.111,0,0,0-.054.1v4.084a.111.111,0,0,0,.054.1l.986.558c.533.266.868-.044.868-.354V17.488a.109.109,0,0,1,.109-.106h.461a.109.109,0,0,1,.109.106v4.031a.992.992,0,0,1-1.067,1.107,1.576,1.576,0,0,1-.832-.222l-.949-.531a.745.745,0,0,1-.38-.647V17.143a.745.745,0,0,1,.38-.647L19.4,14.45A.822.822,0,0,1,20.163,14.45Zm.6,2.808c1.157,0,1.727.39,1.8,1.24a.142.142,0,0,1-.027.08.113.113,0,0,1-.072.035h-.47a.105.105,0,0,1-.1-.08c-.108-.487-.389-.647-1.13-.647-.832,0-.931.284-.931.5,0,.257.118.337,1.239.478s1.637.345,1.637,1.107c-.009.78-.66,1.223-1.808,1.223-1.582,0-1.908-.709-1.908-1.311a.109.109,0,0,1,.108-.106h.47a.092.092,0,0,1,.1.089c.072.469.28.7,1.239.7.759,0,1.085-.168,1.085-.567,0-.23-.09-.4-1.275-.514-.986-.1-1.6-.31-1.6-1.081C19.114,17.683,19.729,17.258,20.76,17.258ZM26.959.007l.057.02L29.3,1.276a.453.453,0,0,1,.228.316l.007.082v10.8a.446.446,0,0,1-.167.344l-.068.045L25.47,15.034a.475.475,0,0,1-.372.038l-.089-.038-3.834-2.171a.453.453,0,0,1-.228-.311l-.007-.079V8.142a.446.446,0,0,1,.167-.344l.068-.045,3.834-2.171a.475.475,0,0,1,.372-.038l.089.038.958.54a.162.162,0,0,0,.235-.089l.009-.052V.221A.23.23,0,0,1,26.79.027.243.243,0,0,1,26.959.007ZM14.539,5.546a.474.474,0,0,1,.461,0L18.806,7.7a.46.46,0,0,1,.226.39V12.4a.441.441,0,0,1-.226.39L15,14.946a.474.474,0,0,1-.461,0l-3.807-2.153a.46.46,0,0,1-.226-.39V8.089a.441.441,0,0,1,.226-.39Zm20.967-.018a.474.474,0,0,1,.461,0L39.774,7.69A.46.46,0,0,1,40,8.08V9.134a.441.441,0,0,1-.226.39l-2.278,1.3a.224.224,0,0,1-.235,0,.219.219,0,0,1-.118-.195V9.568a.23.23,0,0,0-.118-.195l-1.2-.673a.225.225,0,0,0-.235,0l-1.2.673a.22.22,0,0,0-.118.195v1.355a.23.23,0,0,0,.118.195l3.852,2.17a.22.22,0,0,1,0,.39l-2.306,1.258a.457.457,0,0,1-.452,0l-3.806-2.126a.449.449,0,0,1-.235-.39V8.089a.449.449,0,0,1,.235-.39ZM4.313,5.413a.565.565,0,0,1,.208.062L8.354,7.637a.45.45,0,0,1,.235.39L8.6,13.838a.22.22,0,0,1-.118.2.225.225,0,0,1-.235,0L5.967,12.757a.449.449,0,0,1-.235-.39V9.648a.449.449,0,0,0-.235-.39L4.53,8.709A.4.4,0,0,0,4.3,8.647a.445.445,0,0,0-.235.062L3.1,9.258a.449.449,0,0,0-.235.39v2.72a.449.449,0,0,1-.235.39L.353,14.033a.209.209,0,0,1-.226,0,.22.22,0,0,1-.118-.2L0,8.027a.449.449,0,0,1,.235-.39L4.069,5.475a.436.436,0,0,1,.208-.062ZM25.219,8.706l-.039.012-1.311.744a.093.093,0,0,0-.048.056l-.006.041v1.488a.123.123,0,0,0,.024.072l.03.025,1.311.744a.136.136,0,0,0,.079.012l.039-.012,1.311-.744a.092.092,0,0,0,.048-.056l.006-.041V9.559a.123.123,0,0,0-.024-.072l-.03-.025L25.3,8.718A.137.137,0,0,0,25.219,8.706Zm10.549.614.732.416a.092.092,0,0,1,.045.08v.833a.093.093,0,0,1-.045.08l-.732.416a.084.084,0,0,1-.09,0l-.732-.416a.093.093,0,0,1-.045-.08V9.816a.092.092,0,0,1,.045-.08l.732-.416A.084.084,0,0,1,35.769,9.32Z" fill="#252b33"/>
  </g>
</svg>
