<svg id="Page-1" xmlns="http://www.w3.org/2000/svg" width="32" height="32" viewBox="0 0 32 32">
  <g id="ic-technology-wordpress">
    <path id="surface1-copy" d="M16,0A16,16,0,1,0,32,16,16.018,16.018,0,0,0,16,0Zm0,.751A15.25,15.25,0,1,1,.749,16,15.257,15.257,0,0,1,16,.751Zm0,1.541A13.664,13.664,0,0,0,4.541,8.459c.323.011.615,0,.876,0,1.437,0,3.667-.167,3.667-.167a.564.564,0,0,1,.083,1.125s-.755.124-1.584.165l5,14.835,3-9L13.459,9.583A14.134,14.134,0,0,1,12,9.417a.564.564,0,0,1,.084-1.125s2.276.167,3.624.167c1.437,0,3.667-.167,3.667-.167a.564.564,0,0,1,.084,1.125s-.76.124-1.584.165l4.959,14.751,1.375-4.584a12.9,12.9,0,0,0,1.043-4.457,7.052,7.052,0,0,0-1.125-3.751,6.511,6.511,0,0,1-1.333-3.249,2.349,2.349,0,0,1,2.291-2.417h.167A13.6,13.6,0,0,0,16,2.293ZM28.041,9.416a10.1,10.1,0,0,1,.084,1.417,13,13,0,0,1-1.043,4.917L22.916,27.875A13.794,13.794,0,0,0,28.043,9.416Zm-24.583,1A13.778,13.778,0,0,0,10,28.333Zm12.791,6.792L12.125,29.167a14.137,14.137,0,0,0,8.416-.208,1.222,1.222,0,0,1-.083-.209Z" fill="#252b33"/>
  </g>
</svg>
