<svg id="Page-1" xmlns="http://www.w3.org/2000/svg" width="18" height="40" viewBox="0 0 18 40">
  <g id="ic-technology-mango-db">
    <path id="Shape-Copy-10" d="M17.924,17.74a18.686,18.686,0,0,0-1.031-4.688,23.074,23.074,0,0,0-5.317-9A9.956,9.956,0,0,1,9.821,1.986C9.546,1.47,9.283.948,9.015.428L8.844,0A1,1,0,0,0,8.8.169,2.689,2.689,0,0,1,7.7,2.126c-.673.6-1.3,1.258-1.946,1.89L3.763,6.628,2.155,9.58l-1.075,2.9-.032.045A26.847,26.847,0,0,0,.021,18.475a18.083,18.083,0,0,0,.05,2.287,15.689,15.689,0,0,0,.534,3.211,20.528,20.528,0,0,0,5.987,9.7c.532.5,1.078.957,1.633,1.433.1-.325.171-.649.257-.974s.174-.645.232-.969c-.059.324-.124.646-.189.969l-.278.974.249.841.23,1.307.11,1.364c0,.277-.012.554,0,.831,0,.071.1.136.149.2l.464.163L9.936,40l-.083-1.212,0-1.194.167-1.819.121-.4.346-.612c.427-.343.886-.655,1.275-1.037a29.539,29.539,0,0,0,2.036-2.148,16.094,16.094,0,0,0,2.086-3.2,24.345,24.345,0,0,0,1.028-2.355c.259-.708.42-1.452.625-2.18a1.379,1.379,0,0,0,.054-.157A20.557,20.557,0,0,0,17.924,17.74ZM9.974,34.352,9.7,33.759l.271.593.4.34Z" fill="#252b33"/>
  </g>
</svg>
