<svg id="Page-1" xmlns="http://www.w3.org/2000/svg" width="28" height="32" viewBox="0 0 28 32">
  <g id="spotify-plus">
    <path id="Shopify-Copy" d="M20.565,4.663l1.119,1.115,2.562.192a.309.309,0,0,1,.279.26C24.546,6.392,28,29.861,28,29.861L19.525,31.7Zm-1.3-.889a1.061,1.061,0,0,0-.16.033l-.952.295C17.585,2.46,16.583.951,14.821.951c-.049,0-.1,0-.149,0A2.142,2.142,0,0,0,13.013,0C8.906,0,6.943,5.16,6.329,7.781c-1.6.5-2.729.849-2.873.9-.892.281-.92.309-1.037,1.153C2.331,10.468,0,28.581,0,28.581L18.16,32l.019,0ZM14.537,5.048v.179l-3.175.987c.611-2.369,1.757-3.515,2.759-3.947A7.718,7.718,0,0,1,14.537,5.048ZM12.9,1.107a.929.929,0,0,1,.528.179c-1.317.622-2.727,2.19-3.323,5.32L7.6,7.387c.7-2.388,2.354-6.28,5.3-6.28Zm.708,13.955a5.558,5.558,0,0,0-2.365-.57c-1.911,0-2.007,1.2-2.007,1.508,0,1.657,4.3,2.292,4.3,6.172,0,3.052-1.927,5.018-4.525,5.018a6.282,6.282,0,0,1-4.711-1.95l.835-2.771a5.959,5.959,0,0,0,3.022,1.414,1.222,1.222,0,0,0,1.271-1.237c0-2.161-3.525-2.258-3.525-5.809,0-2.987,2.135-5.88,6.443-5.88a5.271,5.271,0,0,1,2.48.479Zm2.006-10.17V4.559a7.629,7.629,0,0,0-.367-2.493c.908.114,1.513,1.153,1.9,2.348Z" fill="#252b33"/>
  </g>
</svg>
