<svg id="Page-1" xmlns="http://www.w3.org/2000/svg" width="27" height="32" viewBox="0 0 27 32">
  <g id="ic-technology-code-igniter">
    <path id="Path-Copy" d="M20.228,12.092l-.2-.107a1.575,1.575,0,0,1,.135.651,2.2,2.2,0,0,0,.065-.477,2.094,2.094,0,0,1-.071.576l.007-.1a2.186,2.186,0,0,1-.281.661l.062-.065a2.4,2.4,0,0,1-3.824.231c-1.628-2.064.033-4.289.266-6.474C16.678,4.25,14.938,1.591,12.78,0c1.188,1.9-.377,4.408-1.63,5.811-1.215,1.361-2.692,2.5-4.033,3.732a33.379,33.379,0,0,0-4.009,4.284C.74,16.946-.71,20.868.356,24.76S4.833,31.123,8.686,32c-1.944-.83-3.763-2.937-3.768-5.094A7.144,7.144,0,0,1,8.3,21.244a2.526,2.526,0,0,0,.21,2.365,2.281,2.281,0,0,0,2.291.855c2.01-.434,2.1-2.614.91-3.884S9.4,17.9,9.844,16.078a4.684,4.684,0,0,1,1.514-2.383c-.554,1.437,1.02,2.854,2.057,3.559a55.242,55.242,0,0,1,5.427,3.585,6.941,6.941,0,0,1,2.765,5.914C21.326,29.316,19.261,31.1,16.946,32,21.839,30.934,26.9,27.186,27,21.83,27.084,17.424,24.022,14.033,20.228,12.092Z" fill="#252b33"/>
  </g>
</svg>
