<svg id="Page-1" xmlns="http://www.w3.org/2000/svg" width="28" height="32" viewBox="0 0 28 32">
  <g id="ic-technology-drupal">
    <path id="Shape-Copy-4" d="M20.969,5.95c-1.634-1.018-3.176-1.418-4.718-2.436A21.988,21.988,0,0,1,12.858,0c-.216,2.127-.863,2.991-1.6,3.607A22.168,22.168,0,0,1,7.339,5.95,14.006,14.006,0,0,0,0,18.189,13.992,13.992,0,0,0,14.123,32C21.556,32,28,26.6,28,18.435A14.5,14.5,0,0,0,20.969,5.95ZM21.147,29.1a6.692,6.692,0,0,1-3.238,1.295c-1.666.154-3.916.247-5.274-.986a.444.444,0,0,1,0-.647.72.72,0,0,1,.463-.216c.185,0,.154,0,.247.062a5.24,5.24,0,0,0,3.515.894,6.983,6.983,0,0,0,3.978-1.017c.278-.216.4-.031.432.092A.466.466,0,0,1,21.147,29.1Zm-5.4-2.805a5.579,5.579,0,0,1,1.419-1.017,2.765,2.765,0,0,1,1.295-.185,2.554,2.554,0,0,1,1.388.278,2.437,2.437,0,0,1,.709,1.11.433.433,0,0,1-.247.616c-.216.123-.247.062-.462-.339s-.4-.8-1.48-.8a2.491,2.491,0,0,0-1.943.8c-.524.432-.709.586-.894.339S15.411,26.6,15.751,26.294Zm8.172.247c-1.11-.092-3.331-3.545-4.749-3.607-1.788-.062-5.674,3.73-8.727,3.73a4.624,4.624,0,0,1-3.022-.678A3.3,3.3,0,0,1,6.068,23a5.079,5.079,0,0,1,5.119-4.686c3.608-.03,6.106,3.576,7.925,3.545,1.542-.031,4.5-3.052,5.951-3.052,1.542,0,1.974,1.6,1.974,2.559a7.573,7.573,0,0,1-1.049,3.761C25.249,26.2,24.786,26.6,23.923,26.54Z" fill="#252b33"/>
  </g>
</svg>
