<svg id="Page-1" xmlns="http://www.w3.org/2000/svg" width="32" height="22" viewBox="0 0 32 22">
  <g id="ic-technology-laravel">
    <path id="Shape-Copy-7" d="M31.872,10.279c-.212-.239-3.141-3.922-3.657-4.547s-.768-.511-1.085-.466-4.023.672-4.453.744-.7.246-.437.618c.235.331,2.671,3.8,3.209,4.564l-9.686,2.331L8.059.588C7.752.131,7.689-.029,6.991,0S.949.481.568.514s-.8.2-.417,1.105S6.6,15.659,6.771,16.041A1.3,1.3,0,0,0,8.41,16.8c1.055-.254,4.715-1.214,6.715-1.74,1.056,1.922,3.212,5.819,3.611,6.379.532.746.9.622,1.715.374.638-.194,9.979-3.568,10.4-3.741s.68-.3.4-.722c-.209-.311-2.673-3.626-3.964-5.36l4.363-1.168c.39-.106.444-.3.232-.538ZM14.262,13.9c-.116.024-5.541,1.329-5.831,1.395s-.29.033-.322-.067S1.658,1.834,1.569,1.667s-.085-.3,0-.3S6.693.916,6.871.907s.16.028.225.142l7.232,12.537c.124.216.049.283-.066.307Zm15.3,2.879c.086.136.173.223-.1.323s-9.182,3.119-9.355,3.194-.31.1-.532-.224S16.451,14.7,16.451,14.7L25.9,12.236c.235-.074.31-.123.458.112s3.118,4.288,3.2,4.424Zm.605-6.734c-.212.047-3.68.91-3.68.91L23.646,7.042c-.079-.112-.146-.226.052-.253s3.421-.612,3.567-.645.272-.072.45.173S30.347,9.681,30.439,9.8s-.066.193-.279.239Z" fill="#252b33"/>
  </g>
</svg>
