<?xml version="1.0" encoding="UTF-8"?><svg id="Layer_2" xmlns="http://www.w3.org/2000/svg" xmlns:xlink="http://www.w3.org/1999/xlink" viewBox="0 0 683.89 452.26"><defs><style>.cls-1{fill:#fff;}.cls-2{fill:#f2f0f5;}.cls-3{fill:#ed9a2c;}.cls-4,.cls-5{fill:#a0a0a0;}.cls-6{stroke:#fff;stroke-miterlimit:10;stroke-width:2px;}.cls-6,.cls-7,.cls-8,.cls-9,.cls-10{fill:#1e1e1e;}.cls-7{font-family:Poppins-Regular, Poppins;font-size:6.25px;}.cls-5,.cls-11{stroke:#1e1e1e;stroke-linecap:round;stroke-linejoin:round;}.cls-12{fill:#ddd;opacity:.21;}.cls-13{fill:#02af96;}.cls-14{fill:#bf5004;}.cls-8{opacity:.38;}.cls-15{clip-path:url(#clippath);}.cls-16{fill:#ccc;}.cls-11{fill:none;}.cls-17{fill:#cfcfe3;}.cls-10{font-family:Poppins-Black, Poppins;font-size:12.69px;}</style><clipPath id="clippath"><path class="cls-5" d="M494.2,211.67c-16.89-16.89-39.34-26.19-63.22-26.19-21.87,0-44.97,11.47-70.62,35.08-8.02,7.38-14.97,14.76-19.91,20.3-4.95-5.54-11.89-12.92-19.91-20.3-25.65-23.6-48.75-35.08-70.62-35.08-23.88,0-46.33,9.3-63.22,26.19-16.89,16.89-26.19,39.34-26.19,63.22s9.3,46.33,26.19,63.22c16.89,16.89,39.34,26.19,63.22,26.19,22.42,0,45.86-12.47,71.65-38.14,7.5-7.46,14.04-14.91,18.88-20.72,4.84,5.81,11.39,13.26,18.88,20.72,25.79,25.66,49.22,38.14,71.65,38.14,23.88,0,46.33-9.3,63.22-26.19,16.89-16.89,26.19-39.34,26.19-63.22s-9.3-46.33-26.19-63.22Zm-244.28,116.21c-29.27,0-52.99-23.72-52.99-52.99s23.72-52.99,52.99-52.99,69.96,50.92,69.96,50.92c0,0-40.7,55.06-69.96,55.06Zm181.06,0c-29.27,0-69.96-55.06-69.96-55.06,0,0,40.7-50.92,69.96-50.92s52.99,23.72,52.99,52.99-23.72,52.99-52.99,52.99Z"/></clipPath></defs><g id="OBJECTS"><g><path class="cls-12" d="M204.66,33.33c30,10.57,60.92,21.57,93.25,19.15,28.36-2.13,55.56-12.97,81.7-23.45,21.95-8.8,43.86-18.01,66.87-23.72,63.59-15.78,160.18,1.89,177.41,76.45,14.09,60.98-34.25,114.35-26.29,174.78,4.7,35.64,29.15,65.17,34.04,100.7,9.22,66.91-69.82,105.72-126.58,92.43-29.29-6.86-52.7-27.06-79.99-38.62-30.18-12.79-64.03-16.75-96.48-13.03-45.73,5.25-84.88,30.18-129.86,37.06-40.17,6.14-100.38,6.08-129.68-27.21-12.16-13.82-17.29-32.52-19.22-50.83-2.71-25.67,.18-51.92,8.42-76.38,9.1-27.03,23.53-52.38,29.43-80.45,2.9-13.79,3.41-28.03-.03-41.78-3.76-15.05-12.97-26.9-19.39-40.75-12.77-27.54-13.21-64.22,13.63-83.49,35.19-25.26,85.34-14.05,122.76-.86Z"/><text class="cls-10" transform="translate(108.04 260.48)"><tspan x="0" y="0">BUILD</tspan></text><text class="cls-7" transform="translate(16.07 274.77)"><tspan x="0" y="0">Lorem ipsum dolor sit amet, consectetuer </tspan><tspan x="4.41" y="9">adipiscing elit, sed diam nonummy nibh </tspan><tspan x="-5.08" y="18">euismod tincidunt ut laoreet dolore magna </tspan><tspan x="-10.41" y="27">aliquam erat volutpat. Ut wisi enim ad minim </tspan></text><text class="cls-10" transform="translate(138.13 141.65)"><tspan x="0" y="0">PLAN</tspan></text><text class="cls-7" transform="translate(42.77 155.94)"><tspan x="0" y="0">Lorem ipsum dolor sit amet, consectetuer </tspan><tspan x="4.41" y="9">adipiscing elit, sed diam nonummy nibh </tspan><tspan x="-5.08" y="18">euismod tincidunt ut laoreet dolore magna </tspan><tspan x="-10.41" y="27">aliquam erat volutpat. Ut wisi enim ad minim </tspan></text><text class="cls-10" transform="translate(4.49 381.06)"><tspan x="0" y="0">CONTINUOUS INTEGRATION</tspan></text><text class="cls-7" transform="translate(52.88 395.35)"><tspan x="0" y="0">Lorem ipsum dolor sit amet, consectetuer </tspan><tspan x="4.41" y="9">adipiscing elit, sed diam nonummy nibh </tspan><tspan x="-5.08" y="18">euismod tincidunt ut laoreet dolore magna </tspan><tspan x="-10.41" y="27">aliquam erat volutpat. Ut wisi enim ad minim </tspan></text><text class="cls-10" transform="translate(538.1 260.48)"><tspan x="0" y="0">INTEGRATION</tspan></text><text class="cls-7" transform="translate(538.1 274.77)"><tspan x="0" y="0">Lorem ipsum dolor sit amet, consectetuer </tspan><tspan x="0" y="9">adipiscing elit, sed diam nonummy nibh </tspan><tspan x="0" y="18">euismod tincidunt ut laoreet dolore magna </tspan><tspan x="0" y="27">aliquam erat volutpat. Ut wisi enim ad minim </tspan></text><text class="cls-10" transform="translate(503.46 141.65)"><tspan x="0" y="0">DEPLOY</tspan></text><text class="cls-7" transform="translate(503.46 155.94)"><tspan x="0" y="0">Lorem ipsum dolor sit amet, consectetuer </tspan><tspan x="0" y="9">adipiscing elit, sed diam nonummy nibh </tspan><tspan x="0" y="18">euismod tincidunt ut laoreet dolore magna </tspan><tspan x="0" y="27">aliquam erat volutpat. Ut wisi enim ad minim </tspan></text><text class="cls-10" transform="translate(503.46 381.06)"><tspan x="0" y="0">CREATE</tspan></text><text class="cls-7" transform="translate(503.46 395.35)"><tspan x="0" y="0">Lorem ipsum dolor sit amet, consectetuer </tspan><tspan x="0" y="9">adipiscing elit, sed diam nonummy nibh </tspan><tspan x="0" y="18">euismod tincidunt ut laoreet dolore magna </tspan><tspan x="0" y="27">aliquam erat volutpat. Ut wisi enim ad minim </tspan></text><g><g><path class="cls-9" d="M392.29,89.05l-2.06-1.31c.7-1.7,1.01-3.5,.94-5.27l2.38-.53c1.21-.27,1.97-1.46,1.7-2.67-.27-1.21-1.46-1.97-2.67-1.7l-2.38,.53c-.68-1.64-1.71-3.14-3.06-4.39l1.31-2.06c.67-1.04,.36-2.43-.68-3.09h0c-1.04-.67-2.43-.36-3.09,.68l-1.31,2.06c-1.7-.7-3.5-1.01-5.27-.94l-.53-2.38c-.27-1.21-1.46-1.97-2.67-1.7-1.21,.27-1.97,1.46-1.7,2.67l.53,2.38c-1.64,.68-3.14,1.71-4.39,3.06l-2.06-1.31c-1.04-.67-2.43-.36-3.09,.68h0c-.67,1.04-.36,2.43,.68,3.09l2.06,1.31c-.7,1.7-1.01,3.5-.94,5.27l-2.38,.52c-1.21,.27-1.97,1.46-1.7,2.67,.27,1.21,1.46,1.97,2.67,1.7l2.38-.53c.68,1.64,1.71,3.14,3.06,4.39l-1.31,2.06c-.67,1.04-.36,2.43,.68,3.09h0c1.04,.67,2.43,.36,3.09-.68l1.31-2.06c1.7,.7,3.5,1.01,5.27,.94l.53,2.38c.27,1.21,1.46,1.97,2.67,1.7,1.21-.27,1.97-1.46,1.7-2.67l-.53-2.38c1.64-.68,3.14-1.71,4.39-3.06l2.06,1.31c1.04,.67,2.43,.36,3.09-.68h0c.67-1.04,.36-2.43-.68-3.09Zm-18.68,2.22c-4.24-2.71-5.49-8.35-2.77-12.59,2.71-4.24,8.35-5.49,12.59-2.77,4.24,2.71,5.49,8.35,2.77,12.59-2.71,4.24-8.35,5.49-12.59,2.77Z"/><path class="cls-9" d="M381.77,99.93c-.47,0-.93-.13-1.33-.39-.56-.36-.95-.91-1.09-1.56l-.48-2.18c-1.71,.04-3.38-.26-4.97-.88l-1.2,1.88c-.74,1.16-2.28,1.49-3.43,.76-1.16-.74-1.49-2.28-.76-3.43l1.2-1.88c-1.24-1.18-2.21-2.57-2.89-4.14l-2.18,.48c-.65,.14-1.31,.02-1.87-.33-.56-.36-.95-.91-1.09-1.56-.29-1.34,.55-2.67,1.89-2.96l2.18-.48c-.04-1.71,.26-3.38,.88-4.97l-1.88-1.2c-1.16-.74-1.49-2.28-.76-3.43,.74-1.16,2.28-1.49,3.44-.76l1.88,1.2c1.18-1.24,2.57-2.21,4.14-2.89l-.48-2.18c-.29-1.34,.55-2.67,1.89-2.96,1.34-.3,2.67,.55,2.96,1.89l.48,2.18c1.7-.04,3.38,.26,4.97,.88l1.2-1.88c.36-.56,.91-.95,1.56-1.09,.65-.14,1.31-.02,1.87,.33,.56,.36,.95,.91,1.09,1.56,.14,.65,.02,1.31-.33,1.87l-1.2,1.88c1.24,1.18,2.21,2.57,2.89,4.14l2.18-.48c.65-.14,1.31-.02,1.87,.33,.56,.36,.95,.91,1.09,1.56,.14,.65,.02,1.31-.33,1.87-.36,.56-.91,.95-1.56,1.09l-2.18,.48c.04,1.71-.26,3.38-.88,4.97l1.88,1.2h0c1.16,.74,1.49,2.28,.76,3.43-.36,.56-.91,.95-1.56,1.09-.65,.14-1.31,.02-1.87-.33l-1.88-1.2c-1.18,1.24-2.57,2.21-4.14,2.89l.48,2.18c.29,1.34-.55,2.67-1.89,2.96-.18,.04-.36,.06-.54,.06Zm-2.71-4.64c.12,0,.22,.08,.24,.2l.53,2.38c.11,.52,.42,.96,.87,1.25,.45,.29,.98,.38,1.5,.27,1.07-.24,1.75-1.3,1.51-2.37l-.53-2.38c-.03-.12,.04-.24,.15-.28,1.65-.69,3.09-1.7,4.3-3,.08-.09,.21-.11,.32-.04l2.06,1.31c.45,.29,.98,.38,1.5,.27,.52-.11,.96-.42,1.25-.87,.59-.92,.32-2.16-.61-2.75l-2.06-1.31c-.1-.06-.14-.19-.1-.3,.68-1.65,.99-3.38,.92-5.17,0-.12,.08-.23,.2-.25l2.38-.53c.52-.11,.96-.42,1.25-.87,.29-.45,.38-.98,.27-1.5-.11-.52-.42-.96-.87-1.25-.45-.29-.98-.38-1.5-.27l-2.38,.53c-.12,.03-.24-.04-.28-.15-.68-1.65-1.7-3.09-3-4.3-.09-.08-.11-.22-.04-.32l1.31-2.06c.29-.45,.38-.98,.27-1.5-.11-.52-.42-.96-.87-1.25-.45-.29-.98-.38-1.5-.27-.52,.11-.96,.42-1.25,.87l-1.31,2.06c-.07,.1-.2,.14-.3,.1-1.65-.68-3.38-.99-5.17-.92-.11,0-.23-.08-.25-.2l-.52-2.38c-.24-1.07-1.3-1.75-2.37-1.51-1.07,.24-1.75,1.3-1.51,2.37l.52,2.38c.03,.12-.04,.24-.15,.28-1.65,.69-3.09,1.7-4.3,3-.08,.09-.21,.11-.32,.04l-2.06-1.31c-.92-.59-2.16-.32-2.75,.61-.59,.92-.32,2.16,.61,2.75l2.06,1.31c.1,.06,.14,.19,.1,.3-.68,1.65-.99,3.38-.92,5.17,0,.12-.08,.23-.2,.25l-2.38,.53c-1.07,.24-1.75,1.3-1.51,2.37,.11,.52,.42,.96,.87,1.25,.45,.29,.98,.38,1.5,.27l2.38-.53c.12-.03,.24,.04,.28,.15,.69,1.65,1.7,3.09,3,4.3,.09,.08,.11,.22,.04,.32l-1.31,2.06c-.59,.92-.32,2.16,.61,2.75,.92,.59,2.16,.32,2.75-.61l1.31-2.06c.06-.1,.19-.14,.3-.1,1.65,.68,3.39,.99,5.17,.92,0,0,0,0,0,0Zm-.56-2.33c-1.77,0-3.5-.5-5.02-1.48-2.11-1.35-3.57-3.43-4.1-5.88-.54-2.44-.09-4.95,1.25-7.06,1.35-2.11,3.43-3.57,5.88-4.1,2.44-.54,4.95-.09,7.06,1.25,2.11,1.35,3.57,3.43,4.1,5.88,.54,2.44,.09,4.95-1.25,7.06-1.35,2.11-3.43,3.57-5.88,4.1-.68,.15-1.36,.22-2.03,.22Zm.04-18.24c-.64,0-1.29,.07-1.93,.21-2.31,.51-4.29,1.89-5.57,3.89-1.28,2-1.7,4.37-1.19,6.68s1.89,4.29,3.89,5.57h0c2,1.28,4.37,1.7,6.68,1.19,2.31-.51,4.29-1.89,5.57-3.89,1.28-2,1.7-4.37,1.19-6.68-.51-2.31-1.89-4.29-3.89-5.57-1.44-.92-3.08-1.4-4.76-1.4Z"/></g><g><path class="cls-9" d="M440.08,97.13l-2.38-3.71c2.44-2.26,4.3-4.98,5.52-7.94l4.31,.94c2.18,.48,4.34-.91,4.81-3.09,.48-2.18-.91-4.34-3.09-4.81l-4.31-.94c.12-3.2-.44-6.44-1.71-9.52l3.71-2.38c1.88-1.21,2.43-3.71,1.22-5.59h0c-1.21-1.88-3.71-2.43-5.59-1.22l-3.71,2.38c-2.26-2.44-4.98-4.3-7.94-5.52l.94-4.31c.48-2.18-.91-4.34-3.09-4.81-2.18-.48-4.34,.91-4.81,3.09l-.94,4.31c-3.2-.12-6.44,.44-9.52,1.71l-2.38-3.71c-1.21-1.88-3.71-2.43-5.59-1.22h0c-1.88,1.21-2.43,3.71-1.22,5.59l2.38,3.71c-2.44,2.26-4.3,4.98-5.52,7.94l-4.31-.94c-2.18-.48-4.34,.91-4.81,3.09-.48,2.18,.91,4.34,3.09,4.81l4.31,.94c-.12,3.2,.44,6.44,1.71,9.52l-3.71,2.38c-1.88,1.21-2.43,3.71-1.22,5.59h0c1.21,1.88,3.71,2.43,5.59,1.22l3.71-2.38c2.26,2.44,4.98,4.3,7.94,5.52l-.94,4.31c-.48,2.18,.91,4.34,3.09,4.81,2.18,.48,4.34-.91,4.81-3.09l.94-4.31c3.2,.12,6.44-.44,9.52-1.71l2.38,3.71c1.21,1.88,3.71,2.43,5.59,1.22h0c1.88-1.21,2.43-3.71,1.22-5.59Zm-31.74-11.48c-4.91-7.66-2.69-17.85,4.97-22.76,7.66-4.91,17.85-2.69,22.76,4.97,4.91,7.66,2.69,17.85-4.97,22.76-7.66,4.91-17.85,2.69-22.76-4.97Z"/><path class="cls-9" d="M416.49,107.24c-.31,0-.62-.03-.92-.1-2.31-.5-3.78-2.8-3.28-5.11l.9-4.1c-2.93-1.24-5.51-3.04-7.69-5.35l-3.54,2.27c-.96,.62-2.11,.83-3.23,.58-1.12-.24-2.08-.91-2.7-1.88-.62-.96-.83-2.11-.58-3.23,.24-1.12,.91-2.08,1.88-2.7l3.54-2.27c-1.19-2.94-1.75-6.04-1.66-9.22l-4.1-.9c-2.31-.5-3.78-2.8-3.28-5.11,.24-1.12,.91-2.08,1.88-2.7,.97-.62,2.11-.83,3.23-.58l4.1,.9c1.24-2.93,3.04-5.51,5.35-7.69l-2.27-3.54c-.62-.96-.83-2.11-.58-3.23,.24-1.12,.91-2.08,1.88-2.7,1.99-1.28,4.65-.7,5.93,1.3l2.27,3.54c2.94-1.19,6.04-1.75,9.22-1.66l.9-4.1c.24-1.12,.91-2.08,1.88-2.7,.97-.62,2.12-.83,3.23-.58,1.12,.24,2.08,.91,2.7,1.88,.62,.96,.83,2.11,.58,3.23l-.9,4.1c2.93,1.24,5.51,3.04,7.69,5.35l3.54-2.27c.97-.62,2.12-.82,3.23-.58,1.12,.24,2.08,.91,2.7,1.88,.62,.96,.83,2.11,.58,3.23-.24,1.12-.91,2.08-1.88,2.7l-3.54,2.27c1.19,2.94,1.75,6.05,1.66,9.22l4.1,.9c2.31,.5,3.78,2.8,3.28,5.11-.24,1.12-.91,2.08-1.88,2.7-.96,.62-2.11,.83-3.23,.58l-4.11-.9c-1.24,2.93-3.04,5.51-5.35,7.69l2.27,3.54c1.28,1.99,.7,4.65-1.3,5.93-.96,.62-2.11,.83-3.23,.58-1.12-.24-2.08-.91-2.7-1.88l-2.27-3.54c-2.94,1.19-6.04,1.75-9.22,1.66l-.9,4.1c-.24,1.12-.91,2.08-1.88,2.7-.7,.45-1.5,.68-2.31,.68Zm-10.96-15.23c.07,0,.13,.03,.18,.08,2.21,2.38,4.85,4.22,7.85,5.46,.11,.05,.17,.17,.15,.28l-.94,4.31c-.45,2.04,.85,4.07,2.9,4.52,.99,.22,2.01,.03,2.86-.51,.85-.55,1.44-1.39,1.66-2.38l.94-4.31c.03-.12,.13-.21,.25-.2,3.25,.12,6.41-.45,9.41-1.69,.11-.05,.24,0,.3,.1l2.38,3.71c.55,.85,1.39,1.44,2.38,1.66,.99,.22,2.01,.03,2.86-.51,1.76-1.13,2.27-3.48,1.14-5.24l-2.38-3.71c-.07-.1-.05-.24,.04-.32,2.38-2.21,4.22-4.85,5.46-7.85,.05-.11,.17-.17,.28-.15l4.31,.94c.99,.22,2.01,.03,2.86-.51,.85-.55,1.44-1.39,1.66-2.38,.45-2.04-.85-4.07-2.9-4.52l-4.31-.94c-.12-.03-.2-.13-.2-.25,.12-3.25-.45-6.41-1.69-9.41-.05-.11,0-.24,.1-.3l3.71-2.38c.85-.55,1.44-1.39,1.66-2.38,.22-.99,.03-2.01-.51-2.86-.55-.85-1.39-1.44-2.38-1.66-.99-.22-2.01-.03-2.86,.51l-3.71,2.38c-.1,.07-.23,.05-.32-.04-2.21-2.38-4.85-4.22-7.85-5.46-.11-.05-.17-.17-.15-.28l.94-4.31c.22-.99,.03-2.01-.51-2.86-.55-.85-1.39-1.44-2.38-1.66-.99-.22-2.01-.03-2.86,.51-.85,.55-1.44,1.39-1.66,2.38l-.94,4.31c-.03,.12-.14,.2-.25,.2-3.25-.12-6.42,.45-9.41,1.69-.11,.05-.24,0-.3-.1l-2.38-3.71c-1.13-1.76-3.48-2.28-5.24-1.15-.85,.55-1.44,1.39-1.66,2.38-.22,.99-.03,2.01,.51,2.86l2.38,3.71c.07,.1,.05,.24-.04,.32-2.38,2.21-4.22,4.85-5.46,7.85-.05,.11-.17,.17-.28,.15l-4.31-.94c-.99-.22-2.01-.03-2.86,.51-.85,.55-1.44,1.39-1.66,2.38-.45,2.04,.85,4.07,2.9,4.52l4.31,.94c.12,.03,.2,.13,.2,.25-.12,3.25,.45,6.41,1.69,9.41,.05,.11,0,.24-.1,.3l-3.71,2.38c-.85,.55-1.44,1.39-1.66,2.38-.22,.99-.03,2.01,.51,2.86,.55,.85,1.39,1.44,2.38,1.66,.99,.22,2,.03,2.86-.51l3.71-2.38s.09-.04,.13-.04Zm16.69,1.47c-5.51,0-10.91-2.72-14.1-7.69-2.41-3.76-3.21-8.23-2.26-12.6,.95-4.36,3.55-8.1,7.31-10.51,3.76-2.41,8.23-3.21,12.6-2.26,4.36,.95,8.09,3.55,10.51,7.31,4.98,7.76,2.71,18.12-5.05,23.1-2.79,1.79-5.91,2.64-9,2.64Zm-.06-32.95c-3.07,0-6.08,.88-8.73,2.57-3.65,2.34-6.17,5.96-7.09,10.19-.92,4.23-.15,8.57,2.19,12.22,4.83,7.53,14.89,9.73,22.42,4.9,7.53-4.83,9.73-14.89,4.9-22.42-2.34-3.65-5.96-6.17-10.19-7.09-1.16-.25-2.33-.38-3.49-.38Z"/></g><g><g><path class="cls-3" d="M439.45,96.17l-2.38-3.71c2.44-2.26,4.3-4.98,5.52-7.94l4.31,.94c2.18,.48,4.34-.91,4.81-3.09,.48-2.18-.91-4.34-3.09-4.81l-4.31-.94c.12-3.2-.44-6.44-1.71-9.52l3.71-2.38c1.88-1.21,2.43-3.71,1.22-5.59h0c-1.21-1.88-3.71-2.43-5.59-1.22l-3.71,2.38c-2.26-2.44-4.98-4.3-7.94-5.52l.94-4.31c.48-2.18-.91-4.34-3.09-4.81-2.18-.48-4.34,.91-4.81,3.09l-.94,4.31c-3.2-.12-6.44,.44-9.52,1.71l-2.38-3.71c-1.21-1.88-3.71-2.43-5.59-1.22h0c-1.88,1.21-2.43,3.71-1.22,5.59l2.38,3.71c-2.44,2.26-4.3,4.98-5.52,7.94l-4.31-.94c-2.18-.48-4.34,.91-4.81,3.09-.48,2.18,.91,4.34,3.09,4.81l4.31,.94c-.12,3.2,.44,6.44,1.71,9.52l-3.71,2.38c-1.88,1.21-2.43,3.71-1.22,5.59h0c1.21,1.88,3.71,2.43,5.59,1.22l3.71-2.38c2.26,2.44,4.98,4.3,7.94,5.52l-.94,4.31c-.48,2.18,.91,4.34,3.09,4.81,2.18,.48,4.34-.91,4.81-3.09l.94-4.31c3.2,.12,6.44-.44,9.52-1.71l2.38,3.71c1.21,1.88,3.71,2.43,5.59,1.22h0c1.88-1.21,2.43-3.71,1.22-5.59Zm-31.74-11.48c-4.91-7.66-2.69-17.85,4.97-22.76,7.66-4.91,17.85-2.69,22.76,4.97,4.91,7.66,2.69,17.85-4.97,22.76-7.66,4.91-17.85,2.69-22.76-4.97Z"/><path class="cls-9" d="M415.85,106.27c-.3,0-.61-.03-.92-.1-1.12-.24-2.08-.91-2.7-1.88-.62-.96-.83-2.11-.58-3.23l.9-4.1c-2.93-1.24-5.51-3.04-7.69-5.35l-3.54,2.27c-.96,.62-2.11,.83-3.23,.58-1.12-.24-2.08-.91-2.7-1.88-.62-.96-.83-2.11-.58-3.23,.24-1.12,.91-2.08,1.88-2.7l3.54-2.27c-1.19-2.94-1.75-6.04-1.66-9.22l-4.1-.9c-1.12-.24-2.08-.91-2.7-1.88-.62-.96-.83-2.11-.58-3.23,.24-1.12,.91-2.08,1.88-2.7,.96-.62,2.11-.83,3.23-.58l4.11,.9c1.24-2.93,3.04-5.51,5.35-7.69l-2.27-3.54c-1.28-1.99-.7-4.65,1.3-5.93,.97-.62,2.12-.82,3.23-.58,1.12,.24,2.08,.91,2.7,1.88l2.27,3.54c2.94-1.19,6.04-1.74,9.22-1.66l.9-4.1c.24-1.12,.91-2.08,1.88-2.7,.97-.62,2.11-.83,3.23-.58,2.31,.5,3.78,2.8,3.28,5.11l-.9,4.1c2.93,1.24,5.51,3.04,7.69,5.35l3.54-2.27c1.99-1.28,4.65-.7,5.93,1.3,1.28,1.99,.7,4.65-1.3,5.93l-3.54,2.27c1.19,2.94,1.75,6.04,1.66,9.22l4.1,.9c2.31,.5,3.78,2.8,3.28,5.11-.5,2.31-2.8,3.78-5.11,3.28l-4.1-.9c-1.24,2.93-3.04,5.51-5.35,7.69l2.27,3.54c.62,.96,.83,2.11,.58,3.23-.24,1.12-.91,2.08-1.88,2.7-1.99,1.28-4.65,.7-5.93-1.29l-2.27-3.54c-2.94,1.19-6.04,1.75-9.22,1.66l-.9,4.1c-.44,2-2.22,3.38-4.19,3.38Zm-10.95-15.23c.07,0,.13,.03,.18,.08,2.21,2.38,4.85,4.22,7.85,5.46,.11,.05,.17,.17,.15,.28l-.94,4.31c-.22,.99-.03,2.01,.51,2.86,.55,.85,1.39,1.44,2.38,1.66,2.05,.44,4.07-.85,4.52-2.9l.94-4.31c.03-.12,.13-.21,.25-.2,3.25,.12,6.42-.45,9.41-1.69,.11-.05,.24,0,.3,.1l2.38,3.71c1.13,1.76,3.48,2.27,5.24,1.14,.85-.55,1.44-1.39,1.66-2.38,.22-.99,.03-2.01-.51-2.86h0l-2.38-3.71c-.07-.1-.05-.24,.04-.32,2.38-2.21,4.22-4.85,5.46-7.85,.05-.11,.17-.17,.28-.15l4.31,.94c2.04,.45,4.07-.85,4.52-2.9,.45-2.04-.85-4.07-2.9-4.52l-4.31-.94c-.12-.03-.2-.13-.2-.25,.12-3.25-.45-6.41-1.69-9.41-.05-.11,0-.24,.1-.3l3.71-2.38c1.76-1.13,2.27-3.48,1.14-5.24-1.13-1.76-3.48-2.28-5.24-1.15l-3.71,2.38c-.1,.07-.23,.05-.32-.04-2.21-2.38-4.85-4.22-7.85-5.46-.11-.05-.17-.17-.15-.28l.94-4.31c.45-2.04-.85-4.07-2.9-4.52-.99-.22-2-.03-2.86,.51-.85,.55-1.44,1.39-1.66,2.38l-.94,4.31c-.03,.12-.14,.21-.25,.2-3.25-.12-6.41,.45-9.41,1.69-.11,.05-.24,0-.3-.1l-2.38-3.71c-.55-.85-1.39-1.44-2.38-1.66-.99-.22-2.01-.03-2.86,.51-1.76,1.13-2.27,3.48-1.14,5.24l2.38,3.71c.07,.1,.05,.23-.04,.32-2.38,2.21-4.22,4.85-5.46,7.85-.05,.11-.17,.17-.28,.15l-4.31-.94c-.99-.22-2.01-.03-2.86,.51-.85,.55-1.44,1.39-1.66,2.38-.22,.99-.03,2.01,.51,2.86,.55,.85,1.39,1.44,2.38,1.66l4.31,.94c.12,.03,.2,.13,.2,.25-.12,3.25,.45,6.42,1.69,9.41,.05,.11,0,.24-.1,.3l-3.71,2.38c-.85,.55-1.44,1.39-1.66,2.38-.22,.99-.03,2.01,.51,2.86,.55,.85,1.39,1.44,2.38,1.66,.99,.22,2.01,.03,2.86-.51l3.71-2.38s.09-.04,.13-.04Zm16.7,1.48c-1.2,0-2.4-.13-3.6-.39-4.36-.95-8.09-3.55-10.51-7.31h0c-4.98-7.76-2.71-18.12,5.05-23.1,3.76-2.41,8.23-3.21,12.6-2.26,4.36,.95,8.1,3.55,10.51,7.31s3.21,8.23,2.26,12.6c-.95,4.36-3.55,8.09-7.31,10.51-2.73,1.75-5.83,2.65-9,2.65Zm-13.69-7.97c2.34,3.65,5.96,6.17,10.19,7.09,4.23,.92,8.57,.15,12.22-2.19,3.65-2.34,6.17-5.96,7.09-10.19,.92-4.23,.15-8.57-2.19-12.22-2.34-3.65-5.96-6.17-10.19-7.09-4.23-.92-8.57-.14-12.22,2.19-7.53,4.83-9.73,14.89-4.9,22.42Z"/></g><g><path class="cls-3" d="M446.37,60.21s1.94,2.73-2.04,3.92"/><path class="cls-1" d="M444.33,64.38c-.11,0-.21-.07-.24-.18-.04-.13,.03-.27,.17-.31,1.24-.37,1.99-.92,2.24-1.64,.33-.94-.33-1.89-.33-1.9-.08-.11-.05-.27,.06-.35,.11-.08,.27-.05,.35,.06,.03,.05,.81,1.16,.4,2.34-.3,.88-1.17,1.54-2.57,1.96-.02,0-.05,.01-.07,.01Z"/></g></g><g><path class="cls-3" d="M427.43,46.99s3.35-.07,2.1,3.89"/><path class="cls-1" d="M429.53,51.12s-.05,0-.07-.01c-.13-.04-.2-.18-.16-.31,.39-1.23,.35-2.17-.11-2.78-.6-.8-1.74-.78-1.75-.78h0c-.14,0-.25-.11-.25-.24,0-.14,.11-.25,.24-.25,.06,0,1.41-.02,2.16,.98,.56,.75,.62,1.83,.18,3.23-.03,.11-.13,.17-.24,.17Z"/></g><g><path class="cls-9" d="M405.55,112.4l-1.56-1c.53-1.29,.76-2.65,.71-4l1.81-.4c.92-.2,1.49-1.11,1.29-2.02-.2-.92-1.11-1.49-2.02-1.29l-1.81,.4c-.52-1.24-1.3-2.38-2.32-3.33l1-1.56c.5-.79,.27-1.84-.52-2.34h0c-.79-.5-1.84-.27-2.34,.52l-1,1.56c-1.29-.53-2.65-.76-4-.71l-.4-1.81c-.2-.92-1.11-1.49-2.02-1.29-.92,.2-1.49,1.11-1.29,2.02l.4,1.81c-1.24,.52-2.38,1.3-3.33,2.32l-1.56-1c-.79-.5-1.84-.27-2.34,.52h0c-.5,.79-.27,1.84,.52,2.34l1.56,1c-.53,1.29-.76,2.65-.71,4l-1.81,.4c-.92,.2-1.49,1.11-1.29,2.02,.2,.92,1.11,1.49,2.02,1.29l1.81-.4c.52,1.24,1.3,2.38,2.32,3.33l-1,1.56c-.5,.79-.27,1.84,.52,2.34h0c.79,.5,1.84,.27,2.34-.52l1-1.56c1.29,.53,2.65,.76,4,.71l.4,1.81c.2,.92,1.11,1.49,2.02,1.29,.92-.2,1.49-1.11,1.29-2.02l-.4-1.81c1.24-.52,2.38-1.3,3.33-2.32l1.56,1c.79,.5,1.84,.27,2.34-.52h0c.5-.79,.27-1.84-.52-2.34Zm-14.12,1.2c-3.22-2.06-4.16-6.33-2.1-9.55,2.06-3.22,6.33-4.16,9.55-2.1,3.22,2.06,4.16,6.33,2.1,9.55-2.06,3.22-6.33,4.16-9.55,2.1Z"/><path class="cls-9" d="M397.58,120.7c-.37,0-.73-.1-1.04-.31-.44-.28-.74-.71-.85-1.22l-.35-1.61c-1.27,.02-2.51-.2-3.7-.66l-.89,1.39c-.58,.9-1.78,1.17-2.69,.59-.9-.58-1.17-1.78-.59-2.69l.88-1.39c-.91-.88-1.64-1.92-2.15-3.08l-1.61,.35c-.51,.11-1.03,.02-1.47-.26-.44-.28-.74-.71-.85-1.22-.11-.51-.02-1.03,.26-1.47,.28-.44,.71-.74,1.22-.85l1.61-.35c-.02-1.27,.2-2.51,.66-3.7l-1.39-.89c-.9-.58-1.17-1.78-.59-2.69,.28-.44,.71-.74,1.22-.85,.51-.11,1.03-.02,1.47,.26l1.39,.89c.88-.91,1.92-1.64,3.08-2.15l-.35-1.61c-.23-1.05,.43-2.09,1.48-2.32,1.05-.23,2.09,.43,2.32,1.48l.35,1.61c1.27-.02,2.51,.2,3.7,.66l.88-1.39c.58-.9,1.78-1.17,2.69-.59,.9,.58,1.17,1.78,.59,2.69l-.89,1.39c.91,.88,1.64,1.92,2.15,3.08l1.61-.35c.51-.11,1.03-.02,1.47,.26,.44,.28,.74,.71,.85,1.22,.11,.51,.02,1.03-.26,1.47-.28,.44-.71,.74-1.22,.85l-1.61,.35c.02,1.27-.2,2.51-.66,3.7l1.39,.89c.44,.28,.74,.71,.85,1.22,.11,.51,.02,1.03-.26,1.47-.28,.44-.71,.74-1.22,.85-.51,.11-1.03,.02-1.47-.26l-1.39-.89c-.88,.91-1.92,1.64-3.08,2.15l.35,1.61c.23,1.05-.43,2.09-1.48,2.32-.14,.03-.28,.05-.42,.05Zm-2.05-3.64c.12,0,.22,.08,.24,.2l.4,1.81c.17,.78,.95,1.27,1.73,1.1,.78-.17,1.27-.95,1.1-1.73l-.4-1.81c-.03-.12,.04-.24,.15-.28,1.24-.52,2.33-1.28,3.24-2.26,.08-.09,.21-.11,.32-.04l1.56,1c.33,.21,.71,.28,1.09,.19,.38-.08,.7-.31,.91-.63,.21-.33,.28-.71,.19-1.09s-.31-.7-.63-.91h0l-1.56-1c-.1-.06-.14-.19-.1-.3,.51-1.24,.74-2.55,.69-3.89,0-.12,.08-.23,.2-.25l1.81-.4c.38-.08,.7-.31,.91-.63,.21-.33,.28-.71,.19-1.09-.08-.38-.31-.7-.63-.91-.33-.21-.71-.28-1.09-.19l-1.81,.4c-.12,.03-.24-.04-.28-.15-.52-1.24-1.28-2.33-2.26-3.24-.09-.08-.11-.22-.04-.32l1-1.56c.43-.67,.23-1.57-.44-2-.67-.43-1.57-.23-2,.44l-1,1.56c-.06,.1-.19,.14-.3,.1-1.24-.51-2.55-.75-3.89-.69-.12,0-.23-.08-.25-.2l-.4-1.81c-.17-.78-.95-1.27-1.73-1.1-.78,.17-1.27,.95-1.1,1.73l.4,1.81c.03,.12-.04,.24-.15,.28-1.24,.52-2.33,1.28-3.24,2.26-.08,.09-.22,.11-.32,.04l-1.56-1c-.67-.43-1.57-.23-2,.44-.43,.67-.23,1.57,.44,2l1.56,1c.1,.06,.14,.19,.1,.3-.51,1.24-.74,2.55-.69,3.89,0,.12-.08,.23-.2,.25l-1.81,.4c-.38,.08-.7,.31-.91,.63-.21,.33-.28,.71-.19,1.09,.17,.78,.95,1.27,1.73,1.1l1.81-.4c.12-.03,.24,.04,.28,.15,.52,1.24,1.28,2.33,2.26,3.24,.09,.08,.11,.22,.04,.32l-1,1.56c-.43,.67-.23,1.57,.44,2,.33,.21,.71,.28,1.09,.19s.7-.31,.91-.63l1-1.56c.06-.1,.19-.14,.3-.1,1.24,.51,2.55,.75,3.89,.69,0,0,0,0,0,0Zm-.38-2.13c-1.35,0-2.68-.38-3.84-1.13h0c-1.61-1.03-2.73-2.63-3.14-4.49-.41-1.87-.07-3.79,.96-5.4,2.13-3.33,6.56-4.31,9.89-2.18,1.61,1.03,2.73,2.63,3.14,4.49,.41,1.87,.07,3.78-.96,5.4-1.03,1.61-2.63,2.73-4.49,3.14-.52,.11-1.04,.17-1.56,.17Zm.02-13.83c-2.2,0-4.36,1.09-5.63,3.07-.96,1.5-1.28,3.28-.89,5.02,.38,1.74,1.42,3.22,2.92,4.18h0c1.5,.96,3.28,1.27,5.02,.89,1.74-.38,3.22-1.42,4.18-2.92,.96-1.5,1.28-3.28,.89-5.02-.38-1.74-1.42-3.22-2.92-4.18-1.11-.71-2.35-1.05-3.58-1.05Z"/></g><g><g><path class="cls-16" d="M392.22,88.32l-2.06-1.31c.7-1.7,1.01-3.5,.94-5.27l2.38-.52c1.21-.27,1.97-1.46,1.7-2.67-.27-1.21-1.46-1.97-2.67-1.7l-2.38,.53c-.68-1.64-1.71-3.14-3.06-4.39l1.31-2.06c.67-1.04,.36-2.43-.68-3.09h0c-1.04-.67-2.43-.36-3.09,.68l-1.31,2.06c-1.7-.7-3.5-1.01-5.27-.94l-.53-2.38c-.27-1.21-1.46-1.97-2.67-1.7-1.21,.27-1.97,1.46-1.7,2.67l.53,2.38c-1.64,.68-3.14,1.71-4.39,3.06l-2.06-1.31c-1.04-.67-2.43-.36-3.09,.68h0c-.67,1.04-.36,2.43,.68,3.09l2.06,1.31c-.7,1.7-1.01,3.5-.94,5.27l-2.38,.52c-1.21,.27-1.97,1.46-1.7,2.67,.27,1.21,1.46,1.97,2.67,1.7l2.38-.53c.68,1.64,1.71,3.14,3.06,4.39l-1.31,2.06c-.67,1.04-.36,2.43,.68,3.09h0c1.04,.67,2.43,.36,3.09-.68l1.31-2.06c1.7,.7,3.5,1.01,5.27,.94l.53,2.38c.27,1.21,1.46,1.97,2.67,1.7,1.21-.27,1.97-1.46,1.7-2.67l-.53-2.38c1.64-.68,3.14-1.71,4.39-3.06l2.06,1.31c1.04,.67,2.43,.36,3.09-.68h0c.67-1.04,.36-2.43-.68-3.09Zm-18.62,1.58c-4.24-2.71-5.49-8.35-2.77-12.59,2.71-4.24,8.35-5.49,12.59-2.77,4.24,2.71,5.49,8.35,2.77,12.59-2.71,4.24-8.35,5.49-12.59,2.77Z"/><path class="cls-9" d="M381.7,99.19c-.47,0-.93-.13-1.33-.39-.56-.36-.95-.91-1.09-1.56l-.48-2.18c-1.71,.04-3.38-.26-4.97-.88l-1.2,1.88c-.74,1.16-2.28,1.49-3.43,.76-.56-.36-.95-.91-1.09-1.56-.14-.65-.02-1.31,.33-1.87l1.2-1.88c-1.24-1.18-2.21-2.57-2.89-4.14l-2.18,.48c-1.34,.29-2.67-.55-2.96-1.89-.14-.65-.02-1.31,.33-1.87,.36-.56,.91-.95,1.56-1.09l2.18-.48c-.04-1.71,.26-3.38,.88-4.97l-1.88-1.2c-.56-.36-.95-.91-1.09-1.56-.14-.65-.02-1.31,.33-1.87,.36-.56,.91-.95,1.56-1.09,.65-.14,1.31-.02,1.87,.33l1.88,1.2c1.18-1.24,2.57-2.21,4.14-2.89l-.48-2.18c-.14-.65-.02-1.31,.33-1.87,.36-.56,.91-.95,1.56-1.09,1.34-.3,2.67,.55,2.96,1.89l.48,2.18c1.71-.04,3.38,.26,4.97,.88l1.2-1.88c.74-1.16,2.28-1.5,3.43-.76,.56,.36,.95,.91,1.09,1.56,.14,.65,.02,1.31-.33,1.87l-1.2,1.88c1.24,1.18,2.21,2.57,2.89,4.14l2.18-.48c.65-.14,1.31-.02,1.87,.33,.56,.36,.95,.91,1.09,1.56,.3,1.34-.55,2.67-1.89,2.96l-2.18,.48c.04,1.71-.26,3.38-.88,4.97l1.88,1.2c1.16,.74,1.49,2.28,.76,3.43-.74,1.16-2.28,1.49-3.43,.76l-1.88-1.2c-1.18,1.24-2.57,2.21-4.14,2.89l.48,2.18c.14,.65,.02,1.31-.33,1.87-.36,.56-.91,.95-1.56,1.09-.18,.04-.36,.06-.54,.06Zm-2.71-4.64c.12,0,.22,.08,.24,.2l.53,2.38c.11,.52,.42,.96,.87,1.25s.98,.38,1.5,.27c.52-.11,.96-.42,1.25-.87,.29-.45,.38-.98,.27-1.5l-.52-2.38c-.03-.12,.04-.24,.15-.28,1.65-.69,3.09-1.7,4.3-3,.08-.09,.22-.11,.32-.04l2.06,1.31c.92,.59,2.16,.32,2.75-.61,.59-.92,.32-2.16-.61-2.75h0l-2.06-1.31c-.1-.06-.14-.19-.1-.3,.68-1.65,.99-3.38,.92-5.17,0-.12,.08-.23,.2-.25l2.38-.52c1.07-.24,1.75-1.3,1.51-2.37-.11-.52-.42-.96-.87-1.25-.45-.29-.98-.38-1.5-.27l-2.38,.53c-.12,.03-.24-.04-.28-.15-.69-1.65-1.7-3.09-3-4.3-.09-.08-.11-.22-.04-.32l1.31-2.06c.29-.45,.38-.98,.27-1.5-.11-.52-.42-.96-.87-1.25-.92-.59-2.16-.32-2.75,.61l-1.31,2.06c-.07,.1-.19,.14-.3,.1-1.65-.68-3.38-.99-5.17-.92-.13,.02-.23-.08-.25-.2l-.53-2.38c-.24-1.07-1.3-1.75-2.37-1.51-.52,.11-.96,.42-1.25,.87-.29,.45-.38,.98-.27,1.5l.52,2.38c.03,.12-.04,.24-.15,.28-1.65,.69-3.09,1.7-4.3,3-.08,.09-.22,.11-.32,.04l-2.06-1.31c-.45-.29-.98-.38-1.5-.27-.52,.11-.96,.42-1.25,.87-.29,.45-.38,.98-.27,1.5,.11,.52,.42,.96,.87,1.25l2.06,1.31c.1,.06,.14,.19,.1,.3-.68,1.65-.99,3.38-.92,5.17,0,.12-.08,.23-.2,.25l-2.38,.53c-.52,.11-.96,.42-1.25,.87-.29,.45-.38,.98-.27,1.5,.24,1.07,1.29,1.75,2.37,1.51l2.38-.53c.12-.03,.24,.04,.28,.15,.69,1.65,1.7,3.09,3,4.3,.09,.08,.11,.22,.04,.32l-1.31,2.06c-.29,.45-.38,.98-.27,1.5,.11,.52,.42,.96,.87,1.25,.92,.59,2.16,.32,2.75-.61l1.31-2.06c.06-.1,.19-.14,.3-.1,1.65,.68,3.39,.99,5.17,.92,0,0,0,0,0,0Zm-.5-2.97c-1.73,0-3.47-.48-5.03-1.47-2.11-1.35-3.57-3.43-4.1-5.88-.54-2.44-.09-4.95,1.25-7.06,1.35-2.11,3.43-3.57,5.88-4.1,2.44-.54,4.95-.09,7.06,1.25,2.11,1.35,3.57,3.43,4.1,5.88,.54,2.44,.09,4.95-1.25,7.06-1.79,2.79-4.82,4.32-7.91,4.32Zm.03-18.24c-.64,0-1.29,.07-1.93,.21-2.31,.51-4.29,1.89-5.57,3.89-1.28,2-1.7,4.37-1.19,6.68,.51,2.31,1.89,4.29,3.89,5.57h0c4.12,2.63,9.61,1.42,12.25-2.7,1.28-2,1.7-4.37,1.19-6.68-.51-2.31-1.89-4.29-3.89-5.57-1.44-.92-3.08-1.4-4.76-1.4Z"/></g><path class="cls-1" d="M387.24,71.36c-.06,0-.12-.02-.17-.06-.1-.09-.11-.25-.02-.35,.49-.54,.7-1.03,.61-1.43-.11-.53-.69-.79-.69-.79-.13-.06-.18-.2-.13-.33,.05-.12,.2-.18,.33-.13,.03,.01,.81,.36,.98,1.14,.12,.58-.12,1.21-.73,1.88-.05,.05-.12,.08-.18,.08Z"/><path class="cls-1" d="M392.34,80.71s-.04,0-.06,0c-.14,0-.25-.11-.25-.25s.11-.25,.25-.25c.74,0,1.23-.16,1.48-.5,.32-.43,.13-1.04,.13-1.04-.04-.13,.03-.27,.16-.31,.13-.04,.27,.03,.31,.16,.01,.03,.27,.85-.2,1.49-.34,.46-.96,.7-1.83,.7Z"/></g></g><g><g><g><rect class="cls-2" x="416.81" y="406.08" width="47.86" height="35.8" transform="translate(881.48 847.95) rotate(180)"/><path class="cls-9" d="M464.67,442.13h-47.86c-.14,0-.25-.11-.25-.25v-35.8c0-.14,.11-.25,.25-.25h47.86c.14,0,.25,.11,.25,.25v35.8c0,.14-.11,.25-.25,.25Zm-47.61-.5h47.36v-35.3h-47.36v35.3Z"/></g><g><rect class="cls-9" x="463.49" y="404.84" width="2.36" height="2.48" transform="translate(929.34 812.16) rotate(180)"/><path class="cls-9" d="M465.85,407.57h-2.37c-.14,0-.25-.11-.25-.25v-2.48c0-.14,.11-.25,.25-.25h2.37c.14,0,.25,.11,.25,.25v2.48c0,.14-.11,.25-.25,.25Zm-2.12-.5h1.87v-1.98h-1.87v1.98Z"/></g><g><rect class="cls-9" x="415.7" y="404.93" width="2.36" height="2.48" transform="translate(833.76 812.34) rotate(180)"/><path class="cls-9" d="M418.06,407.66h-2.36c-.14,0-.25-.11-.25-.25v-2.48c0-.14,.11-.25,.25-.25h2.36c.14,0,.25,.11,.25,.25v2.48c0,.14-.11,.25-.25,.25Zm-2.11-.5h1.87v-1.98h-1.87v1.98Z"/></g><g><rect class="cls-9" x="463.49" y="440.63" width="2.36" height="2.48" transform="translate(929.34 883.75) rotate(180)"/><path class="cls-9" d="M465.85,443.37h-2.37c-.14,0-.25-.11-.25-.25v-2.48c0-.14,.11-.25,.25-.25h2.37c.14,0,.25,.11,.25,.25v2.48c0,.14-.11,.25-.25,.25Zm-2.12-.5h1.87v-1.98h-1.87v1.98Z"/></g><g><rect class="cls-9" x="415.7" y="440.63" width="2.36" height="2.48" transform="translate(833.76 883.75) rotate(180)"/><path class="cls-9" d="M418.06,443.37h-2.36c-.14,0-.25-.11-.25-.25v-2.48c0-.14,.11-.25,.25-.25h2.36c.14,0,.25,.11,.25,.25v2.48c0,.14-.11,.25-.25,.25Zm-2.11-.5h1.87v-1.98h-1.87v1.98Z"/></g></g><g><g><path class="cls-13" d="M448.14,432.04h-18.94c-.84,0-1.52,.68-1.52,1.52h0c0,.84,.68,1.52,1.52,1.52h18.94c.84,0,1.52-.68,1.52-1.52h0c0-.84-.68-1.52-1.52-1.52Z"/><path class="cls-9" d="M448.14,435.32h-18.94c-.97,0-1.77-.79-1.77-1.77s.79-1.77,1.77-1.77h18.94c.97,0,1.77,.79,1.77,1.77s-.79,1.77-1.77,1.77Zm-18.94-3.04c-.7,0-1.27,.57-1.27,1.27s.57,1.27,1.27,1.27h18.94c.7,0,1.27-.57,1.27-1.27s-.57-1.27-1.27-1.27h-18.94Z"/></g><g><path class="cls-3" d="M448.14,419.61h-18.94c-.84,0-1.52,.68-1.52,1.52h0c0,.84,.68,1.52,1.52,1.52h18.94c.84,0,1.52-.68,1.52-1.52h0c0-.84-.68-1.52-1.52-1.52Z"/><path class="cls-9" d="M448.14,422.9h-18.94c-.97,0-1.77-.79-1.77-1.77s.79-1.77,1.77-1.77h18.94c.97,0,1.77,.79,1.77,1.77s-.79,1.77-1.77,1.77Zm-18.94-3.04c-.7,0-1.27,.57-1.27,1.27s.57,1.27,1.27,1.27h18.94c.7,0,1.27-.57,1.27-1.27s-.57-1.27-1.27-1.27h-18.94Z"/></g><g><path class="cls-13" d="M452.81,426.05h-11.74c-.84,0-1.52,.68-1.52,1.52h0c0,.84,.68,1.52,1.52,1.52h11.74c.84,0,1.52-.68,1.52-1.52h0c0-.84-.68-1.52-1.52-1.52Z"/><path class="cls-9" d="M452.81,429.33h-11.74c-.97,0-1.77-.79-1.77-1.77s.79-1.77,1.77-1.77h11.74c.97,0,1.77,.79,1.77,1.77s-.79,1.77-1.77,1.77Zm-11.74-3.04c-.7,0-1.27,.57-1.27,1.27s.57,1.27,1.27,1.27h11.74c.7,0,1.27-.57,1.27-1.27s-.57-1.27-1.27-1.27h-11.74Z"/></g><g><path class="cls-3" d="M459.79,432.04h-6.1c-.84,0-1.52,.68-1.52,1.52h0c0,.84,.68,1.52,1.52,1.52h6.1c.84,0,1.52-.68,1.52-1.52h0c0-.84-.68-1.52-1.52-1.52Z"/><path class="cls-9" d="M459.79,435.32h-6.1c-.97,0-1.77-.79-1.77-1.77s.79-1.77,1.77-1.77h6.1c.97,0,1.77,.79,1.77,1.77s-.79,1.77-1.77,1.77Zm-6.1-3.04c-.7,0-1.27,.57-1.27,1.27s.57,1.27,1.27,1.27h6.1c.7,0,1.27-.57,1.27-1.27s-.57-1.27-1.27-1.27h-6.1Z"/></g><g><path class="cls-13" d="M446.48,412.78h-17.28c-.84,0-1.52,.68-1.52,1.52h0c0,.84,.68,1.52,1.52,1.52h17.28c.84,0,1.52-.68,1.52-1.52h0c0-.84-.68-1.52-1.52-1.52Z"/><path class="cls-9" d="M446.48,416.06h-17.28c-.97,0-1.77-.79-1.77-1.77s.79-1.77,1.77-1.77h17.28c.97,0,1.77,.79,1.77,1.77s-.79,1.77-1.77,1.77Zm-17.28-3.04c-.7,0-1.27,.57-1.27,1.27s.57,1.27,1.27,1.27h17.28c.7,0,1.27-.57,1.27-1.27s-.57-1.27-1.27-1.27h-17.28Z"/></g><g><path class="cls-3" d="M457.26,412.78h-5.41c-.84,0-1.52,.68-1.52,1.52h0c0,.84,.68,1.52,1.52,1.52h5.41c.84,0,1.52-.68,1.52-1.52h0c0-.84-.68-1.52-1.52-1.52Z"/><path class="cls-9" d="M457.26,416.06h-5.41c-.97,0-1.77-.79-1.77-1.77s.79-1.77,1.77-1.77h5.41c.97,0,1.77,.79,1.77,1.77s-.79,1.77-1.77,1.77Zm-5.41-3.04c-.7,0-1.27,.57-1.27,1.27s.57,1.27,1.27,1.27h5.41c.7,0,1.27-.57,1.27-1.27s-.57-1.27-1.27-1.27h-5.41Z"/></g><g><path class="cls-3" d="M435.3,426.04h-6.1c-.84,0-1.52,.68-1.52,1.52h0c0,.84,.68,1.52,1.52,1.52h6.1c.84,0,1.52-.68,1.52-1.52h0c0-.84-.68-1.52-1.52-1.52Z"/><path class="cls-9" d="M435.3,429.33h-6.1c-.97,0-1.77-.79-1.77-1.77s.79-1.77,1.77-1.77h6.1c.97,0,1.77,.79,1.77,1.77s-.79,1.77-1.77,1.77Zm-6.1-3.04c-.7,0-1.27,.57-1.27,1.27s.57,1.27,1.27,1.27h6.1c.7,0,1.27-.57,1.27-1.27s-.57-1.27-1.27-1.27h-6.1Z"/></g></g></g><g><g><g><rect class="cls-16" x="243.12" y="62.29" width="45.89" height="63.24" rx="1.38" ry="1.38"/><path class="cls-9" d="M288.26,125.8h-44.39c-.56,0-1.02-.46-1.02-1.02V63.04c0-.56,.46-1.02,1.02-1.02h44.39c.56,0,1.02,.46,1.02,1.02v61.74c0,.56-.46,1.02-1.02,1.02Zm-44.39-63.24c-.26,0-.48,.21-.48,.48v61.74c0,.26,.21,.48,.48,.48h44.39c.26,0,.48-.21,.48-.48V63.04c0-.26-.21-.48-.48-.48h-44.39Z"/></g><g><rect class="cls-1" x="248.35" y="69.06" width="36.43" height="6.65" rx="1.22" ry="1.22"/><path class="cls-13" d="M263.08,71.84h-10.82c-.15,0-.27-.12-.27-.27s.12-.27,.27-.27h10.82c.15,0,.27,.12,.27,.27s-.12,.27-.27,.27Z"/><path class="cls-13" d="M269.14,71.84h-4.51c-.15,0-.27-.12-.27-.27s.12-.27,.27-.27h4.51c.15,0,.27,.12,.27,.27s-.12,.27-.27,.27Z"/><path class="cls-13" d="M269.14,74.01h-4.51c-.15,0-.27-.12-.27-.27s.12-.27,.27-.27h4.51c.15,0,.27,.12,.27,.27s-.12,.27-.27,.27Z"/><g><circle class="cls-1" cx="280.8" cy="72.53" r="1.56"/><path class="cls-13" d="M280.8,74.36c-1.01,0-1.83-.82-1.83-1.83s.82-1.83,1.83-1.83,1.83,.82,1.83,1.83-.82,1.83-1.83,1.83Zm0-3.11c-.71,0-1.28,.58-1.28,1.28s.58,1.28,1.28,1.28,1.29-.58,1.29-1.28-.58-1.28-1.29-1.28Z"/></g></g><g><path class="cls-1" d="M282.12,84.36h-10.82c-.15,0-.27-.12-.27-.27s.12-.27,.27-.27h10.82c.15,0,.27,.12,.27,.27s-.12,.27-.27,.27Z"/><path class="cls-1" d="M269.75,84.36h-4.51c-.15,0-.27-.12-.27-.27s.12-.27,.27-.27h4.51c.15,0,.27,.12,.27,.27s-.12,.27-.27,.27Z"/><path class="cls-1" d="M269.75,82.2h-4.51c-.15,0-.27-.12-.27-.27s.12-.27,.27-.27h4.51c.15,0,.27,.12,.27,.27s-.12,.27-.27,.27Z"/><path class="cls-1" d="M284.12,86.6h-35.1c-.52,0-.94-.42-.94-.94v-5.32c0-.52,.42-.94,.94-.94h35.1c.52,0,.94,.42,.94,.94v5.32c0,.52-.42,.94-.94,.94Zm-35.1-6.65c-.22,0-.39,.18-.39,.39v5.32c0,.22,.18,.39,.39,.39h35.1c.22,0,.39-.18,.39-.39v-5.32c0-.22-.18-.39-.39-.39h-35.1Z"/><path class="cls-1" d="M253.82,83.01c0,.86-.7,1.56-1.56,1.56s-1.56-.7-1.56-1.56,.7-1.56,1.56-1.56,1.56,.7,1.56,1.56Z"/></g><g><rect class="cls-1" x="248.35" y="90.62" width="36.43" height="6.65" rx="1.22" ry="1.22"/><path class="cls-3" d="M263.08,93.4h-10.82c-.15,0-.27-.12-.27-.27s.12-.27,.27-.27h10.82c.15,0,.27,.12,.27,.27s-.12,.27-.27,.27Z"/><path class="cls-3" d="M269.14,93.4h-4.51c-.15,0-.27-.12-.27-.27s.12-.27,.27-.27h4.51c.15,0,.27,.12,.27,.27s-.12,.27-.27,.27Z"/><path class="cls-3" d="M269.14,95.56h-4.51c-.15,0-.27-.12-.27-.27s.12-.27,.27-.27h4.51c.15,0,.27,.12,.27,.27s-.12,.27-.27,.27Z"/><g><circle class="cls-1" cx="280.8" cy="94.09" r="1.56"/><path class="cls-3" d="M280.8,95.92c-1.01,0-1.83-.82-1.83-1.83s.82-1.83,1.83-1.83,1.83,.82,1.83,1.83-.82,1.83-1.83,1.83Zm0-3.11c-.71,0-1.28,.58-1.28,1.28s.58,1.28,1.28,1.28,1.29-.58,1.29-1.28-.58-1.28-1.29-1.28Z"/></g></g><g><rect class="cls-1" x="248.35" y="112.66" width="36.43" height="6.65" rx="1.22" ry="1.22"/><path class="cls-13" d="M263.08,115.43h-10.82c-.15,0-.27-.12-.27-.27s.12-.27,.27-.27h10.82c.15,0,.27,.12,.27,.27s-.12,.27-.27,.27Z"/><path class="cls-13" d="M269.14,115.43h-4.51c-.15,0-.27-.12-.27-.27s.12-.27,.27-.27h4.51c.15,0,.27,.12,.27,.27s-.12,.27-.27,.27Z"/><path class="cls-13" d="M269.14,117.6h-4.51c-.15,0-.27-.12-.27-.27s.12-.27,.27-.27h4.51c.15,0,.27,.12,.27,.27s-.12,.27-.27,.27Z"/><g><circle class="cls-1" cx="280.8" cy="116.12" r="1.56"/><path class="cls-13" d="M280.8,117.95c-1.01,0-1.83-.82-1.83-1.83s.82-1.83,1.83-1.83,1.83,.82,1.83,1.83-.82,1.83-1.83,1.83Zm0-3.11c-.71,0-1.28,.58-1.28,1.28s.58,1.28,1.28,1.28,1.29-.58,1.29-1.28-.58-1.28-1.29-1.28Z"/></g></g><g><path class="cls-1" d="M282.12,105.92h-10.82c-.15,0-.27-.12-.27-.27s.12-.27,.27-.27h10.82c.15,0,.27,.12,.27,.27s-.12,.27-.27,.27Z"/><path class="cls-1" d="M269.75,105.92h-4.51c-.15,0-.27-.12-.27-.27s.12-.27,.27-.27h4.51c.15,0,.27,.12,.27,.27s-.12,.27-.27,.27Z"/><path class="cls-1" d="M269.75,103.75h-4.51c-.15,0-.27-.12-.27-.27s.12-.27,.27-.27h4.51c.15,0,.27,.12,.27,.27s-.12,.27-.27,.27Z"/><path class="cls-1" d="M284.12,108.16h-35.1c-.52,0-.94-.42-.94-.94v-5.32c0-.52,.42-.94,.94-.94h35.1c.52,0,.94,.42,.94,.94v5.32c0,.52-.42,.94-.94,.94Zm-35.1-6.65c-.22,0-.39,.18-.39,.39v5.32c0,.22,.18,.39,.39,.39h35.1c.22,0,.39-.18,.39-.39v-5.32c0-.22-.18-.39-.39-.39h-35.1Z"/><path class="cls-1" d="M253.82,104.56c0,.86-.7,1.56-1.56,1.56s-1.56-.7-1.56-1.56,.7-1.56,1.56-1.56,1.56,.7,1.56,1.56Z"/></g></g><g><rect class="cls-9" x="288.71" y="116.3" width="25.28" height="23.58" rx="1.02" ry="1.02"/><path class="cls-9" d="M313.42,140.15h-24.16c-.46,0-.83-.37-.83-.83v-22.46c0-.46,.37-.83,.83-.83h24.16c.46,0,.83,.37,.83,.83v22.46c0,.46-.37,.83-.83,.83Zm-24.16-23.58c-.16,0-.29,.13-.29,.29v22.46c0,.16,.13,.29,.29,.29h24.16c.16,0,.29-.13,.29-.29v-22.46c0-.16-.13-.29-.29-.29h-24.16Z"/></g><rect class="cls-3" x="287.11" y="114.57" width="25.28" height="23.58" rx="1.02" ry="1.02"/><path class="cls-9" d="M311.83,138.43h-24.16c-.46,0-.83-.37-.83-.83v-22.46c0-.46,.37-.83,.83-.83h24.16c.46,0,.83,.37,.83,.83v22.46c0,.46-.37,.83-.83,.83Zm-24.16-23.58c-.16,0-.29,.13-.29,.29v22.46c0,.16,.13,.29,.29,.29h24.16c.16,0,.29-.13,.29-.29v-22.46c0-.16-.13-.29-.29-.29h-24.16Z"/><g><path class="cls-1" d="M310.12,119.33c-.07,0-.14-.03-.19-.08l-2.27-2.27c-.11-.11-.11-.28,0-.39s.28-.11,.39,0l2.27,2.27c.11,.11,.11,.28,0,.39-.05,.05-.12,.08-.19,.08Z"/><path class="cls-1" d="M307.86,119.33c-.07,0-.14-.03-.19-.08-.11-.11-.11-.28,0-.39l2.27-2.27c.11-.11,.28-.11,.39,0s.11,.28,0,.39l-2.27,2.27c-.05,.05-.12,.08-.19,.08Z"/></g><g><path class="cls-1" d="M291.73,127.14l-.03-.03c-.22-.12-.36-.35-.36-.61,0-.24,.13-.46,.36-.6l4.1-2.14c.11-.06,.22-.08,.33-.08,.39,0,.68,.33,.68,.7,0,.23-.12,.45-.34,.58l-2.99,1.57,2.96,1.61c.23,.11,.36,.35,.36,.6,0,.37-.29,.69-.67,.69-.11,0-.22-.03-.32-.08l-4.08-2.21Z"/><path class="cls-1" d="M297.47,130.8c0-.08,.02-.17,.04-.25l2.91-9.05c.12-.36,.45-.59,.82-.59,.51,0,.84,.44,.84,.93,0,.09-.02,.19-.04,.27l-2.91,8.96c-.13,.36-.45,.59-.82,.59-.08,0-.16,0-.24-.03-.35-.13-.6-.46-.6-.83Z"/><path class="cls-1" d="M302.89,124.96c-.23-.13-.35-.35-.35-.58,0-.37,.29-.7,.68-.7,.11,0,.22,.03,.33,.08l4.1,2.14c.24,.13,.36,.37,.36,.61s-.14,.48-.36,.6l-.04,.03-4.07,2.21c-.1,.06-.21,.08-.32,.08-.38,0-.67-.32-.67-.69,0-.25,.13-.49,.36-.6l2.96-1.61-2.98-1.57Z"/></g></g><path class="cls-9" d="M610.84,71.6h-19.53c-5.58,0-10.11-4.52-10.11-10.11h0c0-5.58,4.53-10.11,10.11-10.11h19.53c5.58,0,10.11,4.53,10.11,10.11h0c0,5.58-4.52,10.11-10.11,10.11Z"/><path class="cls-9" d="M610.84,72.1h-19.53c-5.85,0-10.61-4.76-10.61-10.61s4.76-10.61,10.61-10.61h19.53c5.85,0,10.61,4.76,10.61,10.61s-4.76,10.61-10.61,10.61Zm-19.53-20.21c-5.3,0-9.61,4.31-9.61,9.61s4.31,9.61,9.61,9.61h19.53c5.3,0,9.61-4.31,9.61-9.61s-4.31-9.61-9.61-9.61h-19.53Z"/><path class="cls-13" d="M612.38,69.74h-19.53c-5.58,0-10.11-4.52-10.11-10.11h0c0-5.58,4.52-10.11,10.11-10.11h19.53c5.58,0,10.11,4.52,10.11,10.11h0c0,5.58-4.52,10.11-10.11,10.11Z"/><path class="cls-9" d="M612.38,70.24h-19.53c-5.85,0-10.61-4.76-10.61-10.61s4.76-10.61,10.61-10.61h19.53c5.85,0,10.61,4.76,10.61,10.61s-4.76,10.61-10.61,10.61Zm-19.53-20.21c-5.3,0-9.61,4.31-9.61,9.61s4.31,9.61,9.61,9.61h19.53c5.3,0,9.61-4.31,9.61-9.61s-4.31-9.61-9.61-9.61h-19.53Z"/><path class="cls-1" d="M592.95,61.33c.21,0,.41,.13,.62,.39,.37,.58,1,.92,1.79,.92s1.6-.44,1.6-1.23c0-.83-.84-1-1.59-1.2-1.62-.31-2.86-1.02-2.86-2.47s1.35-2.47,2.81-2.47c1.05,0,2.07,.43,2.55,1.25,.05,.08,.07,.17,.07,.25,0,.35-.29,.61-.63,.61-.13,0-.27-.04-.39-.13-.5-.45-.86-.65-1.58-.65-.8,0-1.48,.43-1.49,1.12,0,.8,.9,.98,1.94,1.21,1.26,.33,2.5,.92,2.5,2.41s-1.32,2.63-2.98,2.63c-1.33,0-2.49-.74-2.91-1.65-.06-.13-.09-.25-.09-.36,0-.33,.31-.63,.64-.63Z"/><path class="cls-1" d="M605.94,65.1h-.03c-.81-.01-1.49-.51-1.72-1.22-.29,.06-.61,.09-.92,.09-2.41,0-4.33-1.94-4.33-4.34s1.92-4.35,4.33-4.35,4.36,1.95,4.36,4.35c0,1.64-.91,3.06-2.25,3.8,.01,.29,.26,.53,.56,.53s.57,.25,.57,.57-.25,.57-.57,.57Zm-2.54-4.17c.77,0,1.44,.45,1.7,1.1,.72-.55,1.18-1.42,1.18-2.41,0-1.66-1.34-3.01-3.01-3.01s-3,1.34-3,3.01c0,1.08,.54,2.02,1.38,2.55,.23-.73,.92-1.24,1.75-1.24Zm-.56,1.68c.14,.02,.29,.03,.43,.03,.23,0,.46-.03,.68-.07-.03-.28-.27-.49-.55-.49-.31,0-.55,.24-.56,.53Z"/><path class="cls-1" d="M609.36,63.89h-.05c-.31-.07-.53-.33-.53-.65v-7.24c0-.37,.29-.66,.66-.66s.67,.29,.67,.66v6.57h2.77c.37,0,.66,.3,.66,.67s-.28,.65-.63,.65h-3.55Z"/><rect class="cls-9" x="551.12" y="33.48" width="23.56" height="13.69" rx="6.85" ry="6.85"/><path class="cls-9" d="M567.83,47.67h-9.86c-4.05,0-7.35-3.3-7.35-7.35s3.29-7.35,7.35-7.35h9.86c4.05,0,7.35,3.3,7.35,7.35s-3.29,7.35-7.35,7.35Zm-9.86-13.69c-3.5,0-6.35,2.85-6.35,6.35s2.85,6.35,6.35,6.35h9.86c3.5,0,6.35-2.85,6.35-6.35s-2.85-6.35-6.35-6.35h-9.86Z"/><rect class="cls-3" x="552.19" y="32.77" width="23.56" height="13.69" rx="6.85" ry="6.85"/><path class="cls-9" d="M568.9,46.96h-9.86c-4.05,0-7.35-3.3-7.35-7.35s3.29-7.35,7.35-7.35h9.86c4.05,0,7.35,3.3,7.35,7.35s-3.3,7.35-7.35,7.35Zm-9.86-13.69c-3.5,0-6.35,2.85-6.35,6.35s2.85,6.35,6.35,6.35h9.86c3.5,0,6.35-2.85,6.35-6.35s-2.85-6.35-6.35-6.35h-9.86Z"/><path class="cls-1" d="M557.59,40.14l-.03-.02c-.16-.09-.27-.27-.27-.46,0-.18,.1-.35,.27-.45l3.08-1.61c.08-.04,.16-.06,.25-.06,.29,0,.51,.25,.51,.53,0,.17-.09,.34-.26,.44l-2.25,1.18,2.23,1.21c.17,.08,.27,.26,.27,.45,0,.28-.22,.52-.51,.52-.08,0-.17-.02-.24-.06l-3.07-1.66Z"/><path class="cls-1" d="M561.9,42.9c0-.06,.01-.13,.03-.19l2.19-6.81c.09-.27,.34-.44,.61-.44,.38,0,.63,.33,.63,.7,0,.07-.01,.14-.03,.2l-2.19,6.74c-.1,.27-.34,.44-.61,.44-.06,0-.12,0-.18-.03-.27-.09-.45-.35-.45-.62Z"/><path class="cls-1" d="M565.98,38.51c-.17-.1-.26-.27-.26-.44,0-.28,.22-.53,.51-.53,.08,0,.16,.02,.25,.06l3.08,1.61c.18,.1,.27,.28,.27,.46s-.11,.36-.27,.45l-.03,.02-3.06,1.66c-.08,.04-.16,.06-.24,.06-.29,0-.51-.24-.51-.52,0-.19,.1-.37,.27-.45l2.22-1.21-2.24-1.18Z"/><path class="cls-9" d="M58.05,104.27h-12.62c-4.84,0-8.76-3.92-8.76-8.76h0c0-4.84,3.92-8.76,8.76-8.76h12.62c4.84,0,8.76,3.92,8.76,8.76h0c0,4.84-3.92,8.76-8.76,8.76Z"/><path class="cls-9" d="M58.05,104.77h-12.62c-5.11,0-9.26-4.15-9.26-9.26s4.15-9.26,9.26-9.26h12.62c5.11,0,9.26,4.15,9.26,9.26s-4.15,9.26-9.26,9.26Zm-12.62-17.52c-4.55,0-8.26,3.71-8.26,8.26s3.71,8.26,8.26,8.26h12.62c4.55,0,8.26-3.71,8.26-8.26s-3.71-8.26-8.26-8.26h-12.62Z"/><path class="cls-3" d="M59.41,103.37h-12.62c-4.84,0-8.76-3.92-8.76-8.76h0c0-4.84,3.92-8.76,8.76-8.76h12.62c4.84,0,8.76,3.92,8.76,8.76h0c0,4.84-3.92,8.76-8.76,8.76Z"/><path class="cls-9" d="M59.41,103.87h-12.62c-5.11,0-9.26-4.15-9.26-9.26s4.15-9.26,9.26-9.26h12.62c5.11,0,9.26,4.15,9.26,9.26s-4.15,9.26-9.26,9.26Zm-12.62-17.52c-4.55,0-8.26,3.71-8.26,8.26s3.71,8.26,8.26,8.26h12.62c4.55,0,8.26-3.71,8.26-8.26s-3.71-8.26-8.26-8.26h-12.62Z"/><path class="cls-1" d="M44.94,95.28l-.03-.02c-.21-.11-.35-.34-.35-.58,0-.23,.12-.45,.35-.58l3.95-2.06c.1-.06,.21-.08,.32-.08,.37,0,.66,.32,.66,.67,0,.22-.11,.44-.33,.56l-2.88,1.51,2.85,1.55c.22,.11,.35,.33,.35,.58,0,.36-.28,.66-.65,.66-.11,0-.21-.02-.31-.08l-3.92-2.12Z"/><path class="cls-1" d="M50.46,98.81c0-.08,.02-.16,.04-.24l2.8-8.71c.11-.35,.44-.57,.79-.57,.49,0,.81,.42,.81,.9,0,.09-.02,.18-.04,.26l-2.8,8.62c-.12,.35-.44,.57-.79,.57-.08,0-.15,0-.23-.03-.34-.12-.58-.45-.58-.79Z"/><path class="cls-1" d="M55.68,93.19c-.22-.12-.33-.34-.33-.56,0-.36,.28-.67,.66-.67,.11,0,.21,.02,.32,.08l3.95,2.06c.23,.13,.35,.36,.35,.58s-.14,.46-.35,.58l-.04,.02-3.91,2.12c-.1,.06-.2,.08-.31,.08-.36,0-.65-.31-.65-.66,0-.24,.13-.47,.35-.58l2.84-1.55-2.87-1.51Z"/><path class="cls-9" d="M120.58,105.2h-27.14c-5.35,0-9.69-4.34-9.69-9.69h0c0-5.35,4.34-9.69,9.69-9.69h27.14c5.35,0,9.69,4.34,9.69,9.69h0c0,5.35-4.34,9.69-9.69,9.69Z"/><path class="cls-9" d="M120.58,105.7h-27.14c-5.62,0-10.19-4.57-10.19-10.19s4.57-10.19,10.19-10.19h27.14c5.62,0,10.19,4.57,10.19,10.19s-4.57,10.19-10.19,10.19Zm-27.14-19.38c-5.07,0-9.19,4.12-9.19,9.19s4.12,9.19,9.19,9.19h27.14c5.07,0,9.19-4.12,9.19-9.19s-4.12-9.19-9.19-9.19h-27.14Z"/><path class="cls-14" d="M121.75,102.29h-27.14c-5.35,0-9.69-4.34-9.69-9.69h0c0-5.35,4.34-9.69,9.69-9.69h27.14c5.35,0,9.69,4.34,9.69,9.69h0c0,5.35-4.34,9.69-9.69,9.69Z"/><path class="cls-9" d="M121.75,102.79h-27.14c-5.62,0-10.19-4.57-10.19-10.19s4.57-10.19,10.19-10.19h27.14c5.62,0,10.19,4.57,10.19,10.19s-4.57,10.19-10.19,10.19Zm-27.14-19.38c-5.07,0-9.19,4.12-9.19,9.19s4.12,9.19,9.19,9.19h27.14c5.07,0,9.19-4.12,9.19-9.19s-4.12-9.19-9.19-9.19h-27.14Z"/><path class="cls-1" d="M100.89,88.31c1.52,0,2.74,1.19,2.74,2.69s-1.22,2.67-2.74,2.67h-1.67v3.03c0,.39-.32,.7-.71,.7s-.7-.31-.7-.7v-7.69c0-.39,.31-.7,.7-.7h2.38Zm-1.67,1.4v2.55h1.67c.72,0,1.32-.61,1.32-1.29s-.6-1.26-1.33-1.26h-1.67Z"/><path class="cls-1" d="M106.33,89v3.16h3.87v-3.16c0-.39,.33-.7,.72-.7s.7,.31,.7,.7v7.69c0,.39-.32,.7-.71,.7s-.7-.31-.7-.7v-3.12h-3.87v3.12c0,.39-.32,.7-.71,.7s-.7-.31-.7-.7v-7.69c0-.39,.31-.7,.7-.7s.71,.31,.71,.7Z"/><path class="cls-1" d="M116.54,88.31c1.52,0,2.74,1.19,2.74,2.69s-1.22,2.67-2.74,2.67h-1.67v3.03c0,.39-.32,.7-.71,.7s-.7-.31-.7-.7v-7.69c0-.39,.31-.7,.7-.7h2.38Zm-1.67,1.4v2.55h1.67c.72,0,1.32-.61,1.32-1.29s-.6-1.26-1.33-1.26h-1.67Z"/><path class="cls-9" d="M105.95,63.13h-29.42c-5.8,0-10.51-4.7-10.51-10.51h0c0-5.8,4.7-10.51,10.51-10.51h29.42c5.8,0,10.51,4.7,10.51,10.51h0c0,5.8-4.7,10.51-10.51,10.51Z"/><path class="cls-9" d="M105.95,63.63h-29.42c-6.07,0-11-4.94-11-11s4.94-11,11-11h29.42c6.07,0,11,4.94,11,11s-4.94,11-11,11Zm-29.42-21.01c-5.52,0-10,4.49-10,10s4.49,10,10,10h29.42c5.52,0,10-4.49,10-10s-4.49-10-10-10h-29.42Z"/><path class="cls-13" d="M108.28,61.26h-29.42c-5.8,0-10.51-4.7-10.51-10.5h0c0-5.8,4.7-10.51,10.51-10.51h29.42c5.8,0,10.51,4.7,10.51,10.51h0c0,5.8-4.7,10.5-10.51,10.5Z"/><path class="cls-9" d="M108.28,61.76h-29.42c-6.07,0-11-4.94-11-11.01s4.94-11,11-11h29.42c6.07,0,11,4.94,11,11s-4.94,11.01-11,11.01Zm-29.42-21.01c-5.52,0-10,4.49-10,10s4.49,10.01,10,10.01h29.42c5.52,0,10-4.49,10-10.01s-4.49-10-10-10h-29.42Z"/><path class="cls-1" d="M79.25,46.16v3.19h3.92v-3.19c0-.39,.33-.7,.72-.7s.7,.31,.7,.7v7.77c0,.39-.32,.7-.72,.7s-.71-.31-.71-.7v-3.16h-3.92v3.16c0,.39-.32,.7-.72,.7s-.71-.31-.71-.7v-7.77c0-.39,.32-.7,.71-.7s.72,.31,.72,.7Z"/><path class="cls-1" d="M88.27,53.93v-7.06h-1.91c-.39,0-.7-.32-.7-.71s.31-.71,.7-.71h5.22c.39,0,.71,.32,.71,.72s-.32,.7-.71,.7h-1.91v7.06c0,.39-.32,.7-.72,.7s-.68-.31-.68-.7Z"/><path class="cls-1" d="M102.54,53.83s0,.06,0,.09c0,.4-.33,.7-.72,.7-.35,0-.66-.25-.7-.62l-.66-5.11-2.17,5.3c-.12,.28-.39,.43-.69,.43-.27,0-.51-.15-.63-.43l-2.18-5.34-.71,5.15c-.05,.36-.34,.6-.7,.6-.39,0-.72-.31-.72-.72,0-.03,0-.06,0-.09l1.07-7.69c.02-.16,.09-.3,.2-.4,.14-.15,.33-.24,.53-.24,.28,0,.54,.16,.66,.43l2.52,6.15,2.5-6.15c.12-.27,.38-.43,.65-.43,.09,0,.18,.01,.27,.05l.08,.04c.21,.09,.37,.29,.39,.54l1,7.71Z"/><path class="cls-1" d="M104.24,54.63h-.06c-.33-.08-.57-.36-.57-.7v-7.77c0-.4,.32-.71,.71-.71s.72,.31,.72,.71v7.05h2.98c.39,0,.71,.32,.71,.72s-.3,.7-.68,.7h-3.81Z"/><path class="cls-9" d="M584.62,113.07h-22.72c-6.62,0-11.99-5.37-11.99-11.99h0c0-6.62,5.37-11.99,11.99-11.99h22.72c6.62,0,11.99,5.37,11.99,11.99h0c0,6.62-5.37,11.99-11.99,11.99Z"/><path class="cls-9" d="M584.62,113.57h-22.72c-6.89,0-12.49-5.6-12.49-12.49s5.6-12.49,12.49-12.49h22.72c6.89,0,12.49,5.6,12.49,12.49s-5.6,12.49-12.49,12.49Zm-22.72-23.97c-6.33,0-11.49,5.15-11.49,11.49s5.15,11.49,11.49,11.49h22.72c6.33,0,11.49-5.15,11.49-11.49s-5.15-11.49-11.49-11.49h-22.72Z"/><rect class="cls-14" x="551.68" y="86.7" width="46.7" height="23.97" rx="11.99" ry="11.99"/><path class="cls-9" d="M586.39,111.18h-22.72c-6.89,0-12.49-5.6-12.49-12.49s5.6-12.49,12.49-12.49h22.72c6.89,0,12.49,5.6,12.49,12.49s-5.6,12.49-12.49,12.49Zm-22.72-23.97c-6.33,0-11.49,5.15-11.49,11.49s5.15,11.49,11.49,11.49h22.72c6.33,0,11.49-5.15,11.49-11.49s-5.15-11.49-11.49-11.49h-22.72Z"/><g><path class="cls-1" d="M564.21,96.62c0,1.53-.01,1.54-.01,1.55h.01c0,1.61,1.31,2.94,2.9,2.94,.69,0,1.31-.18,1.92-.69,.27-.21,.59-.44,.96-.44,.56,0,1.06,.48,1.06,1.04,0,.3-.13,.62-.39,.88-.87,.89-2.15,1.37-3.48,1.37-2.85,0-5.16-2.22-5.16-5.06,0,0,.01-.02,.01-.03-.01,0-.01-.01-.01-.01,0-2.85,2.31-5.13,5.16-5.13,1.33,0,2.61,.48,3.48,1.37,.26,.26,.39,.58,.39,.88,0,.56-.49,1.06-1.05,1.06-.38,0-.71-.25-.97-.46-.62-.51-1.26-.69-1.97-.69-1.56,0-2.85,1.41-2.85,2.95v-1.53Z"/><path class="cls-1" d="M575.75,101.39c.78,0,1.54-.4,1.54-1.07,0-.83-1.02-1.09-1.74-1.31-1.71-.6-3.37-1.32-3.37-3.03,0-1.8,1.69-2.95,3.52-2.95,1.2,0,2.62,.47,3.12,1.44,.08,.16,.12,.32,.12,.46,0,.49-.45,.91-.93,.91-.12,0-.24-.02-.35-.08-.6-.43-1.03-.86-1.8-.86-.87,0-1.53,.32-1.53,1.01s.77,.99,1.82,1.31c1.7,.54,3.21,1.18,3.21,3.01,0,1.7-1.53,3.03-3.6,3.03-1.35,0-2.98-.54-3.66-1.81-.12-.21-.16-.41-.16-.59,0-.56,.45-.94,.97-.94,.32,0,.67,.15,.96,.5,.46,.66,.99,.96,1.87,.96Z"/><path class="cls-1" d="M584.12,101.39c.78,0,1.54-.4,1.54-1.07,0-.83-1.02-1.09-1.74-1.31-1.71-.6-3.37-1.32-3.37-3.03,0-1.8,1.69-2.95,3.52-2.95,1.2,0,2.62,.47,3.12,1.44,.07,.16,.12,.32,.12,.46,0,.49-.45,.91-.93,.91-.12,0-.24-.02-.35-.08-.6-.43-1.03-.86-1.8-.86-.87,0-1.53,.32-1.53,1.01s.77,.99,1.82,1.31c1.7,.54,3.21,1.18,3.21,3.01,0,1.7-1.53,3.03-3.6,3.03-1.35,0-2.98-.54-3.66-1.81-.12-.21-.16-.41-.16-.59,0-.56,.45-.94,.97-.94,.32,0,.67,.15,.96,.5,.46,.66,.99,.96,1.87,.96Z"/></g><circle class="cls-8" cx="205.62" cy="168.3" r="14.83" transform="translate(15.86 354.3) rotate(-83.73)"/><circle class="cls-8" cx="81.4" cy="339.69" r="14.83" transform="translate(-266.95 365.5) rotate(-80.76)"/><circle class="cls-8" cx="591.19" cy="357.19" r="14.83" transform="translate(143.72 883.37) rotate(-80.76)"/><g><path class="cls-4" d="M494.2,211.67c-16.89-16.89-39.34-26.19-63.22-26.19-21.87,0-44.97,11.47-70.62,35.08-8.02,7.38-14.97,14.76-19.91,20.3-4.95-5.54-11.89-12.92-19.91-20.3-25.65-23.6-48.75-35.08-70.62-35.08-23.88,0-46.33,9.3-63.22,26.19-16.89,16.89-26.19,39.34-26.19,63.22s9.3,46.33,26.19,63.22c16.89,16.89,39.34,26.19,63.22,26.19,22.42,0,45.86-12.47,71.65-38.14,7.5-7.46,14.04-14.91,18.88-20.72,4.84,5.81,11.39,13.26,18.88,20.72,25.79,25.66,49.22,38.14,71.65,38.14,23.88,0,46.33-9.3,63.22-26.19,16.89-16.89,26.19-39.34,26.19-63.22s-9.3-46.33-26.19-63.22Zm-244.28,116.21c-29.27,0-52.99-23.72-52.99-52.99s23.72-52.99,52.99-52.99,69.96,50.92,69.96,50.92c0,0-40.7,55.06-69.96,55.06Zm181.06,0c-29.27,0-69.96-55.06-69.96-55.06,0,0,40.7-50.92,69.96-50.92s52.99,23.72,52.99,52.99-23.72,52.99-52.99,52.99Z"/><g class="cls-15"><path class="cls-9" d="M254.49,223.23c-.12,0-.25-.05-.34-.14l-18.39-18.9c-.18-.18-.18-.47,0-.66l20.22-20.8c.18-.19,.48-.19,.67,0,.19,.18,.19,.48,0,.67l-19.91,20.47,18.07,18.58c.18,.19,.18,.48,0,.67-.09,.09-.21,.13-.33,.13Z"/><path class="cls-9" d="M180.02,289.32c-.13,0-.24-.05-.33-.14l-20.62-20.69c-.18-.18-.18-.48,0-.67,.18-.18,.48-.18,.67,0l20.29,20.36,18.41-18.48c.18-.18,.48-.18,.67,0,.18,.18,.18,.48,0,.67l-18.74,18.81c-.09,.09-.21,.14-.33,.14Z"/><path class="cls-9" d="M352.3,286.86c-.26,0-.47-.21-.47-.47l-.15-24.45-24.78,.65h-.01c-.25,0-.46-.2-.47-.46,0-.26,.2-.48,.46-.48l25.26-.67c.16,.01,.25,.04,.34,.13,.09,.09,.14,.21,.14,.34l.15,24.93c0,.26-.21,.47-.47,.47h0Z"/><path class="cls-9" d="M245.44,366.68c-.12,0-.24-.04-.33-.14-.18-.18-.19-.48,0-.67l19.9-20.13-18.06-18.27c-.18-.18-.18-.48,0-.67,.19-.18,.48-.18,.67,0l18.39,18.6c.18,.18,.18,.48,0,.66l-20.22,20.46c-.09,.09-.21,.14-.33,.14Z"/><path class="cls-9" d="M426.4,222.14c-.12,0-.24-.05-.33-.14-.18-.18-.18-.48,0-.67l18.05-18.05-19.89-19.89c-.18-.18-.18-.48,0-.67,.18-.18,.48-.18,.67,0l20.22,20.22c.18,.18,.18,.48,0,.67l-18.39,18.39c-.09,.09-.21,.14-.33,.14Z"/><path class="cls-9" d="M500.51,289.32h0c-.13,0-.24-.05-.33-.14l-18.39-18.39c-.18-.18-.18-.48,0-.67,.18-.18,.48-.18,.67,0l18.05,18.05,19.89-19.89c.18-.18,.48-.18,.67,0s.18,.48,0,.67l-20.23,20.22c-.09,.09-.21,.14-.33,.14Z"/><path class="cls-9" d="M435.45,366.68c-.12,0-.24-.05-.33-.14l-20.22-20.23c-.18-.18-.18-.48,0-.67l18.39-18.39c.18-.18,.48-.18,.67,0,.18,.18,.18,.48,0,.67l-18.05,18.05,19.89,19.89c.18,.18,.18,.48,0,.67-.09,.09-.21,.14-.33,.14Z"/><path class="cls-9" d="M319.88,273.29c-.09,0-.18-.02-.26-.08-.22-.14-.28-.43-.14-.65l20.74-32c.14-.22,.43-.28,.65-.14,.22,.14,.28,.43,.14,.65l-20.74,32c-.09,.14-.24,.21-.4,.21Z"/><path class="cls-9" d="M340.13,306.35c-.09,0-.17-.02-.25-.07-.22-.14-.29-.43-.15-.65l20.89-33.06c.14-.22,.43-.28,.65-.15,.22,.14,.29,.43,.15,.65l-20.89,33.06c-.09,.14-.24,.22-.4,.22Z"/></g><path class="cls-11" d="M494.2,211.67c-16.89-16.89-39.34-26.19-63.22-26.19-21.87,0-44.97,11.47-70.62,35.08-8.02,7.38-14.97,14.76-19.91,20.3-4.95-5.54-11.89-12.92-19.91-20.3-25.65-23.6-48.75-35.08-70.62-35.08-23.88,0-46.33,9.3-63.22,26.19-16.89,16.89-26.19,39.34-26.19,63.22s9.3,46.33,26.19,63.22c16.89,16.89,39.34,26.19,63.22,26.19,22.42,0,45.86-12.47,71.65-38.14,7.5-7.46,14.04-14.91,18.88-20.72,4.84,5.81,11.39,13.26,18.88,20.72,25.79,25.66,49.22,38.14,71.65,38.14,23.88,0,46.33-9.3,63.22-26.19,16.89-16.89,26.19-39.34,26.19-63.22s-9.3-46.33-26.19-63.22Zm-244.28,116.21c-29.27,0-52.99-23.72-52.99-52.99s23.72-52.99,52.99-52.99,69.96,50.92,69.96,50.92c0,0-40.7,55.06-69.96,55.06Zm181.06,0c-29.27,0-69.96-55.06-69.96-55.06,0,0,40.7-50.92,69.96-50.92s52.99,23.72,52.99,52.99-23.72,52.99-52.99,52.99Z"/></g><path class="cls-9" d="M276.98,217.42h-1v-3h1v3Zm0-6h-1v-3h1v3Zm0-6h-1v-3h1v3Zm0-6h-1v-3h1v3Zm0-6h-1v-3h1v3Zm0-6h-1v-3h1v3Zm0-6h-1v-3h1v3Zm0-6h-1v-3h1v3Zm0-6h-1v-3h1v3Zm0-6h-1v-3h1v3Zm0-6h-1v-3h1v3Zm0-6h-1v-3h1v3Zm0-6h-1v-3h1v3Zm-2.73-3.27h-3v-1h3v1Zm-6,0h-3v-1h3v1Zm-6,0h-3v-1h3v1Zm-6,0h-3v-1h3v1Zm-6,0h-3v-1h3v1Zm-6,0h-3v-1h3v1Zm-6,0h-3v-1h3v1Zm-6,0h-3v-1h3v1Zm-6,0h-3v-1h3v1Zm-6,0h-3v-1h3v1Zm-6,0h-3v-1h3v1Zm-6,0h-3v-1h3v1Zm-6,0h-3v-1h3v1Zm-6,0h-3v-1h3v1Zm-6,0h-3v-1h3v1Zm-6,0h-1.65v-1h1.65v1Z"/><path class="cls-9" d="M180.97,272.97h-1v-3h1v3Zm0-6h-1v-3h1v3Zm-.5-5.98h-2.52v-1h3.02v.98l-.5,.02Zm-5.52,0h-3v-1h3v1Zm-6,0h-3v-1h3v1Zm-6,0h-3v-1h3v1Zm-6,0h-3v-1h3v1Zm-6,0h-3v-1h3v1Z"/><path class="cls-9" d="M276.4,381.65h-3v-1h3v1Zm-6,0h-3v-1h3v1Zm-6,0h-3v-1h3v1Zm-6,0h-3v-1h3v1Zm-6,0h-3v-1h3v1Zm-6,0h-3v-1h3v1Zm-6,0h-3v-1h3v1Zm-6,0h-3v-1h3v1Zm-6,0h-3v-1h3v1Zm-6,0h-3v-1h3v1Zm-6,0h-3v-1h3v1Zm-6,0h-3v-1h3v1Zm-6,0h-3v-1h3v1Zm-6,0h-3v-1h3v1Zm-6,0h-1.61v-1h1.61v1Zm84.58-3.42h-1v-3h1v3Zm0-6h-1v-3h1v3Zm0-6h-1v-3h1v3Zm0-6h-1v-3h1v3Zm0-6h-1v-3h1v3Zm0-6h-1v-3h1v3Zm0-6h-1v-3h1v3Zm0-6h-1v-3h1v3Z"/><path class="cls-9" d="M409.82,217.42h-1v-3h1v3Zm0-6h-1v-3h1v3Zm0-6h-1v-3h1v3Zm0-6h-1v-3h1v3Zm0-6h-1v-3h1v3Zm0-6h-1v-3h1v3Zm0-6h-1v-3h1v3Zm0-6h-1v-3h1v3Zm0-6h-1v-3h1v3Zm0-6h-1v-3h1v3Zm0-6h-1v-3h1v3Zm0-6h-1v-3h1v3Zm0-6h-1v-3h1v3Zm86.23-3.19h-.41v-1h.41v1Zm-3.41,0h-3v-1h3v1Zm-6,0h-3v-1h3v1Zm-6,0h-3v-1h3v1Zm-6,0h-3v-1h3v1Zm-6,0h-3v-1h3v1Zm-6,0h-3v-1h3v1Zm-6,0h-3v-1h3v1Zm-6,0h-3v-1h3v1Zm-6,0h-3v-1h3v1Zm-6,0h-3v-1h3v1Zm-6,0h-3v-1h3v1Zm-6,0h-3v-1h3v1Zm-6,0h-3v-1h3v1Zm-6,0h-3v-1h3v1Z"/><path class="cls-9" d="M501.7,272.97h-1v-3h1v3Zm0-6h-1v-3h1v3Zm32.02-5.98h-3v-1h3v1Zm-6,0h-3v-1h3v1Zm-6,0h-3v-1h3v1Zm-6,0h-3v-1h3v1Zm-6,0h-3v-1h3v1Zm-6,0l-3.02-.02v-.98h3.02v1Z"/><path class="cls-9" d="M494.39,381.65h-3v-1h3v1Zm-6,0h-3v-1h3v1Zm-6,0h-3v-1h3v1Zm-6,0h-3v-1h3v1Zm-6,0h-3v-1h3v1Zm-6,0h-3v-1h3v1Zm-6,0h-3v-1h3v1Zm-6,0h-3v-1h3v1Zm-6,0h-3v-1h3v1Zm-6,0h-3v-1h3v1Zm-6,0h-3v-1h3v1Zm-6,0h-3v-1h3v1Zm-6,0h-3v-1h3v1Zm-6,0h-3v-1h3v1Zm-6,0h-1.58v-2.42h1v1.42h.58v1Zm-.58-5.42h-1v-3h1v3Zm0-6h-1v-3h1v3Zm0-6h-1v-3h1v3Zm0-6h-1v-3h1v3Zm0-6h-1v-3h1v3Zm0-6h-1v-3h1v3Zm0-6h-1v-3h1v3Z"/><path class="cls-6" d="M285.02,217.42c0,3.57-2.9,6.47-6.47,6.47s-6.47-2.9-6.47-6.47,2.9-6.47,6.47-6.47,6.47,2.9,6.47,6.47Z"/><path class="cls-6" d="M186.94,272.97c0,3.57-2.9,6.47-6.47,6.47s-6.47-2.9-6.47-6.47,2.9-6.47,6.47-6.47,6.47,2.9,6.47,6.47Z"/><path class="cls-6" d="M282.94,333.23c0,3.57-2.9,6.47-6.47,6.47s-6.47-2.9-6.47-6.47,2.9-6.47,6.47-6.47,6.47,2.9,6.47,6.47Z"/><path class="cls-6" d="M415.78,214.31c0,3.57-2.9,6.47-6.47,6.47s-6.47-2.9-6.47-6.47,2.9-6.47,6.47-6.47,6.47,2.9,6.47,6.47Z"/><path class="cls-6" d="M507.66,272.97c0,3.57-2.9,6.47-6.47,6.47s-6.47-2.9-6.47-6.47,2.9-6.47,6.47-6.47,6.47,2.9,6.47,6.47Z"/><path class="cls-6" d="M415.78,337.23c0,3.57-2.9,6.47-6.47,6.47s-6.47-2.9-6.47-6.47,2.9-6.47,6.47-6.47,6.47,2.9,6.47,6.47Z"/><g><path class="cls-13" d="M342.59,434.56v14.99h42.54v-.66c0-3.15-2.38-5.7-5.32-5.7h0c-4.41,0-7.98-3.83-7.98-8.55h0s-29.25-.08-29.25-.08Z"/><path class="cls-9" d="M385.13,449.99h-42.54c-.24,0-.43-.19-.43-.43v-14.99c0-.12,.05-.23,.13-.31,.08-.08,.19-.13,.31-.13h0l29.25,.08c.24,0,.43,.19,.43,.43,0,4.48,3.38,8.12,7.54,8.12,3.17,0,5.75,2.75,5.75,6.14v.66c0,.24-.19,.43-.43,.43Zm-42.11-.87h41.67v-.22c0-2.9-2.19-5.27-4.88-5.27-4.5,0-8.19-3.8-8.4-8.55l-28.39-.08v14.12Z"/><path class="cls-13" d="M336.01,434.56v14.99h-36.96v-.66c0-3.15,2.07-5.7,4.62-5.7h0c3.83,0,6.93-3.83,6.93-8.55h0s25.41-.08,25.41-.08Z"/><path class="cls-9" d="M336.01,449.99h-36.96c-.24,0-.43-.19-.43-.43v-.66c0-3.38,2.27-6.14,5.05-6.14,3.58,0,6.49-3.64,6.49-8.12,0-.24,.19-.43,.43-.43l25.41-.08h0c.11,0,.22,.05,.31,.13,.08,.08,.13,.19,.13,.31v14.99c0,.24-.19,.43-.43,.43Zm-36.52-.87h36.09v-14.12l-24.55,.08c-.19,4.75-3.41,8.55-7.35,8.55-2.31,0-4.19,2.36-4.19,5.27v.22Z"/><g><path class="cls-9" d="M304.51,441.88c-.48,0-.9-.03-1.13-.11-.85-.3-1.3-1.24-1-2.09,.14-.41,.44-.74,.84-.93,.39-.19,.84-.21,1.25-.07h0c.68,.24,2.47,1.97,2.82,2.31,.12,.12,.16,.3,.11,.45-.06,.16-.2,.27-.37,.29-.33,.03-1.54,.15-2.52,.15Zm-.59-2.43c-.11,0-.23,.03-.33,.08-.19,.09-.32,.24-.39,.44-.14,.4,.07,.84,.47,.98,.25,.09,1.26,.07,2.32,0-.78-.72-1.55-1.36-1.81-1.45h0c-.08-.03-.17-.04-.26-.04Z"/><path class="cls-9" d="M307.28,441.59c-.13,0-.26-.06-.35-.17-.3-.39-1.78-2.39-1.93-3.1-.09-.43,0-.87,.23-1.23,.24-.37,.61-.62,1.04-.71,.89-.19,1.76,.38,1.94,1.27h0c.15,.71-.4,3.13-.51,3.61-.04,.16-.17,.29-.33,.33-.03,0-.06,0-.09,0Zm-.67-4.38c-.05,0-.11,0-.16,.02-.2,.04-.37,.16-.49,.33-.11,.17-.15,.38-.11,.58,.06,.27,.59,1.11,1.2,1.98,.21-1.04,.36-2.03,.3-2.3-.08-.36-.4-.61-.76-.61Z"/></g><g><path class="cls-9" d="M378.01,441.88c-.97,0-2.19-.11-2.52-.15-.17-.02-.31-.13-.37-.29-.06-.16-.01-.34,.11-.45,.35-.34,2.14-2.07,2.82-2.31h0c.41-.14,.86-.12,1.25,.07,.4,.19,.69,.52,.84,.93,.3,.85-.15,1.79-1,2.09-.23,.08-.65,.11-1.13,.11Zm-1.48-.93c1.06,.07,2.06,.09,2.32,0,.4-.14,.61-.58,.47-.98-.07-.19-.21-.35-.39-.44-.18-.09-.39-.1-.59-.03h0c-.26,.09-1.03,.73-1.81,1.45Zm1.66-1.86h0Z"/><path class="cls-9" d="M375.25,441.59s-.06,0-.09,0c-.17-.03-.29-.16-.33-.33-.11-.48-.66-2.9-.51-3.61h0c.19-.88,1.06-1.45,1.94-1.27,.88,.19,1.45,1.06,1.27,1.94-.15,.71-1.63,2.71-1.93,3.1-.08,.11-.21,.17-.35,.17Zm.67-4.38c-.36,0-.68,.25-.75,.61h0c-.06,.27,.09,1.26,.3,2.3,.61-.87,1.15-1.71,1.2-1.98,.09-.42-.18-.83-.6-.91-.05-.01-.11-.02-.16-.02Zm-1.18,.52h0Z"/></g><g><path class="cls-9" d="M310.61,435.3h25.86s2.23-91.44,2.23-91.44l3.62,91.44h29.77v-97.03c0-16.17-13.11-29.27-29.27-29.27h0c-16.17,0-29.27,13.11-29.27,29.27l-2.93,97.03Z"/><path class="cls-9" d="M372.08,435.73h-29.77c-.23,0-.42-.18-.43-.42l-3.08-77.89-1.9,77.87c0,.23-.2,.42-.43,.42h-25.86c-.12,.01-.23-.03-.31-.12-.08-.08-.13-.2-.12-.32l2.93-97.03c0-16.37,13.33-29.69,29.71-29.69s29.71,13.33,29.71,29.71v97.03c0,.24-.19,.43-.43,.43Zm-29.35-.87h28.92v-96.6c0-15.9-12.94-28.84-28.84-28.84s-28.84,12.94-28.84,28.84l-2.92,96.6h24.99s2.22-91.02,2.22-91.02c0-.23,.2-.42,.43-.42h0c.23,0,.42,.18,.43,.42l3.6,91.02Z"/></g><g><circle class="cls-1" cx="343.6" cy="260.55" r="11.71" transform="translate(-38.42 460.57) rotate(-64.81)"/><path class="cls-9" d="M343.6,272.69c-6.7,0-12.14-5.45-12.14-12.14s5.45-12.14,12.14-12.14,12.14,5.45,12.14,12.14-5.45,12.14-12.14,12.14Zm0-23.42c-6.22,0-11.28,5.06-11.28,11.28s5.06,11.28,11.28,11.28,11.27-5.06,11.27-11.28-5.06-11.28-11.27-11.28Z"/></g><path class="cls-9" d="M354.28,255.77s0,0,0,0c-.37-.82-.83-1.59-1.37-2.3,0,0,0,0,0-.01,0,0,0,0,0,0-2.14-2.8-5.5-4.62-9.3-4.62s-7.37,1.93-9.5,4.88c.6,3.27,5.1,5.81,10.57,5.81,1.2,0,2.35,.04,3.43,0h.52c1.23,0,2.22,1,2.22,2.22s-1,2.22-2.22,2.22h-1.28c0,2.67,.62,5.11,1.63,6.97,3.77-1.95,6.34-5.87,6.34-10.4,0-1.7-.37-3.32-1.03-4.78Z"/><g><path class="cls-1" d="M334.13,262.03c0,1.39-1.13,2.52-2.52,2.52s-2.52-1.13-2.52-2.52,1.13-2.52,2.52-2.52,2.52,1.13,2.52,2.52Z"/><path class="cls-13" d="M331.61,264.99c-1.63,0-2.95-1.33-2.95-2.96s1.33-2.95,2.95-2.95,2.96,1.33,2.96,2.95-1.33,2.96-2.96,2.96Zm0-5.04c-1.15,0-2.09,.94-2.09,2.09s.94,2.09,2.09,2.09,2.09-.94,2.09-2.09-.94-2.09-2.09-2.09Z"/></g><g><path class="cls-1" d="M341.57,262.03c0,1.39-1.13,2.52-2.52,2.52s-2.52-1.13-2.52-2.52,1.13-2.52,2.52-2.52,2.52,1.13,2.52,2.52Z"/><path class="cls-13" d="M339.05,264.99c-1.63,0-2.95-1.33-2.95-2.96s1.33-2.95,2.95-2.95,2.96,1.33,2.96,2.95-1.33,2.96-2.96,2.96Zm0-5.04c-1.15,0-2.09,.94-2.09,2.09s.94,2.09,2.09,2.09,2.09-.94,2.09-2.09-.94-2.09-2.09-2.09Z"/></g><g><path class="cls-1" d="M336.38,261.76s-.77-.75-2,.06"/><path class="cls-13" d="M334.38,262.25c-.14,0-.28-.07-.36-.2-.13-.2-.08-.47,.12-.6,1.21-.79,2.19-.35,2.55,0,.17,.17,.17,.44,0,.61-.17,.17-.44,.17-.61,.01-.06-.05-.58-.48-1.47,.11-.07,.05-.16,.07-.24,.07Z"/></g><g><path class="cls-1" d="M263.76,261.03l8.33,2.08c3.79,.95,7.11,3.24,9.33,6.46l18.96,27.41,22-12.48,6.92,14.77-22.91,20.52c-6.02,5.39-15.53,3.51-19.04-3.76l-16.75-40.88-9.24-3.5c-2.58-.42-4.55-2.63-4.57-5.38-.03-3.81,3.28-6.17,6.97-5.24Z"/><path class="cls-9" d="M298.32,323.33c-.82,0-1.65-.08-2.48-.24-3.91-.77-7.15-3.28-8.89-6.87l-16.69-40.73-9.06-3.43c-2.76-.44-4.83-2.88-4.85-5.78-.01-1.9,.75-3.55,2.14-4.65,1.45-1.14,3.41-1.51,5.37-1.02h0l8.33,2.08c3.9,.97,7.3,3.33,9.58,6.63l18.73,27.08,21.65-12.28c.11-.06,.23-.07,.35-.04,.12,.04,.21,.12,.26,.23l6.92,14.77c.08,.17,.04,.38-.1,.51l-22.91,20.52c-2.34,2.1-5.29,3.21-8.35,3.21Zm-36.15-62.06c-1.17,0-2.27,.36-3.14,1.04-1.18,.92-1.82,2.33-1.81,3.96,.02,2.47,1.79,4.55,4.21,4.95l9.32,3.52c.11,.04,.2,.13,.25,.24l16.75,40.88c1.6,3.32,4.62,5.65,8.26,6.37,3.64,.72,7.32-.29,10.09-2.76l22.67-20.31-6.59-14.06-21.59,12.24c-.2,.11-.44,.05-.57-.13l-18.96-27.41c-2.16-3.13-5.39-5.36-9.08-6.28l-8.33-2.08c-.5-.12-1-.19-1.48-.19Z"/></g><path class="cls-3" d="M375.7,308.89c0-17.8-14.43-32.23-32.23-32.23s-32.23,14.43-32.23,32.23c0,.12,64.47,.16,64.47,0Z"/><path class="cls-9" d="M346.98,309.43c-8.6,0-17.54-.01-24.32-.03-3.39,0-6.25-.02-8.26-.03q-3.6-.02-3.6-.48c0-18.01,14.65-32.67,32.67-32.67s32.67,14.65,32.67,32.67q0,.48-9.22,.51c-5.32,.02-12.5,.03-19.93,.03Zm28.69-.53h0Zm-64.01-.42c5.15,.1,58.56,.11,63.59,0-.22-17.34-14.4-31.39-31.8-31.39s-31.57,14.04-31.8,31.38Z"/><g><path class="cls-3" d="M343.47,280.46c-13.62,0-24.66,11.04-24.66,24.66"/><path class="cls-1" d="M318.81,305.98c-.48,0-.87-.39-.87-.87,0-14.07,11.45-25.52,25.52-25.52,.48,0,.87,.39,.87,.87s-.39,.87-.87,.87c-13.12,0-23.79,10.67-23.79,23.79,0,.48-.39,.87-.87,.87Z"/></g><g><g><path class="cls-1" d="M337.49,311.33c0,2.23-1.81,4.05-4.05,4.05s-4.05-1.81-4.05-4.05,1.81-4.05,4.05-4.05,4.05,1.81,4.05,4.05Z"/><path class="cls-9" d="M333.45,315.81c-2.47,0-4.48-2.01-4.48-4.48s2.01-4.48,4.48-4.48,4.48,2.01,4.48,4.48-2.01,4.48-4.48,4.48Zm0-8.09c-1.99,0-3.61,1.62-3.61,3.61s1.62,3.61,3.61,3.61,3.61-1.62,3.61-3.61-1.62-3.61-3.61-3.61Z"/></g><g><path class="cls-2" d="M333.66,321.79l-2.99-11.53-3.23-12.22s0-.09-.01-.13l-1.87-6.98h0s-.02-.07-.02-.07c-.39-1.47-1.26-2.79-2.5-3.65-.55-.38-1.14-.67-1.75-.83-.2-.05-.4-.1-.6-.13-.12,0-.24,0-.36,.02-.04,0-.08,.01-.12,.02-.07,.01-.15,.02-.22,.04-.05,0-.09,.02-.14,.03-.06,.02-.12,.03-.18,.05-.05,.02-.09,.03-.14,.05-.05,.02-.1,.04-.15,.06-.05,.02-.1,.05-.14,.07-.04,.02-.09,.05-.13,.07-.05,.03-.09,.06-.14,.09-.04,.03-.07,.05-.1,.08-.05,.04-.09,.08-.14,.12-.03,.02-.05,.05-.08,.08-.05,.05-.09,.09-.14,.14-.02,.02-.03,.04-.05,.06-.05,.06-.09,.12-.13,.18,0,.01-.01,.02-.02,.03-.36,.57-.51,1.3-.41,2.13,0,.07,.02,.14,.03,.22l-22.48-3.34,11.27,43.45,29.93,2-2.98-10.12Z"/><path class="cls-9" d="M336.64,332.34s-.02,0-.03,0l-29.93-2c-.19-.01-.34-.14-.39-.32l-11.27-43.45c-.04-.14,0-.29,.1-.4,.1-.11,.24-.16,.39-.14l21.92,3.26c-.04-.77,.13-1.48,.5-2.07,.07-.11,.12-.18,.18-.25,0,0,.06-.07,.06-.08,.05-.06,.1-.11,.16-.17l.09-.09s.1-.09,.16-.13l.12-.09c.05-.04,.11-.07,.16-.11,.05-.03,.1-.06,.15-.09,.06-.03,.11-.06,.16-.08,.06-.03,.12-.05,.18-.08l.16-.06c.07-.02,.14-.04,.21-.06l.15-.04c.09-.02,.17-.03,.26-.04l.13-.02c.13-.01,.27-.02,.41-.02,.28,.03,.5,.08,.71,.14,.65,.18,1.28,.48,1.88,.9,1.29,.9,2.24,2.29,2.67,3.9l1.89,7.06c.02,.06,.02,.12,.03,.18l3.22,12.17,2.99,11.52,2.98,10.11c.04,.14,.01,.28-.08,.39-.08,.1-.21,.16-.34,.16Zm-29.58-2.85l28.99,1.94-2.81-9.52s0,0,0-.01l-2.99-11.53-3.23-12.21s-.02-.09-.01-.13l-1.87-6.98c-.4-1.49-1.23-2.7-2.35-3.48-.52-.36-1.06-.62-1.61-.77-.18-.05-.36-.09-.54-.11-.05,0-.16,0-.26,.02l-.16-.41,.06,.43c-.06,0-.13,.02-.19,.03,0,0-.11,.03-.11,.03-.06,.01-.11,.03-.16,.04l-.09,.03c-.07,.03-.11,.04-.15,.06l-.43,.26s-.08,.06-.11,.09l-.37-.24,.31,.31s-.08,.08-.11,.12c-.08,.1-.12,.15-.15,.2-.33,.52-.45,1.16-.36,1.86l.03,.2c.02,.14-.02,.28-.12,.38-.1,.1-.24,.14-.37,.13l-21.84-3.25,11.02,42.51Z"/></g><g><path class="cls-1" d="M387.92,308.37l-17.28-16.81c3.2,5.01,5.06,10.95,5.06,17.33,0,.04-4.55,.07-11.23,.09l-23.28,3.2c-1.79-1.32-4.01-2.1-6.42-2.06-5.51,.1-10.12,4.62-10.32,10.13-.22,5.99,4.57,10.91,10.51,10.91,2.23,0,4.29-.7,5.99-1.88l39.74-1.4c.29-.01,.57-.03,.85-.06,9.43-.98,13.18-12.84,6.38-19.46Z"/><path class="cls-9" d="M334.96,331.59c-3,0-5.8-1.19-7.88-3.35-2.08-2.16-3.17-5-3.06-8.01,.21-5.71,5.03-10.44,10.75-10.55,2.37-.03,4.62,.66,6.54,2.04l23.1-3.18c7.51-.02,10.03-.05,10.85-.07-.08-5.93-1.8-11.69-4.99-16.69-.12-.19-.08-.43,.09-.57,.17-.14,.42-.13,.58,.03l17.28,16.81c3.35,3.26,4.47,8.06,2.92,12.53-1.5,4.33-5.08,7.2-9.56,7.67-.29,.03-.58,.05-.88,.06l-39.61,1.39c-1.82,1.23-3.94,1.88-6.13,1.88Zm0-21.04c-.06,0-.12,0-.18,0-5.27,.09-9.71,4.45-9.9,9.71-.1,2.77,.9,5.39,2.82,7.37,1.92,1.99,4.5,3.08,7.26,3.08,2.06,0,4.05-.62,5.74-1.8,.07-.05,.15-.07,.23-.08l39.74-1.4c.28,0,.55-.03,.82-.06,4.14-.43,7.44-3.08,8.83-7.09,1.44-4.15,.4-8.6-2.71-11.63l-15.06-14.65c2.35,4.59,3.58,9.66,3.58,14.86q0,.46-3.54,.49c-1.97,.01-4.78,.03-8.12,.03l-23.22,3.2c-.11,.01-.23-.01-.32-.08-1.75-1.29-3.82-1.97-5.97-1.97Z"/></g><g><path class="cls-17" d="M318.42,290.21c-.17-.64-.23-1.3-.05-1.93,.27-.97,1.08-1.72,2.05-1.93,.07-.02,.15-.03,.22-.04,.04,0,.08-.01,.12-.02,.12-.01,.24-.02,.37-.02,0,0-26.35-1.75-26.36-1.75-2.62-.17-4.29,1.93-3.84,4.47,.14,.81,.46,1.57,.81,2.31,.06,.12,.64,1.63,.7,1.64,0,0,27.64,1.83,27.65,1.83-.11,0-.51-1.36-.55-1.49-.27-.81-.62-1.59-.91-2.39-.08-.22-.16-.45-.22-.69Z"/><path class="cls-9" d="M320.1,295.21s-.01,0-.02,0h0s0,0,0,0c-.16-.01-2.17-.14-27.65-1.83-.32-.02-.34-.08-.91-1.51-.07-.18-.13-.33-.15-.37-.31-.64-.68-1.49-.85-2.42-.25-1.4,.09-2.75,.94-3.7,.82-.92,2.01-1.37,3.35-1.28h0s.59,.04,26.36,1.75c.23,.02,.41,.21,.41,.45s-.2,.42-.43,.42c-.11,0-.22,0-.32,.02l-.02-.04s-.06,0-.1,0v.06c-.06,0-.12,.02-.19,.03-.82,.17-1.5,.81-1.72,1.62-.13,.49-.12,1.05,.06,1.71h0c.06,.22,.13,.44,.2,.65,.12,.32,.24,.64,.37,.96,.19,.48,.38,.95,.54,1.44l.04,.14c.25,.8,.36,1.08,.41,1.18,.08,.08,.13,.2,.13,.33-.01,.23-.2,.41-.43,.41Zm-27.38-2.69c2.44,.16,22.62,1.5,26.7,1.77-.07-.2-.15-.45-.24-.75l-.04-.12c-.16-.47-.34-.93-.53-1.4-.13-.33-.26-.65-.38-.98-.09-.24-.17-.48-.23-.73h0c-.21-.81-.23-1.52-.05-2.16,.17-.63,.55-1.19,1.04-1.59-6.24-.41-24.18-1.6-24.24-1.61-1.08-.07-2.01,.28-2.65,.99-.67,.75-.94,1.83-.73,2.97,.15,.82,.49,1.6,.78,2.19,.02,.04,.09,.2,.17,.42,.1,.24,.29,.72,.41,.98Z"/></g></g><g><path class="cls-1" d="M387.92,308.37l-17.28-16.81c3.2,5.01,5.06,10.95,5.06,17.33,0,.04-4.55,.07-11.23,.09l-23.28,3.2c-1.79-1.32-4.01-2.1-6.42-2.06-5.51,.1-10.12,4.62-10.32,10.13-.22,5.99,4.57,10.91,10.51,10.91,2.23,0,4.29-.7,5.99-1.88l39.74-1.4c.29-.01,.57-.03,.85-.06,9.43-.98,13.18-12.84,6.38-19.46Z"/><path class="cls-9" d="M334.96,331.59c-3,0-5.8-1.19-7.88-3.35-2.08-2.16-3.17-5-3.06-8.01,.21-5.71,5.03-10.44,10.75-10.55,2.37-.03,4.62,.66,6.54,2.04l23.1-3.18c7.51-.02,10.03-.05,10.85-.07-.08-5.93-1.8-11.69-4.99-16.69-.12-.19-.08-.43,.09-.57,.17-.14,.42-.13,.58,.03l17.28,16.81c3.35,3.26,4.47,8.06,2.92,12.53-1.5,4.33-5.08,7.2-9.56,7.67-.29,.03-.58,.05-.88,.06l-39.61,1.39c-1.82,1.23-3.94,1.88-6.13,1.88Zm0-21.04c-.06,0-.12,0-.18,0-5.27,.09-9.71,4.45-9.9,9.71-.1,2.77,.9,5.39,2.82,7.37,1.92,1.99,4.5,3.08,7.26,3.08,2.06,0,4.05-.62,5.74-1.8,.07-.05,.15-.07,.23-.08l39.74-1.4c.28,0,.55-.03,.82-.06,4.14-.43,7.44-3.08,8.83-7.09,1.44-4.15,.4-8.6-2.71-11.63l-15.06-14.65c2.35,4.59,3.58,9.66,3.58,14.86q0,.46-3.54,.49c-1.97,.01-4.78,.03-8.12,.03l-23.22,3.2c-.11,.01-.23-.01-.32-.08-1.75-1.29-3.82-1.97-5.97-1.97Z"/></g></g><path class="cls-9" d="M673.87,54.09h0c-.18,0-.35-.1-.44-.26l-2.01-3.7-3.69-2.03c-.16-.09-.26-.26-.26-.44,0-.18,.1-.35,.26-.44l3.7-2.01,2.03-3.69c.09-.16,.26-.26,.44-.26h0c.18,0,.35,.1,.44,.26l2.01,3.71,3.69,2.03c.16,.09,.26,.26,.26,.44,0,.18-.1,.35-.26,.44l-3.71,2.01-2.03,3.69c-.09,.16-.26,.26-.44,.26Zm-4.86-6.43l3.02,1.66c.08,.05,.15,.12,.2,.2l1.65,3.03,1.66-3.02c.05-.08,.12-.15,.2-.2l3.03-1.65-3.02-1.66c-.08-.05-.15-.12-.2-.2l-1.65-3.03-1.66,3.02c-.05,.08-.12,.15-.2,.2l-3.03,1.65Z"/><path class="cls-9" d="M363.84,170.52h0c-.18,0-.35-.1-.44-.26l-2.01-3.7-3.69-2.03c-.16-.09-.26-.26-.26-.44,0-.18,.1-.35,.26-.44l3.7-2.01,2.03-3.69c.09-.16,.26-.26,.44-.26h0c.18,0,.35,.1,.44,.26l2.01,3.71,3.69,2.03c.16,.09,.26,.26,.26,.44,0,.18-.1,.35-.26,.44l-3.71,2.01-2.03,3.69c-.09,.16-.26,.26-.44,.26Zm-4.86-6.43l3.02,1.66c.08,.05,.15,.12,.2,.2l1.65,3.03,1.66-3.02c.05-.08,.12-.15,.2-.2l3.03-1.65-3.02-1.66c-.08-.05-.15-.12-.2-.2l-1.65-3.03-1.66,3.02c-.05,.08-.12,.15-.2,.2l-3.03,1.65Z"/><path class="cls-9" d="M219.46,435.75h0c-.18,0-.35-.1-.44-.26l-2.01-3.7-3.69-2.03c-.16-.09-.26-.26-.26-.44,0-.18,.1-.35,.26-.44l3.7-2.01,2.03-3.69c.09-.16,.26-.26,.44-.26h0c.18,0,.35,.1,.44,.26l2.01,3.71,3.69,2.03c.16,.09,.26,.26,.26,.44,0,.18-.1,.35-.26,.44l-3.71,2.01-2.03,3.69c-.09,.16-.26,.26-.44,.26Zm-4.86-6.43l3.02,1.66c.08,.05,.15,.12,.2,.2l1.65,3.03,1.66-3.02c.05-.08,.12-.15,.2-.2l3.03-1.65-3.02-1.66c-.08-.05-.15-.12-.2-.2l-1.65-3.03-1.66,3.02c-.05,.08-.12,.15-.2,.2l-3.03,1.65Z"/><g><path class="cls-9" d="M663.53,355.35c-.28,0-.5-.22-.5-.5v-5.53c0-.28,.22-.5,.5-.5s.5,.22,.5,.5v5.53c0,.28-.22,.5-.5,.5Z"/><path class="cls-9" d="M663.53,369.55c-.28,0-.5-.22-.5-.5v-5.53c0-.28,.22-.5,.5-.5s.5,.22,.5,.5v5.53c0,.28-.22,.5-.5,.5Z"/><path class="cls-9" d="M673.39,359.69h-5.53c-.28,0-.5-.22-.5-.5s.22-.5,.5-.5h5.53c.28,0,.5,.22,.5,.5s-.22,.5-.5,.5Z"/><path class="cls-9" d="M659.19,359.69h-5.53c-.28,0-.5-.22-.5-.5s.22-.5,.5-.5h5.53c.28,0,.5,.22,.5,.5s-.22,.5-.5,.5Z"/><path class="cls-9" d="M656.55,366.66c-.13,0-.26-.05-.35-.15-.2-.2-.2-.51,0-.71l3.91-3.91c.2-.2,.51-.2,.71,0,.2,.2,.2,.51,0,.71l-3.91,3.91c-.1,.1-.23,.15-.35,.15Z"/><path class="cls-9" d="M666.59,356.62c-.13,0-.26-.05-.35-.15-.2-.2-.2-.51,0-.71l3.91-3.91c.2-.2,.51-.2,.71,0,.2,.2,.2,.51,0,.71l-3.91,3.91c-.1,.1-.23,.15-.35,.15Z"/><path class="cls-9" d="M660.46,356.62c-.13,0-.26-.05-.35-.15l-3.91-3.91c-.2-.2-.2-.51,0-.71,.2-.2,.51-.2,.71,0l3.91,3.91c.2,.2,.2,.51,0,.71-.1,.1-.23,.15-.35,.15Z"/><path class="cls-9" d="M670.5,366.66c-.13,0-.26-.05-.35-.15l-3.91-3.91c-.2-.2-.2-.51,0-.71s.51-.2,.71,0l3.91,3.91c.2,.2,.2,.51,0,.71-.1,.1-.23,.15-.35,.15Z"/></g><g><path class="cls-9" d="M17.7,38.58c-.28,0-.5-.22-.5-.5v-5.53c0-.28,.22-.5,.5-.5s.5,.22,.5,.5v5.53c0,.28-.22,.5-.5,.5Z"/><path class="cls-9" d="M17.7,52.78c-.28,0-.5-.22-.5-.5v-5.53c0-.28,.22-.5,.5-.5s.5,.22,.5,.5v5.53c0,.28-.22,.5-.5,.5Z"/><path class="cls-9" d="M27.57,42.92h-5.53c-.28,0-.5-.22-.5-.5s.22-.5,.5-.5h5.53c.28,0,.5,.22,.5,.5s-.22,.5-.5,.5Z"/><path class="cls-9" d="M13.37,42.92H7.84c-.28,0-.5-.22-.5-.5s.22-.5,.5-.5h5.53c.28,0,.5,.22,.5,.5s-.22,.5-.5,.5Z"/><path class="cls-9" d="M10.73,49.89c-.13,0-.26-.05-.35-.15-.2-.2-.2-.51,0-.71l3.91-3.91c.2-.2,.51-.2,.71,0,.2,.2,.2,.51,0,.71l-3.91,3.91c-.1,.1-.23,.15-.35,.15Z"/><path class="cls-9" d="M20.77,39.85c-.13,0-.26-.05-.35-.15-.2-.2-.2-.51,0-.71l3.91-3.91c.2-.2,.51-.2,.71,0,.2,.2,.2,.51,0,.71l-3.91,3.91c-.1,.1-.23,.15-.35,.15Z"/><path class="cls-9" d="M14.64,39.85c-.13,0-.26-.05-.35-.15l-3.91-3.91c-.2-.2-.2-.51,0-.71,.2-.2,.51-.2,.71,0l3.91,3.91c.2,.2,.2,.51,0,.71-.1,.1-.23,.15-.35,.15Z"/><path class="cls-9" d="M24.68,49.89c-.13,0-.26-.05-.35-.15l-3.91-3.91c-.2-.2-.2-.51,0-.71s.51-.2,.71,0l3.91,3.91c.2,.2,.2,.51,0,.71-.1,.1-.23,.15-.35,.15Z"/></g></g></g></svg>