<?xml version="1.0" encoding="utf-8"?>
<!-- Generator: Adobe Illustrator 26.3.1, SVG Export Plug-In . SVG Version: 6.00 Build 0)  -->
<svg version="1.1" id="Layer_1" xmlns="http://www.w3.org/2000/svg" xmlns:xlink="http://www.w3.org/1999/xlink" x="0px" y="0px"
	 viewBox="0 0 492.3 334.5" style="enable-background:new 0 0 492.3 334.5;" xml:space="preserve">
<style type="text/css">
	.st0{fill:#FFFFFF;}
</style>
<path class="st0" d="M39.5,10.4c-18.6,0-34.1,15-34.1,33.6v246.4C5.4,309,20.9,324,39.5,324h413.4c18.6,0,34.1-15,34.1-33.6V44
	c0-18.6-15.5-33.6-34.1-33.6L39.5,10.4L39.5,10.4z M45.3,32.8h401.8L256,203.6c-4.8,4.3-14.8,4.3-19.6,0L45.3,32.8L45.3,32.8z
	 M27.8,47.1l139.8,125L27.8,287.9V47.1z M464.6,47.1v240.8L324.8,172.1L464.6,47.1L464.6,47.1z M184.6,187.3l36.9,32.9
	c14,12.5,35.3,12.5,49.4,0l36.9-32.9l138.1,114.3H46.5L184.6,187.3L184.6,187.3z"/>
</svg>
