<svg xmlns="http://www.w3.org/2000/svg" width="133.643" height="80.219" viewBox="0 0 133.643 80.219">
  <g id="logo" transform="translate(-0.781)">
    <path id="Path_1" data-name="Path 1" d="M83.711,41.618V9.447H74.365V3.373H99.578V9.447H90.293V41.633H83.711Z" fill="#fff"/>
    <path id="Path_2" data-name="Path 2" d="M7.689,56.253h.367L10.682,64.1l2.657-7.844h.718l-3.039,8.607h-.7L8.941,60.832,7.872,57.444,6.788,60.817,5.414,64.861H4.7L1.687,56.253h.7L5.047,64.1Z" stroke="#fff" stroke-miterlimit="10" stroke-width="1"/>
    <path id="Path_3" data-name="Path 3" d="M22.991,60.206h5.04v.6h-5.04v3.388h5.421v.641H22.334V56.238H28.26v.626H22.991Z" stroke="#fff" stroke-miterlimit="10" stroke-width="1"/>
    <path id="Path_4" data-name="Path 4" d="M40.813,56.253V64.22h4.841v.626h-5.5V56.253Z" stroke="#fff" stroke-miterlimit="10" stroke-width="1"/>
    <path id="Path_5" data-name="Path 5" d="M58.329,56.253V64.22h4.826v.626h-5.5V56.253Z" stroke="#fff" stroke-miterlimit="10" stroke-width="1"/>
    <path id="Path_6" data-name="Path 6" d="M74.853,56.253l5.788,7.1v-7.1H81.3v8.592h-.275l-5.8-7.1V64.83h-.657V56.238h.29Z" stroke="#fff" stroke-miterlimit="10" stroke-width="1"/>
    <path id="Path_7" data-name="Path 7" d="M93.042,60.206h5.04v.6h-5.04v3.388h5.421v.641H92.385V56.238H98.31v.626H93.026v3.342Z" stroke="#fff" stroke-miterlimit="10" stroke-width="1"/>
    <path id="Path_8" data-name="Path 8" d="M115.613,57.9a2.747,2.747,0,0,0-2.6-1.16c-1.008,0-2.6.366-2.6,1.74,0,1.1,1.176,1.343,2.627,1.618,1.664.32,3.375.61,3.375,2.472-.016,1.938-1.97,2.411-3.406,2.411a3.874,3.874,0,0,1-3.528-1.862l.6-.29a3.383,3.383,0,0,0,2.932,1.557c1.054,0,2.734-.29,2.734-1.816.015-1.282-1.4-1.572-2.826-1.847-1.573-.305-3.176-.626-3.176-2.213-.031-1.816,1.848-2.381,3.268-2.381a3.32,3.32,0,0,1,3.146,1.465Z" stroke="#fff" stroke-miterlimit="10" stroke-width="1"/>
    <path id="Path_9" data-name="Path 9" d="M133.114,57.9a2.747,2.747,0,0,0-2.6-1.16c-1.008,0-2.6.366-2.6,1.74,0,1.1,1.176,1.343,2.627,1.618,1.664.32,3.375.61,3.375,2.472-.016,1.938-1.97,2.411-3.406,2.411a3.874,3.874,0,0,1-3.528-1.862l.6-.29a3.384,3.384,0,0,0,2.932,1.557c1.054,0,2.734-.29,2.734-1.816.015-1.282-1.4-1.572-2.825-1.847-1.573-.305-3.177-.626-3.177-2.213-.03-1.816,1.848-2.381,3.268-2.381a3.32,3.32,0,0,1,3.146,1.465Z" stroke="#fff" stroke-miterlimit="10" stroke-width="1"/>
    <path id="Path_10" data-name="Path 10" d="M68.576,35.559H35.1v6.074H68.576Z" fill="#f07ef9"/>
    <path id="Path_11" data-name="Path 11" d="M133.908,74.079H1.031v5.891H133.908Z" fill="#fff" stroke="#fff" stroke-miterlimit="10" stroke-width="0.5"/>
    <path id="Path_12" data-name="Path 12" d="M133.908,17.4a14.482,14.482,0,0,0-4.169-9.859,15.014,15.014,0,0,0-10.995-4.166c-4.6,0-8.262,1.389-11.042,4.166a14.657,14.657,0,0,0-4.123,9.859h-.046v11h.046a14.482,14.482,0,0,0,4.169,9.859,15.016,15.016,0,0,0,11,4.166c4.6,0,8.262-1.389,11.041-4.166a14.657,14.657,0,0,0,4.123-9.859h.046v-11Zm-8.4,16.787a9.863,9.863,0,0,1-13.531,0,10.023,10.023,0,0,1-2.458-6.944V18.573a10.089,10.089,0,0,1,2.458-6.959,9.863,9.863,0,0,1,13.531,0,10.019,10.019,0,0,1,2.459,6.944v8.668A10.032,10.032,0,0,1,125.509,34.185Z" fill="#fff"/>
    <path id="Path_13" data-name="Path 13" d="M25.114,4A13.791,13.791,0,0,0,14.943,0,13.648,13.648,0,0,0,4.772,4a13.507,13.507,0,0,0-3.742,9.767V41.618H7.6V13.766A7.809,7.809,0,0,1,9.323,8.5a7.037,7.037,0,0,1,5.62-2.472A7.015,7.015,0,0,1,20.563,8.5a7.809,7.809,0,0,1,1.726,5.265V41.618h6.567V13.766A13.153,13.153,0,0,0,25.114,4Z" fill="#fff"/>
    <path id="Path_14" data-name="Path 14" d="M61.994,3.373,61.979,14.8a10.777,10.777,0,0,1-2.688,7.036A9.536,9.536,0,0,1,51.839,24.8a9.536,9.536,0,0,1-7.453-2.961A10.84,10.84,0,0,1,41.7,14.8L41.683,3.373H35.1L35.117,14.8c.153,4.777,1.68,8.638,4.627,11.522a16.5,16.5,0,0,0,12.1,4.594c5.055,0,9.087-1.526,12.141-4.594,2.9-2.9,4.429-6.761,4.582-11.522l.015-11.431Z" fill="#fff"/>
  </g>
</svg>
