<?xml version="1.0" encoding="UTF-8"?><svg id="Layer_2" xmlns="http://www.w3.org/2000/svg" viewBox="0 0 490 490"><defs><style>.cls-1{fill:#fff;}.cls-2{fill:#f16136;}</style></defs><g id="Layer_1-2"><g><g><path class="cls-1" d="m245,0C109.9,0,0,109.9,0,245s109.9,245,245,245,245-109.9,245-245S380.1,0,245,0Zm0,35c116.19,0,210,93.81,210,210s-93.81,210-210,210S35,361.19,35,245,128.81,35,245,35Z"/><path class="cls-2" d="m280,245c0,9.28-3.69,18.18-10.25,24.75-6.57,6.56-15.47,10.25-24.75,10.25s-18.18-3.69-24.75-10.25c-6.56-6.57-10.25-15.47-10.25-24.75s3.69-18.18,10.25-24.75c6.57-6.56,15.47-10.25,24.75-10.25s18.18,3.69,24.75,10.25c6.56,6.57,10.25,15.47,10.25,24.75Z"/><path class="cls-2" d="m157.5,245c0,9.28-3.69,18.18-10.25,24.75-6.57,6.56-15.47,10.25-24.75,10.25s-18.18-3.69-24.75-10.25c-6.56-6.57-10.25-15.47-10.25-24.75s3.69-18.18,10.25-24.75c6.57-6.56,15.47-10.25,24.75-10.25s18.18,3.69,24.75,10.25c6.56,6.57,10.25,15.47,10.25,24.75Z"/></g><path class="cls-2" d="m402.5,245c0,9.28-3.69,18.18-10.25,24.75-6.57,6.56-15.47,10.25-24.75,10.25s-18.18-3.69-24.75-10.25c-6.56-6.57-10.25-15.47-10.25-24.75s3.69-18.18,10.25-24.75c6.57-6.56,15.47-10.25,24.75-10.25s18.18,3.69,24.75,10.25c6.56,6.57,10.25,15.47,10.25,24.75Z"/></g></g></svg>