<?xml version="1.0" encoding="utf-8"?>
<!-- Generator: Adobe Illustrator 26.5.0, SVG Export Plug-In . SVG Version: 6.00 Build 0)  -->
<svg version="1.1" id="Layer_1" xmlns="http://www.w3.org/2000/svg" xmlns:xlink="http://www.w3.org/1999/xlink" x="0px" y="0px"
	 viewBox="0 0 120 120" style="enable-background:new 0 0 120 120;" xml:space="preserve">
<style type="text/css">
	.st0{fill:#F16136;}
	.st1{fill:#202123;}
	.st2{fill:#FFFFFF;}
</style>
<path class="st0" d="M37.6,82.8C37.6,77.5,38,71.7,38,66.3C37.9,61,38.3,55,38.2,49.5c1.5,0.1,2.8,0.6,4.3,0.7
	c1.6,0.1,3.3-0.3,4.9-0.3c-0.1,9.1,0,19.4-0.1,28.6C44.3,80,40.7,81.5,37.6,82.8z"/>
<path class="st1" d="M37.6,82.8l-0.5,0c0,0.2,0.1,0.3,0.2,0.4c0.1,0.1,0.3,0.1,0.5,0L37.6,82.8z M38,66.3h0.5l0,0L38,66.3z
	 M38.2,49.5l0-0.5l-0.5,0l0,0.5L38.2,49.5z M42.5,50.3l0,0.5l0,0L42.5,50.3z M47.4,50l0.5,0l0-0.5l-0.5,0L47.4,50z M47.4,78.6
	l0.2,0.5c0.2-0.1,0.3-0.3,0.3-0.4L47.4,78.6z M38.1,82.8c0-2.6,0-5.4,0.1-8.2c0.1-2.8,0.2-5.6,0.2-8.3h-1c0,2.6-0.1,5.4-0.2,8.2
	c-0.1,2.8-0.2,5.6-0.1,8.3L38.1,82.8z M38.5,66.3c0-2.7,0-5.5,0.1-8.3c0.1-2.8,0.2-5.7,0.1-8.4l-1,0c0,2.7,0,5.6-0.1,8.4
	c-0.1,2.8-0.2,5.7-0.1,8.4L38.5,66.3z M38.2,50c0.7,0,1.4,0.2,2.1,0.3c0.7,0.2,1.4,0.3,2.2,0.4l0-1c-0.7,0-1.4-0.2-2.1-0.3
	c-0.7-0.2-1.4-0.3-2.2-0.4L38.2,50z M42.5,50.8c0.9,0,1.7-0.1,2.5-0.1c0.8-0.1,1.6-0.2,2.4-0.1l0-1c-0.9,0-1.7,0.1-2.5,0.1
	c-0.8,0.1-1.6,0.2-2.4,0.1L42.5,50.8z M46.9,50c0,4.6,0,9.4,0,14.3c0,4.9,0,9.7,0,14.3l1,0c0-4.6,0-9.5,0-14.3c0-4.9,0-9.7,0-14.3
	L46.9,50z M47.1,78.1c-3.1,1.4-6.6,2.9-9.7,4.3l0.4,0.9c3.1-1.4,6.6-2.8,9.7-4.3L47.1,78.1z"/>
<path class="st0" d="M30.3,21.5c1.8-0.8,8-3.6,9.7-4.3c1,2,2,4.1,3,6.1c1.1,2.2,2.2,4.4,3.3,6.6c1.5,3,3.1,6.2,4.6,9.3
	c1.5,3.1,3.1,6.5,4.6,9.5c-0.8,0.4-3,1.3-4.9,2.2c-1.9,0.8-3.8,1.6-4.7,2.1C41,43,35.2,31.6,30.3,21.5z"/>
<path class="st1" d="M30.3,21.5L30.1,21c-0.1,0.1-0.2,0.2-0.3,0.3c0,0.1,0,0.3,0,0.4L30.3,21.5z M40,17.2l0.4-0.2
	c-0.1-0.2-0.4-0.3-0.6-0.2L40,17.2z M43,23.4l0.5-0.2l0,0L43,23.4z M46.4,30l0.4-0.2l0,0L46.4,30z M55.6,48.9l0.2,0.5l0.5-0.2
	L56,48.6L55.6,48.9z M46,53.1l-0.4,0.2c0.1,0.1,0.2,0.2,0.3,0.3c0.1,0,0.3,0,0.4,0L46,53.1z M30.5,22c1.8-0.8,8-3.6,9.7-4.3
	l-0.4-0.9c-1.7,0.7-8,3.4-9.8,4.3L30.5,22z M39.6,17.5c0.5,1,1,2,1.5,3.1c0.5,1,1,2.1,1.5,3.1l0.9-0.4c-0.5-1-1-2-1.5-3.1
	c-0.5-1-1-2.1-1.5-3.1L39.6,17.5z M42.6,23.6c1.1,2.2,2.2,4.4,3.3,6.7l0.9-0.5c-1.1-2.2-2.2-4.4-3.3-6.6L42.6,23.6z M45.9,30.2
	c1.5,3,3.1,6.2,4.6,9.3l0.9-0.4c-1.5-3.1-3.1-6.3-4.6-9.3L45.9,30.2z M50.5,39.6c1.5,3.1,3.1,6.5,4.6,9.5l0.9-0.4
	c-1.5-3-3.1-6.4-4.6-9.5L50.5,39.6z M55.4,48.4c-0.8,0.4-3,1.3-4.9,2.2l0.4,0.9c1.8-0.8,4.1-1.8,4.9-2.2L55.4,48.4z M50.5,50.6
	c-1.8,0.8-3.8,1.6-4.7,2.1l0.5,0.9c0.9-0.4,2.8-1.2,4.7-2.1L50.5,50.6z M46.4,52.9c-5-10.1-10.7-21.5-15.6-31.6l-0.9,0.4
	c4.9,10.1,10.7,21.5,15.6,31.6L46.4,52.9z"/>
<path class="st2" d="M23.3,76.3l0.2-33.2l-9-4l6.7-7.1c3.1-3.2,6.1-7.2,9.2-10.5c3.5,7,15.6,31.6,15.6,31.6l-7.6-3.3l-0.7,33.1
	L23.3,76.3z"/>
<path class="st1" d="M23.3,76.3l-0.5,0c0,0.2,0.1,0.4,0.3,0.5L23.3,76.3z M23.5,43.1l0.5,0l0-0.3l-0.3-0.1L23.5,43.1z M14.4,39.1
	l-0.4-0.3c-0.1,0.1-0.2,0.3-0.1,0.4c0,0.2,0.1,0.3,0.3,0.4L14.4,39.1z M21.1,32l-0.4-0.3l0,0L21.1,32z M30.3,21.5l0.4-0.2
	c-0.1-0.1-0.2-0.2-0.4-0.3c-0.2,0-0.3,0-0.4,0.2L30.3,21.5z M46,53.1l-0.2,0.5c0.2,0.1,0.4,0,0.6-0.1c0.1-0.2,0.2-0.4,0.1-0.6
	L46,53.1z M38.4,49.8l0.2-0.5L37.9,49l0,0.7L38.4,49.8z M37.6,82.8l-0.2,0.5c0.2,0.1,0.3,0.1,0.5,0c0.1-0.1,0.2-0.2,0.2-0.4
	L37.6,82.8z M23.8,76.3L24,43.1l-1,0l-0.2,33.2L23.8,76.3z M23.7,42.7l-9-4l-0.4,0.9l9,4L23.7,42.7z M14.8,39.4l6.7-7.1l-0.7-0.7
	l-6.7,7.1L14.8,39.4z M21.5,32.3c1.6-1.6,3.1-3.4,4.6-5.2c1.5-1.8,3.1-3.6,4.6-5.2l-0.7-0.7c-1.6,1.7-3.1,3.5-4.6,5.3
	c-1.5,1.8-3.1,3.6-4.6,5.2L21.5,32.3z M29.9,21.7c1.8,3.5,5.7,11.4,9.1,18.4c1.7,3.5,3.4,6.8,4.6,9.2c0.6,1.2,1.1,2.2,1.4,2.9
	c0.2,0.3,0.3,0.6,0.4,0.8c0,0.1,0.1,0.2,0.1,0.2c0,0,0,0,0,0.1c0,0,0,0,0,0c0,0,0,0,0,0c0,0,0,0,0,0c0,0,0,0,0.4-0.2
	c0.4-0.2,0.4-0.2,0.4-0.2c0,0,0,0,0,0c0,0,0,0,0,0c0,0,0,0,0,0c0,0,0,0,0-0.1c0,0-0.1-0.1-0.1-0.2c-0.1-0.2-0.2-0.4-0.4-0.8
	c-0.3-0.7-0.8-1.7-1.4-2.9c-1.2-2.4-2.8-5.7-4.6-9.2c-3.5-7-7.4-14.9-9.1-18.4L29.9,21.7z M46.2,52.7l-7.6-3.3l-0.4,0.9l7.6,3.3
	L46.2,52.7z M37.9,49.8l-0.7,33.1l1,0l0.7-33.1L37.9,49.8z M37.8,82.4l-14.3-6.5l-0.4,0.9l14.3,6.5L37.8,82.4z"/>
<path class="st0" d="M78.9,110c-0.1-8.1,0.4-17.2,0.4-25.3c-0.1-8.2,0.5-17.3,0.4-25.6c2.4,0.1,4.2,1,6.6,1.1c2.5,0.1,5-0.1,7.4,0
	c-0.1,13.9,0.1,29.1,0,43.2C88.9,105.5,83.6,107.9,78.9,110z"/>
<path class="st1" d="M78.9,110l-0.5,0c0,0.2,0.1,0.3,0.2,0.4c0.1,0.1,0.3,0.1,0.5,0L78.9,110z M79.2,84.7h0.5l0,0L79.2,84.7z
	 M79.6,59.1l0-0.5l-0.5,0l0,0.5L79.6,59.1z M86.2,60.2l0,0.5h0L86.2,60.2z M93.6,60.2l0.5,0l0-0.5l-0.5,0L93.6,60.2z M93.6,103.4
	l0.2,0.5c0.2-0.1,0.3-0.3,0.3-0.5L93.6,103.4z M79.4,110c-0.1-4,0-8.3,0.1-12.6c0.1-4.3,0.2-8.6,0.2-12.7h-1c0,4-0.1,8.3-0.2,12.6
	c-0.1,4.3-0.2,8.6-0.1,12.7L79.4,110z M79.7,84.7c-0.1-4.1,0.1-8.4,0.2-12.7c0.1-4.3,0.2-8.7,0.2-12.9l-1,0
	c0.1,4.1-0.1,8.5-0.2,12.8c-0.1,4.3-0.2,8.7-0.2,12.8L79.7,84.7z M79.6,59.6c1.1,0,2.1,0.3,3.2,0.5c1,0.2,2.1,0.5,3.4,0.6l0-1
	c-1.1,0-2.1-0.3-3.2-0.5c-1-0.2-2.1-0.5-3.4-0.6L79.6,59.6z M86.1,60.7c1.3,0.1,2.5,0,3.7,0c1.2,0,2.5,0,3.7,0l0-1
	c-1.3-0.1-2.5,0-3.7,0c-1.2,0-2.5,0-3.7,0L86.1,60.7z M93.1,60.2c-0.1,7,0,14.2,0,21.5c0,7.3,0.1,14.6,0,21.6l1,0
	c0.1-7,0-14.4,0-21.6c0-7.3-0.1-14.6,0-21.5L93.1,60.2z M93.4,102.9c-4.7,2.2-10,4.6-14.7,6.6l0.4,0.9c4.7-2.1,10-4.5,14.8-6.6
	L93.4,102.9z"/>
<path class="st0" d="M67.5,16.5c2.7-1.3,12.1-5.4,14.7-6.5c1.5,3.1,3,6.3,4.5,9.3c1.6,3.4,3.2,6.7,4.9,10.1
	c2.2,4.5,4.8,9.4,7.1,14.2c2.4,4.7,4.9,9.8,7.1,14.5c-0.5,0.3-4.3,2.1-7.2,3.4c-2.9,1.3-5.9,2.5-7.2,3.2
	C83.4,48.6,75.3,32.5,67.5,16.5z"/>
<path class="st1" d="M67.5,16.5l-0.2-0.5c-0.1,0.1-0.2,0.2-0.3,0.3c0,0.1,0,0.3,0,0.4L67.5,16.5z M82.3,10l0.4-0.2
	c-0.1-0.2-0.4-0.3-0.7-0.2L82.3,10z M86.8,19.3l0.5-0.2l0,0L86.8,19.3z M91.7,29.4l0.4-0.2l0,0L91.7,29.4z M105.9,58.1l0.3,0.4
	c0.2-0.1,0.3-0.4,0.2-0.6L105.9,58.1z M91.5,64.6L91,64.8c0.1,0.1,0.2,0.2,0.3,0.2c0.1,0,0.3,0,0.4,0L91.5,64.6z M67.7,17
	c2.7-1.3,12.1-5.3,14.7-6.5l-0.4-0.9c-2.6,1.2-12,5.3-14.7,6.5L67.7,17z M81.8,10.2c0.7,1.5,1.5,3.1,2.3,4.7
	c0.8,1.6,1.5,3.1,2.3,4.7l0.9-0.4c-0.7-1.5-1.5-3.1-2.3-4.7c-0.8-1.6-1.5-3.1-2.3-4.7L81.8,10.2z M86.3,19.5
	c1.6,3.4,3.2,6.8,4.9,10.1l0.9-0.5c-1.7-3.4-3.3-6.7-4.9-10.1L86.3,19.5z M91.2,29.7c2.2,4.5,4.8,9.4,7.1,14.2l0.9-0.4
	c-2.4-4.8-4.9-9.6-7.1-14.2L91.2,29.7z M98.4,43.8c2.4,4.7,4.9,9.8,7.1,14.5l0.9-0.4c-2.2-4.6-4.8-9.7-7.1-14.5L98.4,43.8z
	 M105.7,57.6c-0.2,0.1-1.3,0.6-2.7,1.3c-1.4,0.6-3.1,1.4-4.5,2.1l0.4,0.9c1.5-0.6,3.1-1.4,4.5-2.1c1.4-0.6,2.5-1.2,2.8-1.3
	L105.7,57.6z M98.5,61c-2.9,1.3-5.9,2.5-7.2,3.2l0.5,0.9c1.4-0.7,4.3-1.9,7.2-3.2L98.5,61z M91.9,64.4c-8.1-16-16.2-32.1-24-48.1
	l-0.9,0.4c7.8,16,15.9,32.1,24,48.1L91.9,64.4z"/>
<path class="st2" d="M57,100l0.2-50.6l-13.8-6.1l10.2-10.9c4.7-4.9,9.1-10.8,13.9-15.9c5.2,10.8,24,48.1,24,48.1l-11.5-5L78.9,110
	L57,100z"/>
<path class="st1" d="M57,100l-0.5,0c0,0.2,0.1,0.4,0.3,0.5L57,100z M57.3,49.4l0.5,0l0-0.3L57.5,49L57.3,49.4z M43.5,43.3L43.1,43
	C43,43.1,43,43.2,43,43.4c0,0.2,0.1,0.3,0.3,0.4L43.5,43.3z M53.7,32.4l-0.4-0.3l0,0L53.7,32.4z M67.5,16.5l0.5-0.2
	c-0.1-0.1-0.2-0.3-0.4-0.3c-0.2,0-0.3,0-0.4,0.2L67.5,16.5z M91.5,64.6l-0.2,0.5c0.2,0.1,0.4,0,0.6-0.1c0.1-0.2,0.2-0.4,0.1-0.6
	L91.5,64.6z M80,59.6l0.2-0.5l-0.7-0.3l0,0.7L80,59.6z M78.9,110l-0.2,0.5c0.2,0.1,0.3,0.1,0.5,0c0.1-0.1,0.2-0.2,0.2-0.4L78.9,110z
	 M57.5,100l0.2-50.6l-1,0L56.5,100L57.5,100z M57.5,49l-13.8-6.1l-0.4,0.9l13.8,6.1L57.5,49z M43.9,43.6L54,32.8l-0.7-0.7L43.1,43
	L43.9,43.6z M54,32.8c2.4-2.5,4.7-5.2,6.9-7.9c2.3-2.7,4.6-5.5,6.9-8l-0.7-0.7c-2.4,2.5-4.7,5.3-6.9,8c-2.3,2.7-4.6,5.4-6.9,7.9
	L54,32.8z M67.1,16.8c2.6,5.4,8.6,17.4,13.9,28.1c2.7,5.3,5.2,10.3,7,14c0.9,1.8,1.7,3.3,2.2,4.4c0.3,0.5,0.5,0.9,0.6,1.2
	c0.1,0.1,0.1,0.2,0.2,0.3c0,0,0,0.1,0,0.1c0,0,0,0,0,0c0,0,0,0,0,0c0,0,0,0,0,0c0,0,0,0,0.4-0.2c0.4-0.2,0.4-0.2,0.4-0.2
	c0,0,0,0,0,0c0,0,0,0,0,0c0,0,0,0,0,0c0,0,0,0,0-0.1c0-0.1-0.1-0.2-0.2-0.3c-0.1-0.3-0.3-0.7-0.6-1.2c-0.5-1-1.3-2.5-2.2-4.4
	c-1.8-3.7-4.3-8.7-7-14C76.6,33.7,70.6,21.7,68,16.3L67.1,16.8z M91.7,64.2l-11.5-5l-0.4,0.9l11.5,5L91.7,64.2z M79.5,59.6L78.4,110
	l1,0l1.1-50.4L79.5,59.6z M79.1,109.5l-21.8-10l-0.4,0.9l21.8,10L79.1,109.5z"/>
</svg>
