<?xml version="1.0" encoding="utf-8"?>
<!-- Generator: Adobe Illustrator 26.5.0, SVG Export Plug-In . SVG Version: 6.00 Build 0)  -->
<svg version="1.1" id="Layer_1" xmlns="http://www.w3.org/2000/svg" xmlns:xlink="http://www.w3.org/1999/xlink" x="0px" y="0px"
	 viewBox="0 0 120 120" style="enable-background:new 0 0 120 120;" xml:space="preserve">
<style type="text/css">
	.st0{fill:#F16136;stroke:#202123;}
	.st1{fill:#F16136;stroke:#202123;stroke-linejoin:round;}
	.st2{clip-path:url(#SVGID_00000150099159640532973010000014670289553085022899_);}
	.st3{opacity:0.21;fill:#FFFFFF;enable-background:new    ;}
	.st4{fill:#FFFFFF;stroke:#202123;stroke-width:0.5017;stroke-linejoin:round;stroke-miterlimit:10;}
	.st5{fill:#FFFFFF;stroke:#202123;}
	.st6{fill:#F16136;}
	.st7{fill:#202123;}
	.st8{fill:#FFFFFF;stroke:#202123;stroke-width:0.5017;stroke-miterlimit:10;}
	.st9{fill:#F16136;stroke:#202123;stroke-width:0.5017;stroke-miterlimit:10;}
</style>
<path class="st0" d="M57.8,28.4c-23.9,0-44.4,8.4-52.6,20.3C5.1,47.7,5,46.8,5,45.9C5,28.3,30.3,14,61.5,14
	C92.7,14,118,28.3,118,45.9c0,4.1-1.4,8-3.9,11.6C111.6,41.1,87.3,28.4,57.8,28.4z"/>
<path class="st1" d="M61.6,76.8c11.4,0,23.1-1.8,33.7-6.2c4.3-1.8,8.5-4,12.3-6.9c1.6-1.3,3-2.5,4.7-4.2c1.6-1.7,4.3-6.4,4.3-6.4
	s-1.6,9.4-3.5,13.6C104.3,86,76.7,90.8,58,90.8C58,83.4,58,80.8,61.6,76.8z"/>
<g>
	<defs>
		<rect id="SVGID_1_" x="2" y="16.1" width="93" height="89.9"/>
	</defs>
	<clipPath id="SVGID_00000013873494400659491510000016374236787610626485_">
		<use xlink:href="#SVGID_1_"  style="overflow:visible;"/>
	</clipPath>
	<g style="clip-path:url(#SVGID_00000013873494400659491510000016374236787610626485_);">
		<path class="st0" d="M88,56.8c1.6,0.5,2.8,2.5,2.8,4.5v33.4c0,1.3,0,3.5-1.3,4.4l-14.7,5.6c-0.1,0-0.1-0.1-0.1-0.1
			c-0.1-0.1-0.1-0.1-0.2-0.1c-0.3-0.2-0.8-0.5-1.4-0.8c-1.2-0.7-2.9-1.9-5-3.2c-4.2-2.7-10-6.6-16.4-11
			c-12.8-8.9-28.1-20.2-37.9-29.8c-1-1-1.6-2.3-1.6-3.6v-0.1v-0.1l-8.4-26c0-0.1,0.1-0.2,0.1-0.3C4,29.3,4.1,29.2,4.3,29
			c0.3-0.4,0.4-0.8,0.9-1.4c1.1-1.1,3-2.5,4.5-3.8c1.1-1,2.3-1.9,3.4-2.8c1.8-1.5,2.2-1.8,2.9-2.4c0,0,1-0.9,1.3-1.1
			c0.6-0.3,2-0.6,3.2,0.3C41.8,35.1,64.4,47.9,88,56.8z"/>
		<path class="st3" d="M20.4,37.7c8.5,5.1,17,10.3,25.6,14.9c6.2,3.3,12.2,5.8,18.3,8.5c2.4,1,6.3,2.8,8.9,5.5
			c-2.9,2.1-5.8,4.2-8.7,6.3c-1,0.7,0.3,2.8,1.2,2.2c3.1-2.1,6-4.3,9-6.5c0.3,0.5,0.5,1.1,0.7,1.7c-3.7,2.8-7.4,5.6-11.3,8.2
			c-1,0.6,0.2,2.8,1.2,2.2c1.6-1,3.1-2.1,4.6-3.1c-0.2,0.4-0.4,0.8-0.5,1.3c-1.3,3.5-2.2,7.3-2.6,11.3c-0.1-0.1-0.2-0.1-0.4-0.2
			c-1.6-1-3.3-1.8-4.8-2.5c-4.5-2.1-8.9-3.9-13.3-6.6c-0.7-0.5-1.4-0.9-2.2-1.4c-8.2-5.3-16.2-11.1-24.2-17
			c-2.6-2.2-5.1-4.3-7.7-6.6c-0.7-2.2-1.6-4.5-2.3-6.7c-1-3.3-2-6.6-3.1-9.9c-0.6-3-1.2-6.2-1.7-9.2c0.3-0.2,0.7-0.5,1-0.8
			C11.8,32.4,16.2,35.1,20.4,37.7z"/>
		<path class="st4" d="M84.1,98.7c-0.1,2.3,0.3,2.3-2.8,3.4c0.2-0.4,0.5-1.3,0.5-2l0.3-31.6c0.1-3.1-1.7-6.3-4.3-7.7L13.4,23
			c-0.8-0.5-1.1-0.6-1.8-0.6c0.9-0.8,1.3-1.1,1.7-1.5c0.6,0,1.5,0.3,2.6,1l64.5,37.6c2.4,1.4,4,4.5,4,7.4L84.1,98.7z"/>
		<path class="st5" d="M73,64.6c2.6,1.2,4.6,4.6,4.6,7.7V100c0,3.9-2.9,5.9-6.1,4L7.4,66.7c-2.4-1.4-4.1-4.6-4.1-7.5V31.7
			c0-4.2,3.3-6,6.5-3.7C30.5,42.3,51.6,54.6,73,64.6z"/>
		<path class="st6" d="M55.1,60.6c-0.2,0.9-1.1,1.9-2.1,1.3L28.1,47.4c-0.8-0.5-1.3-1.4-1.3-2.4c0-1.2,1-1.9,2-1.2
			c7.7,4.7,16,9.3,24.8,14.1C54.6,58.5,55.4,59.2,55.1,60.6z"/>
		<path class="st7" d="M82.4,95c0.4,0.5,1,0.5,1.3,0.4l8.9-5.5l1.4-17.6c0.1-0.7-0.3-1.5-0.9-1.9c-0.4-0.2-0.8-0.3-1.1-0.2l-9.6,3.4
			c-0.4,0.1-0.7,0.7-0.7,1.3v18.3C81.7,93.8,82,94.5,82.4,95z"/>
		<path class="st8" d="M83.9,95.2c-0.1,0.1-0.3,0-0.4-0.1c-0.1-0.1-0.2-0.4-0.2-0.5V76.6c0-0.6,0.2-1.1,0.7-1.3l9.3-3.7
			c0.3-0.1,0.7,0.3,0.7,0.7v17.9c0,0.7-0.3,1.2-0.7,1.4L83.9,95.2z"/>
		<path class="st7" d="M88.3,88.8l3.4-1.4c0.4-0.1,0.5-0.5,0.5-1v-7.2c0-1-0.9-1.9-1.6-1.6L87.1,79c-0.3,0.1-0.5,0.5-0.5,0.9v7.3
			C86.7,88.2,87.6,89.1,88.3,88.8z"/>
		<path class="st9" d="M88.8,89.2c-0.6,0.2-1.4-0.5-1.4-1.4v-7.3c0-0.4,0.2-0.7,0.4-0.8l3.5-1.4c0.6-0.2,1.4,0.5,1.4,1.4v7.2
			c0,0.4-0.2,0.7-0.5,0.8L88.8,89.2z"/>
	</g>
</g>
</svg>
