<?xml version="1.0" encoding="utf-8"?>
<!-- Generator: Adobe Illustrator 26.5.0, SVG Export Plug-In . SVG Version: 6.00 Build 0)  -->
<svg version="1.1" id="Layer_1" xmlns="http://www.w3.org/2000/svg" xmlns:xlink="http://www.w3.org/1999/xlink" x="0px" y="0px"
	 viewBox="0 0 48 48" style="enable-background:new 0 0 48 48;" xml:space="preserve">
<style type="text/css">
	.st0{clip-path:url(#SVGID_00000123399097581312416080000000395559107914444449_);}
	.st1{fill:#F16136;stroke:#202123;stroke-linejoin:bevel;}
	.st2{fill:#202123;}
	.st3{fill:#FFFFFF;stroke:#202123;stroke-miterlimit:10;}
</style>
<g>
	<defs>
		<rect id="SVGID_1_" width="48" height="48"/>
	</defs>
	<clipPath id="SVGID_00000168824442870592454300000004338930333057372836_">
		<use xlink:href="#SVGID_1_"  style="overflow:visible;"/>
	</clipPath>
	<g style="clip-path:url(#SVGID_00000168824442870592454300000004338930333057372836_);">
		<path class="st1" d="M42.4,42.7c-0.1,0-0.1,0.1-0.2,0.1l-0.3-0.7c-0.4,0-0.9,0-1.5,0c-0.1,0-0.2,0-0.3,0c-0.5,0-1,0-1.5,0
			c-0.6,0-1.2,0-1.7-0.1c-0.5-0.1-0.9-0.2-1.2-0.3l0,0l0,0c-1.3-0.7-3-2-4.4-3c-0.7-0.5-1.3-1-1.8-1.4c-0.2-0.2-0.4-0.3-0.5-0.4
			c-0.1,0-0.1-0.1-0.1-0.1l-6-9.4l-0.9,0l-0.4,0.7c-0.9,0.5-2.5,1-4.2,1.3c-1.8,0.2-3.5,0.1-4.8-0.6l0,0c-2.8-1.6-5.1-3.4-6.7-5.6
			c-1.6-2.2-2.5-4.8-2.5-7.9c0,0,0,0,0,0c0,0,0,0,0,0c0,0,0,0,0-0.1c0-0.1,0-0.2,0-0.3c0-0.2,0.1-0.5,0.2-0.8
			c0.2-0.6,0.4-1.4,0.6-2.1c0.1-0.4,0.2-0.7,0.3-1.1c0.1-0.4,0.2-0.7,0.3-1c0.2-0.6,0.3-1.1,0.3-1.3l0-0.2L4.6,6l3.1-1.8l0.1,0
			l0.1-0.1c1.7-1.1,4.1-1,7,0.6l0,0C17.5,6.3,20,9,22,12.3l0,0l0,0l0,0l3.9,6.8l0.7,0.2l3.8-2.3l0.4-0.2c1.7-0.9,4-0.6,6.6,0.9
			c2.8,1.6,5.3,4.4,7.2,7.5c1.9,3.2,3,6.8,3,9.9c0,2.9-1,4.9-2.4,6c0,0,0,0,0,0L45,41.3v0l0,0c0,0,0,0,0,0c0,0,0,0-0.1,0
			c0,0-0.1,0.1-0.2,0.1c-0.1,0.1-0.4,0.2-0.6,0.3C43.6,42,43,42.4,42.4,42.7z M19.4,23.8L19.4,23.8l1.9-1.2l0.1,0l2-1.3l-0.5-0.8
			l-1.6,1c-0.7-1.1-2-3.2-3.4-5.2c-0.8-1.2-1.6-2.3-2.3-3.2c-0.4-0.5-0.7-0.9-1-1.2c-0.3-0.3-0.6-0.6-0.8-0.7l0,0
			c-0.8-0.5-1.5-0.8-2.1-1.1c-0.6-0.2-1.1-0.4-1.6-0.3C9.5,9.8,9.2,10.2,9,10.8C8.8,11.3,8.8,12,8.8,13c0,1.9,0.7,4.1,1.8,5.9
			c1.1,1.9,2.6,3.5,4.3,4.5l0,0C16.4,24.3,18.1,24.5,19.4,23.8z M37.3,36.3L37.3,36.3c0.7,0.4,1.2,0.8,1.7,1.1
			c0.1,0,0.1,0.1,0.2,0.1c0.2,0.2,0.4,0.3,0.6,0.4c0.2,0.1,0.4,0.2,0.6,0.2c0.2,0,0.5,0,0.7-0.3c0.2-0.2,0.2-0.4,0.3-0.6
			c0.1-0.4,0.1-1.1,0.1-2c0-1.9-0.6-4.2-1.6-6.2c-1-2-2.4-3.8-4.2-4.8c-0.5-0.3-0.7-0.9-0.9-1.5l0,0c0-0.1-0.1-0.3-0.1-0.4
			c0-0.1-0.1-0.3-0.2-0.4c-0.1-0.2-0.3-0.3-0.6-0.3c-0.2,0-0.4,0-0.6,0.1l0,0l-4.1,2.5l-0.2,0.7l4.1,7.2l0,0l0,0
			C34.2,33.8,35.6,35.2,37.3,36.3z"/>
		<path class="st2" d="M41.6,30.1l4.5-2.4c0,0,0.6,1.4,0.8,2c0.2,0.7,0.5,1.6,0.6,2.1c0.1,0.7,0.3,1.4,0.3,2.1
			c0.1,0.7,0.1,1.5,0,2.2c0,0.5-0.1,1.1-0.2,1.6c-0.1,0.4-0.2,0.8-0.4,1.2c-0.1,0.3-0.3,0.6-0.5,1c-0.3,0.4-0.6,0.8-0.9,1.1
			c-0.2,0.2-0.4,0.3-0.5,0.4c-1.2,0.8-3.8,2.1-3.8,2.1l0.5-0.4l0.6-1.1l0.4-1l0.4-1.5l0.1-2l-0.2-2.3l-0.5-2.1l-0.7-2L41.6,30.1z"/>
		<path class="st2" d="M10.6,18.5c0,0-0.4-0.7-0.5-0.9c-0.2-0.5-0.4-1.1-0.6-1.6c-0.2-0.5-0.3-1.1-0.4-1.7c-0.1-0.5-0.1-1-0.1-1.5
			c0-0.3,0.1-1.1,0.1-1.1l0.4-1.1l-1,0.1c0,0,0.3,0.7-0.9,0.4c-1.2-0.2-3,1.7-3,1.7l-0.4,1L4,15.1l0.4,2.8l0.7,1.2l0.3,1.1L6,21.4
			L10.6,18.5z"/>
		<path class="st2" d="M17.8,14.6l4.4-2.5l3.8,6.7l-4.3,2.6L17.8,14.6z"/>
		<path class="st2" d="M29,34.3l4-2.3l-4-7.5l-4.1,2.6L29,34.3z"/>
		<path class="st3" d="M21.3,21.7l0.3,0.4l0.4-0.3l4-2.5l0.1,0c1.7-0.9,4.1-0.7,6.7,0.8c2.8,1.6,5.3,4.4,7.2,7.5c1.9,3.2,3,6.8,3,10
			c0,3.2-1.1,5.3-2.8,6.3c-1.7,1-4.1,0.9-6.9-0.7c-2.6-1.5-5.1-4-7-7.2c0,0,0,0,0,0L26.2,36l-4-7.1l-0.3-0.5l-0.4,0.3L17.7,31h0
			l-0.1,0.1c-1.8,1-4.2,0.8-6.9-0.7l0,0c-2.8-1.6-5.3-4.4-7.2-7.5c-1.9-3.2-3-6.8-3-9.9c0-3.2,1.1-5.3,2.8-6.3
			c1.7-1,4.1-0.9,6.9,0.7c2.7,1.5,5.2,4.2,7.2,7.5l0,0l0,0l0,0L21.3,21.7z M14.7,26.3L14.7,26.3L14.7,26.3l4-2.4l0.4-0.3l-0.2-0.4
			l-4-7c-1-1.8-2.5-3.4-4.3-4.5l0,0l0,0c-1.7-1-3.3-1.1-4.6-0.4c-1.3,0.7-1.9,2.2-1.9,4.2c0,1.9,0.7,4.1,1.8,5.9
			c1.1,1.9,2.6,3.5,4.3,4.5l0,0C11.8,26.8,13.4,27.1,14.7,26.3z M32.7,38.8L32.7,38.8L32.7,38.8c1.7,1,3.3,1.1,4.6,0.4
			c1.3-0.7,2-2.2,2-4.1c0-1.9-0.7-4.1-1.8-5.9c-1.1-1.9-2.6-3.5-4.3-4.5c-1.6-0.9-3.2-1.1-4.4-0.5l0,0l0,0l-4.1,2.5l-0.4,0.3
			l0.2,0.4l4.1,7.2l0,0l0,0C29.6,36.3,31,37.8,32.7,38.8z"/>
	</g>
</g>
</svg>
