<?xml version="1.0" encoding="utf-8"?>
<!-- Generator: Adobe Illustrator 26.5.0, SVG Export Plug-In . SVG Version: 6.00 Build 0)  -->
<svg version="1.1" id="Layer_1" xmlns="http://www.w3.org/2000/svg" xmlns:xlink="http://www.w3.org/1999/xlink" x="0px" y="0px"
	 viewBox="0 0 200 200" style="enable-background:new 0 0 200 200;" xml:space="preserve">
<style type="text/css">
	.st0{fill:#041733;stroke:#202123;}
	.st1{fill:#F16136;stroke:#202123;stroke-linejoin:round;}
	.st2{fill:#FFFFFF;stroke:#202123;stroke-linejoin:round;}
	.st3{fill:#E6E7EA;}
	.st4{fill:none;stroke:#202123;}
	.st5{fill:#FFFFFF;stroke:#202123;}
	.st6{fill:#F16136;stroke:#0F1010;stroke-width:0.5;}
	.st7{fill:#FFFFFF;stroke:#202123;stroke-width:0.5;}
	.st8{fill:#041733;}
	.st9{fill:#F16136;}
	.st10{fill:#B8BABF;}
</style>
<path class="st0" d="M89.5,14.2C89.5,14.2,89.5,14.2,89.5,14.2l2.3-1.9c0.2-0.1,0.3-0.1,0.5,0c22.3,12.5,84.7,47.3,98.6,55
	c1.5,0.8,2.2,2.5,1.9,4.1c-4.4,23-12.8,63.5-14.3,70.8c-0.1,0.6-0.5,1-1,1.2l-1.9,0.8c0,0-0.1-0.1-0.1-0.1l0.1-0.3
	c0.1-0.4,0.2-0.9,0.3-1.6c0.3-1.4,0.7-3.3,1.2-5.7c1-4.8,2.3-11.5,3.8-18.9c3-14.8,6.4-32.5,8.4-43.8l0,0l0.3-1.9l0-0.2l-0.1-0.2
	l-0.4,0.3l0.4-0.3v0l0,0v0l0,0l0,0l0,0c0,0,0-0.1-0.1-0.1c-0.1-0.1-0.2-0.2-0.3-0.4c-0.2-0.3-0.5-0.6-0.7-0.8c0,0,0,0-0.1,0
	c0,0,0,0,0,0c0,0,0,0,0,0c0,0,0,0-0.1,0c-0.1,0-0.1-0.1-0.2-0.1c-0.2-0.1-0.5-0.3-0.8-0.5c-0.7-0.4-1.8-1-3.1-1.8
	c-2.7-1.5-6.5-3.6-11.1-6.2c-9.1-5.1-21.3-11.9-33.4-18.7c-12.1-6.8-24.3-13.6-33.3-18.6c-4.5-2.5-8.3-4.7-11-6.1l-3.1-1.7l-0.8-0.5
	l-0.2-0.1l-0.1,0l0,0l0,0c0,0,0,0-0.2,0.4l0.2-0.4l0,0l0,0c-0.1,0-0.2-0.1-0.4-0.3c-0.2-0.2-0.5-0.4-0.7-0.6
	C89.8,14.5,89.6,14.4,89.5,14.2z"/>
<path class="st1" d="M192.7,69.6l-5.3,3.2c0-0.1-0.1-0.1-0.1-0.2c-0.1-0.1-0.1-0.3-0.2-0.5c-0.1-0.3-0.3-0.5-0.4-0.8
	c-0.1-0.2-0.2-0.4-0.3-0.5c0-0.1-0.1-0.2-0.2-0.2c-0.1-0.1-0.1-0.1-0.2-0.2c0,0,0,0,0,0L90.2,15.8c0,0,0,0,0,0c0,0,0,0-0.1-0.1
	c0-0.1-0.1-0.1-0.2-0.2c-0.1-0.2-0.2-0.4-0.4-0.7c0,0,0,0,0,0c-0.1-0.2-0.2-0.4-0.3-0.6l2.5-1.8c0.1-0.1,0.3-0.1,0.5,0l98.3,54.8
	c0.5,0.3,0.9,0.6,1.3,1l0.1,0.1C192.3,68.6,192.5,69.1,192.7,69.6z"/>
<path class="st2" d="M175.4,144L175.4,144l14.4-72c0,0,0,0,0,0c0.1-0.4,0-0.9-0.3-1.4c-0.3-0.5-0.7-1-1.1-1.2L89.6,14.5l0,0
	c-0.3-0.2-0.5-0.2-0.7-0.1c-0.1,0-0.2,0.1-0.3,0.4l0,0l-14.4,72c0,0,0,0,0,0c-0.1,0.4,0,0.9,0.3,1.4c0.3,0.5,0.7,1,1.1,1.2
	L175.4,144z M175.4,144c-0.1,0.3-0.2,0.3-0.3,0.4c-0.1,0-0.3,0-0.7-0.1L75.7,89.4L175.4,144z"/>
<path class="st3" d="M174.7,146c0,0.1,0,0.2,0,0.3c0,0.1-0.1,0.2-0.1,0.3c0,0.1-0.1,0.2-0.2,0.3c-0.1,0.1-0.1,0.2-0.2,0.3
	c-0.1,0.1-0.2,0.3-0.4,0.4c-0.2,0.2-0.5,0.4-0.8,0.5c0,0,0,0-0.1,0l-61.6,34.5c-0.4,0.2-0.8,0.4-1.3,0.6c-0.4,0.1-0.7,0.2-1.1,0.3
	c-0.3,0-0.5,0.1-0.8,0.1c-0.2,0-0.4,0-0.7,0c-0.2,0-0.4,0-0.6,0c-0.2,0-0.4,0-0.6,0c-0.2,0-0.4,0-0.6-0.1c-0.2,0-0.4-0.1-0.6-0.1
	c-0.2,0-0.4-0.1-0.6-0.1c-0.3-0.1-0.5-0.1-0.7-0.2c-0.3-0.1-0.6-0.2-0.9-0.4L8.5,130.3c-1.2-0.7-1.8-1.5-1.8-2.4l0,4.6
	c0,0.9,0.6,1.7,1.8,2.4l94.4,52.4c0.3,0.2,0.6,0.3,0.9,0.4c0.2,0.1,0.5,0.2,0.7,0.2c0.2,0.1,0.4,0.1,0.6,0.1c0.2,0,0.4,0.1,0.6,0.1
	c0.2,0,0.4,0,0.6,0.1c0.2,0,0.4,0,0.6,0c0.2,0,0.4,0,0.6,0c0.2,0,0.4,0,0.7,0c0.3,0,0.5-0.1,0.8-0.1c0.4-0.1,0.8-0.2,1.1-0.3
	c0.5-0.1,0.9-0.3,1.3-0.6l61.6-34.5c0,0,0,0,0.1,0c0.3-0.2,0.5-0.4,0.8-0.5c0.1-0.1,0.3-0.3,0.4-0.4c0.1-0.1,0.2-0.2,0.2-0.3
	c0.1-0.1,0.1-0.2,0.2-0.3c0-0.1,0.1-0.2,0.1-0.3c0-0.1,0-0.2,0-0.3c0,0,0,0,0-0.1L174.7,146C174.8,146,174.7,146,174.7,146z"/>
<path class="st4" d="M174.7,150.5L174.7,150.5c0,0.2,0,0.3,0,0.4c0,0.1-0.1,0.2-0.1,0.3L174.7,150.5z M174.7,150.5l0-3.7
	L174.7,150.5z M173.8,152.3c-0.2,0.2-0.5,0.4-0.8,0.5c0,0,0,0,0,0c0,0,0,0,0,0L173.8,152.3z M173.8,152.3c0.1-0.1,0.3-0.3,0.4-0.4
	L173.8,152.3z M7.2,128.5c0.3,0,0.7,0.1,1.3,0.2c1.2,0.2,3,0.4,5.3,0.8c4.6,0.7,11.1,1.6,18.9,2.7c15.6,2.2,36.5,5.1,57.4,7.8
	c20.9,2.7,41.9,5.2,57.7,6.5c7.9,0.7,14.6,1.1,19.3,1.1c2.4,0,4.3-0.1,5.6-0.3c0.6-0.1,1.2-0.2,1.6-0.4l0,3.5v0l0,0l0,0l0,0v0l0,0
	l0,0l0,0l0,0v0l0,0l0,0l0,0l0,0v0l0,0l0,0l0,0l0,0v0l0,0l0,0l0,0v0l0,0l0,0l0,0l0,0v0l0,0l0,0l0,0l0,0v0l0,0l0,0l0,0l0,0v0l0,0l0,0
	l0,0v0l0,0l0,0l0,0l0,0v0l0,0l0,0l0,0l0,0v0l0,0l0,0l0,0l0,0v0l0,0l0,0l0,0l0,0v0l0,0l0,0l0,0v0l0,0l0,0l0,0l0,0v0l0,0l0,0l0,0l0,0
	v0l0,0l0,0l0,0l0,0v0l0,0l0,0l0,0l0,0v0l0,0l0,0l0,0v0l0,0l0,0l0,0l0,0v0l0,0l0,0l0,0l0,0v0l0,0l0,0l0,0l0,0v0l0,0l0,0l0,0l0,0v0
	l0,0l0,0l0,0v0l0,0l0,0l0,0l0,0v0l0,0l0,0l0,0l0,0v0l0,0l0,0l0,0l0,0v0l0,0l0,0l0,0l0,0v0l0,0l0,0l0,0v0l0,0l0,0l0,0l0,0v0l0,0l0,0
	l0,0l0,0v0l0,0l0,0l0,0l0,0v0l0,0l0,0l0,0v0l0,0l0,0l0,0l0,0v0l0,0l0,0l0,0l0,0v0l0,0l0,0l0,0l0,0v0l0,0l0,0l0,0l0,0v0l0,0l0,0l0,0
	v0l0,0l0,0l0,0l0,0v0l0,0l0,0l0,0l0,0v0l0,0l0,0l0,0l0,0v0l0,0l0,0l0,0l0,0v0l0,0l0,0l0,0v0l0,0l0,0l0,0l0,0v0l0,0l0,0l0,0l0,0v0
	l0,0l0,0l0,0l0,0v0l0,0l0,0l0,0l0,0v0l0,0l0,0l0,0v0l0,0l0,0l0,0l0,0v0l0,0l0,0l0,0l0,0v0l0,0l0,0l0,0l0,0v0l0,0l0,0l0,0v0l0,0l0,0
	l0,0l0,0v0l0,0l0,0l0,0c0,0.1,0,0.1,0,0.2c0,0.1,0,0.2-0.1,0.2l0,0c0,0.1-0.1,0.2-0.1,0.3c-0.1,0.1-0.1,0.2-0.2,0.3
	c-0.1,0.1-0.2,0.2-0.3,0.3l0,0c-0.2,0.2-0.4,0.3-0.7,0.5c0,0,0,0,0,0c0,0,0,0,0,0l0,0l0,0l0,0l0,0l0,0l0,0l-61.6,34.5h0
	c-0.4,0.2-0.8,0.4-1.2,0.5c-0.4,0.1-0.7,0.2-1.1,0.3c-0.2,0-0.5,0.1-0.7,0.1c-0.2,0-0.4,0-0.6,0h0c-0.2,0-0.4,0-0.6,0
	c-0.2,0-0.4,0-0.6,0c-0.2,0-0.4,0-0.6-0.1c-0.2,0-0.4-0.1-0.6-0.1l0,0c-0.2,0-0.4-0.1-0.6-0.1l0,0l0,0c-0.2-0.1-0.5-0.1-0.7-0.2
	c-0.3-0.1-0.6-0.2-0.8-0.4l0,0L8.7,134.5c0,0,0,0,0,0c-1.1-0.6-1.5-1.3-1.5-2c0,0,0,0,0,0L7.2,128.5z"/>
<path class="st5" d="M172.7,144l0.2-0.4L172.7,144c1.1,0.6,1.5,1.3,1.5,1.9c0,0.6-0.4,1.3-1.5,1.9l-61.6,34.5l0,0
	c-1.1,0.6-2.5,0.9-4,0.9c-1.5,0-2.9-0.3-4-0.9l0,0L8.7,129.9h0c-1.1-0.6-1.5-1.3-1.5-1.9c0-0.6,0.4-1.3,1.5-1.9c0,0,0,0,0,0
	l61.6-34.5h0c1.1-0.6,2.5-0.9,4-0.9c1.5,0,2.9,0.3,4,0.9l0,0L172.7,144z"/>
<path class="st6" d="M40.9,114L40.9,114c-0.7,0.4-0.7,1.4,0,1.8h0l85.8,47.7L40.9,114z M40.9,114l29.6-16.3l0,0 M40.9,114l29.6-16.3
	 M70.5,97.7c1.6-0.9,3.5-0.9,5,0l85.9,47.7l0,0 M70.5,97.7l90.9,47.7 M161.4,145.4c0.7,0.4,0.7,1.4,0,1.8l-29.6,16.3h0 M161.4,145.4
	l-29.6,18.1 M131.8,163.5c-1.6,0.9-3.5,0.9-5,0L131.8,163.5z"/>
<path class="st7" d="M47.3,142.2L47.3,142.2c-0.6,0.3-0.6,1.1,0,1.4c0,0,0,0,0,0l25,13.9c1.2,0.6,2.6,0.7,3.8,0h0l12.8-6.9
	L47.3,142.2z M47.3,142.2l12.8-6.9h0 M47.3,142.2l12.8-6.9 M60.1,135.3c1.2-0.6,2.6-0.6,3.8,0l0.1-0.2 M60.1,135.3l3.9-0.2
	 M64,135.1l-0.1,0.2l25,13.9h0 M64,135.1l24.8,14.1 M88.9,149.1c0.6,0.3,0.6,1.1,0,1.4L88.9,149.1z"/>
<path class="st8" d="M69.1,102l3.4,1.9c0,0,0.1,0,0.1,0.1c0,0,0.1,0,0.1,0c0,0,0.1,0,0.1,0c0,0,0.1,0,0.1,0c0,0,0.1,0,0.1,0
	c0,0,0.1,0,0.1,0c0,0,0.1,0,0.1,0c0,0,0.1,0,0.1,0c0,0,0.1,0,0.1,0c0.1,0,0.1,0,0.2,0c0.1,0,0.1,0,0.2-0.1l1.9-1.1c0,0,0,0,0,0
	c0,0,0.1,0,0.1-0.1c0,0,0,0,0-0.1c0,0,0,0,0,0c0,0,0,0,0,0c0,0,0,0,0,0c0,0,0,0,0,0v0l0-1.3v0c0,0,0,0,0,0c0,0,0,0,0,0c0,0,0,0,0,0
	c0,0,0,0,0,0c0,0,0,0,0,0.1c0,0-0.1,0.1-0.1,0.1c0,0,0,0,0,0l-1.9,1.1c-0.1,0-0.1,0.1-0.2,0.1c0,0-0.1,0-0.2,0c0,0-0.1,0-0.1,0
	c0,0-0.1,0-0.1,0c0,0-0.1,0-0.1,0c0,0-0.1,0-0.1,0c0,0-0.1,0-0.1,0c0,0-0.1,0-0.1,0c0,0-0.1,0-0.1,0c0,0-0.1,0-0.1,0
	c0,0-0.1,0-0.1-0.1l-3.4-1.9c-0.2-0.1-0.2-0.2-0.2-0.3l0,1.3C68.9,101.7,69,101.9,69.1,102z"/>
<path class="st8" d="M74.8,103.6l0,1.3c0,0.1,0.1,0.2,0.2,0.3l3.4,1.9c0,0,0.1,0,0.1,0.1c0,0,0.1,0,0.1,0c0,0,0.1,0,0.1,0
	c0,0,0.1,0,0.1,0c0,0,0.1,0,0.1,0c0,0,0.1,0,0.1,0c0,0,0.1,0,0.1,0c0,0,0.1,0,0.1,0c0,0,0.1,0,0.1,0c0.1,0,0.1,0,0.2,0
	c0.1,0,0.1,0,0.2-0.1l1.9-1.1c0,0,0,0,0,0c0,0,0.1,0,0.1-0.1c0,0,0,0,0-0.1c0,0,0,0,0,0c0,0,0,0,0,0c0,0,0,0,0,0c0,0,0,0,0,0v0
	l0-1.3v0c0,0,0,0,0,0c0,0,0,0,0,0c0,0,0,0,0,0c0,0,0,0,0,0c0,0,0,0,0,0.1c0,0-0.1,0.1-0.1,0.1c0,0,0,0,0,0l-1.9,1.1
	c-0.1,0-0.1,0.1-0.2,0.1c0,0-0.1,0-0.2,0c0,0-0.1,0-0.1,0c0,0-0.1,0-0.1,0c0,0-0.1,0-0.1,0c0,0-0.1,0-0.1,0c0,0-0.1,0-0.1,0
	c0,0-0.1,0-0.1,0c0,0-0.1,0-0.1,0c0,0-0.1,0-0.1,0c0,0-0.1,0-0.1-0.1L75,104C74.9,103.9,74.8,103.7,74.8,103.6z"/>
<path class="st8" d="M80.7,106.9l0,1.3c0,0.1,0.1,0.2,0.2,0.3l3.4,1.9c0,0,0.1,0,0.1,0.1c0,0,0.1,0,0.1,0c0,0,0.1,0,0.1,0
	c0,0,0.1,0,0.1,0c0,0,0.1,0,0.1,0c0,0,0.1,0,0.1,0c0,0,0.1,0,0.1,0c0,0,0.1,0,0.1,0c0,0,0.1,0,0.1,0c0.1,0,0.1,0,0.2,0
	c0.1,0,0.1,0,0.2-0.1l1.9-1.1c0,0,0,0,0,0c0,0,0.1,0,0.1-0.1c0,0,0,0,0-0.1c0,0,0,0,0,0c0,0,0,0,0,0c0,0,0,0,0,0c0,0,0,0,0,0v0
	l0-1.3v0c0,0,0,0,0,0c0,0,0,0,0,0c0,0,0,0,0,0c0,0,0,0,0,0c0,0,0,0,0,0.1c0,0-0.1,0.1-0.1,0.1c0,0,0,0,0,0l-1.9,1.1
	c-0.1,0-0.1,0.1-0.2,0.1c0,0-0.1,0-0.2,0c0,0-0.1,0-0.1,0c0,0-0.1,0-0.1,0c0,0-0.1,0-0.1,0c0,0-0.1,0-0.1,0c0,0-0.1,0-0.1,0
	c0,0-0.1,0-0.1,0c0,0-0.1,0-0.1,0c0,0-0.1,0-0.1,0c0,0-0.1,0-0.1-0.1l-3.4-1.9C80.8,107.2,80.7,107,80.7,106.9z"/>
<path class="st8" d="M86.6,110.2l0,1.3c0,0.1,0.1,0.2,0.2,0.3l3.4,1.9c0,0,0.1,0,0.1,0.1c0,0,0.1,0,0.1,0c0,0,0.1,0,0.1,0
	c0,0,0.1,0,0.1,0c0,0,0.1,0,0.1,0c0,0,0.1,0,0.1,0c0,0,0.1,0,0.1,0s0.1,0,0.1,0c0,0,0.1,0,0.1,0c0.1,0,0.1,0,0.2,0
	c0.1,0,0.1,0,0.2-0.1l1.9-1.1c0,0,0,0,0,0c0,0,0.1,0,0.1-0.1c0,0,0,0,0-0.1s0,0,0,0c0,0,0,0,0,0c0,0,0,0,0,0s0,0,0,0v0l0-1.3v0
	c0,0,0,0,0,0c0,0,0,0,0,0c0,0,0,0,0,0c0,0,0,0,0,0c0,0,0,0,0,0.1c0,0-0.1,0.1-0.1,0.1c0,0,0,0,0,0l-1.9,1.1c-0.1,0-0.1,0.1-0.2,0.1
	c0,0-0.1,0-0.2,0c0,0-0.1,0-0.1,0c0,0-0.1,0-0.1,0c0,0-0.1,0-0.1,0c0,0-0.1,0-0.1,0c0,0-0.1,0-0.1,0c0,0-0.1,0-0.1,0
	c0,0-0.1,0-0.1,0c0,0-0.1,0-0.1,0c0,0-0.1,0-0.1-0.1l-3.4-1.9C86.7,110.4,86.6,110.3,86.6,110.2z"/>
<path class="st8" d="M92.5,113.5l0,1.3c0,0.1,0.1,0.2,0.2,0.3l3.4,1.9c0,0,0.1,0,0.1,0.1c0,0,0.1,0,0.1,0c0,0,0.1,0,0.1,0
	c0,0,0.1,0,0.1,0c0,0,0.1,0,0.1,0c0,0,0.1,0,0.1,0c0,0,0.1,0,0.1,0c0,0,0.1,0,0.1,0c0,0,0.1,0,0.1,0c0.1,0,0.1,0,0.2,0
	c0.1,0,0.1,0,0.2-0.1l1.9-1.1c0,0,0,0,0,0c0,0,0.1,0,0.1-0.1c0,0,0,0,0-0.1c0,0,0,0,0,0c0,0,0,0,0,0c0,0,0,0,0,0c0,0,0,0,0,0v0
	l0-1.3v0c0,0,0,0,0,0c0,0,0,0,0,0c0,0,0,0,0,0c0,0,0,0,0,0c0,0,0,0,0,0.1c0,0-0.1,0.1-0.1,0.1c0,0,0,0,0,0l-1.9,1.1
	c-0.1,0-0.1,0.1-0.2,0.1c0,0-0.1,0-0.2,0c0,0-0.1,0-0.1,0c0,0-0.1,0-0.1,0c0,0-0.1,0-0.1,0c0,0-0.1,0-0.1,0c0,0-0.1,0-0.1,0
	c0,0-0.1,0-0.1,0c0,0-0.1,0-0.1,0c0,0-0.1,0-0.1,0c0,0-0.1,0-0.1-0.1l-3.4-1.9C92.6,113.7,92.5,113.6,92.5,113.5z"/>
<path class="st8" d="M98.5,116.8l0,1.3c0,0.1,0.1,0.2,0.2,0.3l3.4,1.9c0,0,0.1,0,0.1,0.1c0,0,0.1,0,0.1,0c0,0,0.1,0,0.1,0
	c0,0,0.1,0,0.1,0c0,0,0.1,0,0.1,0c0,0,0.1,0,0.1,0c0,0,0.1,0,0.1,0s0.1,0,0.1,0c0,0,0.1,0,0.1,0c0.1,0,0.1,0,0.2,0
	c0.1,0,0.1,0,0.2-0.1l1.9-1.1c0,0,0,0,0,0c0,0,0.1,0,0.1-0.1c0,0,0,0,0-0.1c0,0,0,0,0,0c0,0,0,0,0,0c0,0,0,0,0,0c0,0,0,0,0,0v0
	l0-1.3v0c0,0,0,0,0,0c0,0,0,0,0,0c0,0,0,0,0,0s0,0,0,0c0,0,0,0,0,0.1c0,0-0.1,0.1-0.1,0.1c0,0,0,0,0,0l-1.9,1.1
	c-0.1,0-0.1,0.1-0.2,0.1c0,0-0.1,0-0.2,0c0,0-0.1,0-0.1,0c0,0-0.1,0-0.1,0c0,0-0.1,0-0.1,0c0,0-0.1,0-0.1,0c0,0-0.1,0-0.1,0
	c0,0-0.1,0-0.1,0c0,0-0.1,0-0.1,0c0,0-0.1,0-0.1,0c0,0-0.1,0-0.1-0.1l-3.4-1.9C98.5,117,98.5,116.9,98.5,116.8z"/>
<path class="st8" d="M104.4,120.1l0,1.3c0,0.1,0.1,0.2,0.2,0.3l3.3,1.9c0,0,0.1,0,0.1,0.1c0,0,0.1,0,0.1,0c0,0,0.1,0,0.1,0
	c0,0,0.1,0,0.1,0c0,0,0.1,0,0.1,0c0,0,0.1,0,0.1,0c0,0,0.1,0,0.1,0c0,0,0.1,0,0.1,0c0,0,0.1,0,0.1,0c0.1,0,0.1,0,0.2,0
	c0.1,0,0.1,0,0.2-0.1l1.9-1.1c0,0,0,0,0,0c0,0,0.1,0,0.1-0.1c0,0,0,0,0.1-0.1c0,0,0,0,0,0c0,0,0,0,0,0c0,0,0,0,0,0c0,0,0,0,0,0v0
	l0-1.3v0c0,0,0,0,0,0c0,0,0,0,0,0c0,0,0,0,0,0c0,0,0,0,0,0c0,0,0,0,0,0.1c0,0-0.1,0.1-0.1,0.1c0,0,0,0,0,0l-1.9,1.1
	c-0.1,0-0.1,0.1-0.2,0.1c0,0-0.1,0-0.2,0c0,0-0.1,0-0.1,0c0,0-0.1,0-0.1,0s-0.1,0-0.1,0c0,0-0.1,0-0.1,0c0,0-0.1,0-0.1,0
	c0,0-0.1,0-0.1,0c0,0-0.1,0-0.1,0c0,0-0.1,0-0.1,0c0,0-0.1,0-0.1-0.1l-3.3-1.9C104.4,120.3,104.4,120.2,104.4,120.1z"/>
<path class="st8" d="M110.3,123.3l0,1.3c0,0.1,0.1,0.2,0.2,0.3l3.4,1.9c0,0,0.1,0,0.1,0.1c0,0,0.1,0,0.1,0c0,0,0.1,0,0.1,0
	c0,0,0.1,0,0.1,0c0,0,0.1,0,0.1,0s0.1,0,0.1,0c0,0,0.1,0,0.1,0c0,0,0.1,0,0.1,0c0,0,0.1,0,0.1,0c0.1,0,0.1,0,0.2,0
	c0.1,0,0.1,0,0.2-0.1l1.9-1.1c0,0,0,0,0,0c0,0,0.1,0,0.1-0.1c0,0,0,0,0-0.1c0,0,0,0,0,0c0,0,0,0,0,0c0,0,0,0,0,0c0,0,0,0,0,0v0
	l0-1.3v0c0,0,0,0,0,0c0,0,0,0,0,0c0,0,0,0,0,0c0,0,0,0,0,0c0,0,0,0-0.1,0.1c0,0-0.1,0.1-0.1,0.1c0,0,0,0,0,0l-1.9,1.1
	c-0.1,0-0.1,0.1-0.2,0.1c0,0-0.1,0-0.2,0c0,0-0.1,0-0.1,0c0,0-0.1,0-0.1,0c0,0-0.1,0-0.1,0c0,0-0.1,0-0.1,0c0,0-0.1,0-0.1,0
	c0,0-0.1,0-0.1,0c0,0-0.1,0-0.1,0c0,0-0.1,0-0.1,0c0,0-0.1,0-0.1-0.1l-3.4-1.9C110.4,123.6,110.3,123.5,110.3,123.3z"/>
<path class="st8" d="M116.2,126.6l0,1.3c0,0.1,0.1,0.2,0.2,0.3l3.3,1.9c0,0,0.1,0,0.1,0.1c0,0,0.1,0,0.1,0c0,0,0.1,0,0.1,0
	c0,0,0.1,0,0.1,0c0,0,0.1,0,0.1,0l0-1.3c0,0-0.1,0-0.1,0c0,0-0.1,0-0.1,0c0,0-0.1,0-0.1,0c0,0-0.1,0-0.1,0c0,0-0.1,0-0.1-0.1
	l-3.3-1.9C116.3,126.9,116.2,126.7,116.2,126.6z"/>
<path class="st8" d="M120.4,130.2C120.4,130.2,120.4,130.2,120.4,130.2c0.1,0,0.1,0,0.2,0c0,0,0.1,0,0.1,0c0.1,0,0.1,0,0.2,0
	c0.1,0,0.1,0,0.2-0.1l1.9-1.1c0,0,0,0,0,0c0,0,0.1,0,0.1-0.1c0,0,0,0,0-0.1c0,0,0,0,0,0c0,0,0,0,0,0c0,0,0,0,0,0c0,0,0,0,0,0v0
	l0-1.3v0c0,0,0,0,0,0c0,0,0,0,0,0c0,0,0,0,0,0c0,0,0,0,0,0c0,0,0,0,0,0.1c0,0-0.1,0.1-0.1,0.1c0,0,0,0,0,0l-1.9,1.1
	c-0.1,0-0.1,0.1-0.2,0.1c-0.1,0-0.1,0-0.2,0c0,0-0.1,0-0.1,0c0,0-0.1,0-0.1,0s-0.1,0-0.1,0c0,0-0.1,0-0.1,0L120.4,130.2
	C120.3,130.2,120.3,130.2,120.4,130.2z"/>
<path class="st8" d="M122.1,129.9l0,1.3c0,0.1,0.1,0.2,0.2,0.3l3.4,1.9c0,0,0.1,0,0.1,0.1c0,0,0.1,0,0.1,0c0,0,0.1,0,0.1,0
	c0,0,0.1,0,0.1,0c0,0,0.1,0,0.1,0c0,0,0.1,0,0.1,0c0,0,0.1,0,0.1,0c0,0,0.1,0,0.1,0c0,0,0.1,0,0.1,0c0.1,0,0.1,0,0.2,0
	c0.1,0,0.1,0,0.2-0.1l1.9-1.1c0,0,0,0,0,0c0,0,0.1,0,0.1-0.1c0,0,0,0,0-0.1c0,0,0,0,0,0c0,0,0,0,0,0c0,0,0,0,0,0s0,0,0,0v0l0-1.3v0
	c0,0,0,0,0,0c0,0,0,0,0,0c0,0,0,0,0,0c0,0,0,0,0,0c0,0,0,0,0,0.1c0,0-0.1,0.1-0.1,0.1c0,0,0,0,0,0l-1.9,1.1c-0.1,0-0.1,0.1-0.2,0.1
	c0,0-0.1,0-0.2,0c0,0-0.1,0-0.1,0c0,0-0.1,0-0.1,0s-0.1,0-0.1,0c0,0-0.1,0-0.1,0c0,0-0.1,0-0.1,0c0,0-0.1,0-0.1,0c0,0-0.1,0-0.1,0
	c0,0-0.1,0-0.1,0c0,0-0.1,0-0.1-0.1l-3.4-1.9C122.2,130.2,122.1,130,122.1,129.9z"/>
<path class="st8" d="M128,133.2l0,1.3c0,0.1,0.1,0.2,0.2,0.3l3.4,1.9c0,0,0.1,0,0.1,0.1c0,0,0.1,0,0.1,0c0,0,0.1,0,0.1,0
	c0,0,0.1,0,0.1,0c0,0,0.1,0,0.1,0c0,0,0.1,0,0.1,0c0,0,0.1,0,0.1,0c0,0,0.1,0,0.1,0c0,0,0.1,0,0.1,0c0.1,0,0.1,0,0.2,0
	c0.1,0,0.1,0,0.2-0.1l1.9-1.1c0,0,0,0,0,0c0,0,0.1,0,0.1-0.1c0,0,0,0,0-0.1c0,0,0,0,0,0c0,0,0,0,0,0c0,0,0,0,0,0c0,0,0,0,0,0v0
	l0-1.3v0c0,0,0,0,0,0c0,0,0,0,0,0c0,0,0,0,0,0c0,0,0,0,0,0c0,0,0,0,0,0.1c0,0-0.1,0.1-0.1,0.1c0,0,0,0,0,0l-1.9,1.1
	c-0.1,0-0.1,0.1-0.2,0.1c0,0-0.1,0-0.2,0c0,0-0.1,0-0.1,0c0,0-0.1,0-0.1,0c0,0-0.1,0-0.1,0c0,0-0.1,0-0.1,0c0,0-0.1,0-0.1,0
	c0,0-0.1,0-0.1,0c0,0-0.1,0-0.1,0c0,0-0.1,0-0.1,0c0,0-0.1,0-0.1-0.1l-3.4-1.9C128.1,133.4,128,133.3,128,133.2z"/>
<path class="st8" d="M134,136.5l0,1.3c0,0.1,0.1,0.2,0.2,0.3l3.4,1.9c0,0,0.1,0,0.1,0.1c0,0,0.1,0,0.1,0c0,0,0.1,0,0.1,0
	c0,0,0.1,0,0.1,0c0,0,0.1,0,0.1,0c0,0,0.1,0,0.1,0c0,0,0.1,0,0.1,0s0.1,0,0.1,0c0,0,0.1,0,0.1,0c0.1,0,0.1,0,0.2,0
	c0.1,0,0.1,0,0.2-0.1l1.9-1.1c0,0,0,0,0,0c0,0,0.1,0,0.1-0.1c0,0,0,0,0-0.1c0,0,0,0,0,0c0,0,0,0,0,0c0,0,0,0,0,0c0,0,0,0,0,0v0
	l0-1.3v0c0,0,0,0,0,0c0,0,0,0,0,0s0,0,0,0c0,0,0,0,0,0c0,0,0,0-0.1,0.1c0,0-0.1,0.1-0.1,0.1c0,0,0,0,0,0l-1.9,1.1
	c-0.1,0-0.1,0.1-0.2,0.1c-0.1,0-0.1,0-0.2,0c0,0-0.1,0-0.1,0c0,0-0.1,0-0.1,0c0,0-0.1,0-0.1,0c0,0-0.1,0-0.1,0c0,0-0.1,0-0.1,0
	c0,0-0.1,0-0.1,0c0,0-0.1,0-0.1,0c0,0-0.1,0-0.1,0c0,0-0.1,0-0.1-0.1l-3.4-1.9C134,136.7,134,136.6,134,136.5z"/>
<path class="st8" d="M140.1,140.1c-0.2-0.1-0.2-0.2-0.2-0.3l0,1.3c0,0.1,0.1,0.2,0.2,0.3l4.7,2.6c0,0,0.1,0,0.1,0.1l0-1.3
	c0,0-0.1,0-0.1-0.1L140.1,140.1z"/>
<path class="st8" d="M145.1,144.1C145.1,144.1,145.1,144.1,145.1,144.1c0.1,0,0.1,0,0.2,0c0,0,0.1,0,0.1,0c0,0,0.1,0,0.1,0
	c0,0,0.1,0,0.1,0c0,0,0.1,0,0.1,0c0,0,0.1,0,0.1,0c0.1,0,0.1,0,0.2,0c0.1,0,0.1,0,0.2-0.1l1.9-1.1c0,0,0,0,0,0c0,0,0.1,0,0.1-0.1
	c0,0,0,0,0-0.1c0,0,0,0,0,0c0,0,0,0,0,0c0,0,0,0,0,0c0,0,0,0,0,0v0l0-1.3v0c0,0,0,0,0,0c0,0,0,0,0,0c0,0,0,0,0,0c0,0,0,0,0,0
	c0,0,0,0,0,0.1c0,0-0.1,0.1-0.1,0.1c0,0,0,0,0,0l-1.9,1.1c-0.1,0-0.1,0.1-0.2,0.1c-0.1,0-0.1,0-0.2,0c0,0-0.1,0-0.1,0
	c0,0-0.1,0-0.1,0s-0.1,0-0.1,0c0,0-0.1,0-0.1,0c0,0-0.1,0-0.1,0c0,0-0.1,0-0.1,0c0,0-0.1,0-0.1,0c0,0-0.1,0-0.1,0l0,1.3
	C145,144.1,145,144.1,145.1,144.1z"/>
<path class="st8" d="M155.5,145.4C155.5,145.4,155.5,145.4,155.5,145.4C155.5,145.5,155.4,145.5,155.5,145.4c0,0.1,0,0.1,0,0.1
	c0,0,0,0,0,0c0,0,0,0-0.1,0.1c0,0-0.1,0.1-0.1,0.1c0,0,0,0,0,0l-1.9,1.1c-0.1,0-0.1,0.1-0.2,0.1c-0.1,0-0.1,0-0.2,0c0,0-0.1,0-0.1,0
	c0,0-0.1,0-0.1,0c0,0-0.1,0-0.1,0c0,0-0.1,0-0.1,0c0,0-0.1,0-0.1,0c0,0-0.1,0-0.1,0c0,0-0.1,0-0.1,0c0,0-0.1,0-0.1,0
	c0,0-0.1,0-0.1-0.1l-4.7-2.6c-0.2-0.1-0.2-0.2-0.2-0.3l0,1.3c0,0.1,0.1,0.2,0.2,0.3l4.7,2.6c0,0,0.1,0,0.1,0.1c0,0,0.1,0,0.1,0
	c0,0,0.1,0,0.1,0c0,0,0.1,0,0.1,0c0,0,0.1,0,0.1,0c0,0,0.1,0,0.1,0c0,0,0.1,0,0.1,0s0.1,0,0.1,0c0,0,0.1,0,0.1,0c0.1,0,0.1,0,0.2,0
	c0.1,0,0.1,0,0.2-0.1l1.9-1.1c0,0,0,0,0,0c0,0,0.1,0,0.1-0.1c0,0,0,0,0.1-0.1c0,0,0,0,0,0c0,0,0,0,0,0c0,0,0,0,0,0c0,0,0,0,0,0v0
	L155.5,145.4C155.5,145.4,155.5,145.4,155.5,145.4z"/>
<path class="st8" d="M63.4,105.2l3.4,1.9c0,0,0.1,0,0.1,0.1c0,0,0.1,0,0.1,0c0,0,0.1,0,0.1,0c0,0,0.1,0,0.1,0c0,0,0.1,0,0.1,0
	c0,0,0.1,0,0.1,0c0,0,0.1,0,0.1,0c0,0,0.1,0,0.1,0c0,0,0.1,0,0.1,0c0.1,0,0.1,0,0.2,0c0.1,0,0.1,0,0.2-0.1l3.3-1.9c0,0,0,0,0,0
	c0,0,0.1,0,0.1-0.1c0,0,0,0,0-0.1c0,0,0,0,0,0c0,0,0,0,0,0c0,0,0,0,0,0c0,0,0,0,0,0v0l0-1.3v0c0,0,0,0,0,0c0,0,0,0,0,0c0,0,0,0,0,0
	c0,0,0,0,0,0c0,0,0,0,0,0.1c0,0-0.1,0.1-0.1,0.1c0,0,0,0,0,0l-3.3,1.9c-0.1,0-0.1,0.1-0.2,0.1c0,0-0.1,0-0.2,0c0,0-0.1,0-0.1,0
	c0,0-0.1,0-0.1,0c0,0-0.1,0-0.1,0c0,0-0.1,0-0.1,0c0,0-0.1,0-0.1,0c0,0-0.1,0-0.1,0c0,0-0.1,0-0.1,0c0,0-0.1,0-0.1,0
	c0,0-0.1,0-0.1-0.1l-3.4-1.9c-0.2-0.1-0.2-0.2-0.2-0.3l0,1.3C63.1,105,63.2,105.1,63.4,105.2z"/>
<path class="st8" d="M72.9,110.4C72.9,110.4,72.9,110.4,72.9,110.4c0.1,0,0.1,0,0.2,0c0,0,0.1,0,0.1,0c0,0,0.1,0,0.1,0
	c0,0,0.1,0,0.1,0c0,0,0.1,0,0.1,0c0,0,0.1,0,0.1,0c0.1,0,0.1,0,0.2,0c0.1,0,0.1,0,0.2-0.1l3.3-1.9c0,0,0,0,0,0c0,0,0.1,0,0.1-0.1
	c0,0,0,0,0-0.1c0,0,0,0,0,0c0,0,0,0,0,0c0,0,0,0,0,0c0,0,0,0,0,0v0l0-1.3v0c0,0,0,0,0,0c0,0,0,0,0,0c0,0,0,0,0,0c0,0,0,0,0,0
	c0,0,0,0,0,0.1c0,0-0.1,0.1-0.1,0.1c0,0,0,0,0,0l-3.3,1.9c-0.1,0-0.1,0.1-0.2,0.1c0,0-0.1,0-0.2,0c0,0-0.1,0-0.1,0c0,0-0.1,0-0.1,0
	c0,0-0.1,0-0.1,0c0,0-0.1,0-0.1,0c0,0-0.1,0-0.1,0c0,0-0.1,0-0.1,0c0,0-0.1,0-0.1,0c0,0-0.1,0-0.1,0l0,1.3
	C72.8,110.4,72.8,110.4,72.9,110.4z"/>
<path class="st8" d="M72.6,109l-3.4-1.9c-0.2-0.1-0.2-0.2-0.2-0.3l0,1.3c0,0.1,0.1,0.2,0.2,0.3l3.4,1.9c0,0,0.1,0,0.1,0.1l0-1.3
	C72.7,109.1,72.7,109.1,72.6,109z"/>
<path class="st8" d="M57.6,108.4l6.2,3.5c0,0,0.1,0,0.1,0.1c0,0,0.1,0,0.1,0c0,0,0.1,0,0.1,0c0,0,0.1,0,0.1,0c0,0,0.1,0,0.1,0
	c0,0,0.1,0,0.1,0c0,0,0.1,0,0.1,0c0,0,0.1,0,0.1,0c0,0,0.1,0,0.1,0c0.1,0,0.1,0,0.2,0c0.1,0,0.1,0,0.2-0.1l3.3-1.9c0,0,0,0,0,0
	c0,0,0.1,0,0.1-0.1c0,0,0,0,0-0.1c0,0,0,0,0,0c0,0,0,0,0,0c0,0,0,0,0,0c0,0,0,0,0,0v0l0-1.3v0c0,0,0,0,0,0c0,0,0,0,0,0c0,0,0,0,0,0
	c0,0,0,0,0,0c0,0,0,0,0,0.1c0,0-0.1,0.1-0.1,0.1c0,0,0,0,0,0l-3.3,1.9c-0.1,0-0.1,0.1-0.2,0.1c0,0-0.1,0-0.2,0c0,0-0.1,0-0.1,0
	c0,0-0.1,0-0.1,0c0,0-0.1,0-0.1,0c0,0-0.1,0-0.1,0c0,0-0.1,0-0.1,0c0,0-0.1,0-0.1,0c0,0-0.1,0-0.1,0c0,0-0.1,0-0.1,0
	c0,0-0.1,0-0.1-0.1l-6.2-3.5c-0.2-0.1-0.2-0.2-0.2-0.3l0,1.3C57.4,108.2,57.4,108.3,57.6,108.4z"/>
<path class="st8" d="M83.3,110.2C83.3,110.2,83.3,110.2,83.3,110.2C83.3,110.3,83.3,110.3,83.3,110.2c0,0.1-0.1,0.1-0.1,0.1
	c0,0,0,0,0,0.1c0,0-0.1,0.1-0.1,0.1c0,0,0,0,0,0l-3.3,1.9c-0.1,0-0.1,0.1-0.2,0.1c0,0-0.1,0-0.2,0c0,0-0.1,0-0.1,0c0,0-0.1,0-0.1,0
	c0,0-0.1,0-0.1,0c0,0-0.1,0-0.1,0c0,0-0.1,0-0.1,0c0,0-0.1,0-0.1,0c0,0-0.1,0-0.1,0c0,0-0.1,0-0.1,0c0,0-0.1,0-0.1-0.1l-3.4-1.9
	c-0.2-0.1-0.2-0.2-0.2-0.3l0,1.3c0,0.1,0.1,0.2,0.2,0.3l3.4,1.9c0,0,0.1,0,0.1,0.1c0,0,0.1,0,0.1,0c0,0,0.1,0,0.1,0c0,0,0.1,0,0.1,0
	c0,0,0.1,0,0.1,0c0,0,0.1,0,0.1,0c0,0,0.1,0,0.1,0c0,0,0.1,0,0.1,0c0,0,0.1,0,0.1,0c0.1,0,0.1,0,0.2,0c0.1,0,0.1,0,0.2-0.1l3.3-1.9
	c0,0,0,0,0,0c0,0,0.1,0,0.1-0.1c0,0,0,0,0-0.1c0,0,0,0,0,0c0,0,0,0,0,0c0,0,0,0,0,0c0,0,0,0,0,0v0V110.2L83.3,110.2
	C83.3,110.2,83.3,110.2,83.3,110.2z"/>
<path class="st8" d="M66.3,111.8l0,1.3c0,0.1,0.1,0.2,0.2,0.3l6.3,3.5c0,0,0.1,0,0.1,0.1c0,0,0.1,0,0.1,0c0,0,0.1,0,0.1,0
	c0,0,0.1,0,0.1,0c0,0,0.1,0,0.1,0c0,0,0.1,0,0.1,0c0,0,0.1,0,0.1,0c0,0,0.1,0,0.1,0c0,0,0.1,0,0.1,0c0.1,0,0.1,0,0.2,0
	c0.1,0,0.1,0,0.2-0.1l3.3-1.9c0,0,0,0,0,0c0,0,0.1,0,0.1-0.1c0,0,0,0,0-0.1c0,0,0,0,0,0c0,0,0,0,0,0c0,0,0,0,0,0c0,0,0,0,0,0v0
	l0-1.3v0c0,0,0,0,0,0c0,0,0,0,0,0c0,0,0,0,0,0c0,0,0,0,0,0c0,0,0,0,0,0.1c0,0-0.1,0.1-0.1,0.1c0,0,0,0,0,0l-3.3,1.9
	c-0.1,0-0.1,0.1-0.2,0.1c0,0-0.1,0-0.2,0c0,0-0.1,0-0.1,0c0,0-0.1,0-0.1,0c0,0-0.1,0-0.1,0c0,0-0.1,0-0.1,0c0,0-0.1,0-0.1,0
	c0,0-0.1,0-0.1,0c0,0-0.1,0-0.1,0c0,0-0.1,0-0.1,0c0,0-0.1,0-0.1-0.1l-6.3-3.5C66.4,112,66.3,111.9,66.3,111.8z"/>
<path class="st8" d="M51.8,111.6l9.3,5.1c0,0,0.1,0,0.1,0.1l0-1.3c0,0-0.1,0-0.1-0.1l-9.3-5.1c-0.2-0.1-0.2-0.2-0.2-0.3l0,1.3
	C51.6,111.4,51.7,111.5,51.8,111.6z"/>
<path class="st8" d="M61.3,116.9C61.4,116.9,61.4,116.9,61.3,116.9c0.1,0,0.1,0,0.2,0c0,0,0.1,0,0.1,0s0.1,0,0.1,0c0,0,0.1,0,0.1,0
	s0.1,0,0.1,0c0,0,0.1,0,0.1,0c0.1,0,0.1,0,0.2,0c0.1,0,0.1,0,0.2-0.1l3.3-1.9c0,0,0,0,0,0c0,0,0.1,0,0.1-0.1c0,0,0,0,0-0.1
	c0,0,0,0,0,0c0,0,0,0,0,0c0,0,0,0,0,0c0,0,0,0,0,0v0l0-1.3v0c0,0,0,0,0,0c0,0,0,0,0,0c0,0,0,0,0,0c0,0,0,0,0,0c0,0,0,0,0,0.1
	c0,0-0.1,0.1-0.1,0.1c0,0,0,0,0,0l-3.3,1.9c-0.1,0-0.1,0.1-0.2,0.1c0,0-0.1,0-0.2,0c0,0-0.1,0-0.1,0c0,0-0.1,0-0.1,0
	c0,0-0.1,0-0.1,0c0,0-0.1,0-0.1,0c0,0-0.1,0-0.1,0c0,0-0.1,0-0.1,0c0,0-0.1,0-0.1,0c0,0-0.1,0-0.1,0l0,1.3
	C61.3,116.8,61.3,116.8,61.3,116.9z"/>
<path class="st8" d="M54,114.8c0,0,0.1,0,0.1-0.1c0,0,0,0,0-0.1c0,0,0,0,0,0c0,0,0,0,0,0c0,0,0,0,0,0c0,0,0,0,0,0v0l0-1.3v0
	c0,0,0,0,0,0c0,0,0,0,0,0c0,0,0,0,0,0c0,0,0,0,0,0c0,0,0,0,0,0.1c0,0-0.1,0.1-0.1,0.1c0,0,0,0,0,0l-4.7,2.6c-0.1,0-0.1,0.1-0.2,0.1
	c0,0-0.1,0-0.2,0c0,0-0.1,0-0.1,0c0,0-0.1,0-0.1,0c0,0-0.1,0-0.1,0c0,0-0.1,0-0.1,0c0,0-0.1,0-0.1,0c0,0-0.1,0-0.1,0
	c0,0-0.1,0-0.1,0c0,0-0.1,0-0.1,0c0,0-0.1,0-0.1-0.1l-3.4-1.9c-0.2-0.1-0.2-0.2-0.2-0.3l0,1.3c0,0.1,0.1,0.2,0.2,0.3l3.4,1.9
	c0,0,0.1,0,0.1,0.1c0,0,0.1,0,0.1,0c0,0,0.1,0,0.1,0c0,0,0.1,0,0.1,0c0,0,0.1,0,0.1,0c0,0,0.1,0,0.1,0c0,0,0.1,0,0.1,0
	c0,0,0.1,0,0.1,0c0,0,0.1,0,0.1,0c0.1,0,0.1,0,0.2,0c0.1,0,0.1,0,0.2-0.1L54,114.8C54,114.8,54,114.8,54,114.8z"/>
<path class="st8" d="M59.9,118.1c0,0,0.1,0,0.1-0.1c0,0,0,0,0-0.1c0,0,0,0,0,0c0,0,0,0,0,0c0,0,0,0,0,0c0,0,0,0,0,0v0l0-1.3v0
	c0,0,0,0,0,0c0,0,0,0,0,0c0,0,0,0,0,0c0,0,0,0,0,0c0,0,0,0,0,0.1c0,0-0.1,0.1-0.1,0.1c0,0,0,0,0,0l-4.7,2.6c-0.1,0-0.1,0.1-0.2,0.1
	c0,0-0.1,0-0.2,0c0,0-0.1,0-0.1,0c0,0-0.1,0-0.1,0c0,0-0.1,0-0.1,0c0,0-0.1,0-0.1,0c0,0-0.1,0-0.1,0c0,0-0.1,0-0.1,0
	c0,0-0.1,0-0.1,0c0,0-0.1,0-0.1,0c0,0-0.1,0-0.1-0.1l-3.4-1.9c-0.2-0.1-0.2-0.2-0.2-0.3l0,1.3c0,0.1,0.1,0.2,0.2,0.3l3.4,1.9
	c0,0,0.1,0,0.1,0.1c0,0,0.1,0,0.1,0c0,0,0.1,0,0.1,0c0,0,0.1,0,0.1,0c0,0,0.1,0,0.1,0s0.1,0,0.1,0c0,0,0.1,0,0.1,0c0,0,0.1,0,0.1,0
	c0,0,0.1,0,0.1,0c0.1,0,0.1,0,0.2,0c0.1,0,0.1,0,0.2-0.1L59.9,118.1C59.9,118.1,59.9,118.1,59.9,118.1z"/>
<path class="st8" d="M63.4,116.6l0,1.3c0,0.1,0.1,0.2,0.2,0.3l3.4,1.9c0,0,0.1,0,0.1,0.1c0,0,0.1,0,0.1,0c0,0,0.1,0,0.1,0
	c0,0,0.1,0,0.1,0c0,0,0.1,0,0.1,0c0,0,0.1,0,0.1,0c0,0,0.1,0,0.1,0c0,0,0.1,0,0.1,0c0,0,0.1,0,0.1,0c0.1,0,0.1,0,0.2,0
	c0.1,0,0.1,0,0.2-0.1l3.3-1.9c0,0,0,0,0,0c0,0,0.1,0,0.1-0.1c0,0,0,0,0-0.1c0,0,0,0,0,0c0,0,0,0,0,0c0,0,0,0,0,0c0,0,0,0,0,0v0
	l0-1.3v0c0,0,0,0,0,0c0,0,0,0,0,0c0,0,0,0,0,0c0,0,0,0,0,0c0,0,0,0,0,0.1c0,0-0.1,0.1-0.1,0.1c0,0,0,0,0,0l-3.3,1.9
	c-0.1,0-0.1,0.1-0.2,0.1c0,0-0.1,0-0.2,0c0,0-0.1,0-0.1,0c0,0-0.1,0-0.1,0c0,0-0.1,0-0.1,0c0,0-0.1,0-0.1,0c0,0-0.1,0-0.1,0
	c0,0-0.1,0-0.1,0c0,0-0.1,0-0.1,0c0,0-0.1,0-0.1,0c0,0-0.1,0-0.1-0.1l-3.4-1.9C63.5,116.8,63.4,116.7,63.4,116.6z"/>
<path class="st8" d="M65.8,121.4c0,0,0.1,0,0.1-0.1c0,0,0,0,0-0.1c0,0,0,0,0,0c0,0,0,0,0,0c0,0,0,0,0,0c0,0,0,0,0,0v0l0-1.3v0
	c0,0,0,0,0,0c0,0,0,0,0,0c0,0,0,0,0,0c0,0,0,0,0,0c0,0,0,0,0,0.1c0,0-0.1,0.1-0.1,0.1c0,0,0,0,0,0l-4.7,2.7c-0.1,0-0.1,0.1-0.2,0.1
	c0,0-0.1,0-0.2,0c0,0-0.1,0-0.1,0c0,0-0.1,0-0.1,0c0,0-0.1,0-0.1,0c0,0-0.1,0-0.1,0c0,0-0.1,0-0.1,0c0,0-0.1,0-0.1,0
	c0,0-0.1,0-0.1,0c0,0-0.1,0-0.1,0c0,0-0.1,0-0.1-0.1l-3.4-1.9c-0.2-0.1-0.2-0.2-0.2-0.3l0,1.3c0,0.1,0.1,0.2,0.2,0.3l3.4,1.9
	c0,0,0.1,0,0.1,0.1c0,0,0.1,0,0.1,0c0,0,0.1,0,0.1,0c0,0,0.1,0,0.1,0c0,0,0.1,0,0.1,0c0,0,0.1,0,0.1,0c0,0,0.1,0,0.1,0
	c0,0,0.1,0,0.1,0c0,0,0.1,0,0.1,0c0.1,0,0.1,0,0.2,0c0.1,0,0.1,0,0.2-0.1L65.8,121.4C65.8,121.4,65.8,121.4,65.8,121.4z"/>
<path class="st8" d="M89.2,113.5C89.2,113.5,89.2,113.5,89.2,113.5C89.2,113.5,89.2,113.6,89.2,113.5c0,0.1-0.1,0.1-0.1,0.1
	c0,0,0,0,0,0.1c0,0-0.1,0.1-0.1,0.1c0,0,0,0,0,0l-3.3,1.9c-0.1,0-0.1,0.1-0.2,0.1c0,0-0.1,0-0.2,0c0,0-0.1,0-0.1,0c0,0-0.1,0-0.1,0
	c0,0-0.1,0-0.1,0c0,0-0.1,0-0.1,0c0,0-0.1,0-0.1,0c0,0-0.1,0-0.1,0c0,0-0.1,0-0.1,0c0,0-0.1,0-0.1,0c0,0-0.1,0-0.1-0.1l-3.4-1.9
	c-0.2-0.1-0.2-0.2-0.2-0.3l0,1.3c0,0.1,0.1,0.2,0.2,0.3l3.4,1.9c0,0,0.1,0,0.1,0.1c0,0,0.1,0,0.1,0c0,0,0.1,0,0.1,0c0,0,0.1,0,0.1,0
	c0,0,0.1,0,0.1,0c0,0,0.1,0,0.1,0c0,0,0.1,0,0.1,0c0,0,0.1,0,0.1,0c0,0,0.1,0,0.1,0c0.1,0,0.1,0,0.2,0c0.1,0,0.1,0,0.2-0.1L89,115
	c0,0,0,0,0,0c0,0,0.1,0,0.1-0.1c0,0,0,0,0-0.1c0,0,0,0,0,0s0,0,0,0c0,0,0,0,0,0c0,0,0,0,0,0v0V113.5L89.2,113.5
	C89.2,113.4,89.2,113.5,89.2,113.5z"/>
<path class="st8" d="M83.2,118.3c0,0,0.1,0,0.1-0.1c0,0,0,0,0-0.1c0,0,0,0,0,0c0,0,0,0,0,0c0,0,0,0,0,0c0,0,0,0,0,0v0l0-1.3v0
	c0,0,0,0,0,0c0,0,0,0,0,0c0,0,0,0,0,0c0,0,0,0,0,0c0,0,0,0,0,0.1c0,0-0.1,0.1-0.1,0.1c0,0,0,0,0,0l-3.3,1.9c-0.1,0-0.1,0.1-0.2,0.1
	c0,0-0.1,0-0.2,0c0,0-0.1,0-0.1,0c0,0-0.1,0-0.1,0c0,0-0.1,0-0.1,0c0,0-0.1,0-0.1,0c0,0-0.1,0-0.1,0c0,0-0.1,0-0.1,0
	c0,0-0.1,0-0.1,0c0,0-0.1,0-0.1,0c0,0-0.1,0-0.1-0.1l-3.4-1.9c-0.2-0.1-0.2-0.2-0.2-0.3l0,1.3c0,0.1,0.1,0.2,0.2,0.3l3.4,1.9
	c0,0,0.1,0,0.1,0.1c0,0,0.1,0,0.1,0c0,0,0.1,0,0.1,0c0,0,0.1,0,0.1,0c0,0,0.1,0,0.1,0c0,0,0.1,0,0.1,0c0,0,0.1,0,0.1,0
	c0,0,0.1,0,0.1,0c0,0,0.1,0,0.1,0c0.1,0,0.1,0,0.2,0c0.1,0,0.1,0,0.2-0.1L83.2,118.3C83.2,118.3,83.2,118.3,83.2,118.3z"/>
<path class="st8" d="M69.6,121.5l3.4,1.9c0,0,0.1,0,0.1,0.1c0,0,0.1,0,0.1,0c0,0,0.1,0,0.1,0c0,0,0.1,0,0.1,0c0,0,0.1,0,0.1,0
	c0,0,0.1,0,0.1,0c0,0,0.1,0,0.1,0c0,0,0.1,0,0.1,0c0,0,0.1,0,0.1,0c0.1,0,0.1,0,0.2,0c0.1,0,0.1,0,0.2-0.1l3.3-1.9c0,0,0,0,0,0
	c0,0,0.1,0,0.1-0.1c0,0,0,0,0-0.1c0,0,0,0,0,0c0,0,0,0,0,0c0,0,0,0,0,0c0,0,0,0,0,0v0l0-1.3v0c0,0,0,0,0,0c0,0,0,0,0,0c0,0,0,0,0,0
	c0,0,0,0,0,0c0,0,0,0,0,0.1c0,0-0.1,0.1-0.1,0.1c0,0,0,0,0,0l-3.3,1.9c-0.1,0-0.1,0.1-0.2,0.1c0,0-0.1,0-0.2,0c0,0-0.1,0-0.1,0
	c0,0-0.1,0-0.1,0c0,0-0.1,0-0.1,0c0,0-0.1,0-0.1,0c0,0-0.1,0-0.1,0c0,0-0.1,0-0.1,0c0,0-0.1,0-0.1,0c0,0-0.1,0-0.1,0
	c0,0-0.1,0-0.1-0.1l-3.4-1.9c-0.2-0.1-0.2-0.2-0.2-0.3l0,1.3C69.4,121.3,69.4,121.4,69.6,121.5z"/>
<path class="st8" d="M71.7,124.7c0,0,0.1,0,0.1-0.1c0,0,0,0,0-0.1c0,0,0,0,0,0c0,0,0,0,0,0c0,0,0,0,0,0c0,0,0,0,0,0v0l0-1.3v0
	c0,0,0,0,0,0c0,0,0,0,0,0c0,0,0,0,0,0c0,0,0,0,0,0c0,0,0,0,0,0.1c0,0-0.1,0.1-0.1,0.1c0,0,0,0,0,0l-4.7,2.6c-0.1,0-0.1,0.1-0.2,0.1
	c0,0-0.1,0-0.2,0c0,0-0.1,0-0.1,0c0,0-0.1,0-0.1,0c0,0-0.1,0-0.1,0c0,0-0.1,0-0.1,0c0,0-0.1,0-0.1,0c0,0-0.1,0-0.1,0
	c0,0-0.1,0-0.1,0c0,0-0.1,0-0.1,0c0,0-0.1,0-0.1-0.1l-3.4-1.9c-0.2-0.1-0.2-0.2-0.2-0.3l0,1.3c0,0.1,0.1,0.2,0.2,0.3l3.4,1.9
	c0,0,0.1,0,0.1,0.1c0,0,0.1,0,0.1,0c0,0,0.1,0,0.1,0c0,0,0.1,0,0.1,0c0,0,0.1,0,0.1,0c0,0,0.1,0,0.1,0c0,0,0.1,0,0.1,0
	c0,0,0.1,0,0.1,0c0,0,0.1,0,0.1,0c0.1,0,0.1,0,0.2,0c0.1,0,0.1,0,0.2-0.1L71.7,124.7C71.7,124.7,71.7,124.7,71.7,124.7z"/>
<path class="st8" d="M95.1,116.8C95.1,116.8,95.1,116.8,95.1,116.8C95.1,116.8,95.1,116.8,95.1,116.8c0,0.1-0.1,0.1-0.1,0.1
	c0,0,0,0,0,0.1c0,0-0.1,0.1-0.1,0.1c0,0,0,0,0,0l-3.3,1.9c-0.1,0-0.1,0.1-0.2,0.1c0,0-0.1,0-0.2,0c0,0-0.1,0-0.1,0c0,0-0.1,0-0.1,0
	c0,0-0.1,0-0.1,0c0,0-0.1,0-0.1,0c0,0-0.1,0-0.1,0c0,0-0.1,0-0.1,0c0,0-0.1,0-0.1,0c0,0-0.1,0-0.1,0c0,0-0.1,0-0.1-0.1L87,117
	c-0.2-0.1-0.2-0.2-0.2-0.3l0,1.3c0,0.1,0.1,0.2,0.2,0.3l3.4,1.9c0,0,0.1,0,0.1,0.1c0,0,0.1,0,0.1,0c0,0,0.1,0,0.1,0c0,0,0.1,0,0.1,0
	c0,0,0.1,0,0.1,0c0,0,0.1,0,0.1,0c0,0,0.1,0,0.1,0c0,0,0.1,0,0.1,0c0,0,0.1,0,0.1,0c0.1,0,0.1,0,0.2,0c0.1,0,0.1,0,0.2-0.1l3.3-1.9
	c0,0,0,0,0,0c0,0,0.1,0,0.1-0.1c0,0,0,0,0-0.1c0,0,0,0,0,0c0,0,0,0,0,0c0,0,0,0,0,0c0,0,0,0,0,0v0V116.8L95.1,116.8
	C95.1,116.7,95.1,116.8,95.1,116.8z"/>
<path class="st8" d="M101.1,120.1C101,120.1,101,120.1,101.1,120.1C101,120.1,101,120.1,101.1,120.1c0,0.1-0.1,0.1-0.1,0.1
	s0,0,0,0.1c0,0-0.1,0.1-0.1,0.1c0,0,0,0,0,0l-3.3,1.9c-0.1,0-0.1,0.1-0.2,0.1c0,0-0.1,0-0.2,0c0,0-0.1,0-0.1,0c0,0-0.1,0-0.1,0
	c0,0-0.1,0-0.1,0c0,0-0.1,0-0.1,0c0,0-0.1,0-0.1,0c0,0-0.1,0-0.1,0c0,0-0.1,0-0.1,0c0,0-0.1,0-0.1,0c0,0-0.1,0-0.1-0.1l-3.4-1.9
	c-0.2-0.1-0.2-0.2-0.2-0.3l0,1.3c0,0.1,0.1,0.2,0.2,0.3l3.4,1.9c0,0,0.1,0,0.1,0.1c0,0,0.1,0,0.1,0c0,0,0.1,0,0.1,0c0,0,0.1,0,0.1,0
	c0,0,0.1,0,0.1,0c0,0,0.1,0,0.1,0c0,0,0.1,0,0.1,0c0,0,0.1,0,0.1,0c0,0,0.1,0,0.1,0c0.1,0,0.1,0,0.2,0c0.1,0,0.1,0,0.2-0.1l3.3-1.9
	c0,0,0,0,0,0c0,0,0.1,0,0.1-0.1c0,0,0,0,0-0.1c0,0,0,0,0,0c0,0,0,0,0,0c0,0,0,0,0,0c0,0,0,0,0,0v0L101.1,120.1L101.1,120.1
	C101.1,120,101.1,120,101.1,120.1z"/>
<path class="st8" d="M81.3,121.5l3.4,1.9c0,0,0.1,0,0.1,0.1c0,0,0.1,0,0.1,0c0,0,0.1,0,0.1,0c0,0,0.1,0,0.1,0c0,0,0.1,0,0.1,0
	c0,0,0.1,0,0.1,0c0,0,0.1,0,0.1,0c0,0,0.1,0,0.1,0c0,0,0.1,0,0.1,0c0.1,0,0.1,0,0.2,0c0.1,0,0.1,0,0.2-0.1l3.3-1.9c0,0,0,0,0,0
	c0,0,0.1,0,0.1-0.1c0,0,0,0,0-0.1c0,0,0,0,0,0c0,0,0,0,0,0c0,0,0,0,0,0c0,0,0,0,0,0v0l0-1.3v0c0,0,0,0,0,0c0,0,0,0,0,0c0,0,0,0,0,0
	c0,0,0,0,0,0c0,0,0,0,0,0.1c0,0-0.1,0.1-0.1,0.1c0,0,0,0,0,0l-3.3,1.9c-0.1,0-0.1,0.1-0.2,0.1c0,0-0.1,0-0.2,0c0,0-0.1,0-0.1,0
	c0,0-0.1,0-0.1,0c0,0-0.1,0-0.1,0c0,0-0.1,0-0.1,0c0,0-0.1,0-0.1,0c0,0-0.1,0-0.1,0c0,0-0.1,0-0.1,0c0,0-0.1,0-0.1,0
	c0,0-0.1,0-0.1-0.1l-3.4-1.9c-0.2-0.1-0.2-0.2-0.2-0.3l0,1.3C81,121.3,81.1,121.5,81.3,121.5z"/>
<path class="st8" d="M87.2,124.8l3.4,1.9c0,0,0.1,0,0.1,0.1c0,0,0.1,0,0.1,0c0,0,0.1,0,0.1,0c0,0,0.1,0,0.1,0c0,0,0.1,0,0.1,0
	c0,0,0.1,0,0.1,0c0,0,0.1,0,0.1,0c0,0,0.1,0,0.1,0c0,0,0.1,0,0.1,0c0.1,0,0.1,0,0.2,0c0.1,0,0.1,0,0.2-0.1l3.3-1.9c0,0,0,0,0,0
	c0,0,0.1,0,0.1-0.1c0,0,0,0,0-0.1c0,0,0,0,0,0c0,0,0,0,0,0c0,0,0,0,0,0c0,0,0,0,0,0v0l0-1.3v0c0,0,0,0,0,0c0,0,0,0,0,0c0,0,0,0,0,0
	c0,0,0,0,0,0c0,0,0,0,0,0.1c0,0-0.1,0.1-0.1,0.1c0,0,0,0,0,0l-3.3,1.9c-0.1,0-0.1,0.1-0.2,0.1c0,0-0.1,0-0.2,0c0,0-0.1,0-0.1,0
	c0,0-0.1,0-0.1,0c0,0-0.1,0-0.1,0c0,0-0.1,0-0.1,0c0,0-0.1,0-0.1,0c0,0-0.1,0-0.1,0c0,0-0.1,0-0.1,0c0,0-0.1,0-0.1,0
	c0,0-0.1,0-0.1-0.1l-3.4-1.9c-0.2-0.1-0.2-0.2-0.2-0.3l0,1.3C86.9,124.6,87,124.7,87.2,124.8z"/>
<path class="st8" d="M107,123.3C107,123.4,107,123.4,107,123.3C107,123.4,106.9,123.4,107,123.3c0,0.1-0.1,0.1-0.1,0.1
	c0,0,0,0,0,0.1c0,0-0.1,0.1-0.1,0.1c0,0,0,0,0,0l-3.3,1.9c-0.1,0-0.1,0.1-0.2,0.1c0,0-0.1,0-0.2,0c0,0-0.1,0-0.1,0c0,0-0.1,0-0.1,0
	c0,0-0.1,0-0.1,0c0,0-0.1,0-0.1,0c0,0-0.1,0-0.1,0c0,0-0.1,0-0.1,0c0,0-0.1,0-0.1,0c0,0-0.1,0-0.1,0c0,0-0.1,0-0.1-0.1l-3.4-1.9
	c-0.2-0.1-0.2-0.2-0.2-0.3l0,1.3c0,0.1,0.1,0.2,0.2,0.3l3.4,1.9c0,0,0.1,0,0.1,0.1c0,0,0.1,0,0.1,0c0,0,0.1,0,0.1,0c0,0,0.1,0,0.1,0
	c0,0,0.1,0,0.1,0c0,0,0.1,0,0.1,0c0,0,0.1,0,0.1,0s0.1,0,0.1,0c0,0,0.1,0,0.1,0c0.1,0,0.1,0,0.2,0c0.1,0,0.1,0,0.2-0.1l3.3-1.9
	c0,0,0,0,0,0c0,0,0.1,0,0.1-0.1c0,0,0,0,0-0.1c0,0,0,0,0,0c0,0,0,0,0,0c0,0,0,0,0,0c0,0,0,0,0,0v0V123.3L107,123.3
	C107,123.3,107,123.3,107,123.3z"/>
<path class="st8" d="M93.1,128.1l3.4,1.9c0,0,0.1,0,0.1,0.1c0,0,0.1,0,0.1,0c0,0,0.1,0,0.1,0c0,0,0.1,0,0.1,0c0,0,0.1,0,0.1,0
	c0,0,0.1,0,0.1,0c0,0,0.1,0,0.1,0c0,0,0.1,0,0.1,0c0,0,0.1,0,0.1,0c0.1,0,0.1,0,0.2,0c0.1,0,0.1,0,0.2-0.1l3.3-1.9c0,0,0,0,0,0
	c0,0,0.1,0,0.1-0.1c0,0,0,0,0-0.1s0,0,0,0c0,0,0,0,0,0c0,0,0,0,0,0c0,0,0,0,0,0v0l0-1.3v0c0,0,0,0,0,0c0,0,0,0,0,0c0,0,0,0,0,0
	s0,0,0,0c0,0,0,0,0,0.1c0,0-0.1,0.1-0.1,0.1c0,0,0,0,0,0l-3.3,1.9c-0.1,0-0.1,0.1-0.2,0.1c0,0-0.1,0-0.2,0c0,0-0.1,0-0.1,0
	c0,0-0.1,0-0.1,0c0,0-0.1,0-0.1,0c0,0-0.1,0-0.1,0c0,0-0.1,0-0.1,0c0,0-0.1,0-0.1,0c0,0-0.1,0-0.1,0c0,0-0.1,0-0.1,0
	c0,0-0.1,0-0.1-0.1l-3.4-1.9c-0.2-0.1-0.2-0.2-0.2-0.3l0,1.3C92.9,127.9,92.9,128,93.1,128.1z"/>
<path class="st8" d="M75.5,124.8l3.4,1.9c0,0,0.1,0,0.1,0.1c0,0,0.1,0,0.1,0c0,0,0.1,0,0.1,0c0,0,0.1,0,0.1,0c0,0,0.1,0,0.1,0
	c0,0,0.1,0,0.1,0c0,0,0.1,0,0.1,0s0.1,0,0.1,0c0,0,0.1,0,0.1,0c0.1,0,0.1,0,0.2,0c0.1,0,0.1,0,0.2-0.1l3.3-1.9c0,0,0,0,0,0
	c0,0,0.1,0,0.1-0.1c0,0,0,0,0-0.1c0,0,0,0,0,0c0,0,0,0,0,0c0,0,0,0,0,0c0,0,0,0,0,0v0l0-1.3v0c0,0,0,0,0,0c0,0,0,0,0,0c0,0,0,0,0,0
	c0,0,0,0,0,0c0,0,0,0,0,0.1c0,0-0.1,0.1-0.1,0.1c0,0,0,0,0,0l-3.3,1.9c-0.1,0-0.1,0.1-0.2,0.1c0,0-0.1,0-0.2,0c0,0-0.1,0-0.1,0
	c0,0-0.1,0-0.1,0c0,0-0.1,0-0.1,0c0,0-0.1,0-0.1,0c0,0-0.1,0-0.1,0c0,0-0.1,0-0.1,0c0,0-0.1,0-0.1,0c0,0-0.1,0-0.1,0
	c0,0-0.1,0-0.1-0.1l-3.4-1.9c-0.2-0.1-0.2-0.2-0.2-0.3l0,1.3C75.3,124.6,75.3,124.7,75.5,124.8z"/>
<path class="st8" d="M81.4,128.1l3.4,1.9c0,0,0.1,0,0.1,0.1c0,0,0.1,0,0.1,0c0,0,0.1,0,0.1,0c0,0,0.1,0,0.1,0c0,0,0.1,0,0.1,0
	c0,0,0.1,0,0.1,0c0,0,0.1,0,0.1,0c0,0,0.1,0,0.1,0c0,0,0.1,0,0.1,0c0.1,0,0.1,0,0.2,0c0.1,0,0.1,0,0.2-0.1l3.3-1.9c0,0,0,0,0,0
	c0,0,0.1,0,0.1-0.1c0,0,0,0,0-0.1c0,0,0,0,0,0c0,0,0,0,0,0c0,0,0,0,0,0c0,0,0,0,0,0v0l0-1.3v0c0,0,0,0,0,0c0,0,0,0,0,0c0,0,0,0,0,0
	s0,0,0,0c0,0,0,0,0,0.1c0,0-0.1,0.1-0.1,0.1c0,0,0,0,0,0l-3.3,1.9c-0.1,0-0.1,0.1-0.2,0.1c0,0-0.1,0-0.2,0c0,0-0.1,0-0.1,0
	c0,0-0.1,0-0.1,0c0,0-0.1,0-0.1,0c0,0-0.1,0-0.1,0c0,0-0.1,0-0.1,0c0,0-0.1,0-0.1,0c0,0-0.1,0-0.1,0c0,0-0.1,0-0.1,0
	c0,0-0.1,0-0.1-0.1l-3.4-1.9c-0.2-0.1-0.2-0.2-0.2-0.3l0,1.3C81.2,127.8,81.3,128,81.4,128.1z"/>
<path class="st8" d="M87.3,131.3l3.4,1.9c0,0,0.1,0,0.1,0.1c0,0,0.1,0,0.1,0c0,0,0.1,0,0.1,0c0,0,0.1,0,0.1,0c0,0,0.1,0,0.1,0
	c0,0,0.1,0,0.1,0c0,0,0.1,0,0.1,0c0,0,0.1,0,0.1,0c0,0,0.1,0,0.1,0c0.1,0,0.1,0,0.2,0c0.1,0,0.1,0,0.2-0.1l3.3-1.9c0,0,0,0,0,0
	c0,0,0.1,0,0.1-0.1c0,0,0,0,0-0.1c0,0,0,0,0,0c0,0,0,0,0,0c0,0,0,0,0,0c0,0,0,0,0,0v0l0-1.3v0c0,0,0,0,0,0c0,0,0,0,0,0c0,0,0,0,0,0
	c0,0,0,0,0,0c0,0,0,0,0,0.1c0,0-0.1,0.1-0.1,0.1c0,0,0,0,0,0l-3.3,1.9c-0.1,0-0.1,0.1-0.2,0.1c0,0-0.1,0-0.2,0c0,0-0.1,0-0.1,0
	c0,0-0.1,0-0.1,0c0,0-0.1,0-0.1,0c0,0-0.1,0-0.1,0c0,0-0.1,0-0.1,0c0,0-0.1,0-0.1,0c0,0-0.1,0-0.1,0c0,0-0.1,0-0.1,0
	c0,0-0.1,0-0.1-0.1l-3.4-1.9c-0.2-0.1-0.2-0.2-0.2-0.3l0,1.3C87.1,131.1,87.2,131.2,87.3,131.3z"/>
<path class="st8" d="M112.9,126.6C112.9,126.6,112.9,126.7,112.9,126.6C112.9,126.7,112.9,126.7,112.9,126.6
	c-0.1,0.1-0.1,0.1-0.1,0.1s0,0-0.1,0.1c0,0-0.1,0.1-0.1,0.1c0,0,0,0,0,0l-3.3,1.9c-0.1,0-0.1,0.1-0.2,0.1c0,0-0.1,0-0.2,0
	c0,0-0.1,0-0.1,0c0,0-0.1,0-0.1,0c0,0-0.1,0-0.1,0c0,0-0.1,0-0.1,0c0,0-0.1,0-0.1,0c0,0-0.1,0-0.1,0c0,0-0.1,0-0.1,0
	c0,0-0.1,0-0.1,0c0,0-0.1,0-0.1-0.1l-3.4-1.9c-0.2-0.1-0.2-0.2-0.2-0.3l0,1.3c0,0.1,0.1,0.2,0.2,0.3l3.4,1.9c0,0,0.1,0,0.1,0.1
	c0,0,0.1,0,0.1,0c0,0,0.1,0,0.1,0c0,0,0.1,0,0.1,0c0,0,0.1,0,0.1,0c0,0,0.1,0,0.1,0c0,0,0.1,0,0.1,0s0.1,0,0.1,0c0,0,0.1,0,0.1,0
	c0.1,0,0.1,0,0.2,0c0.1,0,0.1,0,0.2-0.1l3.3-1.9c0,0,0,0,0,0c0,0,0.1,0,0.1-0.1c0,0,0,0,0.1-0.1c0,0,0,0,0,0c0,0,0,0,0,0
	c0,0,0,0,0,0c0,0,0,0,0,0v0V126.6L112.9,126.6C112.9,126.6,112.9,126.6,112.9,126.6z"/>
<path class="st8" d="M99,131.4l3.4,1.9c0,0,0.1,0,0.1,0.1l0-1.3c0,0-0.1,0-0.1-0.1l-3.4-1.9c-0.2-0.1-0.2-0.2-0.2-0.3l0,1.3
	C98.8,131.2,98.9,131.3,99,131.4z"/>
<path class="st8" d="M102.6,133.4C102.6,133.4,102.6,133.4,102.6,133.4c0.1,0,0.1,0,0.2,0c0,0,0.1,0,0.1,0c0,0,0.1,0,0.1,0
	c0,0,0.1,0,0.1,0c0,0,0.1,0,0.1,0c0,0,0.1,0,0.1,0c0.1,0,0.1,0,0.2,0c0.1,0,0.1,0,0.2-0.1l3.3-1.9c0,0,0,0,0,0c0,0,0.1,0,0.1-0.1
	c0,0,0,0,0.1-0.1c0,0,0,0,0,0c0,0,0,0,0,0c0,0,0,0,0,0c0,0,0,0,0,0v0l0-1.3v0c0,0,0,0,0,0c0,0,0,0,0,0c0,0,0,0,0,0c0,0,0,0,0,0
	s0,0,0,0.1c0,0-0.1,0.1-0.1,0.1c0,0,0,0,0,0l-3.3,1.9c-0.1,0-0.1,0.1-0.2,0.1c0,0-0.1,0-0.2,0c0,0-0.1,0-0.1,0c0,0-0.1,0-0.1,0
	c0,0-0.1,0-0.1,0c0,0-0.1,0-0.1,0c0,0-0.1,0-0.1,0c0,0-0.1,0-0.1,0c0,0-0.1,0-0.1,0c0,0-0.1,0-0.1,0l0,1.3
	C102.5,133.3,102.6,133.4,102.6,133.4z"/>
<path class="st8" d="M93.2,134.6l3.4,1.9c0,0,0.1,0,0.1,0.1c0,0,0.1,0,0.1,0c0,0,0.1,0,0.1,0c0,0,0.1,0,0.1,0c0,0,0.1,0,0.1,0
	c0,0,0.1,0,0.1,0c0,0,0.1,0,0.1,0c0,0,0.1,0,0.1,0c0,0,0.1,0,0.1,0c0.1,0,0.1,0,0.2,0c0.1,0,0.1,0,0.2-0.1l3.3-1.9c0,0,0,0,0,0
	c0,0,0.1,0,0.1-0.1c0,0,0,0,0-0.1c0,0,0,0,0,0c0,0,0,0,0,0c0,0,0,0,0,0c0,0,0,0,0,0v0l0-1.3v0c0,0,0,0,0,0c0,0,0,0,0,0c0,0,0,0,0,0
	c0,0,0,0,0,0c0,0,0,0,0,0.1c0,0-0.1,0.1-0.1,0.1c0,0,0,0,0,0l-3.3,1.9c-0.1,0-0.1,0.1-0.2,0.1c0,0-0.1,0-0.2,0c0,0-0.1,0-0.1,0
	c0,0-0.1,0-0.1,0c0,0-0.1,0-0.1,0c0,0-0.1,0-0.1,0c0,0-0.1,0-0.1,0c0,0-0.1,0-0.1,0c0,0-0.1,0-0.1,0c0,0-0.1,0-0.1,0
	c0,0-0.1,0-0.1-0.1l-3.4-1.9c-0.2-0.1-0.2-0.2-0.2-0.3l0,1.3C93,134.4,93.1,134.5,93.2,134.6z"/>
<path class="st8" d="M95.4,137.8c0,0,0.1,0,0.1-0.1c0,0,0,0,0-0.1c0,0,0,0,0,0c0,0,0,0,0,0c0,0,0,0,0,0c0,0,0,0,0,0v0l0-1.3v0
	c0,0,0,0,0,0c0,0,0,0,0,0c0,0,0,0,0,0s0,0,0,0c0,0,0,0,0,0.1c0,0-0.1,0.1-0.1,0.1c0,0,0,0,0,0l-4.7,2.6c-0.1,0-0.1,0.1-0.2,0.1
	c0,0-0.1,0-0.2,0c0,0-0.1,0-0.1,0c0,0-0.1,0-0.1,0c0,0-0.1,0-0.1,0c0,0-0.1,0-0.1,0c0,0-0.1,0-0.1,0c0,0-0.1,0-0.1,0
	c0,0-0.1,0-0.1,0c0,0-0.1,0-0.1,0c0,0-0.1,0-0.1-0.1l-21.1-11.7c-0.2-0.1-0.2-0.2-0.2-0.3l0,1.3c0,0.1,0.1,0.2,0.2,0.3l21.1,11.7
	c0,0,0.1,0,0.1,0.1c0,0,0.1,0,0.1,0c0,0,0.1,0,0.1,0c0,0,0.1,0,0.1,0c0,0,0.1,0,0.1,0c0,0,0.1,0,0.1,0c0,0,0.1,0,0.1,0
	c0,0,0.1,0,0.1,0c0,0,0.1,0,0.1,0c0.1,0,0.1,0,0.2,0c0.1,0,0.1,0,0.2-0.1L95.4,137.8C95.4,137.8,95.4,137.8,95.4,137.8z"/>
<path class="st8" d="M114.4,133.5C114.5,133.5,114.5,133.5,114.4,133.5c0.1,0,0.1,0,0.2,0c0,0,0.1,0,0.1,0s0.1,0,0.1,0
	c0,0,0.1,0,0.1,0c0.1,0,0.1,0,0.2,0c0.1,0,0.1,0,0.2-0.1l3.3-1.9c0,0,0,0,0,0c0,0,0.1,0,0.1-0.1c0,0,0,0,0.1-0.1c0,0,0,0,0,0
	c0,0,0,0,0,0c0,0,0,0,0,0c0,0,0,0,0,0v0l0-1.3v0c0,0,0,0,0,0c0,0,0,0,0,0c0,0,0,0,0,0c0,0,0,0,0,0s0,0-0.1,0.1c0,0-0.1,0.1-0.1,0.1
	c0,0,0,0,0,0l-3.3,1.9c-0.1,0-0.1,0.1-0.2,0.1c0,0-0.1,0-0.2,0c0,0-0.1,0-0.1,0c0,0-0.1,0-0.1,0c0,0-0.1,0-0.1,0c0,0-0.1,0-0.1,0
	c0,0-0.1,0-0.1,0c0,0-0.1,0-0.1,0L114.4,133.5C114.4,133.4,114.4,133.5,114.4,133.5z"/>
<path class="st8" d="M114.3,132.1c0,0-0.1,0-0.1,0c0,0-0.1,0-0.1-0.1l-3.4-1.9c-0.2-0.1-0.2-0.2-0.2-0.3l0,1.3
	c0,0.1,0.1,0.2,0.2,0.3l3.4,1.9c0,0,0.1,0,0.1,0.1c0,0,0.1,0,0.1,0c0,0,0.1,0,0.1,0L114.3,132.1
	C114.3,132.2,114.3,132.1,114.3,132.1z"/>
<path class="st8" d="M104.9,134.7l3.4,1.9c0,0,0.1,0,0.1,0.1c0,0,0.1,0,0.1,0c0,0,0.1,0,0.1,0c0,0,0.1,0,0.1,0l0-1.3
	c0,0-0.1,0-0.1,0c0,0-0.1,0-0.1,0c0,0-0.1,0-0.1,0c0,0-0.1,0-0.1-0.1l-3.3-1.9c-0.2-0.1-0.2-0.2-0.2-0.3l0,1.3
	C104.7,134.5,104.8,134.6,104.9,134.7z"/>
<path class="st8" d="M108.8,136.7C108.8,136.7,108.8,136.7,108.8,136.7c0.1,0,0.1,0,0.2,0s0.1,0,0.1,0c0,0,0.1,0,0.1,0
	c0.1,0,0.1,0,0.2,0c0.1,0,0.1,0,0.2-0.1l3.3-1.9c0,0,0,0,0,0c0,0,0.1,0,0.1-0.1c0,0,0,0,0.1-0.1c0,0,0,0,0,0c0,0,0,0,0,0
	c0,0,0,0,0,0c0,0,0,0,0,0v0l0-1.3v0c0,0,0,0,0,0c0,0,0,0,0,0c0,0,0,0,0,0c0,0,0,0,0,0c0,0,0,0,0,0.1c0,0-0.1,0.1-0.1,0.1
	c0,0,0,0,0,0l-3.3,1.9c-0.1,0-0.1,0.1-0.2,0.1c0,0-0.1,0-0.2,0c0,0-0.1,0-0.1,0c0,0-0.1,0-0.1,0c0,0-0.1,0-0.1,0c0,0-0.1,0-0.1,0
	c0,0-0.1,0-0.1,0L108.8,136.7C108.7,136.7,108.7,136.7,108.8,136.7z"/>
<path class="st8" d="M99.2,137.9l3.4,1.9c0,0,0.1,0,0.1,0.1c0,0,0.1,0,0.1,0c0,0,0.1,0,0.1,0l0-1.3c0,0-0.1,0-0.1,0c0,0-0.1,0-0.1,0
	c0,0-0.1,0-0.1-0.1l-3.4-1.9c-0.2-0.1-0.2-0.2-0.2-0.3l0,1.3C98.9,137.7,99,137.8,99.2,137.9z"/>
<path class="st8" d="M102.9,139.9C102.9,139.9,103,139.9,102.9,139.9c0.1,0,0.1,0,0.2,0c0,0,0.1,0,0.1,0c0,0,0.1,0,0.1,0
	c0,0,0.1,0,0.1,0c0.1,0,0.1,0,0.2,0c0.1,0,0.1,0,0.2-0.1l3.3-1.9c0,0,0,0,0,0c0,0,0.1,0,0.1-0.1c0,0,0,0,0-0.1c0,0,0,0,0,0
	c0,0,0,0,0,0c0,0,0,0,0,0c0,0,0,0,0,0v0l0-1.3v0c0,0,0,0,0,0c0,0,0,0,0,0c0,0,0,0,0,0c0,0,0,0,0,0c0,0,0,0,0,0.1
	c0,0-0.1,0.1-0.1,0.1c0,0,0,0,0,0l-3.3,1.9c-0.1,0-0.1,0.1-0.2,0.1c0,0-0.1,0-0.2,0c0,0-0.1,0-0.1,0c0,0-0.1,0-0.1,0
	c0,0-0.1,0-0.1,0c0,0-0.1,0-0.1,0c0,0-0.1,0-0.1,0c0,0-0.1,0-0.1,0L102.9,139.9C102.9,139.9,102.9,139.9,102.9,139.9z"/>
<path class="st8" d="M101.3,141.1c0,0,0.1,0,0.1-0.1c0,0,0,0,0-0.1c0,0,0,0,0,0c0,0,0,0,0,0c0,0,0,0,0,0c0,0,0,0,0,0v0l0-1.3v0
	c0,0,0,0,0,0c0,0,0,0,0,0c0,0,0,0,0,0c0,0,0,0,0,0c0,0,0,0-0.1,0.1c0,0-0.1,0.1-0.1,0.1c0,0,0,0,0,0l-4.7,2.7
	c-0.1,0-0.1,0.1-0.2,0.1c0,0-0.1,0-0.2,0c0,0-0.1,0-0.1,0c0,0-0.1,0-0.1,0c0,0-0.1,0-0.1,0c0,0-0.1,0-0.1,0c0,0-0.1,0-0.1,0
	c0,0-0.1,0-0.1,0c0,0-0.1,0-0.1,0c0,0-0.1,0-0.1,0c0,0-0.1,0-0.1-0.1l-3.4-1.9c-0.2-0.1-0.2-0.2-0.2-0.3l0,1.3
	c0,0.1,0.1,0.2,0.2,0.3l3.4,1.9c0,0,0.1,0,0.1,0.1c0,0,0.1,0,0.1,0c0,0,0.1,0,0.1,0c0,0,0.1,0,0.1,0c0,0,0.1,0,0.1,0
	c0,0,0.1,0,0.1,0c0,0,0.1,0,0.1,0c0,0,0.1,0,0.1,0c0,0,0.1,0,0.1,0c0.1,0,0.1,0,0.2,0c0.1,0,0.1,0,0.2-0.1L101.3,141.1
	C101.3,141.1,101.3,141.1,101.3,141.1z"/>
<path class="st8" d="M124.7,133.2C124.7,133.2,124.7,133.2,124.7,133.2C124.7,133.3,124.7,133.3,124.7,133.2c0,0.1-0.1,0.1-0.1,0.1
	c0,0,0,0,0,0.1c0,0-0.1,0.1-0.1,0.1c0,0,0,0,0,0l-3.3,1.9c-0.1,0-0.1,0.1-0.2,0.1c-0.1,0-0.1,0-0.2,0c0,0-0.1,0-0.1,0
	c0,0-0.1,0-0.1,0s-0.1,0-0.1,0c0,0-0.1,0-0.1,0c0,0-0.1,0-0.1,0c0,0-0.1,0-0.1,0c0,0-0.1,0-0.1,0c0,0-0.1,0-0.1,0c0,0-0.1,0-0.1-0.1
	l-3.4-1.9c-0.2-0.1-0.2-0.2-0.2-0.3l0,1.3c0,0.1,0.1,0.2,0.2,0.3l3.4,1.9c0,0,0.1,0,0.1,0.1c0,0,0.1,0,0.1,0c0,0,0.1,0,0.1,0
	c0,0,0.1,0,0.1,0c0,0,0.1,0,0.1,0c0,0,0.1,0,0.1,0c0,0,0.1,0,0.1,0c0,0,0.1,0,0.1,0c0,0,0.1,0,0.1,0c0.1,0,0.1,0,0.2,0
	c0.1,0,0.1,0,0.2-0.1l3.3-1.9c0,0,0,0,0,0c0,0,0.1,0,0.1-0.1c0,0,0,0,0-0.1c0,0,0,0,0,0c0,0,0,0,0,0c0,0,0,0,0,0c0,0,0,0,0,0v0
	V133.2L124.7,133.2C124.7,133.2,124.7,133.2,124.7,133.2z"/>
<path class="st8" d="M110.8,138l3.4,1.9c0,0,0.1,0,0.1,0.1c0,0,0.1,0,0.1,0c0,0,0.1,0,0.1,0c0,0,0.1,0,0.1,0c0,0,0.1,0,0.1,0
	s0.1,0,0.1,0c0,0,0.1,0,0.1,0c0,0,0.1,0,0.1,0c0,0,0.1,0,0.1,0c0.1,0,0.1,0,0.2,0c0.1,0,0.1,0,0.2-0.1l3.3-1.9c0,0,0,0,0,0
	c0,0,0.1,0,0.1-0.1c0,0,0,0,0-0.1c0,0,0,0,0,0c0,0,0,0,0,0c0,0,0,0,0,0c0,0,0,0,0,0v0l0-1.3v0c0,0,0,0,0,0c0,0,0,0,0,0s0,0,0,0
	c0,0,0,0,0,0c0,0,0,0,0,0.1c0,0-0.1,0.1-0.1,0.1c0,0,0,0,0,0l-3.3,1.9c-0.1,0-0.1,0.1-0.2,0.1c0,0-0.1,0-0.2,0c0,0-0.1,0-0.1,0
	c0,0-0.1,0-0.1,0c0,0-0.1,0-0.1,0c0,0-0.1,0-0.1,0c0,0-0.1,0-0.1,0c0,0-0.1,0-0.1,0c0,0-0.1,0-0.1,0c0,0-0.1,0-0.1,0
	c0,0-0.1,0-0.1-0.1l-3.4-1.9c-0.2-0.1-0.2-0.2-0.2-0.3l0,1.3C110.6,137.8,110.7,137.9,110.8,138z"/>
<path class="st8" d="M105.1,141.2l3.4,1.9c0,0,0.1,0,0.1,0.1c0,0,0.1,0,0.1,0c0,0,0.1,0,0.1,0c0,0,0.1,0,0.1,0c0,0,0.1,0,0.1,0
	c0,0,0.1,0,0.1,0c0,0,0.1,0,0.1,0s0.1,0,0.1,0c0,0,0.1,0,0.1,0c0.1,0,0.1,0,0.2,0c0.1,0,0.1,0,0.2-0.1l3.3-1.9c0,0,0,0,0,0
	c0,0,0.1,0,0.1-0.1c0,0,0,0,0-0.1c0,0,0,0,0,0c0,0,0,0,0,0c0,0,0,0,0,0c0,0,0,0,0,0v0l0-1.3v0c0,0,0,0,0,0c0,0,0,0,0,0c0,0,0,0,0,0
	c0,0,0,0,0,0c0,0,0,0,0,0.1c0,0-0.1,0.1-0.1,0.1c0,0,0,0,0,0l-3.3,1.9c-0.1,0-0.1,0.1-0.2,0.1c0,0-0.1,0-0.2,0c0,0-0.1,0-0.1,0
	c0,0-0.1,0-0.1,0c0,0-0.1,0-0.1,0c0,0-0.1,0-0.1,0c0,0-0.1,0-0.1,0c0,0-0.1,0-0.1,0c0,0-0.1,0-0.1,0c0,0-0.1,0-0.1,0
	c0,0-0.1,0-0.1-0.1l-3.4-1.9c-0.2-0.1-0.2-0.2-0.2-0.3l0,1.3C104.8,141,104.9,141.1,105.1,141.2z"/>
<path class="st8" d="M107.2,144.4c0,0,0.1,0,0.1-0.1c0,0,0,0,0-0.1c0,0,0,0,0,0c0,0,0,0,0,0c0,0,0,0,0,0c0,0,0,0,0,0v0l0-1.3v0
	c0,0,0,0,0,0c0,0,0,0,0,0c0,0,0,0,0,0c0,0,0,0,0,0s0,0,0,0.1c0,0-0.1,0.1-0.1,0.1c0,0,0,0,0,0l-4.7,2.6c-0.1,0-0.1,0.1-0.2,0.1
	c0,0-0.1,0-0.2,0c0,0-0.1,0-0.1,0c0,0-0.1,0-0.1,0c0,0-0.1,0-0.1,0c0,0-0.1,0-0.1,0c0,0-0.1,0-0.1,0c0,0-0.1,0-0.1,0
	c0,0-0.1,0-0.1,0c0,0-0.1,0-0.1,0c0,0-0.1,0-0.1-0.1l-3.4-1.9c-0.2-0.1-0.2-0.2-0.2-0.3l0,1.3c0,0.1,0.1,0.2,0.2,0.3l3.4,1.9
	c0,0,0.1,0,0.1,0.1c0,0,0.1,0,0.1,0c0,0,0.1,0,0.1,0c0,0,0.1,0,0.1,0c0,0,0.1,0,0.1,0c0,0,0.1,0,0.1,0c0,0,0.1,0,0.1,0s0.1,0,0.1,0
	c0,0,0.1,0,0.1,0c0.1,0,0.1,0,0.2,0c0.1,0,0.1,0,0.2-0.1L107.2,144.4C107.2,144.4,107.2,144.4,107.2,144.4z"/>
<path class="st8" d="M126.1,140C126.1,140,126.1,140,126.1,140c0.1,0,0.1,0,0.2,0c0,0,0.1,0,0.1,0c0,0,0.1,0,0.1,0c0,0,0.1,0,0.1,0
	c0,0,0.1,0,0.1,0c0,0,0.1,0,0.1,0c0.1,0,0.1,0,0.2,0c0.1,0,0.1,0,0.2-0.1l3.3-1.9c0,0,0,0,0,0c0,0,0.1,0,0.1-0.1c0,0,0,0,0.1-0.1
	c0,0,0,0,0,0c0,0,0,0,0,0c0,0,0,0,0,0c0,0,0,0,0,0v0l0-1.3v0c0,0,0,0,0,0c0,0,0,0,0,0c0,0,0,0,0,0c0,0,0,0,0,0c0,0,0,0,0,0.1
	c0,0-0.1,0.1-0.1,0.1c0,0,0,0,0,0l-3.3,1.9c-0.1,0-0.1,0.1-0.2,0.1c0,0-0.1,0-0.2,0c0,0-0.1,0-0.1,0c0,0-0.1,0-0.1,0s-0.1,0-0.1,0
	c0,0-0.1,0-0.1,0c0,0-0.1,0-0.1,0c0,0-0.1,0-0.1,0c0,0-0.1,0-0.1,0c0,0-0.1,0-0.1,0L126.1,140C126,140,126.1,140,126.1,140z"/>
<path class="st8" d="M125.9,138.6l-3.4-1.9c-0.2-0.1-0.2-0.2-0.2-0.3l0,1.3c0,0.1,0.1,0.2,0.2,0.3l3.4,1.9c0,0,0.1,0,0.1,0.1l0-1.3
	C126,138.7,125.9,138.6,125.9,138.6z"/>
<path class="st8" d="M116.8,141.3l3.4,1.9c0,0,0.1,0,0.1,0.1c0,0,0.1,0,0.1,0c0,0,0.1,0,0.1,0c0,0,0.1,0,0.1,0c0,0,0.1,0,0.1,0
	c0,0,0.1,0,0.1,0c0,0,0.1,0,0.1,0c0,0,0.1,0,0.1,0c0,0,0.1,0,0.1,0c0.1,0,0.1,0,0.2,0c0.1,0,0.1,0,0.2-0.1l3.3-1.9c0,0,0,0,0,0
	c0,0,0.1,0,0.1-0.1c0,0,0,0,0-0.1c0,0,0,0,0,0c0,0,0,0,0,0c0,0,0,0,0,0c0,0,0,0,0,0v0l0-1.3v0c0,0,0,0,0,0c0,0,0,0,0,0c0,0,0,0,0,0
	c0,0,0,0,0,0c0,0,0,0,0,0.1c0,0-0.1,0.1-0.1,0.1c0,0,0,0,0,0l-3.3,1.9c-0.1,0-0.1,0.1-0.2,0.1c0,0-0.1,0-0.2,0c0,0-0.1,0-0.1,0
	c0,0-0.1,0-0.1,0c0,0-0.1,0-0.1,0c0,0-0.1,0-0.1,0c0,0-0.1,0-0.1,0c0,0-0.1,0-0.1,0c0,0-0.1,0-0.1,0c0,0-0.1,0-0.1,0
	c0,0-0.1,0-0.1-0.1l-3.3-1.9c-0.2-0.1-0.2-0.2-0.2-0.3l0,1.3C116.5,141.1,116.6,141.2,116.8,141.3z"/>
<path class="st8" d="M111,144.5l3.3,1.9c0,0,0.1,0,0.1,0.1l0-1.3c0,0-0.1,0-0.1-0.1l-3.4-1.9c-0.2-0.1-0.2-0.2-0.2-0.3l0,1.3
	C110.8,144.3,110.8,144.4,111,144.5z"/>
<path class="st8" d="M114.6,146.4C114.6,146.4,114.6,146.4,114.6,146.4c0.1,0,0.1,0,0.2,0c0,0,0.1,0,0.1,0c0,0,0.1,0,0.1,0
	c0,0,0.1,0,0.1,0c0,0,0.1,0,0.1,0c0,0,0.1,0,0.1,0c0.1,0,0.1,0,0.2,0c0.1,0,0.1,0,0.2-0.1l3.3-1.9c0,0,0,0,0,0c0,0,0.1,0,0.1-0.1
	c0,0,0,0,0.1-0.1c0,0,0,0,0,0c0,0,0,0,0,0c0,0,0,0,0,0c0,0,0,0,0,0v0l0-1.3v0c0,0,0,0,0,0c0,0,0,0,0,0c0,0,0,0,0,0c0,0,0,0,0,0
	c0,0,0,0,0,0.1c0,0-0.1,0.1-0.1,0.1c0,0,0,0,0,0l-3.3,1.9c-0.1,0-0.1,0.1-0.2,0.1c0,0-0.1,0-0.2,0c0,0-0.1,0-0.1,0c0,0-0.1,0-0.1,0
	c0,0-0.1,0-0.1,0c0,0-0.1,0-0.1,0c0,0-0.1,0-0.1,0c0,0-0.1,0-0.1,0c0,0-0.1,0-0.1,0c0,0-0.1,0-0.1,0l0,1.3
	C114.5,146.4,114.5,146.4,114.6,146.4z"/>
<path class="st8" d="M113.1,147.7c0,0,0.1,0,0.1-0.1c0,0,0,0,0-0.1c0,0,0,0,0,0c0,0,0,0,0,0c0,0,0,0,0,0c0,0,0,0,0,0v0l0-1.3v0
	c0,0,0,0,0,0c0,0,0,0,0,0c0,0,0,0,0,0c0,0,0,0,0,0c0,0,0,0-0.1,0.1c0,0-0.1,0.1-0.1,0.1c0,0,0,0,0,0l-4.7,2.6
	c-0.1,0-0.1,0.1-0.2,0.1c0,0-0.1,0-0.2,0c0,0-0.1,0-0.1,0c0,0-0.1,0-0.1,0c0,0-0.1,0-0.1,0c0,0-0.1,0-0.1,0c0,0-0.1,0-0.1,0
	c0,0-0.1,0-0.1,0c0,0-0.1,0-0.1,0c0,0-0.1,0-0.1,0c0,0-0.1,0-0.1-0.1l-3.3-1.9c-0.2-0.1-0.2-0.2-0.2-0.3l0,1.3
	c0,0.1,0.1,0.2,0.2,0.3l3.4,1.9c0,0,0.1,0,0.1,0.1c0,0,0.1,0,0.1,0c0,0,0.1,0,0.1,0c0,0,0.1,0,0.1,0c0,0,0.1,0,0.1,0s0.1,0,0.1,0
	c0,0,0.1,0,0.1,0s0.1,0,0.1,0c0,0,0.1,0,0.1,0c0.1,0,0.1,0,0.2,0c0.1,0,0.1,0,0.2-0.1L113.1,147.7
	C113.1,147.7,113.1,147.7,113.1,147.7z"/>
<path class="st8" d="M132.4,143.3C132.5,143.3,132.5,143.3,132.4,143.3c0.1,0,0.2,0,0.2,0c0.1,0,0.1,0,0.2,0c0.1,0,0.1,0,0.2-0.1
	l3.3-1.9c0,0,0,0,0,0c0,0,0.1,0,0.1-0.1c0,0,0,0,0-0.1c0,0,0,0,0,0c0,0,0,0,0,0c0,0,0,0,0,0c0,0,0,0,0,0v0l0-1.3v0c0,0,0,0,0,0
	c0,0,0,0,0,0c0,0,0,0,0,0c0,0,0,0,0,0c0,0,0,0,0,0.1c0,0-0.1,0.1-0.1,0.1c0,0,0,0,0,0l-3.3,1.9c-0.1,0-0.1,0.1-0.2,0.1
	c0,0-0.1,0-0.2,0c0,0-0.1,0-0.1,0c0,0-0.1,0-0.1,0c0,0-0.1,0-0.1,0L132.4,143.3C132.4,143.3,132.4,143.3,132.4,143.3z"/>
<path class="st8" d="M132.3,142C132.2,142,132.2,142,132.3,142c-0.1,0-0.1,0-0.2,0c0,0-0.1,0-0.1,0c0,0-0.1,0-0.1,0
	c0,0-0.1,0-0.1-0.1l-3.4-1.9c-0.2-0.1-0.2-0.2-0.2-0.3l0,1.3c0,0.1,0.1,0.2,0.2,0.3l3.4,1.9c0,0,0.1,0,0.1,0.1c0,0,0.1,0,0.1,0
	c0,0,0.1,0,0.1,0c0,0,0.1,0,0.1,0c0,0,0.1,0,0.1,0c0,0,0.1,0,0.1,0L132.3,142C132.3,142,132.3,142,132.3,142z"/>
<path class="st8" d="M126.2,146.5c0,0,0.1,0,0.1,0c0,0,0.1,0,0.1,0c0,0,0.1,0,0.1,0c0,0,0.1,0,0.1,0s0.1,0,0.1,0c0,0,0.1,0,0.1,0
	s0.1,0,0.1,0c0,0,0.1,0,0.1,0c0.1,0,0.1,0,0.2,0c0.1,0,0.1,0,0.2-0.1l3.3-1.9c0,0,0,0,0,0c0,0,0.1,0,0.1-0.1c0,0,0,0,0-0.1
	c0,0,0,0,0,0c0,0,0,0,0,0c0,0,0,0,0,0c0,0,0,0,0,0v0l0-1.3v0c0,0,0,0,0,0c0,0,0,0,0,0c0,0,0,0,0,0c0,0,0,0,0,0c0,0,0,0,0,0.1
	c0,0-0.1,0.1-0.1,0.1c0,0,0,0,0,0l-3.3,1.9c-0.1,0-0.1,0.1-0.2,0.1c0,0-0.1,0-0.2,0c0,0-0.1,0-0.1,0c0,0-0.1,0-0.1,0
	c0,0-0.1,0-0.1,0c0,0-0.1,0-0.1,0c0,0-0.1,0-0.1,0c0,0-0.1,0-0.1,0c0,0-0.1,0-0.1,0c0,0-0.1,0-0.1,0c0,0-0.1,0-0.1-0.1l-3.4-1.9
	c-0.2-0.1-0.2-0.2-0.2-0.3l0,1.3c0,0.1,0.1,0.2,0.2,0.3l3.4,1.9C126.1,146.4,126.1,146.5,126.2,146.5z"/>
<path class="st8" d="M124.8,147.8c0,0,0.1,0,0.1-0.1c0,0,0,0,0-0.1c0,0,0,0,0,0c0,0,0,0,0,0c0,0,0,0,0,0s0,0,0,0v0l0-1.3v0
	c0,0,0,0,0,0c0,0,0,0,0,0c0,0,0,0,0,0c0,0,0,0,0,0c0,0,0,0,0,0.1c0,0-0.1,0.1-0.1,0.1c0,0,0,0,0,0l-3.3,1.9c-0.1,0-0.1,0.1-0.2,0.1
	c-0.1,0-0.1,0-0.2,0c0,0-0.1,0-0.1,0c0,0-0.1,0-0.1,0s-0.1,0-0.1,0c0,0-0.1,0-0.1,0c0,0-0.1,0-0.1,0c0,0-0.1,0-0.1,0l0,1.3
	c0,0,0.1,0,0.1,0c0,0,0.1,0,0.1,0c0,0,0.1,0,0.1,0c0,0,0.1,0,0.1,0c0,0,0.1,0,0.1,0c0,0,0.1,0,0.1,0c0.1,0,0.1,0,0.2,0
	c0.1,0,0.1,0,0.2-0.1L124.8,147.8C124.8,147.8,124.8,147.8,124.8,147.8z"/>
<path class="st8" d="M120.5,148.4c0,0-0.1,0-0.1,0c0,0-0.1,0-0.1-0.1l-3.4-1.9c-0.2-0.1-0.2-0.2-0.2-0.3l0,1.3
	c0,0.1,0.1,0.2,0.2,0.3l3.4,1.9c0,0,0.1,0,0.1,0.1c0,0,0.1,0,0.1,0c0,0,0.1,0,0.1,0L120.5,148.4
	C120.6,148.5,120.5,148.4,120.5,148.4z"/>
<path class="st8" d="M116.7,153.4C116.7,153.4,116.7,153.4,116.7,153.4C116.7,153.3,116.7,153.3,116.7,153.4l0-0.1l0-1.3v0
	c0,0,0,0,0,0c0,0,0,0,0,0c0,0,0,0,0,0c0,0,0,0,0,0s0,0,0,0.1c0,0-0.1,0.1-0.1,0.1c0,0,0,0,0,0l-1.1,0.6c-0.1,0-0.1,0.1-0.2,0.1
	c0,0-0.1,0-0.2,0c0,0-0.1,0-0.1,0c0,0-0.1,0-0.1,0c0,0-0.1,0-0.1,0c0,0-0.1,0-0.1,0c0,0-0.1,0-0.1,0c0,0-0.1,0-0.1,0
	c0,0-0.1,0-0.1,0c0,0-0.1,0-0.1,0c0,0-0.1,0-0.1-0.1l-3.8-2.1c-0.2-0.1-0.2-0.2-0.2-0.3l0,1.3c0,0.1,0.1,0.2,0.2,0.3l3.8,2.1
	c0,0,0.1,0,0.1,0.1c0,0,0.1,0,0.1,0c0,0,0.1,0,0.1,0c0,0,0.1,0,0.1,0c0,0,0.1,0,0.1,0s0.1,0,0.1,0c0,0,0.1,0,0.1,0s0.1,0,0.1,0
	c0,0,0.1,0,0.1,0c0.1,0,0.1,0,0.2,0c0.1,0,0.1,0,0.2-0.1l1.1-0.6c0,0,0,0,0,0c0,0,0.1,0,0.1-0.1c0,0,0,0,0.1-0.1
	C116.6,153.5,116.7,153.5,116.7,153.4C116.7,153.4,116.7,153.4,116.7,153.4z"/>
<path class="st8" d="M139.2,147.3c0,0,0.1,0,0.1,0c0,0,0.1,0,0.1,0c0,0,0.1,0,0.1,0c0,0,0.1,0,0.1,0c0,0,0.1,0,0.1,0
	c0,0,0.1,0,0.1,0c0,0,0.1,0,0.1,0c0,0,0.1,0,0.1,0c0.1,0,0.1,0,0.2,0c0.1,0,0.1,0,0.2-0.1l3.3-1.9c0,0,0,0,0,0c0,0,0.1,0,0.1-0.1
	c0,0,0,0,0-0.1c0,0,0,0,0,0c0,0,0,0,0,0c0,0,0,0,0,0c0,0,0,0,0,0v0l0-1.3v0c0,0,0,0,0,0c0,0,0,0,0,0c0,0,0,0,0,0c0,0,0,0,0,0
	c0,0,0,0,0,0.1c0,0-0.1,0.1-0.1,0.1c0,0,0,0,0,0l-3.3,1.9c-0.1,0-0.1,0.1-0.2,0.1c0,0-0.1,0-0.2,0c0,0-0.1,0-0.1,0c0,0-0.1,0-0.1,0
	c0,0-0.1,0-0.1,0c0,0-0.1,0-0.1,0c0,0-0.1,0-0.1,0c0,0-0.1,0-0.1,0c0,0-0.1,0-0.1,0c0,0-0.1,0-0.1,0c0,0-0.1,0-0.1-0.1l-4.7-2.6
	c-0.2-0.1-0.2-0.2-0.2-0.3l0,1.3c0,0.1,0.1,0.2,0.2,0.3l4.7,2.6C139.1,147.3,139.1,147.3,139.2,147.3z"/>
<path class="st8" d="M128.5,147.8l3.4,1.9c0,0,0.1,0,0.1,0.1c0,0,0.1,0,0.1,0c0,0,0.1,0,0.1,0c0,0,0.1,0,0.1,0c0,0,0.1,0,0.1,0
	c0,0,0.1,0,0.1,0c0,0,0.1,0,0.1,0c0,0,0.1,0,0.1,0c0,0,0.1,0,0.1,0c0.1,0,0.1,0,0.2,0c0.1,0,0.1,0,0.2-0.1l3.3-1.9c0,0,0,0,0,0
	c0,0,0.1,0,0.1-0.1c0,0,0,0,0-0.1c0,0,0,0,0,0c0,0,0,0,0,0s0,0,0,0c0,0,0,0,0,0v0l0-1.3v0c0,0,0,0,0,0c0,0,0,0,0,0c0,0,0,0,0,0
	c0,0,0,0,0,0c0,0,0,0,0,0.1c0,0-0.1,0-0.1,0.1c0,0,0,0,0,0l-3.3,1.9c-0.1,0-0.1,0.1-0.2,0.1c0,0-0.1,0-0.2,0c0,0-0.1,0-0.1,0
	c0,0-0.1,0-0.1,0c0,0-0.1,0-0.1,0c0,0-0.1,0-0.1,0c0,0-0.1,0-0.1,0c0,0-0.1,0-0.1,0c0,0-0.1,0-0.1,0c0,0-0.1,0-0.1,0
	c0,0-0.1,0-0.1-0.1l-3.4-1.9c-0.2-0.1-0.2-0.2-0.2-0.3l0,1.3C128.2,147.5,128.3,147.7,128.5,147.8z"/>
<path class="st8" d="M151.1,147.9C151.1,147.9,151.1,147.9,151.1,147.9C151.1,147.9,151.1,147.9,151.1,147.9
	c-0.1,0.1-0.1,0.1-0.1,0.1c0,0,0,0,0,0.1c0,0-0.1,0.1-0.1,0.1c0,0,0,0,0,0l-3.3,1.9c-0.1,0-0.1,0.1-0.2,0.1c0,0-0.1,0-0.2,0
	c0,0-0.1,0-0.1,0c0,0-0.1,0-0.1,0c0,0-0.1,0-0.1,0c0,0-0.1,0-0.1,0c0,0-0.1,0-0.1,0c0,0-0.1,0-0.1,0c0,0-0.1,0-0.1,0
	c0,0-0.1,0-0.1,0c0,0-0.1,0-0.1-0.1l-4.7-2.6c-0.2-0.1-0.2-0.2-0.2-0.3l0,1.3c0,0.1,0.1,0.2,0.2,0.3l4.7,2.6c0,0,0.1,0,0.1,0.1
	c0,0,0.1,0,0.1,0c0,0,0.1,0,0.1,0c0,0,0.1,0,0.1,0c0,0,0.1,0,0.1,0c0,0,0.1,0,0.1,0c0,0,0.1,0,0.1,0c0,0,0.1,0,0.1,0
	c0,0,0.1,0,0.1,0c0.1,0,0.1,0,0.2,0c0.1,0,0.1,0,0.2-0.1l3.3-1.9c0,0,0,0,0,0c0,0,0.1,0,0.1-0.1c0,0,0,0,0.1-0.1c0,0,0,0,0,0
	c0,0,0,0,0,0c0,0,0,0,0,0c0,0,0,0,0,0v0V147.9L151.1,147.9C151.1,147.8,151.1,147.9,151.1,147.9z"/>
<path class="st8" d="M145.3,151.1C145.3,151.1,145.3,151.1,145.3,151.1C145.3,151.2,145.3,151.2,145.3,151.1
	c-0.1,0.1-0.1,0.1-0.1,0.1c0,0,0,0,0,0.1c0,0-0.1,0.1-0.1,0.1c0,0,0,0,0,0l-3.3,1.9c-0.1,0-0.1,0.1-0.2,0.1c0,0-0.1,0-0.2,0
	c0,0-0.1,0-0.1,0c0,0-0.1,0-0.1,0c0,0-0.1,0-0.1,0c0,0-0.1,0-0.1,0c0,0-0.1,0-0.1,0c0,0-0.1,0-0.1,0c0,0-0.1,0-0.1,0
	c0,0-0.1,0-0.1,0c0,0-0.1,0-0.1-0.1l-6.1-3.4c-0.2-0.1-0.2-0.2-0.2-0.3l0,1.3c0,0.1,0.1,0.2,0.2,0.3l6.1,3.4c0,0,0.1,0,0.1,0.1
	c0,0,0.1,0,0.1,0c0,0,0.1,0,0.1,0c0,0,0.1,0,0.1,0c0,0,0.1,0,0.1,0c0,0,0.1,0,0.1,0c0,0,0.1,0,0.1,0c0,0,0.1,0,0.1,0
	c0,0,0.1,0,0.1,0c0.1,0,0.1,0,0.2,0c0.1,0,0.1,0,0.2-0.1l3.3-1.9c0,0,0,0,0,0c0,0,0.1,0,0.1-0.1c0,0,0,0,0.1-0.1c0,0,0,0,0,0
	c0,0,0,0,0,0c0,0,0,0,0,0c0,0,0,0,0,0v0V151.1L145.3,151.1C145.4,151.1,145.4,151.1,145.3,151.1z"/>
<path class="st8" d="M139.6,154.3C139.6,154.3,139.6,154.3,139.6,154.3C139.6,154.4,139.6,154.4,139.6,154.3
	c-0.1,0.1-0.1,0.1-0.1,0.1c0,0,0,0,0,0.1c0,0-0.1,0.1-0.1,0.1c0,0,0,0,0,0l-3.3,1.9c-0.1,0-0.1,0.1-0.2,0.1c0,0-0.1,0-0.2,0
	c0,0-0.1,0-0.1,0c0,0-0.1,0-0.1,0s-0.1,0-0.1,0c0,0-0.1,0-0.1,0c0,0-0.1,0-0.1,0c0,0-0.1,0-0.1,0c0,0-0.1,0-0.1,0c0,0-0.1,0-0.1,0
	c0,0-0.1,0-0.1-0.1l-12-6.7c-0.2-0.1-0.2-0.2-0.2-0.3l0,1.3c0,0.1,0.1,0.2,0.2,0.3l12,6.7c0,0,0.1,0,0.1,0.1c0,0,0.1,0,0.1,0
	c0,0,0.1,0,0.1,0c0,0,0.1,0,0.1,0c0,0,0.1,0,0.1,0c0,0,0.1,0,0.1,0c0,0,0.1,0,0.1,0s0.1,0,0.1,0c0,0,0.1,0,0.1,0c0.1,0,0.1,0,0.2,0
	c0.1,0,0.1,0,0.2-0.1l3.3-1.9c0,0,0,0,0,0c0,0,0.1,0,0.1-0.1c0,0,0,0,0.1-0.1c0,0,0,0,0,0c0,0,0,0,0,0c0,0,0,0,0,0c0,0,0,0,0,0v0
	V154.3L139.6,154.3C139.6,154.3,139.6,154.3,139.6,154.3z"/>
<path class="st8" d="M120.3,152.1l0,1.3c0,0.1,0.1,0.2,0.2,0.3l3.8,2.1c0,0,0.1,0,0.1,0.1c0,0,0.1,0,0.1,0c0,0,0.1,0,0.1,0
	c0,0,0.1,0,0.1,0c0,0,0.1,0,0.1,0c0,0,0.1,0,0.1,0c0,0,0.1,0,0.1,0s0.1,0,0.1,0c0,0,0.1,0,0.1,0c0.1,0,0.1,0,0.2,0
	c0.1,0,0.1,0,0.2-0.1l1.1-0.6c0,0,0,0,0,0c0,0,0.1,0,0.1-0.1c0,0,0,0,0.1-0.1c0,0,0,0,0,0c0,0,0,0,0,0c0,0,0,0,0,0c0,0,0,0,0,0v0
	l0-1.3v0c0,0,0,0,0,0c0,0,0,0,0,0c0,0,0,0,0,0c0,0,0,0,0,0c0,0,0,0-0.1,0.1c0,0-0.1,0.1-0.1,0.1c0,0,0,0,0,0l-1.1,0.6
	c-0.1,0-0.1,0.1-0.2,0.1c0,0-0.1,0-0.2,0c0,0-0.1,0-0.1,0c0,0-0.1,0-0.1,0c0,0-0.1,0-0.1,0c0,0-0.1,0-0.1,0c0,0-0.1,0-0.1,0
	c0,0-0.1,0-0.1,0c0,0-0.1,0-0.1,0c0,0-0.1,0-0.1,0c0,0-0.1,0-0.1-0.1l-3.8-2.1C120.4,152.3,120.3,152.2,120.3,152.1z"/>
<path class="st8" d="M123.2,157C123.2,157,123.2,157,123.2,157C123.2,156.9,123.2,156.9,123.2,157l0-0.1l0-1.3v0c0,0,0,0,0,0
	c0,0,0,0,0,0c0,0,0,0,0,0c0,0,0,0,0,0c0,0,0,0,0,0.1c0,0-0.1,0.1-0.1,0.1c0,0,0,0,0,0l-1.1,0.6c-0.1,0-0.1,0.1-0.2,0.1
	c0,0-0.1,0-0.2,0c0,0-0.1,0-0.1,0c0,0-0.1,0-0.1,0s-0.1,0-0.1,0c0,0-0.1,0-0.1,0c0,0-0.1,0-0.1,0c0,0-0.1,0-0.1,0c0,0-0.1,0-0.1,0
	c0,0-0.1,0-0.1,0c0,0-0.1,0-0.1-0.1l-3.8-2.1c-0.2-0.1-0.2-0.2-0.2-0.3l0,1.3c0,0.1,0.1,0.2,0.2,0.3l3.8,2.1c0,0,0.1,0,0.1,0.1
	c0,0,0.1,0,0.1,0s0.1,0,0.1,0c0,0,0.1,0,0.1,0c0,0,0.1,0,0.1,0c0,0,0.1,0,0.1,0c0,0,0.1,0,0.1,0s0.1,0,0.1,0c0,0,0.1,0,0.1,0
	c0.1,0,0.1,0,0.2,0c0.1,0,0.1,0,0.2-0.1l1.1-0.6c0,0,0,0,0,0c0,0,0.1,0,0.1-0.1C123.1,157.1,123.1,157.1,123.2,157
	C123.1,157.1,123.2,157.1,123.2,157C123.2,157.1,123.2,157,123.2,157z"/>
<path class="st8" d="M129.7,159.3C129.7,159.3,129.7,159.3,129.7,159.3C129.7,159.4,129.7,159.4,129.7,159.3c0,0.1-0.1,0.1-0.1,0.1
	c0,0,0,0,0,0.1c0,0-0.1,0.1-0.1,0.1c0,0,0,0,0,0l-1.1,0.6c-0.1,0-0.1,0.1-0.2,0.1c0,0-0.1,0-0.2,0c0,0-0.1,0-0.1,0c0,0-0.1,0-0.1,0
	s-0.1,0-0.1,0c0,0-0.1,0-0.1,0c0,0-0.1,0-0.1,0c0,0-0.1,0-0.1,0c0,0-0.1,0-0.1,0c0,0-0.1,0-0.1,0c0,0-0.1,0-0.1-0.1l-3.8-2.1
	c-0.2-0.1-0.2-0.2-0.2-0.3l0,1.3c0,0.1,0.1,0.2,0.2,0.3l3.8,2.1c0,0,0.1,0,0.1,0.1c0,0,0.1,0,0.1,0c0,0,0.1,0,0.1,0c0,0,0.1,0,0.1,0
	c0,0,0.1,0,0.1,0c0,0,0.1,0,0.1,0c0,0,0.1,0,0.1,0c0,0,0.1,0,0.1,0c0,0,0.1,0,0.1,0c0.1,0,0.1,0,0.2,0c0.1,0,0.1,0,0.2-0.1l1.1-0.6
	c0,0,0,0,0,0c0,0,0.1,0,0.1-0.1c0,0,0,0,0.1-0.1c0,0,0,0,0,0c0,0,0,0,0,0c0,0,0,0,0,0c0,0,0,0,0,0v0V159.3L129.7,159.3
	C129.7,159.3,129.7,159.3,129.7,159.3z"/>
<path class="st9" d="M75.6,100.8c0.3,0.2,0.3,0.5,0,0.7l-1.9,1.1c-0.3,0.2-0.9,0.2-1.2,0l-3.4-1.9c-0.3-0.2-0.3-0.5,0-0.7l1.9-1.1
	c0.3-0.2,0.9-0.2,1.2,0L75.6,100.8z"/>
<path class="st9" d="M81.5,104.1c0.3,0.2,0.3,0.5,0,0.7l-1.9,1.1c-0.3,0.2-0.9,0.2-1.2,0L75,104c-0.3-0.2-0.3-0.5,0-0.7l1.9-1.1
	c0.3-0.2,0.9-0.2,1.2,0L81.5,104.1z"/>
<path class="st9" d="M87.4,107.4c0.3,0.2,0.3,0.5,0,0.7l-1.9,1.1c-0.3,0.2-0.9,0.2-1.2,0l-3.4-1.9c-0.3-0.2-0.3-0.5,0-0.7l1.9-1.1
	c0.3-0.2,0.9-0.2,1.2,0L87.4,107.4z"/>
<path class="st9" d="M93.3,110.7c0.3,0.2,0.3,0.5,0,0.7l-1.9,1.1c-0.3,0.2-0.9,0.2-1.2,0l-3.4-1.9c-0.3-0.2-0.3-0.5,0-0.7l1.9-1.1
	c0.3-0.2,0.9-0.2,1.2,0L93.3,110.7z"/>
<path class="st9" d="M99.2,113.9c0.3,0.2,0.3,0.5,0,0.7l-1.9,1.1c-0.3,0.2-0.9,0.2-1.2,0l-3.4-1.9c-0.3-0.2-0.3-0.5,0-0.7l1.9-1.1
	c0.3-0.2,0.9-0.2,1.2,0L99.2,113.9z"/>
<path class="st9" d="M105.2,117.2c0.3,0.2,0.3,0.5,0,0.7l-1.9,1.1c-0.3,0.2-0.9,0.2-1.2,0l-3.4-1.9c-0.3-0.2-0.3-0.5,0-0.7l1.9-1.1
	c0.3-0.2,0.9-0.2,1.2,0L105.2,117.2z"/>
<path class="st9" d="M111.1,120.5c0.3,0.2,0.3,0.5,0,0.7l-1.9,1.1c-0.3,0.2-0.9,0.2-1.2,0l-3.4-1.9c-0.3-0.2-0.3-0.5,0-0.7l1.9-1.1
	c0.3-0.2,0.9-0.2,1.2,0L111.1,120.5z"/>
<path class="st9" d="M117,123.8c0.3,0.2,0.3,0.5,0,0.7l-1.9,1.1c-0.3,0.2-0.9,0.2-1.2,0l-3.4-1.9c-0.3-0.2-0.3-0.5,0-0.7l1.9-1.1
	c0.3-0.2,0.9-0.2,1.2,0L117,123.8z"/>
<path class="st9" d="M122.9,127.1c0.3,0.2,0.3,0.5,0,0.7l-1.9,1.1c-0.3,0.2-0.9,0.2-1.2,0l-3.4-1.9c-0.3-0.2-0.3-0.5,0-0.7l1.9-1.1
	c0.3-0.2,0.9-0.2,1.2,0L122.9,127.1z"/>
<path class="st9" d="M128.8,130.4c0.3,0.2,0.3,0.5,0,0.7l-1.9,1.1c-0.3,0.2-0.9,0.2-1.2,0l-3.4-1.9c-0.3-0.2-0.3-0.5,0-0.7l1.9-1.1
	c0.3-0.2,0.9-0.2,1.2,0L128.8,130.4z"/>
<path class="st9" d="M134.7,133.7c0.3,0.2,0.3,0.5,0,0.7l-1.9,1.1c-0.3,0.2-0.9,0.2-1.2,0l-3.4-1.9c-0.3-0.2-0.3-0.5,0-0.7l1.9-1.1
	c0.3-0.2,0.9-0.2,1.2,0L134.7,133.7z"/>
<path class="st9" d="M140.6,137c0.3,0.2,0.3,0.5,0,0.7l-1.9,1.1c-0.3,0.2-0.9,0.2-1.2,0l-3.4-1.9c-0.3-0.2-0.3-0.5,0-0.7l1.9-1.1
	c0.3-0.2,0.9-0.2,1.2,0L140.6,137z"/>
<path class="st9" d="M147.9,141c0.3,0.2,0.3,0.5,0,0.7l-1.9,1.1c-0.3,0.2-0.9,0.2-1.2,0l-4.7-2.6c-0.3-0.2-0.3-0.5,0-0.7l1.9-1.1
	c0.3-0.2,0.9-0.2,1.2,0L147.9,141z"/>
<path class="st9" d="M155.2,145c0.3,0.2,0.3,0.5,0,0.7l-1.9,1.1c-0.3,0.2-0.9,0.2-1.2,0l-4.7-2.6c-0.3-0.2-0.3-0.5,0-0.7l1.9-1.1
	c0.3-0.2,0.9-0.2,1.2,0L155.2,145z"/>
<path class="st9" d="M71.3,103.2c0.3,0.2,0.3,0.5,0,0.7l-3.3,1.9c-0.3,0.2-0.9,0.2-1.2,0l-3.4-1.9c-0.3-0.2-0.3-0.5,0-0.7l3.3-1.9
	c0.3-0.2,0.9-0.2,1.2,0L71.3,103.2z"/>
<path class="st9" d="M77.2,106.5c0.3,0.2,0.3,0.5,0,0.7l-3.3,1.9c-0.3,0.2-0.9,0.2-1.2,0l-3.4-1.9c-0.3-0.2-0.3-0.5,0-0.7l3.3-1.9
	c0.3-0.2,0.9-0.2,1.2,0L77.2,106.5z"/>
<path class="st9" d="M62.1,104.6l6.2,3.5c0.3,0.2,0.3,0.5,0,0.7l-3.3,1.9c-0.3,0.2-0.9,0.2-1.2,0l-6.2-3.5c-0.3-0.2-0.3-0.5,0-0.7
	l3.3-1.9C61.3,104.4,61.8,104.4,62.1,104.6z"/>
<path class="st9" d="M83.1,109.8c0.3,0.2,0.3,0.5,0,0.7l-3.3,1.9c-0.3,0.2-0.9,0.2-1.2,0l-3.4-1.9c-0.3-0.2-0.3-0.5,0-0.7l3.3-1.9
	c0.3-0.2,0.9-0.2,1.2,0L83.1,109.8z"/>
<path class="st9" d="M77.3,113c0.3,0.2,0.3,0.5,0,0.7l-3.3,1.9c-0.3,0.2-0.9,0.2-1.2,0l-6.3-3.5c-0.3-0.2-0.3-0.5,0-0.7l3.3-1.9
	c0.3-0.2,0.9-0.2,1.2,0L77.3,113z"/>
<path class="st9" d="M65.6,113c0.3,0.2,0.3,0.5,0,0.7l-3.3,1.9c-0.3,0.2-0.9,0.2-1.2,0l-9.3-5.1c-0.3-0.2-0.3-0.5,0-0.7l3.3-1.9
	c0.3-0.2,0.9-0.2,1.2,0L65.6,113z"/>
<path class="st9" d="M54,112.9c0.3,0.2,0.3,0.5,0,0.7l-4.7,2.6c-0.3,0.2-0.9,0.2-1.2,0l-3.4-1.9c-0.3-0.2-0.3-0.5,0-0.7l4.7-2.6
	c0.3-0.2,0.9-0.2,1.2,0L54,112.9z"/>
<path class="st9" d="M59.9,116.2c0.3,0.2,0.3,0.5,0,0.7l-4.7,2.6c-0.3,0.2-0.9,0.2-1.2,0l-3.4-1.9c-0.3-0.2-0.3-0.5,0-0.7l4.7-2.6
	c0.3-0.2,0.9-0.2,1.2,0L59.9,116.2z"/>
<path class="st9" d="M71.5,116.2c0.3,0.2,0.3,0.5,0,0.7l-3.3,1.9c-0.3,0.2-0.9,0.2-1.2,0l-3.4-1.9c-0.3-0.2-0.3-0.5,0-0.7l3.3-1.9
	c0.3-0.2,0.9-0.2,1.2,0L71.5,116.2z"/>
<path class="st9" d="M65.8,119.5c0.3,0.2,0.3,0.5,0,0.7l-4.7,2.6c-0.3,0.2-0.9,0.2-1.2,0l-3.4-1.9c-0.3-0.2-0.3-0.5,0-0.7l4.7-2.7
	c0.3-0.2,0.9-0.2,1.2,0L65.8,119.5z"/>
<path class="st9" d="M89,113.1c0.3,0.2,0.3,0.5,0,0.7l-3.3,1.9c-0.3,0.2-0.9,0.2-1.2,0l-3.4-1.9c-0.3-0.2-0.3-0.5,0-0.7l3.3-1.9
	c0.3-0.2,0.9-0.2,1.2,0L89,113.1z"/>
<path class="st9" d="M83.2,116.3c0.3,0.2,0.3,0.5,0,0.7l-3.3,1.9c-0.3,0.2-0.9,0.2-1.2,0l-3.4-1.9c-0.3-0.2-0.3-0.5,0-0.7l3.3-1.9
	c0.3-0.2,0.9-0.2,1.2,0L83.2,116.3z"/>
<path class="st9" d="M77.5,119.5c0.3,0.2,0.3,0.5,0,0.7l-3.3,1.9c-0.3,0.2-0.9,0.2-1.2,0l-3.4-1.9c-0.3-0.2-0.3-0.5,0-0.7l3.3-1.9
	c0.3-0.2,0.9-0.2,1.2,0L77.5,119.5z"/>
<path class="st9" d="M71.7,122.8c0.3,0.2,0.3,0.5,0,0.7l-4.7,2.6c-0.3,0.2-0.9,0.2-1.2,0l-3.4-1.9c-0.3-0.2-0.3-0.5,0-0.7l4.7-2.7
	c0.3-0.2,0.9-0.2,1.2,0L71.7,122.8z"/>
<path class="st9" d="M94.9,116.4c0.3,0.2,0.3,0.5,0,0.7l-3.3,1.9c-0.3,0.2-0.9,0.2-1.2,0L87,117c-0.3-0.2-0.3-0.5,0-0.7l3.3-1.9
	c0.3-0.2,0.9-0.2,1.2,0L94.9,116.4z"/>
<path class="st9" d="M100.8,119.7c0.3,0.2,0.3,0.5,0,0.7l-3.3,1.9c-0.3,0.2-0.9,0.2-1.2,0l-3.4-1.9c-0.3-0.2-0.3-0.5,0-0.7l3.3-1.9
	c0.3-0.2,0.9-0.2,1.2,0L100.8,119.7z"/>
<path class="st9" d="M89.1,119.6c0.3,0.2,0.3,0.5,0,0.7l-3.3,1.9c-0.3,0.2-0.9,0.2-1.2,0l-3.4-1.9c-0.3-0.2-0.3-0.5,0-0.7l3.3-1.9
	c0.3-0.2,0.9-0.2,1.2,0L89.1,119.6z"/>
<path class="st9" d="M95,122.9c0.3,0.2,0.3,0.5,0,0.7l-3.3,1.9c-0.3,0.2-0.9,0.2-1.2,0l-3.4-1.9c-0.3-0.2-0.3-0.5,0-0.7l3.3-1.9
	c0.3-0.2,0.9-0.2,1.2,0L95,122.9z"/>
<path class="st9" d="M106.7,123c0.3,0.2,0.3,0.5,0,0.7l-3.3,1.9c-0.3,0.2-0.9,0.2-1.2,0l-3.4-1.9c-0.3-0.2-0.3-0.5,0-0.7l3.3-1.9
	c0.3-0.2,0.9-0.2,1.2,0L106.7,123z"/>
<path class="st9" d="M101,126.2c0.3,0.2,0.3,0.5,0,0.7l-3.3,1.9c-0.3,0.2-0.9,0.2-1.2,0l-3.4-1.9c-0.3-0.2-0.3-0.5,0-0.7l3.3-1.9
	c0.3-0.2,0.9-0.2,1.2,0L101,126.2z"/>
<path class="st9" d="M83.4,122.8c0.3,0.2,0.3,0.5,0,0.7l-3.3,1.9c-0.3,0.2-0.9,0.2-1.2,0l-3.4-1.9c-0.3-0.2-0.3-0.5,0-0.7l3.3-1.9
	c0.3-0.2,0.9-0.2,1.2,0L83.4,122.8z"/>
<path class="st9" d="M89.3,126.1c0.3,0.2,0.3,0.5,0,0.7l-3.3,1.9c-0.3,0.2-0.9,0.2-1.2,0l-3.4-1.9c-0.3-0.2-0.3-0.5,0-0.7l3.3-1.9
	c0.3-0.2,0.9-0.2,1.2,0L89.3,126.1z"/>
<path class="st9" d="M95.2,129.4c0.3,0.2,0.3,0.5,0,0.7l-3.3,1.9c-0.3,0.2-0.9,0.2-1.2,0l-3.4-1.9c-0.3-0.2-0.3-0.5,0-0.7l3.3-1.9
	c0.3-0.2,0.9-0.2,1.2,0L95.2,129.4z"/>
<path class="st9" d="M112.6,126.2c0.3,0.2,0.3,0.5,0,0.7l-3.3,1.9c-0.3,0.2-0.9,0.2-1.2,0l-3.4-1.9c-0.3-0.2-0.3-0.5,0-0.7l3.3-1.9
	c0.3-0.2,0.9-0.2,1.2,0L112.6,126.2z"/>
<path class="st9" d="M106.9,129.5c0.3,0.2,0.3,0.5,0,0.7l-3.3,1.9c-0.3,0.2-0.9,0.2-1.2,0l-3.4-1.9c-0.3-0.2-0.3-0.5,0-0.7l3.3-1.9
	c0.3-0.2,0.9-0.2,1.2,0L106.9,129.5z"/>
<path class="st9" d="M101.1,132.7c0.3,0.2,0.3,0.5,0,0.7l-3.3,1.9c-0.3,0.2-0.9,0.2-1.2,0l-3.4-1.9c-0.3-0.2-0.3-0.5,0-0.7l3.3-1.9
	c0.3-0.2,0.9-0.2,1.2,0L101.1,132.7z"/>
<path class="st9" d="M95.4,135.9c0.3,0.2,0.3,0.5,0,0.7l-4.7,2.6c-0.3,0.2-0.9,0.2-1.2,0l-21.1-11.7c-0.3-0.2-0.3-0.5,0-0.7l4.7-2.6
	c0.3-0.2,0.9-0.2,1.2,0L95.4,135.9z"/>
<path class="st9" d="M118.5,129.5c0.3,0.2,0.3,0.5,0,0.7l-3.3,1.9c-0.3,0.2-0.9,0.2-1.2,0l-3.4-1.9c-0.3-0.2-0.3-0.5,0-0.7l3.3-1.9
	c0.3-0.2,0.9-0.2,1.2,0L118.5,129.5z"/>
<path class="st9" d="M112.8,132.7c0.3,0.2,0.3,0.5,0,0.7l-3.3,1.9c-0.3,0.2-0.9,0.2-1.2,0l-3.4-1.9c-0.3-0.2-0.3-0.5,0-0.7l3.3-1.9
	c0.3-0.2,0.9-0.2,1.2,0L112.8,132.7z"/>
<path class="st9" d="M107,136c0.3,0.2,0.3,0.5,0,0.7l-3.3,1.9c-0.3,0.2-0.9,0.2-1.2,0l-3.4-1.9c-0.3-0.2-0.3-0.5,0-0.7l3.3-1.9
	c0.3-0.2,0.9-0.2,1.2,0L107,136z"/>
<path class="st9" d="M101.3,139.2c0.3,0.2,0.3,0.5,0,0.7l-4.7,2.6c-0.3,0.2-0.9,0.2-1.2,0l-3.4-1.9c-0.3-0.2-0.3-0.5,0-0.7l4.7-2.6
	c0.3-0.2,0.9-0.2,1.2,0L101.3,139.2z"/>
<path class="st9" d="M124.5,132.8c0.3,0.2,0.3,0.5,0,0.7l-3.3,1.9c-0.3,0.2-0.9,0.2-1.2,0l-3.4-1.9c-0.3-0.2-0.3-0.5,0-0.7l3.3-1.9
	c0.3-0.2,0.9-0.2,1.2,0L124.5,132.8z"/>
<path class="st9" d="M118.7,136c0.3,0.2,0.3,0.5,0,0.7l-3.3,1.9c-0.3,0.2-0.9,0.2-1.2,0l-3.4-1.9c-0.3-0.2-0.3-0.5,0-0.7l3.3-1.9
	c0.3-0.2,0.9-0.2,1.2,0L118.7,136z"/>
<path class="st9" d="M112.9,139.3c0.3,0.2,0.3,0.5,0,0.7l-3.3,1.9c-0.3,0.2-0.9,0.2-1.2,0l-3.4-1.9c-0.3-0.2-0.3-0.5,0-0.7l3.3-1.9
	c0.3-0.2,0.9-0.2,1.2,0L112.9,139.3z"/>
<path class="st9" d="M107.2,142.5c0.3,0.2,0.3,0.5,0,0.7l-4.7,2.6c-0.3,0.2-0.9,0.2-1.2,0l-3.4-1.9c-0.3-0.2-0.3-0.5,0-0.7l4.7-2.6
	c0.3-0.2,0.9-0.2,1.2,0L107.2,142.5z"/>
<path class="st9" d="M130.4,136.1c0.3,0.2,0.3,0.5,0,0.7l-3.3,1.9c-0.3,0.2-0.9,0.2-1.2,0l-3.4-1.9c-0.3-0.2-0.3-0.5,0-0.7l3.3-1.9
	c0.3-0.2,0.9-0.2,1.2,0L130.4,136.1z"/>
<path class="st9" d="M124.6,139.3c0.3,0.2,0.3,0.5,0,0.7l-3.3,1.9c-0.3,0.2-0.9,0.2-1.2,0l-3.4-1.9c-0.3-0.2-0.3-0.5,0-0.7l3.3-1.9
	c0.3-0.2,0.9-0.2,1.2,0L124.6,139.3z"/>
<path class="st9" d="M118.9,142.5c0.3,0.2,0.3,0.5,0,0.7l-3.3,1.9c-0.3,0.2-0.9,0.2-1.2,0l-3.4-1.9c-0.3-0.2-0.3-0.5,0-0.7l3.3-1.9
	c0.3-0.2,0.9-0.2,1.2,0L118.9,142.5z"/>
<path class="st9" d="M113.1,145.8c0.3,0.2,0.3,0.5,0,0.7l-4.7,2.6c-0.3,0.2-0.9,0.2-1.2,0l-3.3-1.9c-0.3-0.2-0.3-0.5,0-0.7l4.7-2.7
	c0.3-0.2,0.9-0.2,1.2,0L113.1,145.8z"/>
<path class="st9" d="M136.3,139.4c0.3,0.2,0.3,0.5,0,0.7l-3.3,1.9c-0.3,0.2-0.9,0.2-1.2,0l-3.4-1.9c-0.3-0.2-0.3-0.5,0-0.7l3.3-1.9
	c0.3-0.2,0.9-0.2,1.2,0L136.3,139.4z"/>
<path class="st9" d="M130.5,142.6c0.3,0.2,0.3,0.5,0,0.7l-3.3,1.9c-0.3,0.2-0.9,0.2-1.2,0l-3.4-1.9c-0.3-0.2-0.3-0.5,0-0.7l3.3-1.9
	c0.3-0.2,0.9-0.2,1.2,0L130.5,142.6z"/>
<path class="st9" d="M124.8,145.8c0.3,0.2,0.3,0.5,0,0.7l-3.3,1.9c-0.3,0.2-0.9,0.2-1.2,0l-3.4-1.9c-0.3-0.2-0.3-0.5,0-0.7l3.3-1.9
	c0.3-0.2,0.9-0.2,1.2,0L124.8,145.8z"/>
<path class="st9" d="M116.5,151.7c0.3,0.2,0.3,0.5,0,0.7l-1.1,0.6c-0.3,0.2-0.9,0.2-1.2,0l-3.8-2.1c-0.3-0.2-0.3-0.5,0-0.7l1.1-0.6
	c0.3-0.2,0.9-0.2,1.2,0L116.5,151.7z"/>
<path class="st9" d="M143.6,143.4c0.3,0.2,0.3,0.5,0,0.7l-3.3,1.9c-0.3,0.2-0.9,0.2-1.2,0l-4.7-2.6c-0.3-0.2-0.3-0.5,0-0.7l3.3-1.9
	c0.3-0.2,0.9-0.2,1.2,0L143.6,143.4z"/>
<path class="st9" d="M136.3,145.8c0.3,0.2,0.3,0.5,0,0.6l-3.3,1.9c-0.3,0.2-0.9,0.2-1.2,0l-3.4-1.9c-0.3-0.2-0.3-0.5,0-0.7l3.3-1.9
	c0.3-0.2,0.9-0.2,1.2,0L136.3,145.8z"/>
<path class="st9" d="M150.9,147.5c0.3,0.2,0.3,0.5,0,0.7l-3.3,1.9c-0.3,0.2-0.9,0.2-1.2,0l-4.7-2.6c-0.3-0.2-0.3-0.5,0-0.7l3.3-1.9
	c0.3-0.2,0.9-0.2,1.2,0L150.9,147.5z"/>
<path class="st9" d="M139,147.3l6.1,3.4c0.3,0.2,0.3,0.5,0,0.7l-3.3,1.9c-0.3,0.2-0.9,0.2-1.2,0l-6.1-3.4c-0.3-0.2-0.3-0.5,0-0.7
	l3.3-1.9C138.1,147.1,138.7,147.1,139,147.3z"/>
<path class="st9" d="M139.4,153.9c0.3,0.2,0.3,0.5,0,0.7l-3.3,1.9c-0.3,0.2-0.9,0.2-1.2,0l-12-6.7c-0.3-0.2-0.3-0.5,0-0.7l3.3-1.9
	c0.3-0.2,0.9-0.2,1.2,0L139.4,153.9z"/>
<path class="st9" d="M126.6,153.3c0.3,0.2,0.3,0.5,0,0.7l-1.1,0.6c-0.3,0.2-0.9,0.2-1.2,0l-3.8-2.1c-0.3-0.2-0.3-0.5,0-0.7l1.1-0.6
	c0.3-0.2,0.9-0.2,1.2,0L126.6,153.3z"/>
<path class="st9" d="M123,155.3c0.3,0.2,0.3,0.5,0,0.7l-1.1,0.6c-0.3,0.2-0.9,0.2-1.2,0l-3.8-2.1c-0.3-0.2-0.3-0.5,0-0.7l1.1-0.6
	c0.3-0.2,0.9-0.2,1.2,0L123,155.3z"/>
<path class="st9" d="M129.5,158.9c0.3,0.2,0.3,0.5,0,0.7l-1.1,0.6c-0.3,0.2-0.9,0.2-1.2,0l-3.8-2.1c-0.3-0.2-0.3-0.5,0-0.7l1.1-0.6
	c0.3-0.2,0.9-0.2,1.2,0L129.5,158.9z"/>
<path class="st10" d="M126.2,87.6c0-0.2-0.1-0.4-0.2-0.5L99.6,71.6c-0.3-0.2-0.7,0-0.7,0.3l-0.4,1.9c0,0.2,0.1,0.4,0.2,0.5
	l26.3,15.4c0.3,0.2,0.7,0,0.7-0.3L126.2,87.6z"/>
<path class="st9" d="M164.2,102.6c0-0.2-0.1-0.4-0.2-0.5l-63.1-36.6c-0.3-0.2-0.7,0-0.7,0.3l-0.4,1.9c0,0.2,0.1,0.4,0.2,0.5
	l63.1,36.6c0.3,0.2,0.7,0,0.7-0.3L164.2,102.6z"/>
<path class="st9" d="M154.3,89.6c0-0.2-0.1-0.4-0.2-0.5l-52-29.7c-0.3-0.2-0.7,0-0.7,0.3l-0.4,1.9c0,0.2,0.1,0.4,0.2,0.5l52,29.7
	c0.3,0.2,0.7,0,0.7-0.3L154.3,89.6z"/>
<path class="st10" d="M142.4,75.3c0-0.2-0.1-0.4-0.2-0.5l-38.9-21.6c-0.3-0.2-0.7,0-0.7,0.3l-0.4,1.9c0,0.2,0.1,0.4,0.2,0.5
	l38.9,21.6c0.3,0.2,0.7,0,0.7-0.3L142.4,75.3z"/>
<path class="st10" d="M144.9,68.4c0-0.2-0.1-0.4-0.2-0.5l-40.3-23.1c-0.3-0.2-0.7,0-0.7,0.3l-0.3,1.5c0,0.2,0.1,0.4,0.2,0.5
	l40.3,23.1c0.3,0.2,0.7,0,0.7-0.3L144.9,68.4z"/>
</svg>
