<?xml version="1.0" encoding="utf-8"?>
<!-- Generator: Adobe Illustrator 26.5.0, SVG Export Plug-In . SVG Version: 6.00 Build 0)  -->
<svg version="1.1" id="Layer_1" xmlns="http://www.w3.org/2000/svg" xmlns:xlink="http://www.w3.org/1999/xlink" x="0px" y="0px"
	 viewBox="0 0 120 120" style="enable-background:new 0 0 120 120;" xml:space="preserve">
<style type="text/css">
	.st0{fill:#F16136;stroke:#202123;stroke-width:0.5;}
	.st1{fill:#150035;}
	.st2{fill:#F16136;}
	.st3{fill:#FFFFFF;}
	.st4{fill:#202123;}
	.st5{fill:none;stroke:#202123;stroke-width:0.5;}
	.st6{fill:#D84523;}
	.st7{fill:none;stroke:#202123;stroke-linejoin:round;}
	.st8{fill:none;stroke:#202123;}
</style>
<path class="st0" d="M17.5,35.1L60,10.3L102.5,35L60,59.7L17.5,35.1z"/>
<polygon class="st1" points="60,60 103,35 103,84.9 60,109.9 "/>
<path class="st2" d="M17.1,35.1L60,60l-0.1,50l-42.8-25L17.1,35.1z"/>
<polygon class="st2" points="59.9,10.8 101.7,35.1 59.9,59.4 18.1,35.1 "/>
<path class="st3" d="M59.9,10.1l14.4,8.4L59.9,27l-14.4-8.5L59.9,10.1z"/>
<path class="st3" d="M60.1,43.3l14.1,8.4L60,60l-14.1-8.2L60.1,43.3z"/>
<path class="st4" d="M74.6,18.6c0.1-0.1,0.1-0.2,0-0.3c-0.1-0.1-0.3-0.1-0.4,0L74.6,18.6z M88.6,26.7c0.1-0.1,0.1-0.2,0-0.3
	c-0.1-0.1-0.3-0.1-0.4,0L88.6,26.7z M74.1,18.4l-42.6,25l0.4,0.2l42.6-25L74.1,18.4z M46.1,52l42.5-25.2l-0.4-0.2L45.7,51.7L46.1,52
	z M45.2,18.7L88,43.6l0.4-0.3L45.7,18.4L45.2,18.7z M74.5,51.6L31.9,26.5l-0.4,0.2L74,51.8L74.5,51.6z"/>
<path class="st3" d="M45.9,51.7L60,59.9v16.5l-14.1-8.2V51.7z"/>
<path class="st5" d="M31.8,43.6L32,93.6 M45.9,101.7l0-50 M17.1,51.7L60,76.4 M60,92.9L17.1,68.2"/>
<polygon class="st6" points="60,60 102.5,35.3 102.5,84.7 60,109.4 "/>
<polygon class="st3" points="60,60 74.2,51.8 74.2,68.2 60,76.4 "/>
<path class="st3" d="M88.3,76.4l14.5-8.4V85l-14.5,8.4V76.4z"/>
<path class="st5" d="M74.2,51.8v49.9 M88.3,93.4V43.5 M60,76.4l42.8-24.8 M102.8,68L60,92.9"/>
<path class="st7" d="M60,10l42.8,25.1L60,59.9L17.1,35.1L60,10z"/>
<path class="st7" d="M102.9,35.1L60,10.1l-43,25V85l42.9,25l43-25V35.1z"/>
<path class="st8" d="M60,59.8l-0.1,50"/>
</svg>
