<?xml version="1.0" encoding="utf-8"?>
<!-- Generator: Adobe Illustrator 26.5.0, SVG Export Plug-In . SVG Version: 6.00 Build 0)  -->
<svg version="1.1" id="Layer_1" xmlns="http://www.w3.org/2000/svg" xmlns:xlink="http://www.w3.org/1999/xlink" x="0px" y="0px"
	 viewBox="0 0 48 48" style="enable-background:new 0 0 48 48;" xml:space="preserve">
<style type="text/css">
	.st0{clip-path:url(#SVGID_00000088112482745623938970000005469455836308560054_);}
	.st1{fill:#B8BABF;stroke:#202123;stroke-miterlimit:10;}
	.st2{fill:#F16136;stroke:#202123;stroke-miterlimit:10;}
	.st3{fill:#F16136;}
	.st4{fill:#FFFFFF;stroke:#202123;stroke-miterlimit:10;}
	.st5{clip-path:url(#SVGID_00000170991646143337429310000017429827672382971011_);}
	.st6{fill:#202123;}
</style>
<g>
	<defs>
		<rect id="SVGID_1_" width="48" height="48"/>
	</defs>
	<clipPath id="SVGID_00000021827060628022289540000010766222047273606820_">
		<use xlink:href="#SVGID_1_"  style="overflow:visible;"/>
	</clipPath>
	<g style="clip-path:url(#SVGID_00000021827060628022289540000010766222047273606820_);">
		<path class="st1" d="M18.7,43.7c1.4-1,5.8-3.8,5.8-3.8c0,0,0,0,0-0.1c0,0,0,0,0-0.1c0,0,0,0,0,0l-7.3-8.9c0,0,0,0,0,0
			c0,0,0,0-0.1,0c0,0,0,0-0.1,0c0,0,0,0,0,0l-1.1,5.4l-0.3,3.7c0,0,0,0,0,0c0,0,0,0,0,0l3,3.5C18.6,43.6,18.6,43.7,18.7,43.7z"/>
		<path class="st2" d="M40.5,16.7L13,0.8c-0.3-0.2-0.6-0.3-0.9-0.3c-0.3,0-0.6,0-0.9,0.1L5.8,3.8c0,0,0,0,0,0.1c0,0,0,0,0,0.1
			s0,0,0,0.1c0,0,0,0,0,0.1l6.4,6.8c0,0,0,0.1,0,0.1v11.2c0.1,1,0.3,1.9,0.8,2.8c0.5,0.8,1.2,1.6,2,2.1l4.1,2.3l0.3,0.4
			c0.8,3.9,3.1,7.4,6.4,9.6c0.2,0.1,0.3-0.1,0.2-0.3c-0.7-1.3-2-4-1.5-6.1l0.5-0.2l8.5,4.9c0,0,0.1,0,0.1,0.1l3.5,9.5c0,0,0,0,0,0.1
			c0,0,0,0,0.1,0c0,0,0,0,0.1,0c0,0,0,0,0.1,0l5.3-3.2c0.3-0.2,0.5-0.5,0.6-0.8c0.1-0.3,0.2-0.6,0.1-1V21.6c-0.1-1-0.3-1.9-0.8-2.8
			C42,18,41.3,17.3,40.5,16.7z"/>
		<path class="st3" d="M42.8,25.6l-5,3.3v18.1l4.8-2.9l0.2-1.3L42.8,25.6z"/>
		<path class="st4" d="M35.1,20.1L7.5,4.1C6,3.3,4.8,4,4.8,5.7v20.8c0,1,0.3,1.9,0.8,2.7c0.5,0.8,1.1,1.5,2,2.1l4.2,2.4
			c0.1,0,0.1,0.1,0.1,0.1S12,34,12,34.1c0.8,3.9,3.1,7.4,6.4,9.6c0.2,0.1,0.3-0.1,0.2-0.3c-0.7-1.3-2-4.2-1.5-6.4
			c0-0.1,0.1-0.1,0.2-0.1l17.8,10.3c1.5,0.9,2.7,0.2,2.7-1.6V24.8c-0.1-1-0.3-1.9-0.8-2.7C36.6,21.3,35.9,20.6,35.1,20.1z"/>
		<g>
			<defs>
				<polygon id="SVGID_00000075847947010260711270000008626062585005970622_" points="10,7 30.8,19 30.8,43 10,31 				"/>
			</defs>
			<clipPath id="SVGID_00000063597990942193245260000006193409914492535978_">
				<use xlink:href="#SVGID_00000075847947010260711270000008626062585005970622_"  style="overflow:visible;"/>
			</clipPath>
			<g style="clip-path:url(#SVGID_00000063597990942193245260000006193409914492535978_);">
				<path class="st6" d="M16.1,24.5c-0.5-0.3-0.9-0.7-1.2-1.3c-0.3-0.6-0.5-1.2-0.5-1.7s0.2-0.9,0.5-1.1c0.3-0.2,0.8-0.1,1.2,0.1
					c0.5,0.3,0.9,0.7,1.2,1.3c0.3,0.6,0.5,1.2,0.5,1.7s-0.2,0.9-0.5,1.1C17,24.8,16.5,24.8,16.1,24.5z M21,23.3
					c-0.4-1.4-1-2.8-1.9-4c-0.9-1.2-1.9-2.2-3-2.8c-1.4-0.8-2.7-0.9-3.7-0.4c-1,0.6-1.5,1.8-1.5,3.4s0.5,3.4,1.5,5.1
					s2.3,3.1,3.7,3.9c1.1,0.6,2.1,0.8,3,0.6c0.9-0.2,1.5-0.8,1.9-1.8l3.8,2.2v4l3.5,2v-4l1.7,1v-4L21,23.3z"/>
			</g>
		</g>
	</g>
</g>
</svg>
