<?xml version="1.0" encoding="utf-8"?>
<!-- Generator: Adobe Illustrator 26.5.0, SVG Export Plug-In . SVG Version: 6.00 Build 0)  -->
<svg version="1.1" id="Layer_1" xmlns="http://www.w3.org/2000/svg" xmlns:xlink="http://www.w3.org/1999/xlink" x="0px" y="0px"
	 viewBox="0 0 120 120" style="enable-background:new 0 0 120 120;" xml:space="preserve">
<style type="text/css">
	.st0{fill:#202123;stroke:#202123;stroke-width:0.5;stroke-linejoin:round;}
	.st1{fill:#FFFFFF;stroke:#202123;stroke-width:0.5;}
	.st2{fill:#F16136;}
	.st3{fill:#202123;}
	.st4{fill:#FFFFFF;}
	.st5{fill:#FFAB97;}
</style>
<path class="st0" d="M5.4,52.2c0,1.3,0.7,2.5,1.8,3.1l32.2,19l33.7,18.8c3.5,2,9.3,1.7,12.3,0l27.2-15.7c0.4-0.2,0.7-0.7,0.8-0.9
	c1.6-2.8,1.4-5.6,1.2-9.6l-1.7,2.8c-0.3-0.2-0.6,0.2-0.8,0L47.7,33.1c-3.5-2-8.8-2.2-11.8-0.5L8,48.4l-2.6-4
	C5.2,46.3,5.4,49.2,5.4,52.2z"/>
<path class="st1" d="M7.4,42.4l28.2-16.1c3-1.7,8.3-1.5,11.8,0.5l64.5,36.6c3.5,2,3.9,5,0.8,6.7L84.4,86.3c-3,1.7-8.3,1.5-11.8-0.5
	L8.2,49.1C4.7,47.2,4.3,44.2,7.4,42.4z"/>
<path class="st2" d="M42,28.6c0,0-24.4,14-31.1,18.1c-0.2,0.1-0.4,0.2-0.5,0.4c-0.1,0.2-0.2,0.4-0.1,0.6c0,0.1,0.4,0.5,0.4,0.5
	L74,84.1c1.6,0.8,3.3,1.2,5.1,1.2s3.5-0.4,5.1-1.2l27.1-15.5c1.5-0.8,1.5-2.3,0-3.1L46,28.5c-0.6-0.4-1.3-0.6-2-0.6
	C43.3,27.9,42.6,28.2,42,28.6z"/>
<path class="st3" d="M19.4,38.3c-0.1,0-0.2-0.1-0.2-0.2c-0.1-0.1-0.1-0.2-0.1-0.2c0-0.1,0-0.2,0.1-0.2c0.1-0.1,0.1-0.1,0.2-0.2
	c0.2-0.1,0.5-0.2,0.7-0.2c0.2,0,0.5,0.1,0.7,0.2c0.1,0,0.2,0.1,0.2,0.2s0.1,0.2,0.1,0.2c0,0.1,0,0.2-0.1,0.2s-0.1,0.1-0.2,0.2
	c-0.2,0.1-0.5,0.2-0.7,0.2C19.9,38.5,19.6,38.4,19.4,38.3z"/>
<path class="st3" d="M16.8,39.8c-0.1,0-0.2-0.1-0.2-0.2c-0.1-0.1-0.1-0.2-0.1-0.2c0-0.1,0-0.2,0.1-0.2c0.1-0.1,0.1-0.1,0.2-0.2
	c0.2-0.1,0.5-0.2,0.7-0.2c0.2,0,0.5,0.1,0.7,0.2c0.1,0,0.2,0.1,0.2,0.2c0.1,0.1,0.1,0.2,0.1,0.2c0,0.1,0,0.2-0.1,0.2
	c-0.1,0.1-0.1,0.1-0.2,0.2c-0.2,0.1-0.5,0.2-0.7,0.2C17.2,40,17,39.9,16.8,39.8z"/>
<path class="st3" d="M22.1,36l8.2-4.7c0.2-0.1,0.4-0.1,0.7-0.1c0.2,0,0.4,0.1,0.6,0.2c0.4,0.2,0.4,0.5,0.1,0.7l-8.2,4.7
	c-0.2,0.1-0.4,0.1-0.7,0.1c-0.2,0-0.4-0.1-0.6-0.2C21.8,36.5,21.7,36.2,22.1,36z"/>
<path class="st2" d="M27,65c-0.1,0-0.3,0-0.4-0.1l-4-2.3c-0.2-0.1-0.4-0.3-0.5-0.5c-0.1-0.2-0.2-0.4-0.2-0.7v-0.1c0-0.1,0-0.2,0-0.3
	c0-0.1,0.1-0.2,0.2-0.2c0.1,0,0.2-0.1,0.3-0.1c0.1,0,0.2,0.1,0.3,0.1l4,2.2c0.2,0.1,0.4,0.3,0.5,0.5c0.1,0.2,0.2,0.4,0.2,0.7v0.1
	c0,0.1,0,0.1,0,0.2c0,0.1-0.1,0.1-0.1,0.2c0,0.1-0.1,0.1-0.2,0.1C27.1,64.9,27,64.9,27,65L27,65z M22.4,61.2L22.4,61.2
	c-0.1,0-0.1,0.1-0.1,0.2v0.1c0,0.2,0.1,0.3,0.2,0.5c0.1,0.1,0.2,0.3,0.4,0.4l4,2.2c0.1,0.1,0.2,0.1,0.3,0.1c0,0,0.1-0.1,0.1-0.2
	v-0.1c0-0.2-0.1-0.3-0.2-0.5s-0.2-0.3-0.4-0.4l-4-2.2C22.6,61.2,22.5,61.2,22.4,61.2z"/>
<path class="st2" d="M95.9,84.6c-0.1-0.1-0.2-0.1-0.2-0.2c0-0.1-0.1-0.2,0-0.3V84c0-0.2,0.1-0.5,0.2-0.7c0.1-0.2,0.3-0.4,0.5-0.5
	l4-2.2c0.1-0.1,0.2-0.1,0.3-0.1c0.1,0,0.2,0,0.3,0.1c0.1,0.1,0.2,0.1,0.2,0.2c0,0.1,0.1,0.2,0,0.3v0.1c0,0.2-0.1,0.5-0.2,0.7
	s-0.3,0.4-0.5,0.5l-4,2.2c-0.1,0.1-0.3,0.1-0.4,0.1C96,84.6,95.9,84.6,95.9,84.6z M100.5,80.9l-4,2.2c-0.1,0.1-0.3,0.2-0.4,0.4
	C96.1,83.7,96,83.8,96,84v0.1c0,0,0,0.1,0.1,0.2c0.1,0,0.1,0,0.3-0.1l4-2.2c0.2-0.1,0.3-0.2,0.4-0.4c0.1-0.1,0.2-0.3,0.2-0.5V81
	c0,0,0-0.1-0.1-0.2h-0.1C100.6,80.8,100.6,80.9,100.5,80.9L100.5,80.9z"/>
<path class="st2" d="M19.5,60.7c-0.1,0-0.3,0-0.4-0.1l-2.2-1.3c-0.2-0.1-0.4-0.3-0.5-0.5c-0.1-0.2-0.2-0.4-0.2-0.7v-0.1
	c0-0.1,0-0.2,0-0.3c0-0.1,0.1-0.2,0.2-0.2c0.1,0,0.2-0.1,0.3-0.1c0.1,0,0.2,0.1,0.3,0.1l2.2,1.3c0.2,0.1,0.4,0.3,0.5,0.5
	c0.1,0.2,0.2,0.4,0.2,0.7v0.1c0,0.1,0,0.1,0,0.2s-0.1,0.1-0.1,0.2c0,0.1-0.1,0.1-0.2,0.1C19.6,60.7,19.5,60.7,19.5,60.7L19.5,60.7z
	 M16.6,57.9L16.6,57.9c-0.1,0-0.1,0.1-0.1,0.2v0.1c0,0.2,0.1,0.3,0.2,0.5c0.1,0.1,0.2,0.3,0.4,0.4l2.2,1.3c0.1,0.1,0.2,0.1,0.3,0.1
	c0,0,0.1-0.1,0.1-0.2v-0.1c0-0.2-0.1-0.3-0.2-0.5c-0.1-0.1-0.2-0.3-0.4-0.4L16.8,58C16.8,57.9,16.7,57.9,16.6,57.9z"/>
<path class="st4" d="M86.6,71.2l-0.3,0.4L87,72l0.3-0.4L86.6,71.2z"/>
<path class="st4" d="M94,75.9l-1.2-0.7l0.2-0.4l1.2,0.7L94,75.9z M91.6,74.6l-1.2-0.7l0.2-0.4l1.2,0.7L91.6,74.6z M89.3,73.3
	l-1.2-0.7l0.2-0.4l1.2,0.7L89.3,73.3z"/>
<path class="st4" d="M95.4,76.2l-0.3,0.4l0.7,0.4l0.3-0.4L95.4,76.2z"/>
<path class="st4" d="M95.9,66.5L76.6,77.3l-7-4l19.2-10.9L95.9,66.5z M76.6,76.9L95,66.5l-6.2-3.5L70.4,73.3L76.6,76.9z"/>
<path class="st5" d="M95.5,65L76.6,75.6L70,71.9l18.8-10.6L95.5,65z"/>
<path class="st4" d="M29.6,54.8c-0.4,0-0.8-0.1-1.1-0.3l-8.6-4.9c-0.2-0.1-0.3-0.2-0.4-0.3c-0.1-0.1-0.2-0.3-0.2-0.5
	c0-0.1,0-0.3,0.1-0.4c0.1-0.1,0.2-0.2,0.3-0.3l26.4-15c0.3-0.1,0.7-0.2,1-0.2c0.3,0,0.7,0.1,1,0.3l8.6,4.9c0.2,0.1,0.3,0.2,0.4,0.3
	c0.1,0.1,0.2,0.3,0.2,0.5c0,0.1,0,0.3-0.1,0.4c-0.1,0.1-0.2,0.2-0.3,0.3l-26.4,15C30.2,54.8,29.9,54.8,29.6,54.8z M47.1,33.5
	c-0.2,0-0.4,0-0.6,0.1L20,48.7c-0.1,0-0.2,0.1-0.2,0.2s0.1,0.2,0.3,0.3l8.6,4.8c0.2,0.1,0.5,0.2,0.7,0.2c0.3,0,0.5,0,0.8-0.1
	l26.4-15c0.1,0,0.2-0.1,0.2-0.2s-0.1-0.2-0.3-0.3L48,33.7C47.7,33.6,47.4,33.5,47.1,33.5z"/>
<path class="st4" d="M35.1,58c-0.4,0-0.8-0.1-1.1-0.3l-1.9-1.1c-0.2-0.1-0.3-0.2-0.4-0.3c-0.1-0.1-0.2-0.3-0.2-0.5
	c0-0.1,0-0.3,0.1-0.4c0.1-0.1,0.2-0.2,0.3-0.3l26.4-15c0.3-0.1,0.7-0.2,1-0.2c0.3,0,0.7,0.1,1,0.3l1.9,1.1c0.2,0.1,0.3,0.2,0.4,0.3
	c0.1,0.1,0.2,0.3,0.2,0.5c0,0.1,0,0.3-0.1,0.4c-0.1,0.1-0.2,0.2-0.3,0.3L36,57.7C35.7,57.9,35.4,58,35.1,58z M59.3,40.5
	c-0.2,0-0.4,0-0.6,0.1l-26.4,15c-0.1,0-0.2,0.1-0.2,0.2s0.1,0.2,0.3,0.3l1.9,1.1c0.2,0.1,0.5,0.2,0.7,0.2c0.3,0,0.5,0,0.8-0.1
	l26.4-15c0.1,0,0.2-0.1,0.2-0.2s-0.1-0.2-0.3-0.3l-1.9-1.1C59.9,40.5,59.6,40.5,59.3,40.5L59.3,40.5z"/>
<path class="st4" d="M52.7,67.9c-0.4,0-0.8-0.1-1.1-0.3l-1.9-1.1c-0.2-0.1-0.3-0.2-0.4-0.3c-0.1-0.1-0.2-0.3-0.2-0.5
	c0-0.1,0-0.3,0.1-0.4c0.1-0.1,0.2-0.2,0.3-0.3l26.4-15c0.3-0.1,0.7-0.2,1-0.2c0.3,0,0.7,0.1,1,0.3l1.9,1.1c0.2,0.1,0.3,0.2,0.4,0.3
	c0.1,0.1,0.2,0.3,0.2,0.5c0,0.1,0,0.3-0.1,0.4c-0.1,0.1-0.2,0.2-0.3,0.3l-26.4,15C53.3,67.9,53,67.9,52.7,67.9z M76.9,50.5
	c-0.2,0-0.4,0-0.6,0.1l-26.4,15c-0.1,0-0.2,0.1-0.2,0.2c0,0.1,0.1,0.2,0.3,0.3l1.9,1.1c0.2,0.1,0.5,0.2,0.7,0.2c0.3,0,0.5,0,0.8-0.1
	l26.4-15c0.1,0,0.2-0.1,0.2-0.2c0-0.1-0.1-0.2-0.3-0.3l-1.9-1.1C77.5,50.5,77.2,50.5,76.9,50.5z"/>
<path class="st4" d="M58.1,71c-0.4,0-0.8-0.1-1.1-0.3l-5.9-3.3c-0.2-0.1-0.3-0.2-0.4-0.3c-0.1-0.1-0.2-0.3-0.2-0.5
	c0-0.1,0-0.3,0.1-0.4c0.1-0.1,0.2-0.2,0.3-0.3l26.4-15c0.3-0.1,0.7-0.2,1-0.2c0.3,0,0.7,0.1,1,0.3l5.9,3.3c0.2,0.1,0.3,0.2,0.4,0.3
	c0.1,0.1,0.2,0.3,0.2,0.5c0,0.1,0,0.3-0.1,0.4c-0.1,0.1-0.2,0.2-0.3,0.3L59,70.8C58.7,71,58.4,71,58.1,71z M78.3,51.3
	c-0.2,0-0.4,0-0.6,0.1l-26.4,15c-0.1,0-0.2,0.1-0.2,0.2c0,0.1,0.1,0.2,0.3,0.3l5.9,3.3c0.2,0.1,0.5,0.2,0.7,0.2c0.3,0,0.5,0,0.8-0.1
	l26.4-15c0.1,0,0.2-0.1,0.2-0.2s-0.1-0.2-0.3-0.3l-5.8-3.3C78.9,51.4,78.6,51.3,78.3,51.3L78.3,51.3z"/>
<path class="st4" d="M47.1,64.8c-0.4,0-0.8-0.1-1.1-0.3l-8.2-4.7c-0.2-0.1-0.3-0.2-0.4-0.3c-0.1-0.1-0.2-0.3-0.2-0.5
	c0-0.1,0-0.3,0.1-0.4c0.1-0.1,0.2-0.2,0.3-0.3l11.4-6.5c0.3-0.1,0.7-0.2,1-0.2c0.3,0,0.7,0.1,1,0.3l8.2,4.7c0.2,0.1,0.3,0.2,0.4,0.3
	s0.2,0.3,0.2,0.5c0,0.1,0,0.3-0.1,0.4c-0.1,0.1-0.2,0.2-0.3,0.3L48,64.6C47.7,64.7,47.4,64.8,47.1,64.8z M50,52.3
	c-0.2,0-0.4,0-0.6,0.1l-11.4,6.5c-0.1,0-0.2,0.1-0.2,0.2s0.1,0.2,0.3,0.3l8.2,4.6c0.2,0.1,0.5,0.2,0.7,0.2c0.3,0,0.5,0,0.8-0.1
	l11.4-6.5c0.1,0,0.2-0.1,0.2-0.2s-0.1-0.2-0.3-0.3l-8.2-4.6C50.6,52.3,50.3,52.2,50,52.3L50,52.3z"/>
<path class="st4" d="M62.1,56.3c-0.4,0-0.8-0.1-1.1-0.3l-8.2-4.7c-0.2-0.1-0.3-0.2-0.4-0.3c-0.1-0.1-0.2-0.3-0.2-0.5
	c0-0.1,0-0.3,0.1-0.4c0.1-0.1,0.2-0.2,0.3-0.3l11.4-6.6c0.3-0.1,0.7-0.2,1-0.2s0.7,0.1,1,0.3l8.2,4.7c0.2,0.1,0.3,0.2,0.4,0.3
	c0.1,0.1,0.2,0.3,0.2,0.5c0,0.1,0,0.3-0.1,0.4s-0.2,0.2-0.3,0.3L63,56.1C62.7,56.2,62.4,56.3,62.1,56.3z M65,43.7
	c-0.2,0-0.4,0-0.6,0.1l-11.4,6.5c-0.1,0-0.2,0.1-0.2,0.2s0.1,0.2,0.3,0.3l8.2,4.6c0.2,0.1,0.5,0.2,0.7,0.2c0.3,0,0.5,0,0.8-0.1
	l11.5-6.5c0.1,0,0.2-0.1,0.2-0.2s-0.1-0.2-0.3-0.3l-8.2-4.7C65.7,43.8,65.4,43.7,65,43.7L65,43.7z"/>
<path class="st4" d="M52.3,52.9l-13.1,7.4l0.3,0.4l13.1-7.4L52.3,52.9z"/>
<path class="st4" d="M67.3,44.3l-13.1,7.4l0.3,0.4l13.1-7.4L67.3,44.3z"/>
<path class="st4" d="M37,46.4l-0.8,0.4l-2.1-1.2l-0.3-0.2l-0.4-0.2c0,0.1,0,0.2,0,0.3l-0.1,0.4l-0.8-0.1l0.2-1.2l0.6-0.4L37,46.4z"
	/>
<path class="st4" d="M38.3,43.6c0.6,0.4,1,0.7,1.1,1c0.1,0.3-0.1,0.6-0.5,0.8c-0.4,0.2-0.9,0.3-1.4,0.3c-0.6-0.1-1.2-0.3-1.7-0.6
	c-0.7-0.4-1-0.7-1.1-1c-0.1-0.3,0.1-0.6,0.5-0.8c0.4-0.2,0.9-0.3,1.4-0.3C37.2,43,37.8,43.2,38.3,43.6z M36.6,44.6
	c0.3,0.2,0.7,0.4,1.1,0.5c0.2,0.1,0.5,0,0.7-0.1c0.2-0.1,0.2-0.2,0.1-0.4c-0.2-0.3-0.5-0.5-0.8-0.6c-0.3-0.2-0.7-0.4-1.1-0.5
	c-0.2-0.1-0.5,0-0.7,0.1c-0.2,0.1-0.2,0.2-0.1,0.4C35.9,44.2,36.2,44.4,36.6,44.6z"/>
<path class="st4" d="M41.3,41.9c0.6,0.4,1,0.7,1.1,1c0.1,0.3-0.1,0.6-0.5,0.8C41.5,43.9,41,44,40.5,44c-0.6-0.1-1.2-0.3-1.8-0.6
	c-0.7-0.4-1-0.7-1.1-1c-0.1-0.3,0.1-0.6,0.5-0.8c0.4-0.2,1-0.3,1.5-0.3C40.2,41.4,40.8,41.6,41.3,41.9z M39.5,42.9
	c0.3,0.2,0.7,0.4,1.1,0.5c0.2,0.1,0.5,0.1,0.7-0.1c0.2-0.1,0.2-0.2,0.1-0.4c-0.2-0.3-0.5-0.5-0.8-0.6c-0.3-0.2-0.7-0.4-1.1-0.5
	c-0.2-0.1-0.5,0-0.7,0.1c-0.2,0.1-0.2,0.2-0.1,0.4C38.9,42.5,39.2,42.8,39.5,42.9L39.5,42.9z"/>
<path class="st4" d="M44.3,40.2c0.6,0.4,1,0.7,1.1,1c0.1,0.3-0.1,0.6-0.5,0.8c-0.4,0.2-0.9,0.3-1.4,0.3c-0.6-0.1-1.2-0.3-1.7-0.6
	c-0.7-0.4-1-0.7-1.1-1c-0.1-0.3,0.1-0.6,0.5-0.8c0.4-0.2,1-0.3,1.5-0.3C43.1,39.7,43.7,39.9,44.3,40.2z M42.4,41.2
	c0.3,0.2,0.7,0.4,1.1,0.5c0.2,0.1,0.5,0,0.7-0.1c0.2-0.1,0.2-0.2,0.1-0.4c-0.2-0.3-0.5-0.5-0.8-0.6c-0.3-0.2-0.7-0.4-1.1-0.5
	c-0.2-0.1-0.5,0-0.7,0.1c-0.2,0.1-0.2,0.2-0.1,0.4C41.8,40.9,42.1,41.1,42.4,41.2L42.4,41.2z"/>
</svg>
