<svg xmlns="http://www.w3.org/2000/svg" width="68.815" height="71" viewBox="0 0 68.815 71">
  <g id="Group_46" data-name="Group 46" transform="translate(-3.4 -3)">
    <path id="Path_176" data-name="Path 176" d="M63.75,14.2,56.1,13.1l-5.732-4.64-3.19.907C45.17,5.3,42.338,3,39.173,3A7.165,7.165,0,0,0,34.02,5.245,6.985,6.985,0,0,0,29.072,3c-4.817,0-8.659,5.688-10.066,14.364l-9.05,2.564L3.4,66.351,46,74l26.215-5.188ZM37.264,9.827a2.822,2.822,0,0,1,1.909-1.365c.522,0,1.5.778,2.485,2.469L37.892,12a25.118,25.118,0,0,0-.964-2.428ZM29.342,8.462c.726,0,2.3,1.294,3.413,5L24.9,15.687C26.139,10.764,28.255,8.462,29.342,8.462Zm14.05,59.585L9.678,61.711,14.869,24.3,46.62,14.9Zm8.586-51.4,1.671,1.376,5.183.822,7.105,45.874L48.865,67.989Z" fill="#fff"/>
    <path id="Path_177" data-name="Path 177" d="M24.364,11.9c-8.192,0-12.288,5.188-12.288,10.923,0,6.827,6.554,6.827,6.554,10.923a2.439,2.439,0,0,1-2.458,2.46c-2.731,0-5.735-2.731-5.735-2.731L8.8,38.659a12.122,12.122,0,0,0,9.009,3.553c4.915,0,8.463-3.823,8.463-9.558,0-7.1-8.192-8.463-8.192-11.466,0-.546.276-2.731,3.826-2.731a9.725,9.725,0,0,1,4.366,1.087l2.187-6.827A9.967,9.967,0,0,0,24.364,11.9Z" transform="translate(9.348 15.404)" fill="#f16136"/>
  </g>
</svg>
