<svg id="edNkln6CP151" xmlns="http://www.w3.org/2000/svg" xmlns:xlink="http://www.w3.org/1999/xlink" viewBox="0 0 53.1 53" shape-rendering="geometricPrecision" text-rendering="geometricPrecision"><style><![CDATA[#edNkln6CP1512_to {animation: edNkln6CP1512_to__to 3000ms linear infinite normal forwards}@keyframes edNkln6CP1512_to__to { 0% {transform: translate(8.8px,34.950001px)} 50% {transform: translate(8.8px,39.450001px)} 100% {transform: translate(8.8px,34.950001px)}} #edNkln6CP1512_ts {animation: edNkln6CP1512_ts__ts 3000ms linear infinite normal forwards}@keyframes edNkln6CP1512_ts__ts { 0% {transform: scale(1,1)} 23.333333% {transform: scale(1,1)} 50% {transform: scale(0.814671,0.814671)} 100% {transform: scale(1,1)}} #edNkln6CP1513_to {animation: edNkln6CP1513_to__to 3000ms linear infinite normal forwards}@keyframes edNkln6CP1513_to__to { 0% {transform: translate(44.299999px,34.950001px)} 50% {transform: translate(44.299999px,39.450001px)} 100% {transform: translate(44.299999px,34.950001px)}} #edNkln6CP1513_ts {animation: edNkln6CP1513_ts__ts 3000ms linear infinite normal forwards}@keyframes edNkln6CP1513_ts__ts { 0% {transform: scale(1,1)} 23.333333% {transform: scale(1,1)} 50% {transform: scale(0.814672,0.814672)} 100% {transform: scale(1,1)}}]]></style><path d="M26.6,51.4l-2.3-3.6-3.5-5.9.6-.4h1.4l.7-.8v-11.8l2.1.5h4l.7-.5.3,12.3h4.1l-2.1,3.1-6,7.1Z" fill="#f16136"/><path d="M16,18.9l-2.2-1.4-.5-3.7v-7.8l2-1.7l5-3.1l3.6-.3h12.3l.6.6c0,0-.2.5,0,.7s-.1.8,0,1.1.2,1.1,0,1.3-.6.7-.6.7h.6c.1.2.3.3.5.3.4-.1.8-.1,1.3,0c.8.2,1.6.4,2.4.4.3-.1,1.6.1,2.1,0c.4,0,.8,0,1.2,0c.2,0,.5.1.6.2.2.2.3-.3.3.5c0,.4,0,.9,0,1.3v.5l1.2.9.3.4c0,0-.3.7,0,.9s0,1.4,0,1.4l-.7.6c0,0-1,.3-.8.5.1.8.1,1.5,0,2.3-.3.2-.6.4-1,.6-.3.1-.6-1-.6,0-.1.6-.1,1.2,0,1.8.1.2.1.4,0,.6-.2.2-.4.4-.6.7-.1.2-.5.3-.9.3s-2.1.3-2.7.4-2.1,0-2.1,0l-.5-1.6-.6-2.2c-.1-.4-.2-.8-.3-1.2-.2-.4-.4-.7-.6-1.1l-.9-1.1L32.7,11l-1.4-.7-1.9-.9h-4.9l-1.2.9-1.2.4-1.2.7c-.2.2-.4.4-.6.7-.3.4-.6.7-1,1.1l-.7.6-.4.6-.3.8-.6,1.5-.4.8-.3,1-.6.4Z" fill="#f16136"/><path d="M28.2,8.5c1,.1,2,.4,3,.8v-2.5c-1.1.1-2,.6-2.8,1.4L27.2,7c1.2-1.2,2.9-1.9,4.7-1.9h1.8c1.4,0,2.5-1.1,2.5-2.5c0-.5-.4-.8-.8-.8h-11.2c-3.8,0-7.5,1.7-10,4.6v10.3l1.1,1.1c.2.2.4.4.7.5.7-6.2,6.2-10.5,12.2-9.8Z" fill="none"/><path d="M32.8,8.4h11c.5,0,.8-.4.8-.8s-.4-.8-.8-.8v0h-11v1.6Z" fill="none"/><rect width="6.8" height="11.8" rx="0" ry="0" transform="translate(5.8 5.1)" fill="none"/><path d="M32.8,10.2c.7.5,1.4,1,2,1.6h10.7c.5,0,.8-.4.8-.8v0c0-.5-.4-.8-.8-.8h-12.7v0Z" fill="none"/><path d="M43.8,13.5h-7.7c.3.5.6,1.1.9,1.7h6.8c.5,0,.8-.4.8-.8v0c.1-.5-.3-.9-.8-.9Z" fill="none"/><path d="M42.1,16.9h-4.5c.1.6.2,1.1.3,1.7h4.3c.5,0,.8-.4.8-.8v0c0-.5-.4-.9-.9-.9Z" fill="none"/><path d="M36.2,19.4c0-5.1-4.2-9.3-9.3-9.3s-9.3,4.2-9.3,9.3s4.2,9.3,9.3,9.3s9.3-4.1,9.3-9.3ZM24.4,21.1v-.8h1.7v.8c0,.5.4.8.8.8h.8v-.8c0-.5-.4-.8-.8-.8-1.4,0-2.5-1.1-2.5-2.5v-2.5h1.7v-1.7h1.7v1.8c1,.4,1.7,1.3,1.7,2.4v.8h-1.7v-.8c0-.5-.4-.8-.8-.8h-.8v.8c0,.5.4.8.8.8c1.4,0,2.5,1.1,2.5,2.5v2.5h-1.7v1.7h-1.7v-1.8c-1-.4-1.7-1.3-1.7-2.4Z" fill="none"/><path d="M29.5,30.1c-1.7.4-3.4.4-5.1,0v12.1h-2.6L27,50l5.9-7.8h-3.4v-12.1Z" fill="none"/><g id="edNkln6CP1512_to" transform="translate(8.8,34.950001)"><g id="edNkln6CP1512_ts" transform="scale(1,1)"><polygon points="12.6,22 10.9,22 10.9,37.2 14.3,37.2 8.4,45 3.2,37.2 5.8,37.2 5.8,22 4.1,22 4.1,35.5 0,35.5 8.3,47.9 17.6,35.5 12.6,35.5" transform="translate(-8.8,-34.950001)" fill="#fff"/></g></g><g id="edNkln6CP1513_to" transform="translate(44.299999,34.950001)"><g id="edNkln6CP1513_ts" transform="scale(1,1)"><polygon points="48,35.5 48,22 46.4,22 46.4,37.2 49.7,37.2 43.9,45 38.6,37.2 41.3,37.2 41.3,22 39.6,22 39.6,35.5 35.5,35.5 43.8,47.9 53.1,35.5" transform="translate(-44.299999,-34.950001)" fill="#fff"/></g></g><path d="M31.2,29.6c3.8-1.6,6.4-5.2,6.7-9.3h4.3c.3,0,.6-.1.9-.2c1.3-.5,1.9-2,1.4-3.3.1,0,.2-.1.3-.1c1.3-.5,1.9-2,1.4-3.3.9-.2,1.6-.9,1.8-1.8.4-1.3-.5-2.7-1.8-3.1.1-.3.2-.6.2-1c0-1.4-1.1-2.5-2.5-2.5L37,5c.6-.7.9-1.6.9-2.5c0-1.4-1.1-2.5-2.5-2.5h-11.2c-3.8,0-7.5,1.5-10.3,4.1-.3-.5-.8-.7-1.4-.7h-8.4v15.2h8.5c.4,0,.7-.1,1-.3l.6.6c.5.5,1.1.9,1.8,1.2.2,4.2,2.8,7.9,6.7,9.6v11h-4.1L26.9,53l9.3-12.4h-5.1v-11ZM12.6,16.9h-6.8v-11.8h6.8v11.8Zm30.4.8c0,.5-.4.8-.8.8h-4.3c0-.6-.1-1.1-.3-1.7h4.5c.5.1.9.5.9.9v0Zm1.7-3.3c0,.5-.4.8-.8.8h-6.8c-.3-.6-.6-1.2-.9-1.7h7.7c.4,0,.8.4.8.9v0ZM46.4,11v0c0,.5-.4.8-.8.9h-10.8c-.6-.6-1.3-1.2-2-1.6v-.1h12.7c.5-.1.9.3.9.8ZM43.8,6.8v0c.5,0,.8.4.8.8s-.4.8-.8.8h-11v-1.6h11ZM15.3,17.6l-1.1-1.1v-10.3c2.5-2.9,6.1-4.6,10-4.6h11.1c.5,0,.8.4.8.8c0,1.4-1.1,2.5-2.5,2.5h-1.8c-1.8,0-3.4.7-4.7,1.9L28.3,8c.8-.8,1.7-1.2,2.8-1.4v2.5c-.9-.4-1.9-.7-3-.8-6-.7-11.5,3.6-12.2,9.6-.1.1-.4-.1-.6-.3Zm2.3,1.8c0-5.1,4.2-9.3,9.3-9.3s9.3,4.2,9.3,9.3-4.2,9.3-9.3,9.3-9.3-4.1-9.3-9.3ZM32.8,42.2L27,50.1l-5.2-7.8h2.6v-12.2c1.7.4,3.4.4,5.1,0v12.1h3.3Z" fill="#fff"/><path d="M27.8,25.3v-1.7h1.7v-2.5c0-1.4-1.1-2.5-2.5-2.5-.5,0-.8-.4-.8-.8v-.8h.8c.5,0,.8.4.8.8v.8h1.7v-.8c0-1.1-.7-2-1.7-2.4v-1.8h-1.7v1.7h-1.7v2.5c0,1.4,1.1,2.5,2.5,2.5.5,0,.8.4.8.8v.9h-.8c-.5,0-.8-.4-.8-.8v-.8h-1.7v.8c0,1.1.7,2,1.7,2.4v1.8h1.7Z" fill="#fff"/></svg>