<svg id="epxHR7UyrnJ1" xmlns="http://www.w3.org/2000/svg" xmlns:xlink="http://www.w3.org/1999/xlink" viewBox="0 0 68.87 52.341" shape-rendering="geometricPrecision" text-rendering="geometricPrecision"><style><![CDATA[#epxHR7UyrnJ3_to {animation: epxHR7UyrnJ3_to__to 3000ms linear infinite normal forwards}@keyframes epxHR7UyrnJ3_to__to { 0% {transform: translate(237.264px,1151.06px)} 49.666667% {transform: translate(242.099355px,1151.060004px)} 100% {transform: translate(237.264px,1151.06px)}} #epxHR7UyrnJ4_to {animation: epxHR7UyrnJ4_to__to 3000ms linear infinite normal forwards}@keyframes epxHR7UyrnJ4_to__to { 0% {transform: translate(237.264px,1230.53px)} 49.666667% {transform: translate(242.099355px,1230.530005px)} 100% {transform: translate(237.264px,1230.53px)}} #epxHR7UyrnJ7_to {animation: epxHR7UyrnJ7_to__to 3000ms linear infinite normal forwards}@keyframes epxHR7UyrnJ7_to__to { 0% {transform: translate(197.529px,1270.26px)} 49.666667% {transform: translate(187.34375px,1270.26px)} 100% {transform: translate(197.529px,1270.26px)}} #epxHR7UyrnJ8_to {animation: epxHR7UyrnJ8_to__to 3000ms linear infinite normal forwards}@keyframes epxHR7UyrnJ8_to__to { 0% {transform: translate(197.529px,1111.32px)} 49.666667% {transform: translate(187.34375px,1111.32px)} 100% {transform: translate(197.529px,1111.32px)}}]]></style><g transform="translate(-333-1414)"><g id="epxHR7UyrnJ3_to" transform="translate(237.264,1151.06)"><path d="M127.9,297.377c0-.365376-.145214-.715773-.403667-.97404s-.608957-.403225-.974333-.40296h-21.145c-.760772,0-1.3775.616728-1.3775,1.3775s.616728,1.3775,1.3775,1.3775h21.145c.36555.000266.716204-.144831.974686-.403314s.40358-.609136.403314-.974686Z" transform="translate(0,0)" fill="#fff"/></g><g id="epxHR7UyrnJ4_to" transform="translate(237.264,1230.53)"><path d="M105.377,202.755h21.145c.760772,0,1.3775-.616728,1.3775-1.3775s-.616728-1.3775-1.3775-1.3775h-21.145c-.760772,0-1.3775.616728-1.3775,1.3775s.616728,1.3775,1.3775,1.3775Z" transform="translate(0,0)" fill="#fff"/></g><path d="M57.377,250.755h27.548c.760772,0,1.3775-.616728,1.3775-1.3775s-.616728-1.3775-1.3775-1.3775h-27.548c-.760772,0-1.3775.616728-1.3775,1.3775s.616728,1.3775,1.3775,1.3775Z" transform="translate(277 1190.79)" fill="#fff"/><path d="M268.1,203.631c.258303.258736.608898.404129.9745.404129s.716197-.145393.9745-.404129l1.148-1.148c.846594.447185,1.788573.683538,2.746.689c1.456808.065256,2.875635-.475473,3.919495-1.493757s1.619611-2.423265,1.590505-3.881243c.009803-.985302-.252491-1.9542-.758-2.8l6.935-6.935c.359223-.345446.503755-.858032.377907-1.340252s-.502434-.858806-.984655-.984655-.994806.018684-1.340252.377907l-6.985,6.985c-.84946-.448145-1.794585-.684512-2.755-.689-1.456808-.065256-2.875635.475473-3.919495,1.493757s-1.619611,2.423265-1.590505,3.881243c-.009803.985302.252491,1.9542.758,2.8l-1.092,1.09c-.260887.25858-.407647.610678-.407647.978s.14676.71942.407647.978Zm5.844-8.464c1.430473.071504,2.53935,1.276863,2.491537,2.708324s-1.234649,2.56014-2.666705,2.536032-2.580229-1.192097-2.579832-2.624356c-.027211-.72707.259294-1.430781.786616-1.932082s1.24462-.751857,1.969384-.687918Z" transform="matrix(.999996-.002984 0.002984 0.999996 101.755 1242.38)" fill="#f16136"/><g id="epxHR7UyrnJ7_to" transform="translate(197.529,1270.26)"><path d="M153.377,154.755h14.86c.760772,0,1.3775-.616728,1.3775-1.3775s-.616728-1.3775-1.3775-1.3775h-14.86c-.760772,0-1.3775.616728-1.3775,1.3775s.616728,1.3775,1.3775,1.3775Z" transform="translate(0,0)" fill="#fff"/></g><g id="epxHR7UyrnJ8_to" transform="translate(197.529,1111.32)"><path d="M169.615,345.377c0-.365203-.145076-.715448-.403314-.973686s-.608483-.403314-.973686-.403314h-14.86c-.760772,0-1.3775.616728-1.3775,1.3775s.616728,1.3775,1.3775,1.3775h14.86c.365376,0,.715773-.145214.97404-.403667s.403225-.608957.40296-.974333Z" transform="translate(0,0)" fill="#fff"/></g><path d="M232.042,109.356c2.904321-1.489752,6.089719-2.351434,9.349-2.529v2.682c0,.760772.616728,1.3775,1.3775,1.3775s1.3775-.616728,1.3775-1.3775v-2.669c4.485133.25327,8.803529,1.787597,12.443,4.421q.909.663,1.737,1.4l-1.923,1.923c-.519866.540599-.511487,1.39782.018847,1.928153s1.387554.538713,1.928153.018847l1.909-1.909c3.469033,3.939864,5.519615,8.927441,5.825,14.168h-2.655c-.760772,0-1.3775.616728-1.3775,1.3775s.616728,1.3775,1.3775,1.3775h2.671c-.20687,3.876341-1.381264,7.639147-3.416,10.945-.710155,1.143152-1.520331,2.221044-2.421,3.221l-1.909-1.909c-.540599-.519866-1.39782-.511487-1.928153.018847s-.538713,1.387554-.018847,1.928153l1.913,1.913c-3.944879,3.464214-8.931393,5.515539-14.172,5.83v-2.664c0-.760772-.616728-1.3775-1.3775-1.3775s-1.3775.616728-1.3775,1.3775v2.67c-3.259773-.169225-6.446724-1.027054-9.351-2.517-.672824-.326485-1.483238-.056268-1.825488.608676s-.091205,1.481499.565488,1.839324c3.664769,1.88965,7.727736,2.877022,11.851,2.88.046,0,.088.028.136.028.058018-.007541.115476-.018899.172-.034c6.845988-.064088,13.399176-2.785977,18.276-7.591.020655-.012324.04068-.025674.06-.04.017-.017.024-.043.04-.06c1.413654-1.407572,2.658389-2.975154,3.709-4.671c2.499734-4.061136,3.835044-8.731261,3.86-13.5.028126-.090799.046562-.18432.055-.279-.007801-.067655-.021179-.134549-.04-.2-.061503-6.823591-2.773967-13.35588-7.564-18.216-.019064-.032039-.039758-.06308-.062-.093-.032138-.024068-.065517-.046432-.1-.067-.920043-.927458-1.909588-1.783281-2.96-2.56-4.4409-3.212469-9.774094-4.958038-15.255-4.993-.061897-.019303-.125045-.034339-.189-.045-.080752.007913-.160493.023995-.238.048-4.087138.018172-8.11264.997913-11.751,2.86-.437293.225435-.721101.667038-.744515,1.158462s.217121.95801.631,1.224.938222.290973,1.375515.065538Z" transform="translate(132.931 1310)" fill="#fff"/></g></svg>