<svg id="eYFZwoGUhqC1" xmlns="http://www.w3.org/2000/svg" xmlns:xlink="http://www.w3.org/1999/xlink" viewBox="0 0 53 53" shape-rendering="geometricPrecision" text-rendering="geometricPrecision"><style><![CDATA[#eYFZwoGUhqC13_to {animation: eYFZwoGUhqC13_to__to 3000ms linear infinite normal forwards}@keyframes eYFZwoGUhqC13_to__to { 0% {transform: translate(702.22049px,331.915497px)} 50% {transform: translate(702.22049px,328.519183px)} 100% {transform: translate(702.22049px,331.915497px)}} #eYFZwoGUhqC17_to {animation: eYFZwoGUhqC17_to__to 3000ms linear infinite normal forwards}@keyframes eYFZwoGUhqC17_to__to { 0% {transform: translate(705.181509px,298.901016px)} 50% {transform: translate(710.639902px,304.359404px)} 100% {transform: translate(705.181509px,298.901016px)}} #eYFZwoGUhqC23_to {animation: eYFZwoGUhqC23_to__to 3000ms linear infinite normal forwards}@keyframes eYFZwoGUhqC23_to__to { 0% {transform: translate(746.693512px,304.607514px)} 50% {transform: translate(746.693512px,308.007822px)} 100% {transform: translate(746.693512px,304.607514px)}} #eYFZwoGUhqC29_ts {animation: eYFZwoGUhqC29_ts__ts 3000ms linear infinite normal forwards}@keyframes eYFZwoGUhqC29_ts__ts { 0% {transform: translate(724.457001px,317.405518px) scale(1,1)} 50% {transform: translate(724.457001px,317.405518px) scale(0.528811,0.528811)} 100% {transform: translate(724.457001px,317.405518px) scale(1,1)}}]]></style><g transform="translate(-697.960999-291.761)"><path d="M731.787,563.525l.506-2.021c-1.053544-.243105-2.091164-.550684-3.107-.921h-6.681v-.855c0-3.775,3.933-6.625,6.561-8.1l.278-3.867h-15.387v23.939h23.935v-6.02c-1.983112-.159215-3.901191-.781563-5.6-1.817Zm-16.12-7.216h1.71v1.71h-1.71Zm0,3.419h1.71v1.71h-1.71Zm0,3.419h1.71v1.71h-1.71Zm6.839,6.839h-6.839v-3.419h1.71v1.71h5.129Z" transform="translate(-14.291-228.645)" fill="none"/><path d="M815.084,608.568l.369-5.167c-1.918,1.207-4.124,3.019-4.607,5.167Z" transform="translate(-100.827-278.34)" fill="none"/><path d="M874.881,640.766c-2.84612-.027292-5.67298-.470305-8.391-1.315l-.112,1.585c5.506465,1.919801,11.500535,1.919801,17.007,0l-.113-1.586c-2.717911.845286-5.544809,1.288642-8.391,1.316Z" transform="translate(-150.424-310.538)" fill="none"/><path d="M899.406,679.641l-.219.876c3.116705,1.699522,6.883295,1.699522,10,0l-.22-.876c-3.159935.587386-6.401065.587386-9.561,0Z" transform="translate(-179.728-346.433)" fill="none"/><path d="M1042.563,608.568c-.483-2.149-2.689-3.96-4.605-5.167l.369,5.167Z" transform="translate(-303.67-278.34)" fill="none"/><path d="M918.231,380.216c-.478851-.455873-1.231149-.455873-1.71,0-.943299.944765-1.801611,1.970724-2.565,3.066h6.844c-.764734-1.095383-1.624383-2.121341-2.569-3.066Z" transform="translate(-192.92-78.698)" fill="none"/><path d="M953.957,313.907c.454756.124682.870409.362787,1.208.692c4.166402,4.166132,6.690794,9.694941,7.11,15.572l.107,1.525h15.51v-23.935h-23.935Zm22.226,9.241h-1.71v-1.71h1.71Zm0-3.419h-1.71v-1.71h1.71Zm0-3.419h-1.71v-1.71h1.71Zm-6.839-6.839h6.839v3.419h-1.71v-1.71h-5.129Z" transform="translate(-228.646-14.29)" fill="none"/><path d="M881.375,427.761h-9.006c-1.706494,2.971986-2.720341,6.290744-2.966,9.709l-.8,11.157c5.360771,1.81356,11.169229,1.81356,16.53,0l-.8-11.157c-.243273-3.417608-1.254368-6.736313-2.958-9.709Zm-5.358,10.258h1.71c1.3966.02758,3.776703,3.846501,5.131773,2.9915s-1.920444-12.42208-3.317044-12.3945L872.094,434.599l-.768463,10.259l4.692463,2.868061c.858999,0-1.333698-4.848301-1.814729-5.329332s-.751271-1.133449-.751271-1.813729h1.71c0,.22676.09008.444233.250424.604576s.377816.250424.604576.250424h1.71c.472203,0,.855-.382797.855-.855s-.382797-.855-.855-.855h-1.71c-.928279.018332-1.793997-.466411-2.263509-1.267407s-.469512-1.793189,0-2.594186s1.33523-1.285739,2.263509-1.267407v-1.71h1.71v1.71c1.416058,0,4.148-.664787,4.148.751271L878.581,437.163c0-.22676-.09008-.444233-.250424-.604576s-.377816-.250424-.604576-.250424h-1.71c-.305462,0-.587721.162962-.740452.4275s-.152731.590462,0,.855.43499.4275.740452.4275Z" transform="translate(-152.416-121.468)" fill="#f16136"/><path d="M1060.3,703.31l4.525,4.524h-2.211v1.71h6.338l-7.442-7.443Z" transform="translate(-323.622-366.493)" fill="#fff"/><path d="M1094.3,686.9l-8.8-8.8-1.21,1.21l8.8,8.8h-2.211v1.71h5.129v-5.129h-1.71Z" transform="translate(-345.058-345.058)" fill="#fff"/><g id="eYFZwoGUhqC13_to" transform="translate(702.22049,331.915497)"><g transform="translate(-702.220489,-331.915497)"><rect width="1.717" height="1.717" rx="0" ry="0" transform="translate(701.362 327.624)" fill="#fff"/><rect width="1.717" height="1.717" rx="0" ry="0" transform="translate(701.362 331.057)" fill="#fff"/><rect width="1.717" height="1.717" rx="0" ry="0" transform="translate(701.362 334.49)" fill="#fff"/></g></g><g id="eYFZwoGUhqC17_to" transform="translate(705.181509,298.901016)"><g transform="translate(-705.098999,-298.901001)"><g><path d="M713.957,349.934h1.71v-1.356l4.524,4.525l1.21-1.21-7.443-7.442Z" transform="translate(-14.29-47.06)" fill="#fff"/><path d="M759.3,313.995l-4.525-4.524h2.211v-1.71h-6.338l7.442,7.443Z" transform="translate(-47.06-14.29)" fill="#fff"/></g><path d="M699.666,294.679l8.8,8.8l1.21-1.21-8.8-8.8h2.211v-1.71h-5.129v5.129h1.71Z" fill="#fff"/></g></g><path d="M1115.74,657.27h-1.71v1.356l-4.524-4.525-1.21,1.21l7.443,7.442Z" transform="translate(-366.493-323.622)" fill="#fff"/><g id="eYFZwoGUhqC23_to" transform="translate(746.693512,304.607514)"><g transform="translate(-746.693512,-304.607514)"><rect width="1.717" height="1.717" rx="0" ry="0" transform="translate(745.835 300.316)" fill="#fff"/><rect width="1.717" height="1.717" rx="0" ry="0" transform="translate(745.835 303.749)" fill="#fff"/><rect width="1.717" height="1.717" rx="0" ry="0" transform="translate(745.835 307.182)" fill="#fff"/></g></g><path d="M1103.086,327.18h1.71v-3.419h-6.839v1.71h5.129Z" transform="translate(-357.258-28.581)" fill="#fff"/><path d="M731.666,723.761h-1.71v3.419h6.844v-1.71h-5.129Z" transform="translate(-28.581-385.839)" fill="#fff"/><g id="eYFZwoGUhqC29_ts" transform="translate(724.457001,317.405518) scale(1,1)"><g transform="translate(-724.457,-317.405518)"><path d="M916.522,479.18h1.71c.22676,0,.444233.09008.604576.250424s.250424.377816.250424.604576h1.71c0-.68028-.27024-1.332698-.751271-1.813729s-1.133449-.751271-1.813729-.751271v-1.71h-1.71v1.71c-1.3966.02758-2.514357,1.167628-2.514357,2.5645s1.117757,2.53692,2.514357,2.5645h1.71c.305462,0,.587721.162962.740452.4275s.152731.590462,0,.855-.43499.4275-.740452.4275h-1.71c-.22676,0-.444233-.09008-.604576-.250424s-.250424-.377816-.250424-.604576h-1.71c-.000265.680362.26989,1.332934.750978,1.814022s1.13366.751243,1.814022.750978v1.71h1.71v-1.71c1.3966-.02758,2.514357-1.167628,2.514357-2.5645s-1.117757-2.53692-2.514357-2.5645h-1.71c-.305462,0-.587721-.162962-.740452-.4275s-.152731-.590462,0-.855.43499-.4275.740452-.4275Z" transform="translate(-192.92-164.339)" fill="#fff"/></g></g><path d="M750.957,291.761h-27.357v7.856c-.454756.124682-.870409.362787-1.208.692-4.167211,4.165777-6.692342,9.694651-7.112,15.572l-.107,1.525h-17.216v27.355h27.355v-7.73c1.98331-.15822,3.901615-.780641,5.6-1.817l.5-.333-.507-2.021c1.053326-.244342,2.090892-.552239,3.107-.922h6.688v-.855c0-3.776-3.933-6.625-6.563-8.1l-.276-3.867h17.1Zm-12.064,38.468h-4.237l-.369-5.168c1.913,1.208,4.123,3.019,4.606,5.168ZM723.6,301.518c.478851-.455873,1.231149-.455873,1.71,0c.94291.944845,1.800883,1.970799,2.564,3.066h-6.839c.763381-1.095283,1.621694-2.121242,2.565-3.066Zm-7.41,25.641l.8-11.157c.245625-3.418262,1.259474-6.737028,2.966-9.709h9.006c1.705412,2.971596,2.718556,6.289607,2.964,9.707l.8,11.157c-5.360771,1.81356-11.169229,1.81356-16.53,0Zm7.41,15.893h-23.933v-23.936h15.387l-.278,3.867c-2.628,1.476-6.561,4.325-6.561,8.1v.855h6.685c1.015824.370352,2.053446.677931,3.107.921l-.506,2.021.5.334c1.698825,1.035403,3.616896,1.657748,5.6,1.817Zm-8.976-17.99l-.369,5.168h-4.235c.48-2.15,2.688-3.961,4.606-5.169Zm9.831,10.3c-1.743511-.026698-3.456299-.463116-5-1.274l.219-.876c3.158632.586936,6.398368.586936,9.557,0l.22.876c-1.542441.808058-3.252921,1.243042-4.994,1.27Zm0-3.419c-2.89089-.036025-5.758554-.521841-8.5-1.44l.112-1.585c5.456519,1.753934,11.325481,1.753934,16.782,0l.113,1.586c-2.743316.916821-5.612729,1.400623-8.505,1.434Zm24.79-14.532h-15.51l-.107-1.525c-.419206-5.877059-2.943598-11.405868-7.11-15.572-.337618-.329177-.753261-.567278-1.208-.692v-6.146h23.935Z" fill="#fff"/></g></svg>