<?xml version="1.0" encoding="utf-8"?>
<!-- Generator: Adobe Illustrator 27.2.0, SVG Export Plug-In . SVG Version: 6.00 Build 0)  -->
<svg version="1.1" id="Layer_1" xmlns="http://www.w3.org/2000/svg" xmlns:xlink="http://www.w3.org/1999/xlink" x="0px" y="0px"
	 viewBox="0 0 700 700" style="enable-background:new 0 0 700 700;" xml:space="preserve">
<style type="text/css">
	.st0{fill:#0C0C0C;}
</style>
<path class="st0" d="M623.4,286.4c0-0.5,0-1,0-1.5c0-0.4,0-0.8-0.1-1.1c-0.1-0.5-0.3-1-0.4-1.4c-0.1-0.4-0.2-0.7-0.4-1.1
	c0,0,0-0.1,0-0.1c-0.3-0.5-0.6-0.9-0.9-1.3c-0.2-0.2-0.3-0.5-0.5-0.7L544,193.6c-1.8-2-4.4-3.2-7.1-3.2H424.7h-0.1H291.2h-0.2H178.9
	c-2.7,0-5.3,1.1-7.1,3.2L94.7,279c-0.2,0.2-0.3,0.5-0.5,0.7c-0.3,0.4-0.7,0.8-0.9,1.3c0,0,0,0.1,0,0.1c-0.2,0.4-0.3,0.7-0.4,1.1
	c-0.2,0.5-0.4,0.9-0.4,1.4c-0.1,0.4,0,0.7-0.1,1.1c0,0.5-0.1,1,0,1.5c0,0.4,0.2,0.7,0.2,1.1c0.1,0.5,0.2,1,0.4,1.5
	c0,0.1,0,0.2,0.1,0.3c0.1,0.3,0.3,0.5,0.5,0.8c0.2,0.3,0.3,0.6,0.5,0.9l256.1,357c0.1,0.1,0.2,0.2,0.3,0.3c0.3,0.4,0.6,0.7,1,1.1
	c0.2,0.2,0.3,0.3,0.5,0.5c0.1,0.1,0.1,0.1,0.2,0.2c0.3,0.3,0.7,0.4,1,0.7c0.2,0.1,0.3,0.2,0.5,0.3c0.3,0.1,0.5,0.2,0.8,0.3
	c0.2,0.1,0.4,0.1,0.6,0.2c0.1,0,0.3,0.1,0.4,0.1c0.1,0,0.1,0.1,0.2,0.1c0,0,0,0,0,0c0.7,0.2,1.5,0.3,2.2,0.3c0,0,0,0,0,0h0h0
	c0,0,0,0,0,0c0.7,0,1.4-0.1,2.2-0.3c0,0,0,0,0,0c0.1,0,0.1-0.1,0.2-0.1c0.1,0,0.3-0.1,0.4-0.1c0.2-0.1,0.4-0.1,0.6-0.2
	c0.3-0.1,0.6-0.2,0.8-0.3c0.2-0.1,0.4-0.2,0.5-0.3c0.4-0.2,0.7-0.4,1-0.7c0.1-0.1,0.1-0.1,0.2-0.2c0.2-0.1,0.3-0.3,0.5-0.5
	c0.4-0.3,0.7-0.7,1-1.1c0.1-0.1,0.2-0.2,0.3-0.3l256.1-357c0.2-0.3,0.3-0.6,0.5-0.9c0.1-0.3,0.4-0.5,0.5-0.8c0-0.1,0-0.2,0.1-0.3
	c0.2-0.5,0.3-1,0.4-1.5C623.2,287.1,623.4,286.7,623.4,286.4L623.4,286.4z M592.5,275.9H450.9l-14.4-66.3h96.1L592.5,275.9z
	 M284.4,275.9l14.4-66.3H417l14.4,66.3H284.4z M431.1,295l-73.3,306.4L284.6,295L431.1,295z M183.1,209.6h96.1l-14.4,66.3H123.3
	L183.1,209.6z M265,295l72.3,302.4L120.4,295H265z M378.5,597.4L450.7,295h144.6L378.5,597.4z M348.3,120.6V69.7
	c0-5.3,4.3-9.5,9.5-9.5c5.3,0,9.5,4.3,9.5,9.5v50.9c0,5.3-4.3,9.5-9.5,9.5C352.6,130.1,348.3,125.8,348.3,120.6z M448.5,116.5
	l23.3-45.2c2.4-4.7,8.2-6.5,12.9-4.1c4.7,2.4,6.5,8.2,4.1,12.9l-23.3,45.2c-1.7,3.3-5,5.2-8.5,5.2c-1.5,0-3-0.3-4.4-1.1
	C447.9,126.9,446.1,121.1,448.5,116.5L448.5,116.5z M540.8,144.8c-4-3.4-4.5-9.5-1-13.5l33.1-38.6c3.4-4,9.5-4.5,13.5-1
	c4,3.4,4.5,9.5,1,13.5l-33.1,38.6c-1.9,2.2-4.6,3.3-7.2,3.3C544.8,147.1,542.6,146.4,540.8,144.8L540.8,144.8z M227,80
	c-2.4-4.7-0.6-10.4,4.1-12.9c4.7-2.4,10.4-0.6,12.9,4.1l23.3,45.2c2.4,4.7,0.6,10.4-4.1,12.9c-1.4,0.7-2.9,1.1-4.4,1.1
	c-3.5,0-6.8-1.9-8.5-5.2L227,80z M128.4,105.2c-3.4-4-3-10,1-13.5c4-3.4,10-3,13.5,1l33.1,38.6c3.4,4,3,10-1,13.5
	c-1.8,1.6-4,2.3-6.2,2.3c-2.7,0-5.4-1.1-7.2-3.3L128.4,105.2z"/>
</svg>
