<svg id="Group_18" data-name="Group 18" xmlns="http://www.w3.org/2000/svg" width="172.324" height="149.853" viewBox="0 0 172.324 149.853">
  <path id="Path_88" data-name="Path 88" d="M585.453,1784.217s0-5.784-1.052-6.309-4.469-5-5.258-5a19.732,19.732,0,0,1-3.943,0,35.648,35.648,0,0,1-5.521-2.629c-.789-.526-1.052-3.944-2.629-6.047a37.635,37.635,0,0,1-4.206-6.047c-2.1-3.681-3.418-6.31-4.469-8.15s-1.84-2.892-2.629-4.469-1.577-2.366-1.84-3.155-1.577-2.629-2.892-5.258a46.384,46.384,0,0,1-2.366-5.521,18.861,18.861,0,0,0-1.84-2.892s-1.315.263,0-1.84.526-2.366,1.84-3.155,4.206,1.84,2.366-3.681a28.507,28.507,0,0,0-4.206-8.413s-2.629-.789,0-3.418,24.975-42.326,24.975-42.326h6.31l6.31-2.892,1.052-5.784,3.155-1.314h55.471l1.577,4.469,5.784,5.521h3.943l2.629,1.577,24.975,44.167-2.629,5.258v6.835l2.629,3.155-24.975,46.007H649.6l-3.943,5-1.577,3.943-5.521,1.314Z" transform="translate(-528.596 -1644.169)" fill="#f16136"/>
  <path id="Path_89" data-name="Path 89" d="M688.652,1802.774l-14.467,3.578s-5.289.467-6.222,0a25.913,25.913,0,0,0-4.978-1.244c-1.089-.156-6.845-2.333-7.622-2.333a4.37,4.37,0,0,1-2.645-1.556,35.686,35.686,0,0,0-3.578-2.644c-1.244-.934-2.8-2.178-3.889-3.111a38,38,0,0,1-3.422-3.111,22.524,22.524,0,0,1-3.578-4.045,41,41,0,0,1-3.267-6.845c-1.244-3.267-1.4-3.889-2.489-6.533s-1.089-1.556-1.556-4.511a20.27,20.27,0,0,1,0-5.756l4.045-15.829,2.19-5.258,11.966-10.779,3.578-2.892,12.324-3.68h13.671l7.887,3.68,9.464,4.732,3.155,3.155,4.732,5.784,3.681,5.258,3.418,8.15v17.947c0,.982-3.681,7.554-3.418,8.343s-3.155,5.521-3.681,6.572a64.48,64.48,0,0,1-4.732,5.618l-9.464,7.311Z" transform="translate(-585.049 -1690.808)" fill="#fff"/>
  <g id="Group_10" data-name="Group 10" transform="translate(0 0)">
    <path id="Path_38" data-name="Path 38" d="M217.724,217H159.55a2.694,2.694,0,0,1-2.641-3.217,7.169,7.169,0,0,0,.141-1.4,6.946,6.946,0,0,0-6.938-6.939,6.606,6.606,0,0,0-3.158.773,2.69,2.69,0,0,1-3.6-1.027l-26.069-45.138a2.693,2.693,0,0,1,.985-3.678,6.948,6.948,0,0,0,0-12.03,2.693,2.693,0,0,1-.984-3.677l26.583-46.037a2.688,2.688,0,0,1,3.457-1.1,6.728,6.728,0,0,0,2.792.589,6.946,6.946,0,0,0,6.938-6.939,2.819,2.819,0,0,1,.5-2.369,2.763,2.763,0,0,1,2.131-1.094h57.914a2.694,2.694,0,0,1,2.615,3.337,7,7,0,0,0,6.952,7.065,6.73,6.73,0,0,0,2.793-.589,2.7,2.7,0,0,1,3.457,1.1l26.583,46.037a2.693,2.693,0,0,1-.985,3.677,6.948,6.948,0,0,0,0,12.03,2.693,2.693,0,0,1,.985,3.678l-26.069,45.138a2.693,2.693,0,0,1-3.6,1.027,6.606,6.606,0,0,0-3.158-.773,6.946,6.946,0,0,0-6.938,6.939,7.122,7.122,0,0,0,.139,1.4,2.693,2.693,0,0,1-2.64,3.222Zm-55.313-5.385h52.452a12.327,12.327,0,0,1,15.555-11.121l23.715-41.065a12.329,12.329,0,0,1,0-18.145l-24.3-42.075A12.34,12.34,0,0,1,214.989,89.1h-52.7a12.34,12.34,0,0,1-14.849,10.112l-24.3,42.075a12.329,12.329,0,0,1,0,18.145l23.715,41.065a12.327,12.327,0,0,1,15.554,11.123Z" transform="translate(-102.475 -74.853)"/>
    <path id="Path_39" data-name="Path 39" d="M525.089,269.747a12.324,12.324,0,1,1,12.324-12.323,12.454,12.454,0,0,1-12.324,12.323Zm0-19.262a6.939,6.939,0,1,0,6.939,6.938,6.975,6.975,0,0,0-6.939-6.938Z" transform="translate(-365.09 -181.921)"/>
    <path id="Path_40" data-name="Path 40" d="M420.17,82.037a12.338,12.338,0,0,1-12.323-12.324,6.1,6.1,0,0,1,.086-1.15,12.308,12.308,0,1,1,17.235,12.414,12.112,12.112,0,0,1-5,1.061Zm0-19.263a6.9,6.9,0,0,0-6.881,6.358,2.794,2.794,0,0,1-.071.454,7,7,0,0,0,6.952,7.065,6.733,6.733,0,0,0,2.793-.589,6.937,6.937,0,0,0-2.793-13.288Z" transform="translate(-295.484 -57.39)"/>
    <path id="Path_41" data-name="Path 41" d="M191.247,82.037a12.141,12.141,0,0,1-5.041-1.081,12.317,12.317,0,1,1,17.277-12.4,6.064,6.064,0,0,1,.087,1.156,12.339,12.339,0,0,1-12.323,12.324Zm0-19.263a6.937,6.937,0,0,0-2.836,13.268,6.783,6.783,0,0,0,2.836.609,6.946,6.946,0,0,0,6.938-6.939l0-.221a1.579,1.579,0,0,1-.055-.359,6.9,6.9,0,0,0-6.88-6.358Z" transform="translate(-143.609 -57.39)"/>
    <path id="Path_42" data-name="Path 42" d="M420.169,454.034a12.311,12.311,0,0,1-12.08-9.878,12.474,12.474,0,0,1-.243-2.447,12.338,12.338,0,0,1,12.323-12.325,12.358,12.358,0,0,1,12.324,12.325,12.339,12.339,0,0,1-12.324,12.324Zm0-19.265a6.946,6.946,0,0,0-6.938,6.939,7.144,7.144,0,0,0,.139,1.4,6.939,6.939,0,1,0,10.005-7.537,6.67,6.67,0,0,0-3.207-.8Z" transform="translate(-295.483 -304.181)"/>
    <path id="Path_43" data-name="Path 43" d="M191.247,454.035a12.338,12.338,0,0,1-12.324-12.324,12.211,12.211,0,0,1,6.67-10.937,12.03,12.03,0,0,1,5.655-1.387A12.338,12.338,0,0,1,203.57,441.71a12.578,12.578,0,0,1-.243,2.451,12.312,12.312,0,0,1-12.08,9.874Zm0-19.265a6.6,6.6,0,0,0-3.158.773,6.873,6.873,0,0,0-3.781,6.166,6.94,6.94,0,0,0,13.736,1.406,7.241,7.241,0,0,0,.141-1.406,6.946,6.946,0,0,0-6.938-6.939Z" transform="translate(-143.61 -304.182)"/>
    <path id="Path_44" data-name="Path 44" d="M86.327,269.745a12.312,12.312,0,1,1,6.161-1.646,12.472,12.472,0,0,1-6.161,1.646Zm0-19.262a6.921,6.921,0,1,0,3.467.921,6.947,6.947,0,0,0-3.467-.921Z" transform="translate(-74.003 -181.919)"/>
    <path id="Path_45" data-name="Path 45" d="M245.081,238.163a43.081,43.081,0,1,1,43.081-43.081A43.131,43.131,0,0,1,245.081,238.163Zm0-80.778a37.7,37.7,0,1,0,37.7,37.7A37.739,37.739,0,0,0,245.081,157.385Z" transform="translate(-158.92 -120.157)"/>
    <path id="Path_46" data-name="Path 46" d="M264.3,298.064a2.69,2.69,0,0,1-2.434-1.538,21.031,21.031,0,0,1-1.943-7.038c-.043-.455-.076-.923-.11-1.4-.139-1.972-.284-4.011-1.257-4.677-.68-.464-1.985-.4-3.366-.339-2.009.094-4.5.209-6.672-1.287a2.692,2.692,0,0,1-1.137-1.844c-.589-4.226,1.877-8.613,6.767-12.039.759-.531,1.545-1.04,2.332-1.548,2.354-1.52,4.578-2.954,5.841-4.971a3.508,3.508,0,0,0,.669-2.21,4.867,4.867,0,0,0-2.071-2.657l-.218-.172c-1.463-1.15-1.941-1.441-2.506-1.307a3.4,3.4,0,0,0-2.08,1.407,5.646,5.646,0,0,0-.348,1,8.244,8.244,0,0,1-1.308,2.852c-1.448,1.872-3.625,2.411-5.563,2.691a53.858,53.858,0,0,1-6.912.547,4.719,4.719,0,0,1-2.1-.366,4.892,4.892,0,0,1-2.313-2.492c-1.581-3.166-3.479-5.283-5.644-6.292-1.947-.91-4.9-.818-6.267.912a11.968,11.968,0,0,0-.727,1.081c-.846,1.349-2.006,3.2-4.308,3.784a7.4,7.4,0,0,1-3.007.029c-.246-.035-.49-.075-.735-.087-1.165-.084-2.394.635-3.944,1.545l-4.716,2.769a2.693,2.693,0,0,1-2.729-4.644l4.72-2.77c1.739-1.019,4.137-2.385,6.929-2.28.413.02.83.076,1.245.137a4.589,4.589,0,0,0,.914.082,5.925,5.925,0,0,0,1.072-1.428,17.664,17.664,0,0,1,1.07-1.567c2.775-3.489,8.259-4.541,12.761-2.443,3.261,1.52,5.993,4.425,8.12,8.634a48.668,48.668,0,0,0,5.8-.481c1.457-.21,1.93-.472,2.071-.654a4.6,4.6,0,0,0,.407-1.092,10.7,10.7,0,0,1,.729-1.946,8.646,8.646,0,0,1,5.606-4.168c3.2-.76,5.447,1.016,7.094,2.314,2.633,2.067,3.967,4.069,4.287,6.289a8.676,8.676,0,0,1-1.437,5.843c-1.9,3.029-4.738,4.862-7.483,6.633-.731.472-1.459.941-2.163,1.433-.983.689-3.81,2.86-4.435,5.4a17.243,17.243,0,0,0,2.138-.014c2-.09,4.487-.206,6.654,1.273,3.122,2.134,3.383,5.8,3.591,8.742.03.43.061.855.1,1.268a15.644,15.644,0,0,0,1.446,5.239,2.693,2.693,0,0,1-2.431,3.847Z" transform="translate(-160.357 -184.133)"/>
    <path id="Path_47" data-name="Path 47" d="M369.246,216.934a2.693,2.693,0,0,1-2.363-3.979c.292-.538.721-1.583,1.2-2.736a29.638,29.638,0,0,1,2.866-5.852,6.522,6.522,0,0,1,2.363-1.738c-.152-.272-.3-.544-.418-.818-1.143-2.652-.187-5.339.384-6.945a7.271,7.271,0,0,1,1.86-3.112,7.366,7.366,0,0,1,3.255-1.505l1.414-.346c1.006-.249,2.011-.5,3.017-.721A2.692,2.692,0,0,1,384,194.44c-.966.216-1.931.454-2.9.692l-1.417.348a4.476,4.476,0,0,0-.973.309,7.723,7.723,0,0,0-.356.888c-.284.8-.816,2.3-.519,2.982.067.154.171.325.268.5a5.211,5.211,0,0,1,.838,3.985,5.132,5.132,0,0,1-3.15,3.275,5.308,5.308,0,0,0-.678.364,45.53,45.53,0,0,0-2.058,4.522c-.57,1.362-1.094,2.591-1.44,3.226a2.689,2.689,0,0,1-2.368,1.407Z" transform="translate(-268.09 -144.783)"/>
  </g>
</svg>
