<svg xmlns="http://www.w3.org/2000/svg" width="106.5" height="71" viewBox="0 0 106.5 71">
  <g id="Group_47" data-name="Group 47" transform="translate(0 -4)">
    <path id="Path_178" data-name="Path 178" d="M93.188,4H13.313A13.329,13.329,0,0,0,0,17.313v35.5A13.329,13.329,0,0,0,13.313,66.125H47.148L75.438,75l-2.09-8.875h19.84A13.329,13.329,0,0,0,106.5,52.813v-35.5A13.329,13.329,0,0,0,93.188,4Zm4.438,48.813a4.445,4.445,0,0,1-4.437,4.438H62.152l1.083,4.619L49.811,57.658l-1.3-.408h-35.2a4.445,4.445,0,0,1-4.437-4.437v-35.5a4.445,4.445,0,0,1,4.438-4.437H93.188a4.445,4.445,0,0,1,4.438,4.438Z" fill="#fff"/>
    <path id="Path_179" data-name="Path 179" d="M35.159,7a3.34,3.34,0,0,0-3.066,2.055A64.062,64.062,0,0,0,28.036,26.5a103.468,103.468,0,0,1-3.479-12.385,3.326,3.326,0,0,0-2.938-2.663,3.288,3.288,0,0,0-3.395,2.055L12.15,28.363a117.648,117.648,0,0,1-2.5-18.172A3.327,3.327,0,0,0,3,10.467C3.568,24.019,7.93,39.435,8.116,40.083a3.33,3.33,0,0,0,6.284.346l6.217-15.185c1.682,5.374,4.189,11.777,7.495,15.984A3.343,3.343,0,0,0,30.73,42.5a3.381,3.381,0,0,0,1.083-.182,3.34,3.34,0,0,0,2.245-3.146c0-11.3,1.487-21.1,4.176-27.57a3.315,3.315,0,0,0-1.793-4.34A3.267,3.267,0,0,0,35.159,7Z" transform="translate(10.317 10.311)" fill="#f16136"/>
    <path id="Path_180" data-name="Path 180" d="M23.886,8.155A7.66,7.66,0,0,0,22.342,8c-4.855.018-9.368,4.717-10.721,11.387-.856,4.242-.209,8.516,1.735,11.435a8.16,8.16,0,0,0,5.214,3.656,7.753,7.753,0,0,0,1.491.146c4.859,0,9.425-4.682,10.783-11.378.856-4.242.209-8.516-1.735-11.435A8.166,8.166,0,0,0,23.886,8.155Zm.43,13.774c-.83,4.118-3.279,6.226-4.437,6.022a1.8,1.8,0,0,1-.976-.812,8.985,8.985,0,0,1-.745-6.434c.794-3.936,3.106-6.039,4.264-6.039a1.032,1.032,0,0,1,.164.018,1.8,1.8,0,0,1,.985.812A8.985,8.985,0,0,1,24.317,21.929Z" transform="translate(38.674 13.75)" fill="#f16136"/>
    <path id="Path_181" data-name="Path 181" d="M34.359,11.812a8.166,8.166,0,0,0-5.223-3.656A7.66,7.66,0,0,0,27.592,8c-4.85.018-9.363,4.717-10.721,11.387-.856,4.242-.209,8.516,1.735,11.435a8.16,8.16,0,0,0,5.214,3.656,7.753,7.753,0,0,0,1.491.146c4.859,0,9.425-4.682,10.783-11.378C36.951,19,36.3,14.732,34.359,11.812ZM29.567,21.929c-.83,4.118-3.31,6.226-4.438,6.022a1.8,1.8,0,0,1-.976-.812,8.985,8.985,0,0,1-.745-6.434c.794-3.936,3.106-6.039,4.264-6.039a1.032,1.032,0,0,1,.164.018,1.8,1.8,0,0,1,.985.812A8.985,8.985,0,0,1,29.567,21.929Z" transform="translate(56.72 13.75)" fill="#f16136"/>
  </g>
</svg>
