<svg xmlns="http://www.w3.org/2000/svg" width="71" height="71" viewBox="0 0 71 71">
  <g id="Group_48" data-name="Group 48" transform="translate(-4 -4)">
    <path id="Path_182" data-name="Path 182" d="M39.5,4A35.5,35.5,0,1,0,75,39.5,35.54,35.54,0,0,0,39.5,4Zm0,65.675A30.175,30.175,0,1,1,69.675,39.5,30.134,30.134,0,0,1,39.5,69.675Z" fill="#fff"/>
    <path id="Path_183" data-name="Path 183" d="M52.789,34.152a14.636,14.636,0,0,0-2.361-7.97c-1.473-2.361-2.8-4.438-2.8-6.8a5.854,5.854,0,0,1,2.3-4.546A26.592,26.592,0,0,0,11.98,19.7c2.84-.124,6.266-.46,6.266-.46h.16a1.185,1.185,0,0,1,.142,2.361s-1.615.142-3.39.3L25.772,53.483l6.354-19.048L27.547,22.046c-1.615-.142-3.089-.3-3.089-.3-1.491,0-1.331-2.361.142-2.361h.142s4.881.444,7.668.444c3.106,0,7.828-.444,7.828-.444h.142a1.185,1.185,0,0,1,.16,2.361s-1.633.16-3.39.3L47.624,53.324l2.946-9.729A27.628,27.628,0,0,0,52.789,34.152Z" transform="translate(6.184 3.875)" fill="#f16136"/>
    <path id="Path_184" data-name="Path 184" d="M42.52,19.1a35.645,35.645,0,0,1-2.164,7.952L32.58,49.632A26.639,26.639,0,0,0,42.52,19.1Z" transform="translate(22.15 11.703)" fill="#f16136"/>
    <path id="Path_185" data-name="Path 185" d="M9,27.341A26.592,26.592,0,0,0,21.105,49.653L10.138,19.689A26,26,0,0,0,9,27.341Z" transform="translate(3.875 12.159)" fill="#f16136"/>
    <path id="Path_186" data-name="Path 186" d="M19.59,48.343a26.048,26.048,0,0,0,7.828,1.189,26.623,26.623,0,0,0,8.362-1.349L27.4,25.41Z" transform="translate(12.082 16.593)" fill="#f16136"/>
  </g>
</svg>
